<?xml version="1.0" encoding="utf-8"?>
<!-- Generator: Adobe Illustrator 25.3.1, SVG Export Plug-In . SVG Version: 6.00 Build 0)  -->
<svg version="1.1" id="Layer_1" xmlns="http://www.w3.org/2000/svg" xmlns:xlink="http://www.w3.org/1999/xlink" x="0px" y="0px"
	 viewBox="0 0 80 80" style="enable-background:new 0 0 80 80;" xml:space="preserve">
<style type="text/css">
	.st0{opacity:0.6;fill:#877D63;}
	.st1{fill:#914E44;}
	.st2{fill:#C18D5F;}
	.st3{fill:#9B5352;}
	.st4{opacity:0.53;fill:#C18D5F;}
	.st5{fill:#DFBCAC;}
	.st6{fill:#A0001B;}
	.st7{fill:#FFFFFF;}
	.st8{fill:#EC6851;}
	.st9{fill:#50312B;}
	.st10{fill:#7E524B;}
	.st11{fill:#69342C;}
	.st12{fill:#65686D;}
	.st13{opacity:0.3;fill:#272724;}
	.st14{fill:#4D4D4C;}
	.st15{fill:#F8EEE7;}
	.st16{fill:#DCDCDC;}
	.st17{fill:#606060;}
	.st18{fill:#522624;}
	.st19{fill:#B02227;}
	.st20{fill:#231F20;}
	.st21{fill:#D2D5D6;}
	.st22{fill:#EBEBEB;}
	.st23{fill:#272724;}
	.st24{fill:#FDF6F2;}
	.st25{fill:#CBCBCB;}
	.st26{fill:#8FA7AE;}
	.st27{fill:#455456;}
	.st28{opacity:0.6;}
	.st29{opacity:0.6;fill:#97908E;}
	.st30{fill:#8FABAF;}
</style>
<g>
	<path class="st0" d="M219.4,490.7c1.2-1.2,2.1-2.7,2.8-4.3c0.8-1.7,1.3-3.6,1.3-5.5c0-1.1-0.1-2.4-0.6-3.4c0.1,0,0.1-0.1,0.1-0.2
		c0-0.6-0.2-1.1-0.4-1.5c0.1,0.1,0.2,0.1,0.3,0.2c0.1,0,0.2,0,0.2-0.1c0.3-0.5-0.4-1.2-0.7-1.5c-0.4-0.4-0.8-0.7-1.2-1
		c0.1,0,0.3,0.1,0.4,0.1c0.1,0,0.3-0.1,0.2-0.2c-3-2.8-7.7-2.8-11.4-1.5c-3.8,1.3-7,4.2-8.5,8c-0.2,0.5-0.4,1.1-0.6,1.7
		c-0.8-0.3-1.5-0.5-2.3-0.7c-1.2-0.3-2.5-0.8-3.8-0.6c0,0,0,0,0,0c0.3-0.1,0.6-0.2,1-0.3c0.1,0,0.3-0.2,0.1-0.3
		c-1-0.4-2.1-0.3-3.1-0.3c-0.5,0-1.1,0-1.6,0.1c-0.4,0.1-0.7,0.2-1.1,0.3c0.4-0.4,0.8-0.8,1.3-0.9c0.2,0,0.3-0.3,0.1-0.4
		c-0.7-0.1-1.5,0.2-2.1,0.5c-0.1,0-0.1,0.1-0.2,0.1c0,0,0-0.1,0-0.1c0-0.2,0.1-0.5,0.2-0.7c0.1-0.2,0.2-0.4,0.2-0.6
		c0-0.1-0.1-0.1-0.2-0.1c-0.6,0.3-1,0.7-1.4,1.2c-0.1,0.2-0.2,0.4-0.3,0.6c-0.2-0.2-0.5-0.3-0.7-0.4c-0.6-0.3-1.4-0.6-2.1-0.5
		c-0.3,0-0.1,0.3,0.1,0.4c0.5,0.2,0.9,0.6,1.3,0.9c-0.4-0.1-0.7-0.2-1.1-0.3c-0.5-0.1-1.1-0.1-1.6-0.1c-1,0-2.1-0.1-3.1,0.3
		c-0.2,0.1,0,0.3,0.1,0.3c0.3,0.1,0.6,0.2,1,0.3c0,0,0,0,0,0c-1.3-0.2-2.6,0.3-3.8,0.6c-0.8,0.2-1.6,0.5-2.3,0.7
		c-0.1-0.5-0.3-0.9-0.5-1.4c-1.5-3.7-4.7-6.6-8.5-8c-3.7-1.3-8.4-1.4-11.4,1.5c-0.1,0.1,0.1,0.3,0.2,0.2c0.1,0,0.3-0.1,0.4-0.1
		c-0.4,0.3-0.8,0.7-1.2,1c-0.3,0.3-1,1-0.7,1.5c0,0.1,0.1,0.1,0.2,0.1c0.1,0,0.2-0.1,0.3-0.2c-0.3,0.4-0.5,0.9-0.4,1.5
		c0,0.1,0.1,0.1,0.1,0.2c-0.5,1-0.6,2.3-0.6,3.4c0,1.9,0.5,3.7,1.3,5.5c0.7,1.6,1.6,3,2.8,4.3c1.2,1.2,2.6,2.3,4.2,2.9
		c0.1,0.1,0.3,0.1,0.4,0.2c-0.2,0.6-0.5,1.2-0.7,1.9c-0.3,1.2-0.6,2.4-0.8,3.6c-0.1,1.2-0.2,2.3-0.2,3.5c-1.2,0.1-2.3,0.4-3.2,1.2
		c-1,0.9-1.5,2.1-1.8,3.4c0,0.1,0.2,0.2,0.2,0.1c0.1-0.1,0.2-0.3,0.4-0.4c-0.1,0.2-0.3,0.4-0.4,0.5c-0.3,0.5-0.6,1.2-0.6,1.8
		c0,0.1,0.2,0.3,0.3,0.2c0,0,0.1-0.1,0.1-0.1c-0.7,1.5-0.6,3.3-0.2,4.9c0.5,2.3,1.5,4.4,2.9,6.2c1.5,2,3.4,3.7,5.5,5
		c1.1,0.7,2.2,1.3,3.3,1.8c1.3,0.6,2.6,1,4,1.4c0.8,0.2,1.6,0.4,2.4,0.7c0.8,0.2,1.6,0.4,2.3,0.6c1.4,0.3,2.8,0.4,4.2,0.7
		c0.1,0.1,0.3,0.1,0.4,0.2c0.7,0.3,1.4,0.5,2,0.6c0.1,0,0.2,0,0.3,0c1.3,1.3,3.3,2,5.1,2.2c2.7,0.3,5.7-0.4,7.8-2.2
		c0.2-0.2,0.4-0.3,0.5-0.5c0.3-0.1,0.7-0.2,1-0.4c1.3-0.3,2.6-0.4,3.9-0.6c0.8-0.1,1.6-0.4,2.3-0.6c0.8-0.2,1.6-0.4,2.4-0.7
		c1.3-0.4,2.7-0.8,4-1.4c1.2-0.5,2.3-1.1,3.3-1.8c2.1-1.3,4-3,5.5-5c1.4-1.8,2.4-4,2.9-6.2c0.3-1.6,0.4-3.4-0.2-4.9
		c0,0,0.1,0.1,0.1,0.1c0.1,0.1,0.3-0.1,0.3-0.2c-0.1-0.6-0.3-1.2-0.6-1.8c-0.1-0.2-0.2-0.4-0.4-0.5c0.1,0.1,0.3,0.2,0.4,0.4
		c0.1,0.1,0.3,0,0.2-0.1c-0.3-1.3-0.8-2.5-1.8-3.4c-0.9-0.8-2-1.1-3.2-1.2c0-1.2-0.1-2.4-0.2-3.5c-0.2-1.2-0.4-2.4-0.8-3.6
		c-0.2-0.7-0.5-1.5-0.8-2.2c0.2-0.1,0.3-0.1,0.5-0.2C216.8,492.9,218.2,491.9,219.4,490.7z"/>
	<g>
		<g>
			<g>
				<path class="st1" d="M220.8,475.6c0.1,0,0.1-0.1,0.1-0.2c0-0.6-0.2-1.1-0.4-1.5c0.1,0.1,0.2,0.1,0.3,0.2c0.1,0,0.2,0,0.2-0.1
					c0.3-0.5-0.4-1.2-0.7-1.5c-0.4-0.4-0.8-0.7-1.2-1c0.1,0,0.3,0.1,0.4,0.1c0.1,0,0.3-0.1,0.2-0.2c-3-2.8-7.7-2.8-11.4-1.5
					c-3.8,1.3-7,4.2-8.5,8c-0.8,1.9-1.2,4.1-1,6.2c0,0.8-0.1,1.6,0.5,2.1c0.1,0.1,0.3,0,0.3-0.1c0-0.4,0.1-0.7,0.2-1.1
					c0.1,0.6,0.2,1.2,0.4,1.7c0.3,0.7,0.6,1.4,1.2,1.9c0.1,0.1,0.2-0.1,0.3-0.1c0.1-0.5,0-1-0.1-1.4c1.1,2.8,2.7,5.6,5.5,7
					c0.8,0.4,1.6,0.7,2.5,0.8c0.1,0,0.2-0.1,0.2-0.2c-0.1-0.6-0.6-1.2-0.4-1.8c0.3,0,0.7,0,1-0.1c0.9-0.2,1.9-0.5,2.7-0.9
					c1.6-0.7,3-1.7,4.2-2.9c1.2-1.2,2.1-2.7,2.8-4.3c0.8-1.7,1.3-3.6,1.3-5.5C221.4,477.9,221.3,476.6,220.8,475.6z"/>
				<path class="st2" d="M220,483.9c-0.6,1.6-1.4,3-2.6,4.3c-1.1,1.2-2.4,2.3-3.9,3c-0.9,0.5-1.9,0.8-2.9,1.1
					c-0.9,0.2-1.8,0.2-2.7,0.3c-0.1,0.1-0.2,0.2-0.3,0.3c0.4-0.1,0.9-0.1,1.3-0.1c-0.2,0.6,0.1,1.1,0.3,1.7
					c-3.1-0.5-5.2-3.1-6.7-5.7c-0.4-0.8-0.8-1.5-1.1-2.3c0-0.1-0.2,0-0.3,0.1c-0.2,0.6,0,1.1,0,1.7c-0.5-0.5-0.7-1.1-1-1.7
					c-0.2-0.7-0.4-1.4-0.4-2.2c0-0.2-0.2-0.1-0.3,0c-0.2,0.4-0.3,0.9-0.4,1.3c-0.2-0.5-0.2-1-0.3-1.5c0-1.9,0.2-3.7,0.8-5.5
					c0.7-1.9,1.7-3.6,3.1-5.1c2.7-2.7,6.5-4.3,10.3-4.2c2,0,4.2,0.6,5.8,1.9c-0.1,0-0.2,0-0.3,0c-0.1,0-0.2,0.2-0.1,0.2
					c0.5,0.3,0.9,0.7,1.3,1.1c0.2,0.2,0.5,0.5,0.6,0.7c0.1,0.1,0.2,0.3,0.2,0.5c-0.4-0.2-0.7-0.5-1-0.8c-0.1-0.1-0.3,0.1-0.2,0.2
					c0.5,0.6,0.9,1.1,1.1,1.9c-0.2-0.2-0.3-0.3-0.5-0.5c0.1,0.4,0.3,0.8,0.4,1.2c0.4,0.9,0.5,2,0.5,3
					C221,480.5,220.6,482.2,220,483.9z"/>
				<path class="st2" d="M200.1,478.2c0.9-1.9,2.3-3.6,4.1-4.8c0.9-0.6,1.8-1.1,2.8-1.6c1.1-0.5,2.3-1,3.5-1.2
					c1.2-0.3,2.5-0.3,3.7-0.2c1,0.1,1.9,0.3,2.9,0.5c0.5,0.1,1,0.3,1.4,0.4c0,0,0.1-0.1,0.1-0.1c0.1,0,0.2,0,0.3,0
					c-1.6-1.3-3.7-1.8-5.8-1.9c-3.8-0.1-7.6,1.5-10.3,4.2c-1.4,1.4-2.5,3.2-3.1,5.1c-0.4,1.1-0.6,2.3-0.7,3.4
					C199.3,480.7,199.6,479.4,200.1,478.2z"/>
				<path class="st1" d="M217.1,472.9c-0.2-0.5-0.8-0.8-1.3-0.9c-0.6-0.2-1.2-0.3-1.9-0.3c-1.7,0-3.1,1-4.2,2.1
					c-2.5,2.5-3.8,5.9-4.3,9.4c-0.1,0.7-0.2,1.3-0.2,2c0,0.1,0,0.1,0,0.2c0,0.5,0.1,1,0.1,1.5c0-0.5,0-1,0.1-1.5c0,0.1,0,0.3,0,0.4
					c0.1,0.5,0.2,1.1,0.4,1.6c0.2,0.4,0.3,0.8,0.6,1.2c0.2,0.3,0.5,0.6,0.8,0.9c0,0,0,0,0,0c-0.1-0.2-0.2-0.4-0.2-0.7
					c-0.3-0.5-0.6-1-0.8-1.5c-0.2-0.5-0.3-1-0.4-1.4c-0.1-0.2-0.1-0.5-0.1-0.7c0-0.2-0.1-0.5-0.1-0.7c0.2-1.7,0.6-3.4,1.3-5.1
					c0.6-1.6,1.4-3,2.5-4.3c1-1.2,2.3-2.4,3.9-2.7c0.7-0.1,1.3-0.1,2,0.1c0.3,0.1,0.7,0.2,1,0.3c0.3,0.1,0.6,0.3,0.8,0.5
					C217,473.1,217.1,473,217.1,472.9z"/>
				<path class="st2" d="M218.4,485.7c-0.4,0.4-0.9,0.7-1.4,1c-0.5,0.3-1.1,0.6-1.7,0.9c-0.5,0.2-1.1,0.4-1.7,0.4
					c-0.2,0-0.5-0.1-0.6-0.2c-0.2-0.2-0.3-0.4-0.4-0.6c-0.1-0.4,0-0.7,0.3-1c0.1-0.1,0.3-0.2,0.5-0.3c0.2-0.1,0.4-0.2,0.6-0.4
					c0.4-0.3,0.8-0.6,1.1-0.9c0.4-0.4,0.6-0.8,0.9-1.2c1-1.6,1.8-3.8,0.7-5.6c-0.1-0.1,0.1-0.2,0.1-0.1c0.4,0.6,0.6,1.2,1,1.7
					c0-0.9-0.1-1.9-0.5-2.7c0-0.1,0.1-0.1,0.1-0.1c0.3,0.4,0.6,0.8,0.9,1.2c0-0.1,0-0.2,0-0.2c-0.1-1.3-0.4-2.6-1.1-3.7
					c-0.6-1-1.5-1.9-2.7-2.1c-0.7-0.2-1.4-0.1-2.1,0c-0.8,0.2-1.6,0.5-2.4,0.9c-1.6,0.9-2.7,2.3-3.6,3.9c-0.2,0.4-0.4,0.9-0.6,1.3
					c-0.2,0.4-0.4,0.9-0.5,1.3c-0.2,0.9-0.2,1.8-0.6,2.6c0,0.1-0.1,0-0.1,0c-0.2-0.2-0.4-0.5-0.6-0.7c-0.3-0.6-0.5-1.2-0.6-1.8
					c-0.1-0.2-0.1-0.5-0.1-0.7c-0.1,0.6-0.1,1.3-0.3,1.9c0,0.1-0.1,0.1-0.2,0c-0.2-0.3-0.3-0.5-0.4-0.8c-0.3-1-0.2-2-0.1-3
					c-0.5,1.1-0.6,2.2-0.8,3.4c0,0.1-0.1,0.1-0.2,0c-0.2-0.6-0.3-1.2-0.4-1.9c0-1.1,0.2-2.2,0.6-3.2c-0.8,1.1-1.5,2.4-2,3.7
					c-0.6,1.8-0.8,3.6-0.8,5.5c0,0.5,0,1.1,0.3,1.5c0.1-0.5,0.2-0.9,0.4-1.3c0.1-0.1,0.3-0.2,0.3,0c0,0.7,0.2,1.5,0.4,2.2
					c0.2,0.6,0.5,1.2,1,1.7c0-0.6-0.2-1.1,0-1.7c0-0.1,0.2-0.2,0.3-0.1c0.3,0.8,0.7,1.6,1.1,2.3c1.4,2.6,3.6,5.3,6.7,5.7
					c-0.2-0.6-0.5-1.1-0.3-1.7c-0.4,0-0.9,0-1.3,0.1c0.1-0.1,0.2-0.2,0.3-0.3c0.9-0.1,1.8-0.1,2.7-0.3c1-0.3,2-0.6,2.9-1.1
					c1.5-0.7,2.8-1.7,3.9-3c1.1-1.2,1.8-2.6,2.4-4C219.4,484.7,219,485.2,218.4,485.7z"/>
				<path class="st2" d="M214.3,488.6c-1.7-0.7-3-2-4.1-3.4c-0.6-0.8-1.1-1.6-1.5-2.6c-0.3-0.9-0.5-1.9-0.4-2.9
					c0.1-1,0.4-1.9,0.8-2.8c0.3-0.7,0.6-1.3,1-2c0.4-0.6,0.9-1.2,1.4-1.8c-0.2,0.1-0.4,0.2-0.6,0.4c-0.7,0.4-1.4,0.9-1.9,1.5
					c-0.6,0.7-1.2,1.4-1.6,2.3c-0.9,1.8-1.4,3.7-2.2,5.5c0,0.1-0.1,0-0.1,0c-0.5-0.8-1.2-1.4-2-1.8c-0.4-0.2-0.8-0.4-1.3-0.5
					c-0.5-0.1-1-0.3-1.6-0.3c-0.2,0-0.4-0.1-0.6-0.1c-0.3,1.3-0.4,2.7-0.4,4c0,0.5,0,1.1,0.3,1.5c0.1-0.5,0.2-0.9,0.4-1.3
					c0.1-0.1,0.3-0.2,0.3,0c0,0.7,0.2,1.5,0.4,2.2c0.2,0.6,0.5,1.2,1,1.7c0-0.6-0.2-1.1,0-1.7c0-0.1,0.2-0.2,0.3-0.1
					c0.3,0.8,0.7,1.6,1.1,2.3c1.4,2.6,3.6,5.3,6.7,5.7c-0.2-0.6-0.5-1.1-0.3-1.7c-0.4,0-0.9,0-1.3,0.1c0.1-0.1,0.2-0.2,0.3-0.3
					c0.9-0.1,1.8-0.1,2.7-0.3c1-0.3,2-0.6,2.9-1.1c1.1-0.5,2-1.2,2.9-2C215.7,489.1,214.9,488.9,214.3,488.6z"/>
			</g>
			<g>
				<path class="st1" d="M151.5,479.4c0,1.9,0.5,3.7,1.3,5.5c0.7,1.6,1.6,3,2.8,4.3c1.2,1.2,2.6,2.3,4.2,2.9
					c0.9,0.4,1.8,0.7,2.7,0.9c0.3,0.1,0.7,0.1,1,0.1c0.2,0.6-0.3,1.2-0.4,1.8c0,0.1,0.1,0.3,0.2,0.2c0.9-0.1,1.7-0.4,2.5-0.8
					c2.7-1.5,4.3-4.3,5.5-7c0,0.5-0.2,1-0.1,1.4c0,0.1,0.2,0.2,0.3,0.1c0.6-0.5,1-1.2,1.2-1.9c0.2-0.6,0.3-1.1,0.4-1.7
					c0.1,0.4,0.1,0.7,0.2,1.1c0,0.1,0.2,0.2,0.3,0.1c0.5-0.6,0.5-1.4,0.5-2.1c0.2-2.1-0.2-4.2-1-6.2c-1.5-3.7-4.7-6.6-8.5-8
					c-3.7-1.3-8.4-1.4-11.4,1.5c-0.1,0.1,0.1,0.3,0.2,0.2c0.1,0,0.3-0.1,0.4-0.1c-0.4,0.3-0.8,0.7-1.2,1c-0.3,0.3-1,1-0.7,1.5
					c0,0.1,0.1,0.1,0.2,0.1c0.1,0,0.2-0.1,0.3-0.2c-0.3,0.4-0.5,0.9-0.4,1.5c0,0.1,0.1,0.1,0.1,0.2
					C151.6,477,151.5,478.2,151.5,479.4z"/>
				<path class="st2" d="M151.9,479c0-1,0.1-2.1,0.5-3c0.1-0.4,0.2-0.8,0.4-1.2c-0.2,0.2-0.3,0.3-0.5,0.5c0.1-0.7,0.6-1.3,1.1-1.9
					c0.1-0.1-0.1-0.3-0.2-0.2c-0.3,0.3-0.7,0.6-1,0.8c0-0.2,0.1-0.3,0.2-0.5c0.2-0.3,0.4-0.5,0.6-0.7c0.4-0.4,0.9-0.8,1.3-1.1
					c0.1-0.1,0-0.2-0.1-0.2c-0.1,0-0.2,0-0.3,0c1.6-1.3,3.7-1.8,5.8-1.9c3.8-0.1,7.6,1.5,10.3,4.2c1.4,1.4,2.5,3.2,3.1,5.1
					c0.6,1.8,0.8,3.6,0.8,5.5c0,0.5,0,1.1-0.3,1.5c-0.1-0.5-0.2-0.9-0.4-1.3c-0.1-0.1-0.3-0.2-0.3,0c0,0.7-0.2,1.5-0.4,2.2
					c-0.2,0.6-0.5,1.2-1,1.7c0-0.6,0.2-1.1,0-1.7c0-0.1-0.2-0.2-0.3-0.1c-0.3,0.8-0.7,1.6-1.1,2.3c-1.4,2.6-3.6,5.3-6.7,5.7
					c0.2-0.6,0.5-1.1,0.3-1.7c0.4,0,0.9,0,1.3,0.1c-0.1-0.1-0.2-0.2-0.3-0.3c-0.9-0.1-1.8-0.1-2.7-0.3c-1-0.3-2-0.6-2.9-1.1
					c-1.5-0.7-2.8-1.7-3.9-3c-1.1-1.3-1.9-2.7-2.6-4.3C152.2,482.5,151.9,480.8,151.9,479z"/>
				<path class="st2" d="M172.7,478.5c-0.9-1.9-2.3-3.6-4.1-4.8c-0.9-0.6-1.8-1.1-2.8-1.6c-1.1-0.5-2.3-1-3.5-1.2
					c-1.2-0.3-2.5-0.3-3.7-0.2c-1,0.1-1.9,0.3-2.9,0.5c-0.5,0.1-1,0.3-1.4,0.4c0,0-0.1-0.1-0.1-0.1c-0.1,0-0.2,0-0.3,0
					c1.6-1.3,3.7-1.8,5.8-1.9c3.8-0.1,7.6,1.5,10.3,4.2c1.4,1.4,2.5,3.2,3.1,5.1c0.4,1.1,0.6,2.3,0.7,3.4
					C173.6,481,173.3,479.7,172.7,478.5z"/>
				<path class="st1" d="M155.7,473.3c0.2-0.5,0.8-0.8,1.3-0.9c0.6-0.2,1.2-0.3,1.9-0.3c1.7,0,3.1,1,4.2,2.1
					c2.5,2.5,3.8,5.9,4.3,9.4c0.1,0.7,0.2,1.3,0.2,2c0,0.1,0,0.1,0,0.2c0,0.5-0.1,1-0.1,1.5c0-0.5,0-1-0.1-1.5c0,0.1,0,0.3,0,0.4
					c-0.1,0.5-0.2,1.1-0.4,1.6c-0.2,0.4-0.3,0.8-0.6,1.2c-0.2,0.3-0.5,0.6-0.8,0.9c0,0,0,0,0,0c0.1-0.2,0.2-0.4,0.2-0.7
					c0.3-0.5,0.6-1,0.8-1.5c0.2-0.5,0.3-1,0.4-1.4c0.1-0.2,0.1-0.5,0.1-0.7c0-0.2,0.1-0.5,0.1-0.7c-0.2-1.7-0.6-3.4-1.3-5.1
					c-0.6-1.6-1.4-3-2.5-4.3c-1-1.2-2.3-2.4-3.9-2.7c-0.7-0.1-1.3-0.1-2,0.1c-0.3,0.1-0.7,0.2-1,0.3c-0.3,0.1-0.6,0.3-0.8,0.5
					C155.9,473.4,155.7,473.4,155.7,473.3z"/>
				<path class="st2" d="M154.4,486c0.4,0.4,0.9,0.7,1.4,1c0.5,0.3,1.1,0.6,1.7,0.9c0.5,0.2,1.1,0.4,1.7,0.4c0.2,0,0.5-0.1,0.6-0.2
					c0.2-0.2,0.3-0.4,0.4-0.6c0.1-0.4,0-0.7-0.3-1c-0.1-0.1-0.3-0.2-0.5-0.3c-0.2-0.1-0.4-0.2-0.6-0.4c-0.4-0.3-0.8-0.6-1.1-0.9
					c-0.4-0.4-0.6-0.8-0.9-1.2c-1-1.6-1.8-3.8-0.7-5.6c0.1-0.1-0.1-0.2-0.1-0.1c-0.4,0.6-0.6,1.2-1,1.7c0-0.9,0.1-1.9,0.5-2.7
					c0-0.1-0.1-0.1-0.1-0.1c-0.3,0.4-0.6,0.8-0.9,1.2c0-0.1,0-0.2,0-0.2c0.1-1.3,0.4-2.6,1.1-3.7c0.6-1,1.5-1.9,2.7-2.1
					c0.7-0.2,1.4-0.1,2.1,0c0.8,0.2,1.6,0.5,2.4,0.9c1.6,0.9,2.7,2.3,3.6,3.9c0.2,0.4,0.4,0.9,0.6,1.3c0.2,0.4,0.4,0.9,0.5,1.3
					c0.2,0.9,0.2,1.8,0.6,2.6c0,0.1,0.1,0,0.1,0c0.2-0.2,0.4-0.5,0.6-0.7c0.3-0.6,0.5-1.2,0.6-1.8c0.1-0.2,0.1-0.5,0.1-0.7
					c0.1,0.6,0.1,1.3,0.3,1.9c0,0.1,0.1,0.1,0.2,0c0.2-0.3,0.3-0.5,0.4-0.8c0.3-1,0.2-2,0.1-3c0.5,1.1,0.6,2.2,0.8,3.4
					c0,0.1,0.1,0.1,0.2,0c0.2-0.6,0.3-1.2,0.4-1.9c0-1.1-0.2-2.2-0.6-3.2c0.8,1.1,1.5,2.4,2,3.7c0.6,1.8,0.8,3.6,0.8,5.5
					c0,0.5,0,1.1-0.3,1.5c-0.1-0.5-0.2-0.9-0.4-1.3c-0.1-0.1-0.3-0.2-0.3,0c0,0.7-0.2,1.5-0.4,2.2c-0.2,0.6-0.5,1.2-1,1.7
					c0-0.6,0.2-1.1,0-1.7c0-0.1-0.2-0.2-0.3-0.1c-0.3,0.8-0.7,1.6-1.1,2.3c-1.4,2.6-3.6,5.3-6.7,5.7c0.2-0.6,0.5-1.1,0.3-1.7
					c0.4,0,0.9,0,1.3,0.1c-0.1-0.1-0.2-0.2-0.3-0.3c-0.9-0.1-1.8-0.1-2.7-0.3c-1-0.3-2-0.6-2.9-1.1c-1.5-0.7-2.8-1.7-3.9-3
					c-1.1-1.2-1.8-2.6-2.4-4C153.4,485.1,153.9,485.6,154.4,486z"/>
				<path class="st2" d="M158.6,488.9c1.7-0.7,3-2,4.1-3.4c0.6-0.8,1.1-1.6,1.5-2.6c0.3-0.9,0.5-1.9,0.4-2.9c-0.1-1-0.4-1.9-0.8-2.8
					c-0.3-0.7-0.6-1.3-1-2c-0.4-0.6-0.9-1.2-1.4-1.8c0.2,0.1,0.4,0.2,0.6,0.4c0.7,0.4,1.4,0.9,1.9,1.5c0.7,0.7,1.2,1.4,1.6,2.3
					c0.9,1.8,1.4,3.7,2.2,5.5c0,0.1,0.1,0,0.1,0c0.5-0.8,1.2-1.4,2-1.8c0.4-0.2,0.8-0.4,1.3-0.5c0.5-0.1,1-0.3,1.6-0.3
					c0.2,0,0.4-0.1,0.6-0.1c0.3,1.3,0.4,2.7,0.4,4c0,0.5,0,1.1-0.3,1.5c-0.1-0.5-0.2-0.9-0.4-1.3c-0.1-0.1-0.3-0.2-0.3,0
					c0,0.7-0.2,1.5-0.4,2.2c-0.2,0.6-0.5,1.2-1,1.7c0-0.6,0.2-1.1,0-1.7c0-0.1-0.2-0.2-0.3-0.1c-0.3,0.8-0.7,1.6-1.1,2.3
					c-1.4,2.6-3.6,5.3-6.7,5.7c0.2-0.6,0.5-1.1,0.3-1.7c0.4,0,0.9,0,1.3,0.1c-0.1-0.1-0.2-0.2-0.3-0.3c-0.9-0.1-1.8-0.1-2.7-0.3
					c-1-0.3-2-0.6-2.9-1.1c-1.1-0.5-2-1.2-2.9-2C157.2,489.4,157.9,489.2,158.6,488.9z"/>
			</g>
		</g>
		<path class="st3" d="M219.3,508c0,0,0.1,0.1,0.1,0.1c0.1,0.1,0.3-0.1,0.3-0.2c-0.1-0.6-0.3-1.2-0.6-1.8c-0.1-0.2-0.2-0.4-0.4-0.5
			c0.1,0.1,0.3,0.2,0.4,0.4c0.1,0.1,0.3,0,0.2-0.1c-0.3-1.3-0.8-2.5-1.8-3.4c-0.9-0.8-2-1.1-3.2-1.2c0-1.2-0.1-2.4-0.2-3.5
			c-0.2-1.2-0.4-2.4-0.8-3.6c-0.6-2.2-1.6-4.3-2.9-6.1c-1.2-1.8-2.6-3.3-4.2-4.7c-1.8-1.4-3.7-2.6-5.8-3.4c-1.2-0.4-2.3-0.8-3.5-1.1
			c-1.2-0.3-2.5-0.8-3.8-0.6c0,0,0,0,0,0c0.3-0.1,0.6-0.2,1-0.3c0.1,0,0.3-0.2,0.1-0.3c-1-0.4-2.1-0.3-3.1-0.3c-0.5,0-1.1,0-1.6,0.1
			c-0.4,0.1-0.7,0.2-1.1,0.3c0.4-0.4,0.8-0.8,1.3-0.9c0.2,0,0.3-0.3,0.1-0.4c-0.7-0.1-1.5,0.2-2.1,0.5c-0.1,0-0.1,0.1-0.2,0.1
			c0,0,0-0.1,0-0.1c0-0.2,0.1-0.5,0.2-0.7c0.1-0.2,0.2-0.4,0.2-0.6c0-0.1-0.1-0.1-0.2-0.1c-0.6,0.3-1,0.7-1.4,1.2
			c-0.1,0.2-0.2,0.4-0.3,0.6c-0.2-0.2-0.5-0.3-0.7-0.4c-0.6-0.3-1.4-0.6-2.1-0.5c-0.3,0-0.1,0.3,0.1,0.4c0.5,0.2,0.9,0.6,1.3,0.9
			c-0.4-0.1-0.7-0.2-1.1-0.3c-0.5-0.1-1.1-0.1-1.6-0.1c-1,0-2.1-0.1-3.1,0.3c-0.2,0.1,0,0.3,0.1,0.3c0.3,0.1,0.6,0.2,1,0.3
			c0,0,0,0,0,0c-1.3-0.2-2.6,0.3-3.8,0.6c-1.2,0.3-2.4,0.7-3.5,1.1c-2.1,0.8-4.1,2-5.8,3.4c-1.6,1.3-3.1,2.9-4.2,4.7
			c-1.3,1.9-2.2,4-2.9,6.1c-0.3,1.2-0.6,2.4-0.8,3.6c-0.1,1.2-0.2,2.3-0.2,3.5c-1.2,0.1-2.3,0.4-3.2,1.2c-1,0.9-1.5,2.1-1.8,3.4
			c0,0.1,0.2,0.2,0.2,0.1c0.1-0.1,0.2-0.3,0.4-0.4c-0.1,0.2-0.3,0.4-0.4,0.5c-0.3,0.5-0.6,1.2-0.6,1.8c0,0.1,0.2,0.3,0.3,0.2
			c0,0,0.1-0.1,0.1-0.1c-0.7,1.5-0.6,3.3-0.2,4.9c0.5,2.3,1.5,4.4,2.9,6.2c1.5,2,3.4,3.7,5.5,5c1.1,0.7,2.2,1.3,3.3,1.8
			c1.3,0.6,2.6,1,4,1.4c0.8,0.2,1.6,0.4,2.4,0.7c0.8,0.2,1.6,0.4,2.3,0.6c1.4,0.3,2.8,0.4,4.2,0.7c0.1,0.1,0.3,0.1,0.4,0.2
			c0.7,0.3,1.4,0.5,2,0.6c1.4,0.3,2.8,0.5,4.3,0.6c2.8,0.2,5.7,0,8.5-0.8c0.7-0.2,1.3-0.4,2-0.7c1.3-0.3,2.6-0.4,3.9-0.6
			c0.8-0.1,1.6-0.4,2.3-0.6c0.8-0.2,1.6-0.4,2.4-0.7c1.3-0.4,2.7-0.8,4-1.4c1.2-0.5,2.3-1.1,3.3-1.8c2.1-1.3,4-3,5.5-5
			c1.4-1.8,2.4-4,2.9-6.2C219.8,511.3,219.9,509.5,219.3,508z"/>
		<path class="st2" d="M219.3,512.3c-0.4,2.2-1.3,4.3-2.5,6.1c-1.4,2-3.2,3.7-5.2,5.1c-2.1,1.4-4.4,2.4-6.9,3.2
			c-1.5,0.5-3,0.9-4.5,1.3c-1.4,0.4-2.8,0.5-4.2,0.7c0.4-0.2,0.8-0.5,1.2-0.8c0.1-0.1,0-0.3-0.1-0.2c-0.7,0.5-1.5,0.9-2.3,1.3
			c-0.1,0-0.1,0-0.2,0c0,0-0.1,0-0.1,0.1c-1.5,0.6-3.2,0.9-4.8,1.1c-2.8,0.3-5.7,0.1-8.4-0.4c-0.8-0.1-1.6-0.3-2.3-0.6
			c-0.4-0.1-0.8-0.2-1.1-0.4c-0.3-0.2-0.5-0.4-0.8-0.5c0,0-0.1,0-0.1,0.1c0.2,0.2,0.4,0.4,0.6,0.6c-0.1,0-0.1,0-0.2,0
			c-1.5-0.3-3-0.4-4.5-0.8c-1.5-0.4-3-0.8-4.5-1.3c-2.4-0.8-4.8-1.8-6.9-3.2c-2-1.4-3.8-3.1-5.2-5.1c-1.2-1.8-2.2-3.9-2.5-6.1
			c-0.2-1.5-0.2-3.2,0.5-4.5c0.2-0.5,0.4-0.9,0.7-1.4c-0.4,0.4-0.8,0.8-1.2,1.2c0.1-0.5,0.3-0.9,0.5-1.3c0.1-0.1,0.2-0.3,0.2-0.4
			c0.2-0.3,0.4-0.7,0.6-1c-0.3,0.2-0.6,0.3-0.9,0.5c0.2-0.5,0.4-0.9,0.7-1.4c0.5-0.8,1.1-1.5,1.9-1.9c0,0,0,0,0,0
			c0.6-0.3,1.2-0.5,1.8-0.6c0.5-0.1,0.9-0.2,1.4-0.2c-0.3-0.1-0.7-0.1-1-0.1c0,0,0,0,0,0c0.1-1.3,0.1-2.6,0.3-3.9
			c0.2-1.3,0.5-2.7,1-4c1.4-4.1,3.9-7.7,7.3-10.3c1.8-1.4,3.8-2.4,6-3.2c1.2-0.4,2.3-0.7,3.5-1c0.6-0.2,1.3-0.3,2-0.4
			c0.6-0.1,1.2,0.1,1.8,0.1c0.2,0,0.1-0.2,0-0.2c-0.5-0.2-0.9-0.4-1.4-0.6c0.8-0.2,1.7-0.2,2.5-0.1c0.5,0,1.1,0,1.6,0.1
			c0.6,0.1,1.1,0.3,1.6,0.5c0.1,0,0.1,0,0.2,0c0,0,0,0,0,0c-0.1-0.1-0.2-0.3-0.2-0.4c0,0,0,0,0,0c-0.3-0.3-0.6-0.7-1-0.9
			c0.4,0.1,0.8,0.2,1.2,0.4c0.1,0.1,0.2,0.1,0.3,0.2c0.2,0.1,0.4,0.2,0.6,0.3c0,0,0-0.1,0-0.1c0,0,0,0,0,0c0,0,0,0,0,0c0,0,0,0,0,0
			c0,0,0-0.1,0.1-0.1c0.1-0.1,0.2-0.3,0.3-0.4c0.3-0.4,0.6-0.7,1-0.9c0,0.1-0.1,0.2-0.1,0.4c-0.1,0.2-0.1,0.5-0.1,0.7
			c0,0,0,0.1,0,0.1c0,0.1,0,0.2,0,0.2c0.1-0.1,0.2-0.1,0.4-0.1c0,0,0.1-0.1,0.1-0.1c0.4-0.2,0.8-0.4,1.2-0.4
			c-0.3,0.2-0.6,0.5-0.8,0.8c-0.1,0.2-0.3,0.4-0.4,0.7c0,0,0.1,0,0.1,0c0.5-0.2,1-0.4,1.6-0.5c0.5-0.1,1.1-0.1,1.6-0.1
			c0.8,0,1.7-0.1,2.5,0.1c-0.5,0.2-0.9,0.4-1.4,0.6c-0.1,0-0.2,0.2,0,0.2c0.6,0,1.2-0.2,1.8-0.1c0.7,0.1,1.3,0.2,2,0.4
			c1.2,0.3,2.4,0.6,3.5,1c2.2,0.8,4.2,1.8,6,3.2c3.4,2.6,5.9,6.2,7.3,10.3c0.4,1.3,0.8,2.6,1,4c0.2,1.3,0.3,2.6,0.3,3.9c0,0,0,0,0,0
			c-0.3,0-0.7,0-1,0.1c0.5,0,1,0.1,1.4,0.2c0.6,0.1,1.3,0.3,1.8,0.6c0,0,0,0,0,0c0.8,0.4,1.4,1.1,1.9,1.9c0.3,0.4,0.5,0.9,0.7,1.4
			c-0.3-0.2-0.6-0.4-0.9-0.5c0.2,0.3,0.4,0.7,0.6,1c0.1,0.1,0.2,0.3,0.2,0.4c0.2,0.4,0.4,0.9,0.5,1.3c-0.4-0.4-0.7-0.8-1.2-1.2
			c0.2,0.5,0.4,0.9,0.7,1.4C219.5,509.1,219.5,510.9,219.3,512.3z"/>
		<path class="st2" d="M168.4,504.5c-0.2,0-0.4,0-0.6,0c1.2,0.2,2.5,0.4,3.7,0.7c1,0.3,2,0.6,2.9,1.1c-0.4-0.4-0.9-0.7-1.4-0.9
			C171.5,504.7,169.9,504.4,168.4,504.5z"/>
		<path class="st2" d="M168.1,495.2c0.3-1.1,0.7-2.3,1.5-3.2c-0.7,0.4-1.3,1-1.7,1.7c-0.2,0.4-0.3,0.8-0.3,1.3
			c0,0.4,0.1,0.9,0.2,1.3C167.9,495.9,168,495.5,168.1,495.2z"/>
		<path class="st2" d="M204.4,493.3c0-0.3,0-0.7-0.1-1c-0.4-1.3-1.8-1.7-3.1-1.9c0.2,0.1,0.4,0.1,0.6,0.2
			C203,491.2,203.8,492.2,204.4,493.3z"/>
		<path class="st2" d="M199.2,505.6c-0.5,0.3-1,0.6-1.5,1c0.4-0.1,0.9-0.2,1.3-0.4c1.2-0.3,2.3-0.6,3.5-0.9c0.9-0.3,1.9-0.7,2.7-1.3
			c-0.6,0-1.2,0.1-1.7,0.2C202,504.5,200.5,504.9,199.2,505.6z"/>
		<path class="st4" d="M218.8,507.8c-0.2-0.5-0.4-0.9-0.7-1.4c0.4,0.4,0.8,0.8,1.2,1.2c-0.1-0.5-0.3-0.9-0.5-1.3
			c-0.1-0.1-0.2-0.3-0.2-0.4c-0.2-0.3-0.4-0.7-0.6-1c0.3,0.2,0.6,0.3,0.9,0.5c-0.2-0.5-0.4-0.9-0.7-1.4c-0.5-0.8-1.1-1.5-1.9-1.9
			c0,0,0,0,0,0c-0.6-0.3-1.2-0.5-1.8-0.6c-0.5-0.1-0.9-0.2-1.4-0.2c0.3-0.1,0.7-0.1,1-0.1c0,0,0,0,0,0c-0.1-1.3-0.1-2.6-0.3-3.9
			c-0.2-1.3-0.5-2.7-1-4c-1.4-4.1-3.9-7.7-7.3-10.3c-1.8-1.4-3.8-2.4-6-3.2c-1.2-0.4-2.3-0.7-3.5-1c-0.6-0.2-1.3-0.3-2-0.4
			c-0.6-0.1-1.2,0.1-1.8,0.1c-0.2,0-0.1-0.2,0-0.2c0.5-0.2,0.9-0.4,1.4-0.6c-0.8-0.2-1.7-0.2-2.5-0.1c-0.5,0-1.1,0-1.6,0.1
			c-0.6,0.1-1.1,0.3-1.6,0.5c0,0-0.1,0-0.1,0c0.1-0.2,0.2-0.4,0.4-0.7c0.3-0.3,0.5-0.5,0.8-0.8c-0.4,0.1-0.8,0.2-1.2,0.4
			c0,0-0.1,0.1-0.1,0.1c-0.1,0-0.3,0.1-0.4,0.1c0-0.1,0-0.2,0-0.2c0,0,0-0.1,0-0.1c0-0.2,0.1-0.5,0.1-0.7c0-0.1,0.1-0.2,0.1-0.4
			c-0.4,0.2-0.7,0.6-1,0.9c-0.1,0.1-0.2,0.3-0.3,0.4c0,0,0,0.1-0.1,0.1c0,0,0,0,0,0c0,0,0,0,0,0c0,0,0,0,0,0c0,0,0,0.1,0,0.1
			c-0.2-0.1-0.4-0.2-0.6-0.3c-0.1-0.1-0.2-0.1-0.3-0.2c-0.4-0.2-0.8-0.4-1.2-0.4c0.4,0.3,0.7,0.6,1,0.9c0,0,0,0,0,0
			c0.1,0.1,0.2,0.3,0.2,0.4c0,0,0,0,0,0c0,0-0.1,0.1-0.2,0c-0.5-0.2-1-0.4-1.6-0.5c-0.5-0.1-1.1-0.1-1.6-0.1c-0.8,0-1.7-0.1-2.5,0.1
			c0.5,0.2,0.9,0.4,1.4,0.6c0.1,0,0.2,0.2,0,0.2c-0.6,0-1.2-0.2-1.8-0.1c-0.7,0.1-1.3,0.2-2,0.4c-1.2,0.3-2.4,0.6-3.5,1
			c-2.2,0.8-4.2,1.8-6,3.2c-3.4,2.6-5.9,6.2-7.3,10.3c-0.4,1.3-0.8,2.6-1,4c-0.2,1.3-0.3,2.6-0.3,3.9c0,0,0,0,0,0c0.3,0,0.7,0,1,0.1
			c-0.5,0-1,0.1-1.4,0.2c-0.6,0.1-1.3,0.3-1.8,0.6c0,0,0,0,0,0c-0.8,0.4-1.4,1.1-1.9,1.9c-0.3,0.4-0.5,0.9-0.7,1.4
			c0.3-0.2,0.6-0.4,0.9-0.5c-0.2,0.3-0.4,0.7-0.6,1c-0.1,0.1-0.2,0.3-0.2,0.4c-0.2,0.4-0.4,0.9-0.5,1.3c0.4-0.4,0.7-0.8,1.2-1.2
			c-0.2,0.5-0.4,0.9-0.7,1.4c-0.7,1.4-0.7,3.1-0.5,4.5c0.4,2.2,1.3,4.3,2.5,6.1c1.4,2,3.2,3.7,5.2,5.1c2.1,1.4,4.4,2.4,6.9,3.2
			c1.5,0.5,3,0.9,4.5,1.3c1.5,0.4,3,0.5,4.5,0.8c0.1,0,0.1,0,0.2,0c-0.2-0.2-0.4-0.4-0.6-0.6c0,0,0-0.1,0.1-0.1
			c0.3,0.1,0.6,0.3,0.8,0.5c0.3,0.2,0.7,0.3,1.1,0.4c0.8,0.2,1.5,0.4,2.3,0.6c2.8,0.5,5.6,0.7,8.4,0.4c1.6-0.2,3.3-0.5,4.8-1.1
			c0,0,0.1,0,0.1-0.1c0.1,0,0.1,0,0.2,0c0.8-0.3,1.6-0.7,2.3-1.3c0.2-0.1,0.3,0.1,0.1,0.2c-0.4,0.3-0.8,0.6-1.2,0.8
			c1.4-0.2,2.8-0.4,4.2-0.7c1.5-0.4,3-0.8,4.5-1.3c2.4-0.8,4.8-1.8,6.9-3.2c2-1.4,3.8-3.1,5.2-5.1c1.2-1.8,2.2-3.9,2.5-6.1
			C219.5,510.9,219.5,509.1,218.8,507.8z M215.9,509c0,0.1-0.1,0.1-0.1,0c-0.5-0.6-0.8-1.3-1.5-1.8c0,0.4,0.1,0.8,0.2,1.2
			c0.2,0.8,0.5,1.6,0.7,2.4c0.2,0.8,0.1,1.6-0.3,2.4c0,0.1-0.1,0-0.2,0c-0.1-0.4-0.1-0.8-0.2-1.2c-0.2-0.9-0.6-1.7-1-2.5
			c0.4,1,0.5,2.1,0.4,3.2c-0.2,1.5-0.8,2.8-1.6,4c-0.9,1.3-2,2.3-3.3,3.1c-1.5,1-3.1,1.8-4.8,2.3c-0.7,0.2-1.4,0.5-2.1,0.7
			c-0.7,0.2-1.4,0.4-2.1,0.2c0,0-0.1-0.1-0.1-0.1c0.1-0.4,0.2-0.7,0.3-1.1c0.3-1.4,0.3-2.7-0.1-4.1c-0.3-1.3-0.8-2.5-1.4-3.7
			c-0.6-1.2-1.2-2.5-1.7-3.8c-0.3-0.8-0.7-1.6-0.5-2.5c0.3-1.4,1.6-2.2,2.8-2.7c1.6-0.7,3.3-1,5-1.2c1.3-0.1,2.6-0.2,3.8-0.2
			c-0.6-0.4-1.2-0.6-1.9-0.7c-0.7-0.1-1.5-0.2-2.3-0.3c0,0-0.1-0.1-0.1-0.1c0.3-1.3,0.6-2.6,0.6-4c0-1.2-0.1-2.4-0.5-3.5
			c-0.3-0.9-0.8-1.8-1.5-2.5c-0.7-0.7-1.5-1.3-2.4-1.6c-1-0.3-2-0.3-2.9,0.1c-0.1,0-0.2,0-0.1-0.1c0.4-0.5,0.9-1,1.4-1.4
			c-0.4,0.1-0.8,0.2-1.2,0.4c-1.6,0.7-3.1,1.9-3.9,3.4c-0.7,1.5-0.9,3.3-1.4,4.8c0,0.1-0.1,0.1-0.2,0c-0.1-0.4-0.1-0.7-0.2-1.1
			c-0.1,0.5-0.1,1.1-0.3,1.7c0,0.1-0.1,0.1-0.2,0c-0.3-0.6-0.5-1.2-0.5-1.8c-0.1,0.4-0.2,0.8-0.5,1.1c-0.2,0.3-0.6,0.5-1,0.6
			c-0.3,0.1-0.5,0.1-0.8,0.1c-0.4,0-0.8,0.1-1.2,0.1c-1.6,0-3.2-0.5-4.6-1.2c-0.1,0.5-0.2,1-0.5,1.5c0,0.1-0.1,0-0.2,0
			c-0.1-0.4-0.1-0.8-0.1-1.2c-0.2,0.5-0.4,1.1-0.6,1.6c0,0.1-0.2,0-0.2,0c0-0.7,0-1.3-0.1-2c-0.1-1.2-0.5-2.4-0.9-3.6
			c-0.6-1.3-1.5-2.4-2.7-3.2c0.8,0.8,1.2,1.8,1.6,2.8c0,0.1-0.1,0.1-0.2,0.1c-0.9-1.3-2.2-2.3-3.8-2.6c-2.7-0.6-5.5,0.9-6.8,3.4
			c-1.3,2.4-1.3,5.6-0.2,8.1c0,0.1,0,0.1-0.1,0.1c-2,0-3.8,1.1-5.4,2.3c1.8-1.1,4.1-1.3,6.2-1.2c1,0.1,2,0.3,3,0.5
			c0.9,0.2,1.9,0.4,2.8,0.8c0.8,0.3,1.6,0.8,2.1,1.6c0.6,1,0.3,2.1-0.2,3.1c-1.3,2.6-3.1,4.9-3.8,7.8c-0.3,1.4-0.3,2.8,0.1,4.2
			c0.4,1.3,1,2.6,1.6,3.8c0,0.1,0,0.1-0.1,0.1c-1.7-0.2-3.3-0.5-4.9-0.9c-2.6-0.7-5.2-1.7-7.3-3.4c-1.7-1.3-2.8-3.1-3.7-5
			c0,0.6,0.1,1.1,0.1,1.7c0,0.1-0.1,0.1-0.1,0.1c-1-0.8-1.8-1.9-2.4-3c-1-1.9-1.5-4.3-0.9-6.4c0.5-1.8,1.9-2.9,3.3-4.1
			c-1.1,0.1-2.1,0.7-3,1.3c-0.1,0-0.2,0-0.1-0.1c0.5-0.7,1.2-1.3,2-1.7c-0.8,0-1.6,0.1-2.3,0.5c-0.1,0-0.2-0.1-0.1-0.1
			c0.5-0.5,1.1-0.9,1.6-1.3c1-0.8,2.1-1.5,3.3-1.8c1.1-0.3,2.1-0.2,3.1,0.2c-0.9-0.8-2-1.6-3.2-1.6c0,0-0.1,0-0.1-0.1
			c0-2.4,0.4-4.7,1.2-6.9c1.4-3.7,4.1-6.9,7.3-9.2c1.7-1.2,3.6-2.2,5.6-2.9c0.1-0.1,0.2-0.1,0.3-0.2c1.4-0.7,3-1,4.5-1.2
			c1.4-0.2,2.9-0.2,4.3-0.2c-0.3-0.6-1.1-0.9-1.7-1.1c-0.1,0-0.1-0.1,0-0.2c0.3-0.1,0.7-0.1,1,0c1.1,0.2,1.9,1.1,2.7,1.8
			c0-0.6,0-1.2,0-1.7c0-0.1,0.1-0.1,0.1-0.1c0.3,0.1,0.5,0.4,0.6,0.6c0.1,0.2,0.2,0.5,0.3,0.7c0.3-0.6,0.7-1.1,1.4-1.3
			c0.1,0,0.1,0,0.1,0.1c-0.1,0.4-0.3,0.8-0.4,1.3c1.1-0.7,2.2-1.3,3.5-1.5c0.1,0,0.1,0.1,0.1,0.2c-0.5,0.3-0.8,0.8-1.1,1.3
			c0,0,0,0,0,0c0.6-0.2,1.2-0.3,1.9-0.4c1.3-0.2,2.6-0.1,3.8,0.1c1.3,0.3,2.5,0.8,3.7,1.4c1.1,0.6,2.2,1.3,3.2,2.1
			c1,0.8,2,1.6,2.9,2.5c0.8,0.8,1.7,1.7,2.4,2.6c1.4,1.8,2.5,3.9,3.2,6.1c0.7,2.2,1,4.5,0.6,6.8c0,0,0,0.1-0.1,0.1
			c-0.6,0.1-1.2,0.1-1.8,0.2c-0.1,0-0.2,0.1-0.4,0.1c0.7,0,1.4,0,2.1,0.1c0.4,0.1,0.8,0.2,1.2,0.4c0.4,0.2,0.7,0.5,0.9,0.9
			c0,0.1,0,0.1-0.1,0.1c-1.1-0.3-2.2-0.4-3.3-0.2c0.6,0.1,1.2,0.2,1.7,0.3c1.2,0.3,2.4,1,3.1,2c0.4,0.5,0.7,1,0.8,1.6
			C216,507.6,216,508.3,215.9,509z"/>
		<path class="st4" d="M208.9,524.4c-1.7,0.8-3.4,1.5-5.2,2c-0.8,0.2-1.5,0.4-2.2,0.6c-0.7,0.1-1.5,0.2-2.1-0.1c0,0-0.1-0.1,0-0.1
			c0.4-0.6,0.9-1.1,1.3-1.7c-0.8,0.8-1.9,1.5-3,1.8c-0.1,0-0.1-0.1-0.1-0.1c0.3-0.3,0.5-0.6,0.8-1c1.9-3,1.1-6.9-0.1-10
			c-0.6-1.7-1.4-3.3-2.2-4.8c-0.8-1.5-1.7-3-3.1-4.1c-0.7-0.6-1.6-1-2.6-1c-1-0.1-2,0.2-2.9,0.5c-2,0.6-3.8,1.8-5.4,3.1
			c-1.6,1.3-2.9,2.9-4.1,4.5c-1.3,1.8-2.3,3.9-2.7,6.1c-0.4,2.3,0,4.6,1.2,6.5c0.5,0.8,1,1.6,1.6,2.3c0.3,0.1,0.6,0.2,0.8,0.3
			c0.8,0.2,1.5,0.4,2.3,0.6c2.8,0.5,5.6,0.7,8.4,0.4c1.6-0.2,3.3-0.5,4.8-1.1c0,0,0.1,0,0.1-0.1c0.1,0,0.1,0,0.2,0
			c0.8-0.3,1.6-0.7,2.3-1.3c0.2-0.1,0.3,0.1,0.1,0.2c-0.4,0.3-0.8,0.6-1.2,0.8c1.4-0.2,2.8-0.4,4.2-0.7c1.5-0.4,3-0.8,4.5-1.3
			c2.4-0.8,4.8-1.8,6.9-3.2c1.2-0.8,2.2-1.7,3.2-2.7C213,522.3,210.9,523.4,208.9,524.4z"/>
		<path class="st3" d="M198.8,519c-0.1-0.4-0.1-0.7-0.2-1.1c0-0.1,0-0.2-0.1-0.3c-0.2-1.1-0.7-2.1-1.1-3.1c-0.6-1.2-1.2-2.4-1.6-3.6
			c-0.5-1.4-0.8-2.8-1.2-4.2c-0.6-1.9-1.3-4.3-3.4-4.8c0.5,0,1,0.1,1.5,0c0.1,0,0.1-0.1,0-0.1c-0.9-0.9-2.2-1.1-3.4-0.7
			c0.3-0.3,0.6-0.6,0.9-0.9c0.1-0.1-0.1-0.2-0.2-0.2c-0.8,0.2-1.6,0.4-2,1.1c-0.1-0.3,0.1-0.7,0.2-1c0-0.1-0.1-0.1-0.2-0.1
			c-0.2,0.2-0.5,0.3-0.7,0.5c-0.1,0.1-0.3,0.3-0.4,0.4c0-0.4,0.1-0.8,0.2-1.1c0-0.1,0-0.1-0.1-0.1c-0.7,0.1-1,0.8-1.3,1.3
			c-0.1-0.1-0.1-0.3-0.2-0.4c-0.1-0.1-0.2-0.2-0.3-0.3c-0.2-0.2-0.5-0.4-0.8-0.3c0,0-0.1,0.1-0.1,0.1c0,0.2,0.1,0.4,0.2,0.6
			c0,0.1,0.1,0.2,0.1,0.3c-0.4-0.6-1.2-0.8-1.9-1c-0.1,0-0.3,0.1-0.2,0.2c0.3,0.3,0.7,0.5,0.9,0.9c-1.2-0.4-2.5-0.2-3.4,0.7
			c0,0,0,0.1,0,0.1c0.5,0.1,1,0,1.5,0c-2.1,0.5-2.9,2.9-3.4,4.8c-0.4,1.4-0.8,2.8-1.2,4.2c-0.4,1.3-1,2.4-1.6,3.6
			c-0.5,1-0.9,2-1.1,3.1c0,0.1,0,0.2-0.1,0.3c-0.1,0.4-0.1,0.7-0.2,1.1c-0.1,0.8-0.1,1.7,0,2.5c0.1,1.6,0.5,3,1.4,4.3
			c1.6,2.2,4.2,3.7,6.9,4.1c0.9,0.1,1.9,0.2,2.8,0.1c0.4,0,2.2,0,2.6,0c0.9,0.1,1.9,0,2.8-0.1c2.7-0.4,5.3-1.9,6.9-4.1
			c0.9-1.3,1.3-2.8,1.4-4.3C198.9,520.7,198.9,519.8,198.8,519z"/>
		<path class="st5" d="M198.4,522.2c-0.2,1.5-0.7,2.8-1.6,4c-0.8,1-1.9,1.9-3.1,2.5c-1.2,0.6-2.6,1-4,1.1c-0.7,0.1-1.5,0.1-2.2,0
			c-0.6,0.1-1.3,0.1-1.9,0c-0.2,0-0.4,0-0.6,0c-0.6,0-1.2,0-1.8,0c-1.4-0.1-2.8-0.5-4-1.1c-1.2-0.6-2.3-1.4-3.1-2.5
			c-0.9-1.2-1.4-2.5-1.6-4c-0.1-0.9-0.1-1.8-0.1-2.8c0-0.3,0-0.6,0.1-0.8c0,0,0,0,0-0.1c0.3-2.5,1.7-4.6,2.6-6.9
			c0.5-1.3,0.9-2.6,1.3-3.9c0.4-1.2,0.7-2.5,1.3-3.6c0.5-1,1.4-1.9,2.6-2.1c0.1,0,0.1-0.1,0.1-0.1c-0.6-0.1-1.2,0-1.8-0.1
			c1-0.8,2.3-0.8,3.4-0.3c0.1,0,0.3,0,0.2-0.2c-0.2-0.4-0.5-0.7-0.8-0.9c0.6,0.2,1.2,0.4,1.5,1c0,0.1,0.2,0,0.1-0.1c0,0,0,0,0-0.1
			c0.1-0.4-0.1-0.8-0.2-1.1c0.2,0,0.5,0.3,0.6,0.4c0.2,0.2,0.3,0.5,0.4,0.8c0,0.1,0.2,0,0.2,0c0.1-0.3,0.3-0.5,0.4-0.8
			c0.1-0.2,0.3-0.5,0.6-0.6c-0.2,0.4-0.3,0.8-0.2,1.3c0,0.1,0.1,0.1,0.2,0c0.2-0.2,0.4-0.4,0.6-0.5c0.1-0.1,0.3-0.2,0.4-0.3
			c-0.1,0.3-0.2,0.7-0.1,1c0,0.1,0.1,0.1,0.2,0c0,0,0.1,0,0.1,0c0.3-0.6,0.9-0.8,1.5-1c-0.3,0.3-0.6,0.5-0.8,0.9
			c-0.1,0.1,0.2,0.2,0.2,0.2c1.1-0.5,2.4-0.4,3.4,0.3c-0.6,0.1-1.2-0.1-1.8,0.1c-0.1,0,0,0.1,0.1,0.1c1.2,0.1,2.1,1,2.6,2.1
			c0.6,1.1,0.9,2.4,1.3,3.6c0.4,1.3,0.8,2.6,1.3,3.9c0.9,2.3,2.3,4.4,2.6,6.9c0,0,0,0,0,0.1c0,0.3,0.1,0.6,0.1,0.8
			C198.5,520.3,198.5,521.3,198.4,522.2z"/>
		<path class="st5" d="M179.9,524.1c0.2,0.1,0.3,0.2,0.5,0.2c1.5,0.6,3.2,0.3,4.7-0.1c-0.4,0-0.8,0-1.2,0
			C182.5,524.1,181.2,524.2,179.9,524.1z"/>
		<path class="st5" d="M174.9,519.3c0.3-1.5,1-2.9,1.7-4.2c0.7-1.4,1.5-2.7,1.9-4.2c0.6-1.9,0.7-3.8,1.4-5.7
			c0.3-0.9,0.7-1.7,1.4-2.4c0.4-0.4,0.9-0.7,1.4-0.9c-0.1,0-0.2,0-0.3,0.1c0,0,0,0.1-0.1,0.1c-1.2,0.1-2.1,1-2.6,2.1
			c-0.6,1.1-0.9,2.4-1.3,3.6c-0.4,1.3-0.8,2.6-1.3,3.9c-0.9,2.3-2.3,4.4-2.6,6.9c0,0,0,0,0,0.1c0,0.3-0.1,0.6-0.1,0.8
			c0,0.9,0,1.9,0.1,2.8c0.1,0.9,0.3,1.7,0.7,2.5C174.6,522.9,174.5,521.1,174.9,519.3z"/>
		<path class="st5" d="M198.5,519.4c0-0.3,0-0.6-0.1-0.8c0,0,0,0,0-0.1c-0.3-2.5-1.7-4.6-2.6-6.9c-0.5-1.3-0.9-2.6-1.3-3.9
			c-0.4-1.2-0.7-2.5-1.3-3.6c-0.5-1-1.4-1.9-2.6-2.1c-0.1,0-0.1-0.1-0.1-0.1c0.6-0.1,1.2,0,1.8-0.1c-1-0.8-2.3-0.8-3.4-0.3
			c-0.1,0-0.2,0-0.2-0.1c-0.2,0.1-0.4,0.3-0.5,0.4c0.6,0,1.2,0.1,1.8,0.2c0.6,0.2,1.2,0.5,1.7,1c0.1,0.1,0,0.2-0.1,0.1
			c-0.6-0.2-1.2-0.3-1.9-0.3c0.5,0.2,1,0.5,1.4,0.9c1,0.9,1.7,2.2,2.1,3.4c0.4,1.3,0.7,2.7,0.7,4c0,0.1-0.1,0.1-0.1,0.1
			c-0.3-0.1-0.6-0.3-0.9-0.4c-1.2-0.4-2.4-0.6-3.7-0.6c-1.3,0-2.5,0.1-3.8,0.4c-1.4,0.3-2.7,0.6-4,1.1c-1,0.4-2.2,0.7-3,1.5
			c-0.4,0.4-0.6,0.8-0.7,1.3c-0.1,0.5-0.1,1.1-0.1,1.6c0.1,1.1,0.6,2.2,1.2,3.1c0.6,0.9,1.4,1.7,2.4,2.2c1.1,0.6,2.4,0.9,3.6,1
			c0.6,0.1,1.3,0.1,1.9,0.1c0.6,0,1.3,0,2-0.1c1.3-0.2,2.5-0.7,3.8-0.8c0.1,0,0.1,0.1,0.1,0.1c-0.2,0.8-0.9,1.4-1.6,1.7
			c-0.8,0.4-1.7,0.7-2.5,0.9c-0.8,0.2-1.6,0.3-2.4,0.5c-2.7,0.4-5.5,0.5-8.2,0c-0.1,0-0.1-0.1,0-0.2c0.3-0.2,0.7-0.3,1-0.4
			c-0.3,0-0.5,0-0.7,0.1c-0.4,0.1-0.9,0.2-1.1,0.6c-0.2,0.4,0.3,0.8,0.6,1c0.4,0.2,0.8,0.5,1.1,0.8c0.6,0.8,1,1.7,1.6,2.5
			c0.8,0.3,1.7,0.5,2.6,0.6c0.6,0,1.2,0.1,1.8,0c0.2,0,0.4,0,0.6,0c0.6,0,1.3,0,1.9,0c0.7,0.1,1.5,0,2.2,0c1.4-0.1,2.8-0.5,4-1.1
			c1.2-0.6,2.3-1.4,3.1-2.5c0.9-1.2,1.4-2.5,1.6-4C198.5,521.3,198.5,520.3,198.5,519.4z"/>
		<path class="st3" d="M186.6,519C186.6,518.9,186.5,518.9,186.6,519c-0.1,1.6,0,3.3,0,4.9c0,0.1,0.2,0.1,0.2,0
			C186.9,522.2,186.5,520.6,186.6,519z"/>
		<path class="st3" d="M195.8,525c0-0.5,0-0.9,0-1.4c-0.3,1.1-0.8,2.1-1.4,3c-0.4,0.6-0.9,1.2-1.5,1.6c-0.6,0.5-1.2,0.8-1.9,1.1
			c-0.7,0.3-1.5,0.5-2.3,0.7c-0.8,0.2-1.6,0.3-2.4,0.4c-1.6,0.1-3.3,0-4.7-0.8c-0.8-0.4-1.5-1.1-2-1.8c0.1,0.2,0.2,0.4,0.3,0.6
			c0.9,2.4,3.7,3.5,6.1,3.8c2.7,0.3,5.7-0.4,7.8-2.2c0.9-0.8,1.7-1.9,2-3.1c0,0.1-0.1,0.2-0.2,0.3c0,0,0-0.1,0-0.1
			C195.7,526.4,195.8,525.7,195.8,525z"/>
		<path class="st5" d="M195.3,526.8c-0.1,0.4-0.2,0.8-0.3,1.1c-0.2,0.3-0.5,0.6-0.7,1c0,0,0,0-0.1,0c-0.2,0.2-0.4,0.4-0.6,0.6
			c-1,0.9-2.2,1.6-3.5,2c-2.5,0.8-5.3,0.6-7.6-0.6c-0.9-0.4-1.7-1.1-2.3-1.9c-0.1-0.2-0.2-0.4-0.3-0.6c-0.2-0.4-0.4-0.7-0.5-1.1
			c-0.1-0.3-0.3-0.7-0.4-1c0-0.1-0.1-0.3-0.2-0.4c0.3,0.2,0.7,0.3,1,0.4c0.6,0.1,1.1,0.1,1.7,0.2c1.4,0.1,2.7,0.1,4.1-0.1
			c0.6-0.1,1.3-0.1,1.9-0.3c0.7-0.1,1.3-0.4,1.9-0.6c1.2-0.4,2.3-0.8,3.4-1.4c1-0.6,2-1.3,2.7-2.2c0.2,1,0,2,0,3
			C195.5,525.5,195.5,526.2,195.3,526.8z"/>
		<path class="st3" d="M196,521.9c0-0.2-0.1-0.3-0.2-0.5c0,0,0,0,0,0c0,0-0.1,0-0.1-0.1c-0.1-0.1-0.2-0.1-0.4-0.1
			c-0.1,0-0.2,0.1-0.2,0.2c-0.1,0.1-0.2,0.2-0.3,0.2c0,0,0,0,0,0c0,0,0,0,0,0c0.1,0,0.1,0,0.1,0c0,0,0,0,0.1,0c0,0,0,0,0,0
			c0,0,0,0.1,0.1,0.1c-0.1,0.1-0.1,0.2-0.2,0.3c0,0.1,0,0.1-0.1,0.2c-0.1,0.2-0.3,0.4-0.5,0.5c-0.1,0.1-0.1,0.1-0.2,0.2
			c-0.4,0.4-0.9,0.7-1.3,0.9c-1.1,0.6-2.4,1.1-3.7,1.4c-1.3,0.3-2.6,0.6-4,0.7c-1.4,0.2-2.9,0.2-4.3,0c-0.7-0.1-1.4-0.2-2.1-0.4
			c-0.6-0.2-1.2-0.4-1.7-0.7c0.3-0.2,0.7-0.2,1-0.3c0.1,0,0.1-0.1,0-0.1c-0.4,0-0.9,0-1.3,0.4c0,0,0,0.1,0,0.1c0.6,0.5,1.3,0.8,2,1
			c0.5,0.5,0.9,1.1,1.4,1.6c0.5,0.5,1,1,1.6,1.4c1.2,0.8,2.6,1.3,4,1.5c2.8,0.3,5.8-1,7.3-3.4c0.4-0.6,0.7-1.3,0.9-2.1
			c0.3-0.8,0.4-1.6,0.6-2.5c0.2-0.2,0.3-0.4,0.4-0.7c0,0,0,0,0,0c0,0,0,0,0,0c0,0,0,0,0,0c0,0,0,0,0.1,0c0,0,0.1,0.1,0.1,0.1
			C195.8,522,195.9,522,196,521.9C196,521.9,196,521.9,196,521.9C196,521.9,196,521.9,196,521.9z"/>
		<path class="st6" d="M194.2,524.5c-0.2,0.7-0.4,1.3-0.7,1.9c-0.6,1.1-1.4,2.1-2.5,2.7c-1.3,0.7-2.7,1.1-4.2,1
			c-1.4-0.1-2.8-0.5-4.1-1.3c-0.7-0.4-1.3-0.9-1.8-1.4c-0.5-0.5-0.9-0.9-1.4-1.4c0.3,0.1,0.6,0.1,0.9,0.2c1.5,0.3,3,0.3,4.5,0.1
			c1.4-0.1,2.8-0.4,4.2-0.7c1.3-0.3,2.7-0.8,3.9-1.5c0.6-0.3,1.2-0.7,1.7-1.2C194.5,523.5,194.4,524,194.2,524.5z"/>
		<path class="st7" d="M182.8,527.6c1,0.4,2,0.4,3.1,0.3c0.6-0.1,1.2-0.2,1.7-0.3c0.6-0.2,1.2-0.3,1.8-0.6c1.1-0.5,2.1-1.1,2.9-2.1
			c0.1-0.2,0.3-0.4,0.4-0.7c-1.2,0.6-2.4,1.1-3.7,1.4c-1.4,0.3-2.8,0.6-4.2,0.7c-1.3,0.1-2.5,0.1-3.8,0
			C181.5,526.9,182.1,527.4,182.8,527.6z"/>
		<path class="st8" d="M191.9,528.1c-1.6-0.3-3.2-0.2-4.8,0.2c-1,0.3-2,0.7-2.9,1.3c0.8,0.3,1.6,0.5,2.5,0.5c1.5,0.1,2.9-0.3,4.2-1
			c0.5-0.3,0.9-0.6,1.3-1C192.1,528.1,192,528.1,191.9,528.1z"/>
		<g>
			<path class="st9" d="M194.9,514.5c-0.2-0.6-0.6-1-1-1.4c0,0,0,0,0,0c-0.2-0.3-0.5-0.5-0.9-0.6c-0.4-0.2-0.8-0.3-1.2-0.4
				c-1-0.3-2-0.4-3-0.5c-1.9-0.2-3.9-0.1-5.8,0.2c-0.4,0.1-0.8,0.1-1.2,0.2c-0.7,0.1-1.4,0.3-2,0.7c-0.8,0.4-1.4,1-1.7,1.9
				c-0.5,1.3-0.2,2.8,0.2,4c0.4,1.3,1.4,2.6,2.7,3.1c0.7,0.3,1.4,0.5,2.2,0.5c0.1,0,0.3,0,0.4,0.1c0.6,0.1,1.3,0.1,1.9,0.2
				c1.3,0.1,2.6,0,3.9-0.2c0.1,0,0.2,0,0.4-0.1c0.7-0.1,1.4-0.3,2.1-0.5c1.3-0.5,2.3-1.7,2.7-3.1
				C195.1,517.3,195.4,515.8,194.9,514.5z"/>
			<path class="st10" d="M194.7,517.1c-0.1,0.6-0.2,1.3-0.5,1.9c-0.3,0.6-0.7,1.2-1.2,1.7c-0.1,0.1-0.3,0.2-0.5,0.4
				c-0.4,0.4-0.9,0.6-1.4,0.7c-0.9,0.3-1.8,0.4-2.8,0.4c-0.9,0.1-1.9,0.1-2.9,0c-0.9,0-1.7-0.2-2.6-0.3c-0.2,0-0.5-0.1-0.8-0.2
				c-0.1,0-0.2,0-0.3-0.1c-0.7-0.2-1.3-0.5-1.8-1c-0.5-0.5-0.9-1-1.2-1.7c-0.3-0.6-0.4-1.2-0.5-1.9c-0.1-0.7-0.2-1.3-0.1-2
				c0.2-1.2,1.1-2.1,2.2-2.6c0.2-0.1,0.4-0.2,0.7-0.3c0.4-0.1,0.7-0.2,1.1-0.2c1-0.2,2-0.3,3-0.3c2-0.1,4.1,0,6,0.4
				c0.5,0.1,0.9,0.3,1.4,0.4c0.1,0,0.2,0.1,0.3,0.1c1,0.5,1.8,1.4,1.9,2.5C194.9,515.7,194.9,516.4,194.7,517.1z"/>
			<path class="st10" d="M178.4,517.1c0-1,0.4-2.1,1.2-2.9c0.4-0.4,0.9-0.7,1.5-0.9c0.6-0.3,1.3-0.4,1.9-0.6
				c1.4-0.3,2.8-0.3,4.2-0.3c1.2,0,2.4,0,3.6,0.2c1.2,0.2,2.4,0.6,3.3,1.4c0.3,0.2,0.5,0.5,0.7,0.8c-0.3-1-1-1.7-1.9-2.2
				c-0.1,0-0.2-0.1-0.3-0.1c-0.5-0.1-0.9-0.3-1.4-0.4c-1.9-0.5-4-0.5-6-0.4c-1,0-2,0.2-3,0.3c-0.4,0.1-0.7,0.1-1.1,0.2
				c-0.2,0.1-0.4,0.2-0.7,0.3c-1.1,0.5-2,1.4-2.2,2.6C178.1,515.7,178.2,516.4,178.4,517.1C178.4,517.1,178.4,517.1,178.4,517.1
				C178.4,517.1,178.4,517.1,178.4,517.1z"/>
			<path class="st10" d="M194.8,515.1c-0.1-0.8-0.6-1.5-1.2-2c0.1,0.2,0.2,0.4,0.3,0.6c0.3,1.1-0.4,2.2-1.3,2.9
				c-0.9,0.7-2,1-3.1,1.2c-1,0.2-2.1,0.2-3.1,0.3c-0.9,0-1.7,0-2.6-0.1c-0.9-0.1-1.9-0.2-2.8-0.6c-0.8-0.3-1.5-0.7-1.9-1.5
				c-0.2-0.4-0.3-0.8-0.3-1.2c0-0.4,0.2-0.9,0.4-1.2c0.2-0.3,0.4-0.6,0.7-0.8c-0.9,0.5-1.6,1.3-1.8,2.4c-0.1,0.7,0,1.3,0.1,2
				c0.1,0.6,0.2,1.3,0.5,1.9c0.3,0.6,0.7,1.2,1.2,1.7c0.5,0.5,1.1,0.8,1.8,1c0.1,0,0.2,0,0.3,0.1c0.2,0.1,0.5,0.1,0.8,0.2
				c0.9,0.2,1.7,0.3,2.6,0.3c1,0,1.9,0,2.9,0c0.9-0.1,1.9-0.2,2.8-0.4c0.5-0.2,1-0.4,1.4-0.7c0.2-0.1,0.3-0.2,0.5-0.4
				c0.5-0.5,0.9-1,1.2-1.7c0.3-0.6,0.4-1.2,0.5-1.9C194.9,516.4,194.9,515.7,194.8,515.1z"/>
		</g>
		<g>
			<path class="st11" d="M195.5,505.6c-0.4,0.2-0.7,0.5-0.9,0.9c0.3-0.2,0.6-0.4,1-0.6c0.3-0.2,0.7-0.4,1.1-0.6c0,0,0.1,0,0.1-0.1
				c0.5-0.3,1.1-0.6,1.6-0.8c0.7-0.3,1.4-0.5,2.2-0.7c1.1-0.3,2.2-0.4,3.3-0.5c0,0,0-0.1-0.1-0.1c-0.3,0-0.7,0-1,0
				c0.3-0.4,0.5-0.7,0.7-1.2c0.2-0.5,0.3-0.9,0.4-1.4c0.2-1,0.2-2,0-3.1c-0.2-1.9-1-3.9-2.8-4.9c-0.9-0.5-2-0.7-3.1-0.5
				c-1.1,0.2-2.1,0.8-2.9,1.4c-0.4,0.3-0.7,0.7-1,1.1c-0.3,0.5-0.5,1-0.7,1.5c-0.4,1.1-0.6,2.3-0.5,3.5c0,1.3,0.3,2.5,0.8,3.7
				c0.2,0.5,0.5,1,0.8,1.4C194.8,505.1,195.1,505.5,195.5,505.6z"/>
			<path class="st7" d="M193.3,500.5c-0.1-1.1,0-2.3,0.3-3.4c0.3-1,0.6-2.1,1.4-2.9c1.4-1.5,3.7-2.4,5.6-1.6c1.8,0.7,2.7,2.6,3,4.4
				c0.2,1.1,0.2,2.1,0.1,3.2c-0.1,1-0.5,2.1-1,3c-0.9,0.1-1.9,0.3-2.8,0.5c-1.3,0.3-2.5,0.8-3.7,1.5c-0.2,0.1-0.4,0.2-0.5,0.3
				c-0.3-0.2-0.6-0.5-0.8-0.9c-0.2-0.4-0.4-0.7-0.6-1.1C193.7,502.6,193.4,501.5,193.3,500.5z"/>
			<g>
				<path class="st12" d="M203,499.7c0,2.4-1.9,4.3-4.3,4.3c-2.4,0-4.3-1.9-4.3-4.3c0-2.4,1.9-4.3,4.3-4.3
					C201.1,495.4,203,497.3,203,499.7z"/>
				<path d="M201.6,499.7c0,1.5-1.2,2.8-2.8,2.8c-1.5,0-2.8-1.2-2.8-2.8c0-1.5,1.2-2.8,2.8-2.8C200.3,496.9,201.6,498.2,201.6,499.7
					z"/>
				<circle class="st7" cx="196.9" cy="498.4" r="1.3"/>
			</g>
			<path class="st2" d="M194.2,496c0.8-0.7,1.8-1.2,2.8-1.6c1.1-0.4,2.3-0.5,3.4-0.4c0.8,0.1,1.5,0.2,2.3,0.5
				c-0.5-0.8-1.2-1.5-2.1-1.9c-2-0.8-4.2,0.1-5.6,1.6c-0.6,0.6-0.9,1.4-1.2,2.3C193.9,496.3,194,496.2,194.2,496z"/>
		</g>
		<g>
			<path class="st11" d="M178.3,504.8c0.3-0.4,0.6-0.9,0.8-1.4c0.5-1.1,0.8-2.4,0.8-3.7c0-1.2-0.2-2.4-0.5-3.5
				c-0.2-0.5-0.4-1.1-0.7-1.5c-0.3-0.4-0.6-0.8-1-1.1c-0.8-0.7-1.8-1.2-2.9-1.4c-1.1-0.2-2.1,0-3.1,0.5c-1.8,1-2.5,3-2.8,4.9
				c-0.1,1-0.1,2,0,3.1c0.1,0.5,0.2,1,0.4,1.4c0.2,0.4,0.4,0.8,0.7,1.2c-0.3,0-0.7,0-1,0c-0.1,0-0.1,0-0.1,0.1
				c1.1,0.1,2.2,0.2,3.3,0.5c0.7,0.2,1.5,0.4,2.2,0.7c0.6,0.2,1.1,0.5,1.6,0.8c0,0,0.1,0,0.1,0.1c0.4,0.2,0.7,0.4,1.1,0.6
				c0.3,0.2,0.6,0.4,1,0.6c-0.2-0.3-0.6-0.6-0.9-0.9C177.7,505.5,178,505.1,178.3,504.8z"/>
			<path class="st7" d="M178.7,503.6c-0.2,0.4-0.4,0.8-0.6,1.1c-0.2,0.3-0.5,0.7-0.8,0.9c-0.2-0.1-0.4-0.2-0.5-0.3
				c-1.1-0.7-2.4-1.1-3.7-1.5c-0.9-0.2-1.8-0.5-2.8-0.5c-0.6-0.9-0.9-1.9-1-3c-0.1-1.1-0.1-2.1,0.1-3.2c0.3-1.8,1.3-3.7,3-4.4
				c2-0.8,4.2,0.1,5.6,1.6c0.7,0.8,1.1,1.8,1.4,2.9c0.3,1.1,0.4,2.3,0.3,3.4C179.5,501.5,179.2,502.6,178.7,503.6z"/>
			<g>
				<path class="st12" d="M178.7,499.7c0,2.4-1.9,4.3-4.3,4.3c-2.4,0-4.3-1.9-4.3-4.3c0-2.4,1.9-4.3,4.3-4.3
					C176.8,495.4,178.7,497.3,178.7,499.7z"/>
				<path d="M177.3,499.7c0,1.5-1.2,2.8-2.8,2.8c-1.5,0-2.8-1.2-2.8-2.8c0-1.5,1.2-2.8,2.8-2.8C176,496.9,177.3,498.2,177.3,499.7z"
					/>
				<circle class="st7" cx="172.6" cy="498.4" r="1.3"/>
			</g>
			<path class="st2" d="M178.6,496c-0.8-0.7-1.8-1.2-2.8-1.6c-1.1-0.4-2.3-0.5-3.4-0.4c-0.8,0.1-1.5,0.2-2.3,0.5
				c0.5-0.8,1.2-1.5,2.1-1.9c2-0.8,4.2,0.1,5.6,1.6c0.6,0.6,0.9,1.4,1.2,2.3C179,496.3,178.8,496.2,178.6,496z"/>
		</g>
	</g>
</g>
<g>
	<g>
		<g>
			<path class="st13" d="M69,12.3c0.1,0,0.1-0.1,0.1-0.1c0-0.5-0.1-0.9-0.4-1.3c0.1,0.1,0.2,0.1,0.3,0.1c0.1,0,0.1,0,0.2-0.1
				c0.2-0.4-0.3-1-0.6-1.3c-0.3-0.3-0.6-0.6-1-0.9c0.1,0,0.2,0.1,0.3,0.1c0.1,0,0.3-0.1,0.2-0.2c-2.5-2.4-6.5-2.3-9.5-1.2
				c-3.2,1.1-5.8,3.5-7.1,6.6c-0.7,1.6-1,3.4-0.8,5.2c0,0.6-0.1,1.3,0.4,1.8c0.1,0.1,0.2,0,0.2-0.1c0-0.3,0.1-0.6,0.1-0.9
				c0.1,0.5,0.2,1,0.3,1.5c0.2,0.6,0.5,1.2,1,1.6c0.1,0.1,0.2,0,0.2-0.1c0.1-0.4,0-0.8-0.1-1.2c0.9,2.3,2.3,4.7,4.6,5.9
				c0.7,0.4,1.4,0.6,2.1,0.7c0.1,0,0.2-0.1,0.2-0.2c0-0.5-0.5-1-0.3-1.5c0.3,0,0.6,0,0.9-0.1c0.8-0.2,1.6-0.4,2.3-0.8
				c1.3-0.6,2.5-1.4,3.5-2.5c1-1,1.7-2.3,2.3-3.6c0.6-1.4,1.1-3,1.1-4.6C69.5,14.2,69.4,13.2,69,12.3z"/>
			<path class="st14" d="M68.3,19.2c-0.5,1.3-1.2,2.5-2.2,3.6c-0.9,1-2,1.9-3.2,2.5c-0.8,0.4-1.6,0.7-2.4,0.9
				c-0.7,0.2-1.5,0.1-2.2,0.3c-0.1,0.1-0.2,0.2-0.2,0.3c0.4-0.1,0.7-0.1,1.1-0.1c-0.2,0.5,0.1,0.9,0.2,1.4c-2.6-0.4-4.4-2.6-5.6-4.8
				c-0.3-0.6-0.7-1.3-0.9-1.9c0-0.1-0.2,0-0.2,0c-0.1,0.5,0,1,0,1.4c-0.4-0.4-0.6-0.9-0.8-1.4c-0.2-0.6-0.3-1.2-0.4-1.8
				c0-0.1-0.2-0.1-0.2,0c-0.2,0.3-0.3,0.7-0.3,1.1c-0.2-0.4-0.2-0.8-0.2-1.3c0-1.6,0.2-3.1,0.7-4.6c0.5-1.6,1.4-3,2.6-4.2
				c2.2-2.3,5.4-3.6,8.6-3.5c1.7,0,3.5,0.5,4.8,1.6c-0.1,0-0.2,0-0.3,0c-0.1,0-0.2,0.1-0.1,0.2c0.4,0.3,0.8,0.6,1.1,0.9
				c0.2,0.2,0.4,0.4,0.5,0.6c0.1,0.1,0.2,0.2,0.2,0.4c-0.3-0.2-0.6-0.4-0.9-0.6c-0.1-0.1-0.3,0.1-0.2,0.2c0.4,0.5,0.8,1,0.9,1.6
				c-0.1-0.1-0.3-0.3-0.4-0.4c0.1,0.3,0.2,0.6,0.3,1c0.4,0.8,0.4,1.7,0.5,2.5C69.2,16.4,68.9,17.9,68.3,19.2z"/>
			<path class="st13" d="M51.8,14.5c0.7-1.6,2-3,3.4-4c0.7-0.5,1.5-0.9,2.3-1.3c0.9-0.5,1.9-0.8,3-1c1-0.2,2.1-0.3,3.1-0.2
				C64.4,8,65.2,8.2,66,8.4c0.4,0.1,0.8,0.2,1.2,0.4c0,0,0.1-0.1,0.1-0.1c0.1,0,0.2,0,0.3,0c-1.3-1.1-3.1-1.5-4.8-1.6
				c-3.2,0-6.4,1.3-8.6,3.5c-1.2,1.2-2.1,2.6-2.6,4.2c-0.3,0.9-0.5,1.9-0.6,2.9C51,16.6,51.3,15.5,51.8,14.5z"/>
			<path class="st13" d="M66,10.1c-0.2-0.5-0.7-0.7-1.1-0.8c-0.5-0.1-1-0.2-1.6-0.2c-1.4,0-2.6,0.8-3.5,1.8
				c-2.1,2.1-3.2,4.9-3.6,7.8c-0.1,0.5-0.1,1.1-0.2,1.6c0,0.1,0,0.1,0,0.2c0,0.4,0.1,0.8,0.1,1.2c0-0.4,0-0.8,0.1-1.2
				c0,0.1,0,0.2,0,0.3c0.1,0.4,0.2,0.9,0.4,1.3c0.1,0.3,0.3,0.7,0.5,1c0.2,0.3,0.4,0.5,0.7,0.7c0,0,0,0,0,0
				c-0.1-0.2-0.1-0.4-0.2-0.6c-0.3-0.4-0.5-0.8-0.7-1.3c-0.2-0.4-0.3-0.8-0.4-1.2c0-0.2-0.1-0.4-0.1-0.6c0-0.2-0.1-0.4-0.1-0.6
				c0.2-1.5,0.5-2.9,1.1-4.3c0.5-1.3,1.2-2.5,2.1-3.6c0.9-1,1.9-2,3.3-2.2c0.5-0.1,1.1-0.1,1.7,0.1c0.3,0.1,0.6,0.1,0.8,0.2
				c0.2,0.1,0.5,0.2,0.6,0.4C65.9,10.3,66,10.2,66,10.1z"/>
			<path class="st13" d="M67.1,20.8c-0.4,0.3-0.7,0.6-1.2,0.8c-0.4,0.3-0.9,0.5-1.4,0.7c-0.4,0.2-0.9,0.4-1.4,0.3
				c-0.2,0-0.4-0.1-0.5-0.2c-0.2-0.1-0.3-0.3-0.3-0.5c-0.1-0.3,0-0.6,0.2-0.8c0.1-0.1,0.2-0.1,0.4-0.2c0.2-0.1,0.3-0.2,0.5-0.3
				c0.3-0.2,0.7-0.5,0.9-0.8c0.3-0.3,0.5-0.6,0.8-1c0.9-1.3,1.5-3.2,0.6-4.7c0-0.1,0.1-0.1,0.1-0.1c0.3,0.5,0.5,1,0.8,1.5
				c0-0.8-0.1-1.6-0.4-2.3c0-0.1,0.1-0.1,0.1-0.1c0.3,0.3,0.5,0.7,0.7,1c0-0.1,0-0.1,0-0.2c-0.1-1.1-0.4-2.2-0.9-3.1
				c-0.5-0.9-1.3-1.6-2.3-1.8c-0.6-0.1-1.2-0.1-1.8,0c-0.7,0.1-1.4,0.4-2,0.7c-1.3,0.8-2.3,1.9-3,3.2c-0.2,0.4-0.4,0.7-0.5,1.1
				c-0.2,0.4-0.3,0.7-0.4,1.1C56,16,56,16.8,55.7,17.5c0,0-0.1,0-0.1,0c-0.2-0.2-0.4-0.4-0.5-0.6c-0.3-0.5-0.4-1-0.5-1.5
				c0-0.2-0.1-0.4-0.1-0.6c0,0.5-0.1,1-0.2,1.6c0,0.1-0.1,0.1-0.1,0c-0.2-0.2-0.3-0.5-0.3-0.7c-0.2-0.8-0.1-1.7,0-2.5
				c-0.4,0.9-0.5,1.9-0.6,2.8c0,0.1-0.1,0.1-0.1,0c-0.2-0.5-0.3-1-0.3-1.6c0-0.9,0.2-1.8,0.5-2.7c-0.7,0.9-1.3,2-1.6,3.1
				c-0.5,1.5-0.7,3-0.7,4.6c0,0.4,0,0.9,0.2,1.3c0.1-0.4,0.1-0.8,0.3-1.1c0-0.1,0.2-0.1,0.2,0c0,0.6,0.2,1.2,0.4,1.8
				c0.2,0.5,0.4,1,0.8,1.4c0-0.5-0.1-1,0-1.4c0-0.1,0.2-0.1,0.2,0c0.2,0.7,0.6,1.3,0.9,1.9c1.2,2.2,3,4.4,5.6,4.8
				c-0.1-0.5-0.5-0.9-0.2-1.4c-0.4,0-0.8,0-1.1,0.1c0.1-0.1,0.2-0.2,0.2-0.3c0.7-0.1,1.5-0.1,2.2-0.3c0.8-0.2,1.7-0.5,2.4-0.9
				c1.2-0.6,2.3-1.5,3.2-2.5c0.9-1,1.5-2.1,2-3.4C67.9,20,67.5,20.4,67.1,20.8z"/>
			<path class="st13" d="M63.6,23.2c-1.4-0.6-2.5-1.7-3.5-2.9c-0.5-0.7-0.9-1.4-1.2-2.1c-0.3-0.8-0.4-1.6-0.3-2.4
				c0.1-0.8,0.3-1.6,0.6-2.3c0.2-0.6,0.5-1.1,0.9-1.6c0.3-0.5,0.7-1,1.2-1.5c-0.2,0.1-0.4,0.2-0.5,0.3c-0.6,0.4-1.1,0.8-1.6,1.3
				c-0.5,0.6-1,1.2-1.3,1.9c-0.8,1.5-1.1,3.1-1.9,4.6c0,0-0.1,0-0.1,0c-0.4-0.6-1-1.2-1.7-1.5c-0.3-0.2-0.7-0.3-1.1-0.4
				c-0.4-0.1-0.9-0.2-1.3-0.3c-0.2,0-0.3-0.1-0.5-0.1c-0.2,1.1-0.3,2.2-0.3,3.4c0,0.4,0,0.9,0.2,1.3c0.1-0.4,0.1-0.8,0.3-1.1
				c0-0.1,0.2-0.1,0.2,0c0,0.6,0.2,1.2,0.4,1.8c0.2,0.5,0.4,1,0.8,1.4c0-0.5-0.1-1,0-1.4c0-0.1,0.2-0.1,0.2,0
				c0.2,0.7,0.6,1.3,0.9,1.9c1.2,2.2,3,4.4,5.6,4.8c-0.1-0.5-0.5-0.9-0.2-1.4c-0.4,0-0.8,0-1.1,0.1c0.1-0.1,0.2-0.2,0.2-0.3
				c0.7-0.1,1.5-0.1,2.2-0.3c0.8-0.2,1.7-0.5,2.4-0.9c0.9-0.4,1.7-1,2.4-1.7C64.7,23.6,64.1,23.4,63.6,23.2z"/>
		</g>
		<g>
			<path class="st13" d="M7.8,15.2c0,1.6,0.4,3.1,1.1,4.6c0.6,1.3,1.3,2.5,2.3,3.6c1,1,2.2,1.9,3.5,2.5c0.7,0.3,1.5,0.6,2.3,0.8
				c0.3,0.1,0.6,0.1,0.9,0.1c0.2,0.5-0.3,1-0.3,1.5c0,0.1,0.1,0.2,0.2,0.2c0.7-0.1,1.5-0.3,2.1-0.7c2.3-1.2,3.6-3.6,4.6-5.9
				c0,0.4-0.1,0.8-0.1,1.2c0,0.1,0.1,0.2,0.2,0.1c0.5-0.4,0.8-1,1-1.6c0.2-0.5,0.3-1,0.3-1.5c0.1,0.3,0.1,0.6,0.1,0.9
				c0,0.1,0.2,0.2,0.2,0.1c0.4-0.5,0.4-1.1,0.4-1.8c0.2-1.7-0.2-3.5-0.8-5.2c-1.3-3.1-4-5.5-7.1-6.6c-3.1-1.1-7-1.1-9.5,1.2
				C9.1,8.8,9.3,9,9.4,9c0.1,0,0.2-0.1,0.3-0.1C9.4,9.1,9,9.4,8.7,9.7C8.4,10,7.9,10.5,8.1,11c0,0.1,0.1,0.1,0.2,0.1
				c0.1,0,0.2-0.1,0.3-0.1c-0.2,0.4-0.4,0.8-0.4,1.3c0,0,0,0.1,0.1,0.1C7.9,13.2,7.8,14.2,7.8,15.2z"/>
			<path class="st14" d="M8.2,14.9c0-0.8,0.1-1.7,0.5-2.5c0.1-0.3,0.2-0.6,0.3-1c-0.1,0.1-0.3,0.3-0.4,0.4c0.1-0.6,0.5-1.1,0.9-1.6
				c0.1-0.1-0.1-0.2-0.2-0.2c-0.3,0.2-0.5,0.5-0.9,0.6c0-0.1,0.1-0.3,0.2-0.4C8.6,10.2,8.8,10,9,9.8c0.3-0.3,0.7-0.7,1.1-0.9
				c0.1-0.1,0-0.2-0.1-0.2c-0.1,0-0.2,0-0.3,0c1.3-1.1,3.1-1.5,4.8-1.6c3.2,0,6.4,1.3,8.6,3.5c1.2,1.2,2.1,2.6,2.6,4.2
				c0.5,1.5,0.7,3,0.7,4.6c0,0.4,0,0.9-0.2,1.3c-0.1-0.4-0.1-0.8-0.3-1.1c0-0.1-0.2-0.1-0.2,0c0,0.6-0.2,1.2-0.4,1.8
				c-0.2,0.5-0.4,1-0.8,1.4c0-0.5,0.1-1,0-1.4c0-0.1-0.2-0.1-0.2,0c-0.3,0.7-0.6,1.3-0.9,1.9c-1.2,2.2-3,4.4-5.6,4.8
				c0.1-0.5,0.5-0.9,0.2-1.4c0.4,0,0.8,0,1.1,0.1c-0.1-0.1-0.2-0.2-0.2-0.3c-0.7-0.1-1.5-0.1-2.2-0.3c-0.8-0.2-1.7-0.5-2.4-0.9
				c-1.2-0.6-2.3-1.5-3.2-2.5c-0.9-1.1-1.6-2.3-2.2-3.6C8.4,17.9,8.1,16.4,8.2,14.9z"/>
			<path class="st13" d="M25.6,14.5c-0.7-1.6-2-3-3.4-4c-0.7-0.5-1.5-0.9-2.3-1.3c-0.9-0.5-1.9-0.8-3-1c-1-0.2-2.1-0.3-3.1-0.2
				c-0.8,0.1-1.6,0.2-2.4,0.4c-0.4,0.1-0.8,0.2-1.2,0.4c0,0-0.1-0.1-0.1-0.1c-0.1,0-0.2,0-0.3,0c1.3-1.1,3.1-1.5,4.8-1.6
				c3.2,0,6.4,1.3,8.6,3.5c1.2,1.2,2.1,2.6,2.6,4.2c0.3,0.9,0.5,1.9,0.6,2.9C26.3,16.6,26,15.5,25.6,14.5z"/>
			<path class="st13" d="M11.4,10.1c0.2-0.5,0.7-0.7,1.1-0.8c0.5-0.1,1-0.2,1.6-0.2c1.4,0,2.6,0.8,3.5,1.8c2.1,2.1,3.2,4.9,3.6,7.8
				c0.1,0.5,0.1,1.1,0.2,1.6c0,0.1,0,0.1,0,0.2c0,0.4-0.1,0.8-0.1,1.2c0-0.4,0-0.8-0.1-1.2c0,0.1,0,0.2,0,0.3
				c-0.1,0.4-0.2,0.9-0.4,1.3c-0.1,0.3-0.3,0.7-0.5,1c-0.2,0.3-0.4,0.5-0.7,0.7c0,0,0,0,0,0c0.1-0.2,0.1-0.4,0.2-0.6
				c0.3-0.4,0.5-0.8,0.7-1.3c0.2-0.4,0.3-0.8,0.4-1.2c0-0.2,0.1-0.4,0.1-0.6c0-0.2,0.1-0.4,0.1-0.6c-0.2-1.5-0.5-2.9-1.1-4.3
				c-0.5-1.3-1.2-2.5-2.1-3.6c-0.9-1-1.9-2-3.3-2.2c-0.5-0.1-1.1-0.1-1.7,0.1c-0.3,0.1-0.6,0.1-0.8,0.2c-0.2,0.1-0.5,0.2-0.6,0.4
				C11.5,10.3,11.3,10.2,11.4,10.1z"/>
			<path class="st13" d="M10.3,20.8c0.4,0.3,0.7,0.6,1.2,0.8c0.4,0.3,0.9,0.5,1.4,0.7c0.4,0.2,0.9,0.4,1.4,0.3
				c0.2,0,0.4-0.1,0.5-0.2c0.2-0.1,0.3-0.3,0.3-0.5c0.1-0.3,0-0.6-0.2-0.8c-0.1-0.1-0.2-0.1-0.4-0.2c-0.2-0.1-0.3-0.2-0.5-0.3
				c-0.3-0.2-0.7-0.5-0.9-0.8c-0.3-0.3-0.5-0.6-0.8-1c-0.9-1.3-1.5-3.2-0.6-4.7c0-0.1-0.1-0.1-0.1-0.1c-0.3,0.5-0.5,1-0.8,1.5
				c0-0.8,0.1-1.6,0.4-2.3c0-0.1-0.1-0.1-0.1-0.1c-0.3,0.3-0.5,0.7-0.7,1c0-0.1,0-0.1,0-0.2c0.1-1.1,0.4-2.2,0.9-3.1
				c0.5-0.9,1.3-1.6,2.3-1.8c0.6-0.1,1.2-0.1,1.8,0c0.7,0.1,1.4,0.4,2,0.7c1.3,0.8,2.3,1.9,3,3.2c0.2,0.4,0.4,0.7,0.5,1.1
				c0.2,0.4,0.3,0.7,0.4,1.1c0.2,0.7,0.2,1.5,0.5,2.2c0,0,0.1,0,0.1,0c0.2-0.2,0.4-0.4,0.5-0.6c0.3-0.5,0.4-1,0.5-1.5
				c0-0.2,0.1-0.4,0.1-0.6c0,0.5,0.1,1,0.2,1.6c0,0.1,0.1,0.1,0.1,0c0.2-0.2,0.3-0.5,0.3-0.7c0.2-0.8,0.1-1.7,0-2.5
				c0.4,0.9,0.5,1.9,0.6,2.8c0,0.1,0.1,0.1,0.1,0c0.2-0.5,0.3-1,0.3-1.6c0-0.9-0.2-1.8-0.5-2.7c0.7,0.9,1.3,2,1.6,3.1
				c0.5,1.5,0.7,3,0.7,4.6c0,0.4,0,0.9-0.2,1.3c-0.1-0.4-0.1-0.8-0.3-1.1c0-0.1-0.2-0.1-0.2,0c0,0.6-0.2,1.2-0.4,1.8
				c-0.2,0.5-0.4,1-0.8,1.4c0-0.5,0.1-1,0-1.4c0-0.1-0.2-0.1-0.2,0c-0.3,0.7-0.6,1.3-0.9,1.9c-1.2,2.2-3,4.4-5.6,4.8
				c0.1-0.5,0.5-0.9,0.2-1.4c0.4,0,0.8,0,1.1,0.1c-0.1-0.1-0.2-0.2-0.2-0.3c-0.7-0.1-1.5-0.1-2.2-0.3c-0.8-0.2-1.7-0.5-2.4-0.9
				c-1.2-0.6-2.3-1.5-3.2-2.5c-0.9-1-1.5-2.1-2-3.4C9.4,20,9.8,20.4,10.3,20.8z"/>
			<path class="st13" d="M13.8,23.2c1.4-0.6,2.5-1.7,3.5-2.9c0.5-0.7,0.9-1.4,1.2-2.1c0.3-0.8,0.4-1.6,0.3-2.4
				c-0.1-0.8-0.3-1.6-0.6-2.3c-0.2-0.6-0.5-1.1-0.9-1.6c-0.3-0.5-0.7-1-1.2-1.5c0.2,0.1,0.4,0.2,0.5,0.3c0.6,0.4,1.1,0.8,1.6,1.3
				c0.5,0.6,1,1.2,1.3,1.9c0.8,1.5,1.1,3.1,1.9,4.6c0,0,0.1,0,0.1,0c0.4-0.6,1-1.2,1.7-1.5c0.3-0.2,0.7-0.3,1.1-0.4
				c0.4-0.1,0.9-0.2,1.3-0.3c0.2,0,0.3-0.1,0.5-0.1c0.2,1.1,0.3,2.2,0.3,3.4c0,0.4,0,0.9-0.2,1.3c-0.1-0.4-0.1-0.8-0.3-1.1
				c0-0.1-0.2-0.1-0.2,0c0,0.6-0.2,1.2-0.4,1.8c-0.2,0.5-0.4,1-0.8,1.4c0-0.5,0.1-1,0-1.4c0-0.1-0.2-0.1-0.2,0
				c-0.3,0.7-0.6,1.3-0.9,1.9c-1.2,2.2-3,4.4-5.6,4.8c0.1-0.5,0.5-0.9,0.2-1.4c0.4,0,0.8,0,1.1,0.1c-0.1-0.1-0.2-0.2-0.2-0.3
				c-0.7-0.1-1.5-0.1-2.2-0.3c-0.8-0.2-1.7-0.5-2.4-0.9c-0.9-0.4-1.7-1-2.4-1.7C12.6,23.6,13.2,23.4,13.8,23.2z"/>
		</g>
		<path class="st13" d="M71.4,43.4c0,0,0.1,0.1,0.1,0.1c0.1,0.1,0.3-0.1,0.3-0.2c-0.1-0.6-0.3-1.2-0.6-1.7c-0.1-0.2-0.2-0.3-0.3-0.5
			c0.1,0.1,0.2,0.2,0.3,0.3c0.1,0.1,0.2,0,0.2-0.1c-0.2-1.2-0.8-2.3-1.7-3.1c-0.8-0.7-1.9-1-2.9-1.1c0-1.1,0-2.2-0.2-3.2
			c-0.1-1.1-0.4-2.2-0.7-3.3c-0.6-2-1.5-3.9-2.6-5.7c-1.1-1.6-2.4-3.1-3.9-4.3c-1.6-1.3-3.4-2.4-5.4-3.1c-1.1-0.4-2.1-0.7-3.2-1
			c-1.1-0.3-2.3-0.7-3.5-0.5c0,0,0,0,0,0c0.3-0.1,0.6-0.2,0.9-0.3c0.1,0,0.3-0.2,0.1-0.3c-0.9-0.4-1.9-0.3-2.9-0.3
			c-0.5,0-1,0-1.5,0.1c-0.3,0.1-0.7,0.2-1,0.3c0.4-0.4,0.7-0.7,1.2-0.9c0.1,0,0.3-0.3,0.1-0.3c-0.7-0.1-1.3,0.2-1.9,0.5
			c-0.1,0-0.1,0.1-0.2,0.1c0,0,0-0.1,0-0.1c0-0.2,0.1-0.4,0.2-0.6c0.1-0.2,0.2-0.3,0.2-0.5c0-0.1-0.1-0.1-0.2-0.1
			c-0.5,0.3-1,0.7-1.3,1.1c-0.1,0.2-0.2,0.3-0.3,0.5c-0.2-0.2-0.4-0.3-0.7-0.4c-0.6-0.3-1.3-0.6-1.9-0.5c-0.2,0-0.1,0.3,0.1,0.3
			c0.5,0.1,0.9,0.5,1.2,0.9c-0.3-0.1-0.7-0.2-1-0.3c-0.5-0.1-1-0.1-1.5-0.1c-0.9,0-2-0.1-2.9,0.3c-0.2,0.1,0,0.2,0.1,0.3
			c0.3,0.1,0.6,0.2,0.9,0.3c0,0,0,0,0,0c-1.2-0.2-2.4,0.2-3.5,0.5c-1.1,0.3-2.2,0.6-3.2,1c-1.9,0.8-3.8,1.8-5.4,3.1
			c-1.5,1.2-2.8,2.7-3.9,4.3c-1.2,1.7-2,3.7-2.6,5.7c-0.3,1.1-0.6,2.2-0.7,3.3c-0.1,1.1-0.2,2.2-0.2,3.2c-1.1,0.1-2.1,0.4-2.9,1.1
			c-0.9,0.8-1.4,1.9-1.7,3.1c0,0.1,0.1,0.2,0.2,0.1c0.1-0.1,0.2-0.2,0.3-0.3c-0.1,0.2-0.2,0.3-0.3,0.5c-0.3,0.5-0.5,1.1-0.6,1.7
			c0,0.1,0.1,0.2,0.3,0.2c0,0,0.1-0.1,0.1-0.1c-0.6,1.4-0.5,3.1-0.2,4.5c0.4,2.1,1.4,4,2.7,5.7c1.4,1.8,3.1,3.4,5.1,4.6
			c1,0.6,2,1.2,3.1,1.6c1.2,0.5,2.4,0.9,3.7,1.3c0.7,0.2,1.4,0.4,2.2,0.6c0.7,0.2,1.4,0.4,2.2,0.5c0.1,0,0.3,0,0.4,0.1
			c0,0.3,0.1,0.5,0.1,0.8c0.2,1.7,0.5,3.4,1.2,5c0.5,1.1,1.3,2.1,2.3,2.9c1,0.8,2.2,1.3,3.4,1.6c2.7,0.7,5.7,0.8,8.5,0.2
			c1.4-0.3,2.7-0.8,3.9-1.4c1.2-0.7,2.4-1.6,3.3-2.7c0.9-1.1,1.4-2.5,1.8-3.8c0.3-1,0.5-2.1,0.7-3.1c0.7-0.2,1.4-0.4,2.2-0.6
			c1.2-0.4,2.5-0.7,3.7-1.3c1.1-0.5,2.1-1,3.1-1.6c1.9-1.2,3.7-2.8,5.1-4.6c1.3-1.7,2.2-3.6,2.7-5.7C71.9,46.5,72,44.8,71.4,43.4z"
			/>
		<path class="st15" d="M68.4,46.4c-0.3,2-1.2,3.9-2.3,5.6c-1.3,1.9-2.9,3.4-4.7,4.7c-1.9,1.3-4,2.2-6.2,2.9
			c-0.9,0.3-1.9,0.6-2.9,0.8c0.1-0.2,0.1-0.5,0.2-0.7c0-0.1,0.1-0.2,0.1-0.3c-0.3,0.5-0.5,1.2-0.7,1.8c-0.1,0.5-0.3,1-0.4,1.5
			c-0.3,1.3-0.7,2.7-1.4,3.9c-1.4,2.4-4,3.9-6.6,4.7c-2.7,0.7-5.5,0.8-8.2,0.2c-1.2-0.2-2.4-0.6-3.5-1.3c-1-0.6-1.8-1.5-2.4-2.6
			c-0.8-1.4-1.2-3-1.4-4.6c-0.1-0.8-0.2-1.7-0.4-2.5c-0.2-0.7-0.4-1.4-0.8-2.1c-0.2-0.4-0.3-0.7-0.5-1.1c0,0-0.1,0-0.1,0.1
			c0.3,0.7,0.7,1.5,0.9,2.3c0.1,0.4,0.2,0.9,0.3,1.3c-0.4-0.1-0.8-0.2-1.3-0.3c-1.4-0.4-2.8-0.8-4.1-1.2c-2.2-0.7-4.3-1.6-6.2-2.9
			c-1.8-1.3-3.5-2.8-4.7-4.7c-1.1-1.7-2-3.6-2.3-5.6c-0.2-1.4-0.2-2.9,0.4-4.2c0.2-0.4,0.4-0.9,0.6-1.3c-0.4,0.3-0.7,0.8-1.1,1.1
			c0.1-0.4,0.3-0.8,0.5-1.2c0.1-0.1,0.1-0.2,0.2-0.3c0.2-0.3,0.3-0.6,0.5-0.9c-0.3,0.1-0.5,0.3-0.8,0.5c0.2-0.4,0.4-0.9,0.6-1.3
			c0.4-0.7,1-1.3,1.7-1.7c0,0,0,0,0,0c0.5-0.3,1.1-0.4,1.7-0.6c0.4-0.1,0.9-0.2,1.3-0.2c-0.3-0.1-0.6-0.1-0.9-0.1c0,0,0,0,0,0
			c0.1-1.2,0.1-2.4,0.3-3.6c0.2-1.2,0.5-2.5,0.9-3.6c1.3-3.7,3.6-7.1,6.7-9.5c1.7-1.3,3.5-2.2,5.4-2.9c1.1-0.4,2.1-0.7,3.2-1
			c0.6-0.2,1.2-0.3,1.8-0.4c0.5-0.1,1.1,0.1,1.6,0.1c0.1,0,0.1-0.2,0-0.2c-0.4-0.2-0.8-0.4-1.3-0.5c0.7-0.2,1.6-0.1,2.3-0.1
			c0.5,0,1,0,1.5,0.1c0.5,0.1,1,0.3,1.4,0.5c0.1,0,0.1,0,0.1,0c0,0,0,0,0,0c-0.1-0.1-0.1-0.3-0.2-0.4c0,0,0,0,0,0
			c-0.3-0.3-0.6-0.6-0.9-0.9c0.4,0.1,0.7,0.2,1.1,0.4c0.1,0.1,0.2,0.1,0.3,0.2c0.2,0.1,0.4,0.2,0.5,0.2c0,0,0-0.1,0-0.1c0,0,0,0,0,0
			c0,0,0,0,0,0c0,0,0,0,0,0c0,0,0-0.1,0.1-0.1c0.1-0.1,0.2-0.3,0.3-0.4c0.2-0.3,0.5-0.6,0.9-0.8c0,0.1-0.1,0.2-0.1,0.3
			c-0.1,0.2-0.1,0.4-0.1,0.6c0,0,0,0.1,0,0.1c0,0.1,0,0.1,0,0.2c0.1,0,0.2-0.1,0.3-0.1c0,0,0.1-0.1,0.1-0.1c0.3-0.2,0.7-0.3,1.1-0.4
			c-0.3,0.2-0.5,0.5-0.7,0.7c-0.1,0.2-0.2,0.4-0.3,0.6c0,0,0.1,0,0.1,0c0.5-0.2,0.9-0.4,1.4-0.5c0.5-0.1,1-0.1,1.5-0.1
			c0.8,0,1.6-0.1,2.3,0.1c-0.4,0.1-0.9,0.3-1.3,0.5c-0.1,0-0.2,0.2,0,0.2c0.5,0,1.1-0.2,1.6-0.1c0.6,0.1,1.2,0.2,1.8,0.4
			c1.1,0.3,2.2,0.6,3.2,1c2,0.7,3.8,1.7,5.4,2.9c3.1,2.4,5.4,5.7,6.7,9.5c0.4,1.2,0.7,2.4,0.9,3.6c0.2,1.2,0.2,2.4,0.3,3.6
			c0,0,0,0,0,0c-0.3,0-0.6,0-0.9,0.1c0.4,0,0.9,0.1,1.3,0.2c0.6,0.1,1.1,0.3,1.7,0.6c0,0,0,0,0,0c0.7,0.4,1.3,1,1.7,1.7
			c0.2,0.4,0.4,0.8,0.6,1.3c-0.2-0.2-0.5-0.4-0.8-0.5c0.2,0.3,0.4,0.6,0.5,0.9c0.1,0.1,0.1,0.2,0.2,0.3c0.2,0.4,0.4,0.8,0.5,1.2
			c-0.4-0.3-0.7-0.8-1.1-1.1c0.2,0.4,0.4,0.9,0.6,1.3C68.6,43.5,68.6,45.1,68.4,46.4z"/>
		<path class="st2" d="M25.9,39.8c-1.3-0.7-2.7-0.9-4.1-0.9c-0.3,0-0.5,0-0.8,0c1.1,0.3,2.2,0.6,3.3,0.9c0.6,0.2,1.3,0.4,1.9,0.6
			c0.5,0.2,0.9,0.4,1.3,0.6C27,40.6,26.5,40.2,25.9,39.8z"/>
		<path class="st2" d="M55.7,38.7c-0.8,0-1.6,0.1-2.4,0.2c-0.7,0.2-1.4,0.4-2.1,0.7c-0.1,0.1-0.3,0.2-0.4,0.3
			c0.3-0.1,0.5-0.2,0.8-0.3c1.4-0.4,2.9-0.6,4.3-0.7c1.1-0.1,2.3,0,3.4,0.1c-0.4-0.1-0.9-0.2-1.3-0.2C57.3,38.8,56.5,38.7,55.7,38.7
			z"/>
		<g>
			<path class="st2" d="M56.3,29c-0.4-0.3-0.8-0.5-1.3-0.6c0,0,0.1,0,0.1,0.1c0.5,0.4,0.9,0.9,1.2,1.4c0.3,0.4,0.5,0.9,0.6,1.4
				C57,31,57,30.7,57,30.4C57,29.8,56.7,29.3,56.3,29z"/>
			<path class="st2" d="M52.2,53.5c-0.3,0.4-0.6,0.8-0.7,1.3c-0.1,0.5-0.1,0.9,0.1,1.4c0.1-0.4,0.3-0.8,0.5-1.2
				c0.4-0.9,0.8-1.7,1.4-2.4c0.1-0.2,0.3-0.3,0.4-0.5C53.3,52.4,52.7,52.9,52.2,53.5z"/>
			<path class="st2" d="M26.5,54.6c-0.6-0.4-1.3-0.6-2-0.7c0.3,0.1,0.6,0.2,0.9,0.4c1.4,0.7,2.5,2.1,3.1,3.5c0-0.4-0.1-0.8-0.3-1.1
				C27.9,55.8,27.3,55.1,26.5,54.6z"/>
			<path class="st2" d="M22,29.2c-0.4,0.8-0.4,1.8-0.3,2.7c0.1-0.4,0.2-0.8,0.4-1.2c0.3-0.9,0.7-1.9,1.4-2.6
				c0.3-0.3,0.7-0.6,1.1-0.8c0.3-0.1,0.5-0.2,0.8-0.2c-0.3,0-0.6,0.1-0.9,0.1C23.4,27.5,22.4,28.2,22,29.2z"/>
		</g>
		<path class="st16" d="M69,42.2c-0.2-0.4-0.4-0.9-0.6-1.3c0.4,0.3,0.7,0.8,1.1,1.1c-0.1-0.4-0.3-0.8-0.5-1.2
			c-0.1-0.1-0.1-0.2-0.2-0.3c-0.2-0.3-0.3-0.6-0.5-0.9c0.3,0.1,0.5,0.3,0.8,0.5c-0.2-0.4-0.4-0.9-0.6-1.3c-0.4-0.7-1-1.3-1.7-1.7
			c0,0,0,0,0,0c-0.5-0.3-1.1-0.4-1.7-0.6c-0.4-0.1-0.9-0.2-1.3-0.2c0.3-0.1,0.6-0.1,1-0.1c0,0,0,0,0,0c-0.1-1.2-0.1-2.4-0.3-3.6
			c-0.2-1.2-0.5-2.5-0.9-3.6c-1.3-3.7-3.6-7.1-6.7-9.5c-1.7-1.3-3.5-2.2-5.5-2.9c-1.1-0.4-2.2-0.7-3.3-1c-0.6-0.2-1.2-0.3-1.8-0.4
			c-0.6-0.1-1.1,0.1-1.6,0.1c-0.1,0-0.1-0.2,0-0.2c0.4-0.2,0.8-0.4,1.3-0.5c-0.8-0.2-1.6-0.1-2.3-0.1c-0.5,0-1,0-1.5,0.1
			c-0.5,0.1-1,0.3-1.5,0.5c0,0-0.1,0-0.1,0c0.1-0.2,0.2-0.4,0.4-0.6c0.2-0.2,0.5-0.5,0.8-0.7c-0.4,0.1-0.8,0.2-1.1,0.4
			c0,0-0.1,0-0.1,0.1c-0.1,0-0.2,0.1-0.3,0.1c0-0.1,0-0.1,0-0.2c0,0,0-0.1,0-0.1c0-0.2,0.1-0.4,0.1-0.6c0-0.1,0.1-0.2,0.1-0.3
			c-0.3,0.2-0.7,0.5-0.9,0.8c-0.1,0.1-0.2,0.3-0.3,0.4c0,0,0,0.1-0.1,0.1c0,0,0,0,0,0c0,0,0,0,0,0c0,0,0,0,0,0c0,0,0,0.1,0,0.1
			c-0.2-0.1-0.4-0.2-0.6-0.2c-0.1-0.1-0.2-0.1-0.3-0.2c-0.3-0.2-0.7-0.3-1.1-0.4c0.3,0.2,0.6,0.6,0.9,0.9c0,0,0,0,0,0
			c0.1,0.1,0.2,0.2,0.2,0.4c0,0,0,0,0,0c0,0-0.1,0-0.1,0c-0.5-0.2-0.9-0.4-1.5-0.5c-0.5-0.1-1-0.1-1.5-0.1c-0.8,0-1.6-0.1-2.3,0.1
			c0.4,0.1,0.9,0.3,1.3,0.5c0.1,0,0.2,0.2,0,0.2c-0.6,0-1.1-0.2-1.6-0.1c-0.6,0.1-1.2,0.2-1.8,0.4c-1.1,0.3-2.2,0.6-3.3,1
			c-2,0.7-3.8,1.7-5.5,2.9c-3.1,2.4-5.5,5.7-6.7,9.5c-0.4,1.2-0.7,2.4-0.9,3.6c-0.2,1.2-0.2,2.4-0.3,3.6c0,0,0,0,0,0
			c0.3,0,0.6,0,1,0.1c-0.4,0-0.9,0.1-1.3,0.2c-0.6,0.1-1.2,0.3-1.7,0.6c0,0,0,0,0,0c-0.7,0.4-1.3,1-1.7,1.7
			c-0.2,0.4-0.4,0.8-0.6,1.3c0.2-0.2,0.5-0.4,0.8-0.5c-0.2,0.3-0.4,0.6-0.5,0.9c-0.1,0.1-0.2,0.2-0.2,0.3c-0.2,0.4-0.4,0.8-0.5,1.2
			c0.4-0.3,0.7-0.8,1.1-1.1c-0.2,0.4-0.4,0.9-0.6,1.3c-0.6,1.2-0.6,2.8-0.4,4.2c0.3,2,1.2,3.9,2.3,5.6c1.3,1.9,2.9,3.4,4.8,4.7
			c1.9,1.3,4.1,2.2,6.3,2.9c1.4,0.4,2.8,0.8,4.2,1.2c0.4,0.1,0.8,0.2,1.3,0.3c-0.1-0.4-0.2-0.9-0.3-1.3c-0.2-0.8-0.6-1.5-0.9-2.3
			c0,0,0.1-0.1,0.1-0.1c0.2,0.3,0.4,0.7,0.5,1.1c0.3,0.7,0.6,1.4,0.8,2.1c0.2,0.8,0.3,1.6,0.4,2.5c0.2,1.6,0.6,3.2,1.4,4.6
			c0.6,1,1.4,1.9,2.5,2.6c1.1,0.7,2.3,1.1,3.6,1.3c2.7,0.5,5.6,0.5,8.3-0.2c2.6-0.7,5.3-2.2,6.7-4.7c0.7-1.2,1.1-2.6,1.4-3.9
			c0.1-0.5,0.3-1,0.4-1.5c0.2-0.6,0.4-1.2,0.7-1.8c0,0.1-0.1,0.2-0.1,0.3c-0.1,0.2-0.1,0.5-0.2,0.7c1-0.3,1.9-0.5,2.9-0.8
			c2.2-0.7,4.4-1.6,6.3-2.9c1.9-1.3,3.5-2.8,4.8-4.7c1.1-1.7,2-3.6,2.3-5.6C69.6,45.1,69.6,43.5,69,42.2z M66,47.4
			c-0.4,1.6-1.4,3-2.6,4.2c-1.3,1.3-2.8,2.3-4.4,3.2c-0.9,0.5-1.9,0.9-2.8,1.3c-0.9,0.4-1.9,0.7-2.7,1.4c0,0-0.1,0-0.1,0
			c0-0.5,0.1-1,0.1-1.5c0.3-1.5,0.9-3,1.8-4.3c-0.3,0.3-0.6,0.6-0.9,0.9c-1.5,1.8-2.4,3.9-3,6.1c0,0.1-0.1,0.1-0.1,0
			c-0.2-1.2-0.2-2.4-0.7-3.6c0,0.3,0,0.5,0.1,0.8c0.1,1.5-0.1,3-0.4,4.4c0,0.1-0.1,0.1-0.1,0c-0.1-0.3-0.2-0.6-0.3-0.8
			c-0.3-1.2-0.4-2.5-0.6-3.8c-0.2-1-0.6-2.2-0.1-3.2c0.1-0.2,0.3-0.4,0.4-0.6c0.2-0.2,0.3-0.4,0.5-0.6c0.4-0.4,0.7-0.7,1.1-1
			c0.4-0.4,0.7-0.7,1-1.1c0.3-0.4,0.5-0.9,0.7-1.5c0.1-0.5,0.1-1,0-1.5c-0.1-0.5-0.3-0.9-0.6-1.3c-0.5-0.9-1.2-1.6-1.7-2.5
			c-0.4-0.7-0.8-1.6-0.2-2.3c0.3-0.3,0.7-0.5,1-0.7c0.2-0.1,0.5-0.2,0.7-0.3c0.3-0.1,0.6-0.2,1-0.3c0.6-0.2,1.3-0.3,1.9-0.3
			c0.7,0,1.4,0,2.1,0.1c0.6,0.1,1.2,0.2,1.8,0.3c-0.9-0.7-1.9-1.1-3-1.2c0,0-0.1,0-0.1-0.1c0-0.1,0.1-0.3,0.1-0.4
			c0.3-1.1,0.6-2.1,0.7-3.2c0.1-1.1,0-2.2-0.6-3.2c-0.4-0.8-1-1.4-1.7-1.9c-0.7-0.5-1.5-0.9-2.4-1.1c-0.8-0.2-1.7-0.1-2.5,0.4
			c-0.1,0-0.1-0.1-0.1-0.1c0.4-0.5,0.8-0.9,1.3-1.2c-0.4,0.1-0.7,0.3-1.1,0.5c-0.9,0.5-1.8,1.2-2.5,2C46.6,30.1,46,31,45.7,32
			c0,0.1-0.1,0.1-0.1,0c0-0.4,0-0.8,0-1.2c0-0.6,0.2-1.1,0.3-1.6c-0.7,1.1-1.1,2.5-1.3,3.8c0,0,0,0.1-0.1,0.1
			c-0.6,0-1.1-0.2-1.7-0.4c-0.6-0.2-1.2-0.3-1.9-0.3c-1.2-0.1-2.3,0-3.5,0.2c-0.8,0.1-1.5,0.4-2.3,0.4c-0.7,0-1.3-0.2-1.6-0.9
			c-0.3-0.7-0.1-1.5-0.7-2c0.1,1,0,2.1-0.2,3.1c0,0.1-0.1,0.1-0.1,0c0-0.5-1.8-5.4-3-6.8c-1.4-1.6-10-6-7.3,4.4
			c0.6,2.3-0.2,4.8,0.7,6.9c0,0,0,0.1-0.1,0.1c-1.2-0.1,1.8,0.9,3.8,2c0.4,0.2,0.9,0.4,1.2,0.7c0.3,0.2,0.4,0.6,0.3,0.9
			c-0.1,0.4-0.3,0.8-0.6,1.1c-0.3,0.4-0.6,0.7-0.9,1.1c-0.7,1-1.4,2.2-1.4,3.5c0,0.9,0.4,1.8,0.9,2.5c0.6,0.8,1.3,1.4,1.9,2.1
			c0.7,0.8,1.3,1.7,1.6,2.8c0.6,2.4-0.5,4.8-0.8,7.2c0,0.1-0.1,0.1-0.1,0c0-0.6-0.1-1.2-0.2-1.8c-0.5-2.2-1.8-4.8-4.2-5.1
			c0.8,1.2,1.9,2.5,1.8,4c0,0,0,0.1-0.1,0.1c-2-0.6-4.1-1.2-6-2c-1.7-0.7-3.4-1.6-4.9-2.7c-1.5-1.2-2.8-2.6-3.7-4.3
			c-0.5-0.9-0.9-1.9-1-2.9c-0.2-1-0.1-2,0.2-3c0.2-0.7,0.6-1.4,1.3-1.8c0.6-0.4,1.3-0.7,2-1c-0.7-0.3-1.4-0.4-2.2-0.5
			c-0.1,0-0.1-0.1,0-0.1c0.6-0.3,1.2-0.5,1.8-0.6c-0.6-0.3-1.3-0.4-2-0.3c-0.1,0-0.1-0.1-0.1-0.1c1.1-0.8,2.3-1.5,3.6-1.7
			c1.2-0.2,2.3,0,3.4,0.5c-0.1-0.1-0.3-0.2-0.4-0.3c-0.5-0.4-0.9-0.7-1.5-0.9c-0.3-0.1-0.8-0.2-1-0.5c-0.2-0.3-0.1-0.7-0.1-1.1
			c0-0.4,0.1-0.9,0.2-1.3c0.1-1.4,0.4-2.7,0.8-4c0.3-1,0.7-2,1.2-3c1-2,2.4-3.7,4-5.2c1.6-1.5,3.5-2.8,5.5-3.7
			c1.3-0.6,2.6-1.1,4-1.4c0.1,0,0.2-0.1,0.3-0.1c1.5-0.3,3-0.5,4.5-0.3c-0.3-0.4-0.6-0.8-1.1-1.1c-0.1,0,0-0.1,0-0.1
			c0.3,0,0.6,0,0.8,0.1c0.8,0.2,1.4,0.7,1.8,1.4c-0.1-0.4-0.2-0.8-0.3-1.2c0-0.1,0.1-0.1,0.1-0.1c0.5,0.2,0.9,0.7,1.2,1.2
			c0.1-0.5,0.2-1.1,0.5-1.6c0,0,0.1,0,0.1,0c0.2,0.5,0.2,1,0.4,1.4c0.2-0.2,0.3-0.3,0.5-0.4c0.8-0.5,1.8-0.8,2.7-1
			c0.1,0,0.1,0.1,0.1,0.1c-0.5,0.4-0.9,0.8-1.3,1.2c0.9-0.4,1.8-0.7,2.8-0.7c0.1,0,0.1,0.1,0,0.1c-0.2,0.2-0.5,0.3-0.7,0.5
			c0.2,0,0.5,0,0.7,0c1.2,0,2.4,0.2,3.6,0.6c1.2,0.3,2.4,0.8,3.5,1.4c1.1,0.6,2.2,1.3,3.1,2c1,0.7,1.8,1.6,2.6,2.5
			c0.9,1,1.7,2.1,2.4,3.3c0.7,1.2,1.3,2.5,1.8,3.8c0.2,0.7,0.4,1.3,0.6,2c0.1,0.6,0.2,1.2,0.4,1.9c0.1,0.5,0.2,1,0,1.5
			c-0.2,0.5-0.8,0.7-1.2,0.8c-0.5,0.1-1,0.2-1.5,0.3c1.1-0.1,2.2-0.2,3.3,0c1,0.2,2,0.7,2.5,1.7c0,0.1,0,0.1-0.1,0.1
			c-0.5-0.3-1.1-0.5-1.7-0.6c0.5,0.5,1.1,1,1.2,1.8c0,0.1-0.1,0.1-0.1,0.1c-0.7-0.6-1.7-1-2.7-0.9c0.1,0.1,0.2,0.2,0.3,0.3
			c1.3,1,2.4,2.2,3,3.7C66.4,44,66.5,45.8,66,47.4z"/>
		<path class="st15" d="M26.9,58.1c0.3,0.9,0.5,1.7,0.4,2.6c0,0-0.1,0.1-0.1,0c-2-0.5-4-1.1-6-1.8c-1.6-0.6-3.1-1.2-4.6-2.1
			c-1.4-0.8-2.6-1.8-3.8-3c-0.2-0.2-0.4-0.4-0.6-0.6c1.1,1.3,2.4,2.4,3.8,3.4c1.9,1.3,4.1,2.2,6.3,2.9c1.4,0.4,2.8,0.8,4.2,1.2
			c0.4,0.1,0.8,0.2,1.3,0.3c-0.1-0.4-0.2-0.9-0.3-1.3C27.3,59.2,27.1,58.7,26.9,58.1z"/>
		<path class="st17" d="M69.1,47.1c-0.6,1.4-1.4,2.9-2.4,4.1c-1.1,1.3-2.4,2.5-3.8,3.6c-2.7,2.1-5.9,4-9.4,4.5c0,0-0.1,0-0.1-0.1
			c0.1-0.5,0.3-1,0.6-1.5c-2.1,2.2-2.5,5.5-3.9,8.1c-0.6,1.1-1.4,2.2-2.4,2.9c-0.6,0.4-1.3,0.7-1.9,0.9c-0.8,0.3-1.5,0.5-2.3,0.7
			C40.7,71,37.6,71,34.7,70c-2.3-0.8-4.2-2.3-5.2-4.6c-0.5-1.3-0.7-2.7-1.1-4c-0.3-1.1-0.7-2.2-1.3-3.2c0,0.1,0.1,0.2,0.1,0.3
			c0.3,0.7,0.6,1.4,0.8,2.1c0.2,0.8,0.3,1.6,0.4,2.5c0.2,1.6,0.6,3.2,1.4,4.6c0.6,1,1.4,1.9,2.5,2.6c1.1,0.7,2.3,1.1,3.6,1.3
			c2.7,0.5,5.6,0.5,8.3-0.2c2.6-0.7,5.3-2.2,6.7-4.7c0.7-1.2,1.1-2.6,1.4-3.9c0.1-0.5,0.3-1,0.4-1.5c0.2-0.6,0.4-1.2,0.7-1.8
			c0,0.1-0.1,0.2-0.1,0.3c-0.1,0.2-0.1,0.5-0.2,0.7c1-0.3,1.9-0.5,2.9-0.8c2.2-0.7,4.4-1.6,6.3-2.9c1.9-1.3,3.5-2.8,4.8-4.7
			c1.1-1.6,1.9-3.5,2.3-5.4C69.3,46.8,69.2,46.9,69.1,47.1z"/>
		<path class="st18" d="M49.2,59.4c-0.3-1.1-0.6-2.2-0.9-3.2c-0.5-1.8-0.9-3.7-0.7-5.6c0-0.3,0.1-0.5,0.1-0.8
			c0.1-0.1,0.2-0.2,0.3-0.4c0.1-0.2,0.3-0.4,0.3-0.6c0.1-0.2,0.1-0.3,0-0.5c-0.1-0.2-0.3-0.2-0.5-0.2c-0.6-0.1-1.3,0-1.9,0
			c-0.7,0.1-1.4,0.1-2.1,0.3c-1.5,0.2-2.9,0.5-4.4,0.6c-1.5,0.1-3,0.2-4.5,0.2c-1.6,0-3.3-0.1-4.9-0.3c0,0,0,0,0,0c0,0,0,0-0.1,0
			c0,0,0,0-0.1,0c0,0-0.1,0.1,0,0.1c0,0,0.1,0,0.1,0c0.5,0.6,0.8,1.4,0.9,2.1c0.2,0.9,0.3,1.9,0.3,2.8c0,1.1,0,2.2-0.1,3.3
			c-0.1,0.8-0.2,1.6-0.4,2.3c-0.3,1.6-0.7,3.2-0.5,4.9c0.1,0.8,0.4,1.5,0.8,2.1c0.5,0.7,1.1,1.2,1.8,1.6c1.5,0.8,3.3,1.1,5,1.3
			c2.1,0.2,4.3,0.1,6.3-0.5c1.5-0.4,2.8-1.2,3.9-2.3c1.1-1.1,1.7-2.6,1.7-4.1C49.8,61.4,49.4,60.4,49.2,59.4z"/>
		<path class="st19" d="M48.6,65.6c-0.8,1.3-2.1,2.2-3.4,2.7c-1.8,0.8-3.8,1-5.8,0.9c-1.8,0-3.7-0.3-5.4-0.9
			c-0.8-0.3-1.5-0.7-2.1-1.3c-0.6-0.6-0.9-1.3-1.1-2c-0.4-1.6-0.1-3.2,0.2-4.8c0.1-0.8,0.3-1.5,0.4-2.3c0.1-1,0.2-1.9,0.2-2.9
			c0-1,0-2-0.2-3c-0.1-0.8-0.3-1.5-0.6-2.2c-0.1-0.2-0.3-0.5-0.5-0.7c0.2,0.1,0.5,0.1,0.7,0.1c0.3,0.1,0.7,0.1,1,0.1
			c0.7,0.1,1.4,0.1,2.1,0.1c1.4,0,2.9,0,4.3-0.1c1.4-0.1,2.8-0.2,4.2-0.4c1.4-0.2,2.8-0.4,4.2-0.5c0.3,0,0.6,0,0.9,0
			c0.2,0,0.5,0.1,0.4,0.3c0,0.2-0.1,0.3-0.2,0.5c0-0.1-0.2,0-0.2,0.1c-0.7,1.7-0.4,3.7-0.1,5.4c0.2,1,0.5,1.9,0.7,2.8
			c0.3,1,0.5,2.1,0.8,3.1c0.2,0.9,0.4,1.8,0.2,2.8C49.3,64.2,49,64.9,48.6,65.6z"/>
		<path class="st20" d="M44.4,66.3c0.2-0.8,0.4-1.5,0.6-2.2c0.2-0.7,0.4-1.3,0.5-2c0.2-1.4,0.2-2.9-0.3-4.3
			c-0.2-0.7-0.6-1.3-1.1-1.7c-0.5-0.5-1.2-0.8-1.9-1c-1.3-0.4-2.7-0.3-4,0.1c-1.3,0.4-2.5,1-3.3,2.1c-0.4,0.5-0.7,1.1-0.8,1.7
			c-0.2,0.8,0,1.7,0.2,2.5c0.6,1.8,1.8,3.3,2.2,5.1c0.2,0.8,0.3,1.7,0.4,2.5c0.8,0.1,1.5,0.2,2.3,0.2c1.5,0,3-0.1,4.4-0.5
			C44,67.9,44.2,67.1,44.4,66.3z"/>
		<path class="st8" d="M48.9,63.5c-0.5-0.8-1.1-1.4-1.8-2c-0.7-0.6-1.5-1-2.3-1.4c-0.8-0.3-1.7-0.6-2.7-0.7c-0.9-0.1-1.9-0.1-2.8,0
			c-0.8,0.1-1.5,0.3-2.3,0.6c-0.8,0.3-1.6,0.7-2.3,1.2c-0.7,0.5-1.4,1-2,1.7c-0.5,0.6-1,1.3-1.2,2.1c-0.1,0.4-0.2,0.9-0.2,1.3
			c0.2,0.2,0.3,0.5,0.6,0.7c0.6,0.6,1.4,1,2.1,1.3c1.7,0.7,3.6,0.9,5.4,0.9c1.9,0,4-0.2,5.8-0.9c1.4-0.6,2.6-1.5,3.4-2.7
			c0.3-0.4,0.5-0.9,0.7-1.4C49.1,63.9,49,63.7,48.9,63.5z"/>
		<path class="st8" d="M48.9,63.5c-0.5-0.8-1.1-1.4-1.8-2c-0.7-0.6-1.5-1-2.3-1.4c-0.8-0.3-1.7-0.6-2.7-0.7c-0.9-0.1-1.9-0.1-2.8,0
			c-0.8,0.1-1.5,0.3-2.3,0.6c-0.8,0.3-1.6,0.7-2.3,1.2c-0.7,0.5-1.4,1-2,1.7c-0.5,0.6-1,1.3-1.2,2.1c-0.1,0.4-0.2,0.9-0.2,1.3
			c0.2,0.2,0.3,0.5,0.6,0.7c0.6,0.6,1.4,1,2.1,1.3c1.7,0.7,3.6,0.9,5.4,0.9c1.9,0,4-0.2,5.8-0.9c1.4-0.6,2.6-1.5,3.4-2.7
			c0.3-0.4,0.5-0.9,0.7-1.4C49.1,63.9,49,63.7,48.9,63.5z M43.8,63.3c0,0.4-0.2,0.9-0.4,1.3c-0.2,0.4-0.5,0.7-0.9,0.9
			c-0.8,0.5-1.7,0.8-2.6,0.9c-0.5,0.1-0.9,0.1-1.4,0.1c-0.4,0-0.9,0-1.3,0c-0.9-0.1-1.9-0.4-2.7-1c-0.4-0.3-0.7-0.6-0.8-1
			c-0.2-0.4-0.2-0.9,0-1.4c0.2-0.6,0.5-1.1,1-1.5c0.4-0.4,0.9-0.7,1.5-0.9c0.3-0.1,0.5-0.2,0.8-0.3c0.3-0.1,0.6-0.3,0.9-0.4
			c0.2-0.1,0.4-0.1,0.6-0.2c0.2-0.1,0.5-0.1,0.7-0.2c0.6-0.1,1.3-0.1,1.9,0.1c0.6,0.1,1.1,0.3,1.6,0.7c0.4,0.3,0.8,0.8,1,1.2
			C43.7,62.2,43.8,62.8,43.8,63.3z"/>
		<path class="st7" d="M47.8,48.4c-0.3,0-0.6,0-0.9,0c-1.4,0-2.8,0.3-4.2,0.5c-1.4,0.2-2.8,0.4-4.2,0.4c-1.4,0.1-2.9,0.1-4.3,0.1
			c-0.7,0-1.4-0.1-2.1-0.1c-0.3,0-0.7-0.1-1-0.1c-0.2,0-0.5-0.1-0.7-0.1c0.2,0.2,0.4,0.4,0.5,0.7c0.4,0.7,0.5,1.5,0.6,2.2
			c0,0.2,0.1,0.4,0.1,0.6c0.2,0.1,0.3,0.2,0.4,0.4c0.2,0.2,0.2,0.5,0.3,0.7c0,0.3,0,0.6,0.1,0.9c0,0.4,0.1,0.9,0.2,1.3
			c0.2,0.9,0.4,1.9,0.8,2.7c0.1,0.2,0.1,0.3,0.2,0.5c0.2,0.3,0.5,0.7,0.8,0.9c0.1-0.3,0.1-0.7,0-1c0-0.7-0.2-1.5-0.2-2.2
			c0-0.4,0-0.7,0.1-1.1c0,0,0-0.1,0-0.1c0.1-0.4,0.2-0.8,0.5-1.1c0.2-0.2,0.5-0.4,0.8-0.5c0.7-0.3,1.5-0.3,2.3-0.3
			c0.4,0,0.8,0,1.1,0c0.3,0,0.6,0,0.9-0.1c0.8-0.1,4-0.5,4.3-0.3c0.3,0.2,0.4,0.5,0.5,0.8c0.1,0.4,0.2,0.8,0.2,1.2c0,0,0,0,0,0
			c0.2,0.6,0.1,1.3,0.1,1.9c0,0.5,0,1.2,0.4,1.7c0.2-0.2,0.4-0.5,0.5-0.7c0.1-0.3,0.3-2.1,0.3-2.7c0-0.4,0-0.8,0.1-1.2
			c0.1-0.4,0.1-0.8,0.4-1.2c0.2-0.3,0.4-0.4,0.7-0.5c-0.3-2.1,0.6-3.4,0.6-3.3c0.1-0.1,0.2-0.3,0.2-0.5C48.2,48.5,48,48.4,47.8,48.4
			z"/>
		<path class="st21" d="M39.5,53.6c-0.9,0-1.8-0.2-2.7-0.2c-0.9,0-1.9,0-2.7,0.4c-0.3,0.2-0.6,0.4-0.8,0.7c-0.2,0.3-0.2,0.7-0.2,1
			c0,0.9,0.3,1.7,0.5,2.5c0.1,0.4,0.2,0.8,0.3,1.2c0.1,0.2,0.1,0.4,0.1,0.7c0,0,0,0,0,0c0.1-0.3,0.1-0.7,0-1c0-0.7-0.2-1.5-0.2-2.2
			c0-0.4,0-0.7,0.1-1.1c0,0,0-0.1,0-0.1c0.1-0.4,0.2-0.8,0.5-1.1c0.2-0.2,0.5-0.4,0.8-0.5c0.7-0.3,1.5-0.3,2.3-0.3
			c0.4,0,0.8,0,1.1,0c0.2,0,0.5,0,0.7,0C39.7,53.6,39.6,53.6,39.5,53.6z"/>
		<path class="st21" d="M47.8,48.4c-0.3,0-0.6,0-0.9,0c-1.4,0-2.8,0.3-4.2,0.5c-1.4,0.2-2.8,0.4-4.2,0.4c-1.4,0.1-2.9,0.1-4.3,0.1
			c-0.7,0-1.4-0.1-2.1-0.1c-0.3,0-0.7-0.1-1-0.1c-0.2,0-0.5-0.1-0.7-0.1c0.2,0.2,0.4,0.4,0.5,0.7c0.3,0.7,0.5,1.4,0.6,2.2
			c0.2,0.1,0.3,0.1,0.5,0.2c0.6,0.2,1.2,0.3,1.9,0.4c0.6,0.1,1.2,0.1,1.8,0.1c0.6,0,1.2,0.1,1.9,0.1c1.1,0,2.2,0,3.3-0.1
			c0.5,0,1.1-0.1,1.6-0.1c0.4,0,0.9-0.1,1.3-0.1c0.5,0,1.1,0,1.5,0.3c0.5,0.4,0.5,1.2,0.6,1.9c0.1,1.2,0.1,2.4,0,3.6
			c0,0,0-0.1,0-0.1c0.1-0.3,0.3-2.1,0.3-2.7c0-0.4,0-0.8,0.1-1.2c0.1-0.4,0.1-0.8,0.4-1.2c0.2-0.3,0.4-0.4,0.7-0.5
			c-0.3-2.1,0.6-3.4,0.6-3.3c0.1-0.1,0.2-0.3,0.2-0.5C48.2,48.5,48,48.4,47.8,48.4z"/>
		<path class="st7" d="M48.6,64.1c-0.2,0.2-0.5,0.5-0.7,0.6c-0.1,0.1-0.7-0.1-0.8-0.2C47,64.3,47,64,47,63.8
			c-0.1-0.8-0.1-1.6-0.3-2.4c0-0.2-0.1-0.4-0.2-0.6c0-0.1-0.1-0.3-0.2-0.4c-0.2-0.2-0.7,2.4-0.7,2.9c-0.1,1-0.4,2-1.1,2.7
			c-0.4,0.4-0.8,0.7-1.3,0.9c-0.7,0.3-1.4,0.4-2.1,0.6c-1.5,0.3-3,0.3-4.5,0.1c-0.6-0.1-1.3-0.3-1.8-0.6c-0.5-0.3-1-0.8-1.3-1.3
			c-0.4-0.6-0.5-1.3-0.6-2c-0.1-0.6-0.2-1.3-0.4-1.9c-0.2,0.3-0.2,0.6-0.3,1c-0.4,2.2-0.3,3.7-0.6,3.2c-0.6-0.9-0.9-1.9-1-2.9
			c0-0.1,0-0.3,0-0.4c-0.1,0.9-0.1,1.7,0.2,2.5c0.2,0.8,0.6,1.5,1.1,2c0.6,0.6,1.4,1,2.1,1.3c1.7,0.7,3.6,0.9,5.4,0.9
			c1.9,0,4-0.2,5.8-0.9c1.4-0.6,2.6-1.5,3.4-2.7c0.4-0.6,0.7-1.4,0.8-2.1c0-0.2,0.1-0.4,0.1-0.6C49.2,63.3,48.9,63.7,48.6,64.1z"/>
		<path class="st7" d="M48.6,64.1c-0.2,0.2-0.5,0.5-0.7,0.6c-0.1,0.1-0.7-0.1-0.8-0.2C47,64.3,47,64,47,63.8
			c-0.1-0.8-0.1-1.6-0.3-2.4c0-0.2-0.1-0.4-0.2-0.6c0-0.1-0.1-0.3-0.2-0.4c-0.2-0.2-0.7,2.4-0.7,2.9c-0.1,1-0.4,2-1.1,2.7
			c-0.4,0.4-0.8,0.7-1.3,0.9c-0.7,0.3-1.4,0.4-2.1,0.6c-1.5,0.3-3,0.3-4.5,0.1c-0.6-0.1-1.3-0.3-1.8-0.6c-0.5-0.3-1-0.8-1.3-1.3
			c-0.4-0.6-0.5-1.3-0.6-2c-0.1-0.6-0.2-1.3-0.4-1.9c-0.2,0.3-0.2,0.6-0.3,1c-0.4,2.2-0.3,3.7-0.6,3.2c-0.6-0.9-0.9-1.9-1-2.9
			c0-0.1,0-0.3,0-0.4c-0.1,0.9-0.1,1.7,0.2,2.5c0.2,0.8,0.6,1.5,1.1,2c0.6,0.6,1.4,1,2.1,1.3c1.7,0.7,3.6,0.9,5.4,0.9
			c1.9,0,4-0.2,5.8-0.9c1.4-0.6,2.6-1.5,3.4-2.7c0.4-0.6,0.7-1.4,0.8-2.1c0-0.2,0.1-0.4,0.1-0.6C49.2,63.3,48.9,63.7,48.6,64.1z"/>
		<path class="st21" d="M48.6,64.1c-0.2,0.2-0.5,0.5-0.7,0.6c-0.1,0.1-0.7-0.1-0.8-0.2C47,64.3,47,64,47,63.8
			c-0.1-0.8-0.1-1.6-0.3-2.4c0-0.2-0.1-0.3-0.1-0.5c0,0.3,0,0.7,0,1c0,0.9,0,1.7-0.2,2.6c-0.2,0.8-0.6,1.5-1.2,2
			c-0.7,0.6-1.6,0.9-2.4,1c-0.8,0.2-1.7,0.3-2.5,0.4c-0.9,0.1-1.8,0.1-2.6,0c-0.9-0.1-1.8-0.2-2.6-0.5c-0.8-0.3-1.5-0.8-1.9-1.5
			c-0.5-0.7-0.6-1.6-0.7-2.4c0-0.4-0.1-0.8-0.1-1.3c0,0.1,0,0.2-0.1,0.3c-0.4,2.2-0.3,3.7-0.6,3.2c-0.6-0.9-0.9-1.9-1-2.9
			c0-0.1,0-0.3,0-0.4c-0.1,0.9-0.1,1.7,0.2,2.5c0.2,0.8,0.6,1.5,1.1,2c0.6,0.6,1.4,1,2.1,1.3c1.7,0.7,3.6,0.9,5.4,0.9
			c1.9,0,4-0.2,5.8-0.9c1.4-0.6,2.6-1.5,3.4-2.7c0.4-0.6,0.7-1.4,0.8-2.1c0-0.2,0.1-0.4,0.1-0.6C49.2,63.3,48.9,63.7,48.6,64.1z"/>
		<g>
			<path class="st15" d="M51.2,45.4c-0.1-0.2-0.1-0.5-0.2-0.7c0-0.1,0-0.1-0.1-0.2c-0.2-0.7-0.6-1.3-1.1-2c-0.6-0.8-1.1-1.5-1.5-2.3
				c-0.4-0.9-0.8-1.8-1.2-2.7c-0.6-1.2-1.3-2.8-3.3-3.1c0.5,0,1,0,1.5,0c0.1,0,0.1,0,0-0.1c-0.9-0.6-2.2-0.7-3.3-0.5
				c0.3-0.2,0.6-0.4,0.9-0.6c0.1-0.1-0.1-0.1-0.2-0.1c-0.7,0.1-1.5,0.2-1.9,0.7c-0.1-0.2,0.1-0.4,0.2-0.6c0-0.1-0.1-0.1-0.2-0.1
				c-0.2,0.1-0.5,0.2-0.7,0.3c-0.1,0.1-0.3,0.2-0.4,0.2c0-0.2,0.1-0.5,0.2-0.7c0,0,0-0.1-0.1-0.1c-0.7,0.1-1,0.5-1.2,0.9
				c-0.1-0.1-0.1-0.2-0.2-0.3c-0.1-0.1-0.2-0.1-0.3-0.2c-0.2-0.1-0.5-0.3-0.8-0.2c0,0-0.1,0-0.1,0.1c0,0.1,0.1,0.3,0.2,0.4
				c0,0.1,0.1,0.1,0.1,0.2c-0.4-0.4-1.2-0.5-1.9-0.6c-0.1,0-0.3,0.1-0.2,0.1c0.3,0.2,0.7,0.3,0.9,0.6c-1.1-0.2-2.4-0.1-3.3,0.5
				c0,0,0,0.1,0,0.1c0.5,0,1,0,1.5,0c-2,0.3-2.8,1.9-3.3,3.1c-0.4,0.9-0.8,1.8-1.2,2.7c-0.4,0.8-1,1.6-1.5,2.3
				c-0.5,0.6-0.9,1.3-1.1,2c0,0.1,0,0.1-0.1,0.2c-0.1,0.2-0.1,0.5-0.2,0.7c-0.1,0.5-0.1,1.1,0,1.6c0.1,1,0.5,2,1.3,2.8
				c1.5,1.5,4.1,2.4,6.7,2.7c0.9,0.1,1.8,0.1,2.7,0.1c0.4,0,2.1,0,2.5,0c0.9,0,1.9,0,2.7-0.1c2.6-0.3,5.2-1.2,6.7-2.7
				c0.9-0.8,1.2-1.8,1.3-2.8C51.2,46.5,51.3,45.9,51.2,45.4z"/>
			<path class="st15" d="M50.8,47.4c-0.2,0.9-0.7,1.8-1.6,2.6c-0.8,0.7-1.9,1.2-3,1.6c-1.2,0.4-2.5,0.7-3.9,0.7c-0.7,0-1.5,0-2.2,0
				c-0.6,0-1.2,0-1.8,0c-0.2,0-0.4,0-0.6,0c-0.6,0-1.2,0-1.7,0c-1.4-0.1-2.7-0.3-3.9-0.7c-1.2-0.4-2.2-0.9-3-1.6
				c-0.9-0.7-1.4-1.6-1.6-2.6c-0.1-0.6-0.1-1.2-0.1-1.8c0-0.2,0-0.4,0.1-0.5c0,0,0,0,0,0c0.3-1.6,1.7-3,2.5-4.4
				c0.5-0.8,0.9-1.7,1.2-2.5c0.4-0.8,0.7-1.6,1.3-2.3c0.5-0.7,1.4-1.2,2.5-1.3c0.1,0,0.1-0.1,0-0.1c-0.6-0.1-1.2,0-1.8,0
				c0.9-0.5,2.3-0.5,3.3-0.2c0.1,0,0.3,0,0.2-0.1c-0.2-0.3-0.5-0.4-0.8-0.6c0.6,0.1,1.1,0.3,1.4,0.6c0,0,0.2,0,0.1-0.1c0,0,0,0,0,0
				c0.1-0.2-0.1-0.5-0.2-0.7c0.2,0,0.4,0.2,0.6,0.3c0.2,0.1,0.2,0.3,0.4,0.5c0,0,0.2,0,0.2,0c0.1-0.2,0.3-0.4,0.4-0.5
				c0.1-0.1,0.3-0.3,0.6-0.4c-0.1,0.3-0.3,0.5-0.2,0.8c0,0.1,0.1,0,0.2,0c0.2-0.1,0.4-0.2,0.5-0.3c0.1-0.1,0.3-0.1,0.4-0.2
				c-0.1,0.2-0.2,0.4-0.1,0.7c0,0.1,0.1,0,0.2,0c0,0,0,0,0.1,0c0.3-0.4,0.9-0.5,1.4-0.6c-0.3,0.2-0.6,0.3-0.8,0.6
				c-0.1,0.1,0.1,0.1,0.2,0.1c1.1-0.4,2.4-0.3,3.3,0.2c-0.6,0-1.2-0.1-1.8,0c-0.1,0,0,0.1,0,0.1c1.2,0.1,2,0.7,2.5,1.3
				c0.6,0.7,0.9,1.6,1.3,2.3c0.4,0.8,0.8,1.7,1.2,2.5c0.9,1.5,2.3,2.8,2.5,4.4c0,0,0,0,0,0c0,0.2,0.1,0.4,0.1,0.5
				C50.9,46.2,50.9,46.9,50.8,47.4z"/>
			<path class="st22" d="M33.6,35.8c1-0.4,2-0.4,3.1-0.4c-0.1-0.2-0.3-0.3-0.5-0.3c-0.2-0.1-0.5-0.1-0.7-0.1c-0.1,0-0.1-0.1,0-0.1
				c0.4-0.1,0.9-0.1,1.3,0c0.4,0.1,0.7,0.3,1,0.5c-0.1-0.2-0.2-0.4-0.3-0.6c0-0.1,0-0.1,0.1-0.1c0.5,0.1,0.9,0.6,1.2,1.1
				c0.2-0.6,0.8-0.9,1.4-1.2c0.1,0,0.1,0,0.1,0.1c-0.1,0.3-0.3,0.6-0.4,0.9c0.6-0.6,1.5-0.9,2.3-1.1c0.1,0,0.1,0.1,0.1,0.1
				c-0.3,0.3-0.6,0.6-0.8,1c0.6-0.2,1.2-0.5,1.8-0.6c0,0,0,0,0,0c0,0,0,0,0,0c0,0,0,0,0,0c0.1,0,0.1,0.1,0,0.1
				c-0.3,0.1-0.5,0.3-0.7,0.5c0.4-0.1,0.9-0.2,1.4-0.1c0.8,0.1,1.6,0.4,2.3,0.9c-0.1-0.2-0.2-0.3-0.3-0.5c-0.5-0.7-1.4-1.2-2.5-1.3
				c-0.1,0-0.1-0.1,0-0.1c0.6-0.1,1.2,0,1.8,0c-0.9-0.5-2.3-0.5-3.3-0.2c-0.1,0-0.3,0-0.2-0.1c0.2-0.3,0.5-0.4,0.8-0.6
				c-0.6,0.1-1.1,0.3-1.4,0.6c0,0,0,0-0.1,0c-0.1,0-0.2,0-0.2,0c-0.1-0.2,0-0.4,0.1-0.7c-0.1,0.1-0.3,0.1-0.4,0.2
				c-0.2,0.1-0.4,0.2-0.5,0.3c0,0-0.2,0-0.2,0c-0.1-0.3,0-0.6,0.2-0.8c-0.3,0.1-0.5,0.2-0.6,0.4c-0.2,0.2-0.3,0.3-0.4,0.5
				c0,0-0.1,0.1-0.2,0c-0.2-0.2-0.2-0.4-0.4-0.5c-0.1-0.1-0.4-0.2-0.6-0.3c0.1,0.2,0.4,0.5,0.2,0.7c0,0,0,0,0,0c0,0-0.1,0.1-0.1,0.1
				c-0.3-0.4-0.9-0.5-1.4-0.6c0.3,0.2,0.6,0.3,0.8,0.6c0.1,0.1-0.1,0.1-0.2,0.1c-1.1-0.4-2.4-0.3-3.3,0.2c0.6,0,1.2-0.1,1.8,0
				c0.1,0,0,0.1,0,0.1c-1.2,0.1-2,0.7-2.5,1.3c-0.2,0.3-0.4,0.6-0.6,1C32.4,36.3,33,36,33.6,35.8z"/>
			<path class="st5" d="M27.9,44.2c0.4-0.7,1-1.3,1.6-1.9c0.6-0.6,1-1.3,1.4-2.1c0.7-1.4,0.9-3,1.9-4.3c0.5-0.6,1.1-1,1.7-1.3
				c0.3-0.2,0.7-0.3,1.1-0.3c-0.2,0-0.3,0-0.5,0c0,0,0,0.1-0.1,0.1c-1.2,0.1-2,0.7-2.5,1.3c-0.6,0.7-0.9,1.6-1.3,2.3
				c-0.4,0.8-0.8,1.7-1.2,2.5c-0.8,1.4-2.1,2.6-2.5,4.1C27.7,44.5,27.8,44.4,27.9,44.2z"/>
			<path class="st5" d="M44.9,37.4c0.1,0.3,0.1,0.5,0.1,0.8c0,0,0,0.1-0.1,0.1c-0.2,0-0.5,0-0.7,0c0.6,0.1,1.2,0.4,1.7,0.8
				c-0.1-0.3-0.3-0.5-0.5-0.8C45.3,38,45.1,37.7,44.9,37.4z"/>
			<path class="st5" d="M41,38.3c0.3,0,0.6,0,0.8-0.1c0.3,0,0.6,0,0.9,0c-0.1,0-0.3,0-0.4,0C41.9,38.1,41.4,38.1,41,38.3z"/>
			<path class="st5" d="M50.9,45.7c0-0.2,0-0.4-0.1-0.5c0,0,0,0,0,0c-0.3-1.6-1.7-3-2.5-4.4c-0.5-0.8-0.9-1.7-1.2-2.5
				c-0.4-0.8-0.7-1.6-1.3-2.3c-0.5-0.7-1.4-1.2-2.5-1.3c0,0,0,0,0,0c0,0-0.1,0-0.1,0c0.4,0.2,0.7,0.4,1,0.7c0.4,0.4,0.7,0.8,0.9,1.3
				c0.3,0.5,0.6,1,0.9,1.4c0.4,0.5,0.7,1,1,1.5c0.3,0.5,0.4,1,0.4,1.6c0,0.1-0.1,0.1-0.1,0c-0.2-0.2-0.5-0.5-0.7-0.7
				c-0.5-0.4-1-0.8-1.5-1c-0.6-0.3-1.2-0.5-1.8-0.6c-0.4-0.1-0.9-0.1-1.3-0.1c-0.4,0-0.8-0.1-1.3-0.1c-0.9,0-1.9,0-2.8,0.1
				c-1,0.1-1.9,0.2-2.8,0.5c-0.9,0.2-1.7,0.5-2.4,1c-0.7,0.4-1.3,1-1.6,1.8c-0.4,0.9-0.4,1.8-0.3,2.8c0.1,1.2,0.5,2.5,1.2,3.5
				c0.4,0.5,0.8,1,1.3,1.3c0.1,0.1,0.2,0.1,0.2,0.2c1.3,0.1,2.6,0.3,3.9,0.4c1.4,0.1,2.7,0.1,4.1,0c0.6-0.1,1.2-0.2,1.7-0.3
				c0.6-0.1,1.1-0.3,1.6-0.6c0.5-0.2,1-0.6,1.4-1c0.4-0.4,0.7-0.8,0.9-1.3c0.3-0.9,0.4-2,0.5-3c0-0.1,0-0.3-0.1-0.4
				c0-0.1,0.1-0.1,0.1-0.1c0.4,0.6,0.5,1.3,0.6,2c0.1-0.4,0.1-0.9,0-1.3c0-0.1,0.1-0.1,0.1,0c0.1,0.3,0.2,0.5,0.3,0.8
				c0.3,1,0.5,2,0.2,3c-0.3,0.9-0.8,1.6-1.5,2.1c-1.4,1.1-3.2,1.4-4.9,1.6c-2.1,0.3-4.2,0.3-6.3,0.1c-1-0.1-2.1-0.3-3.1-0.6
				c-0.8-0.2-1.6-0.6-2.3-1.1c-0.7-0.5-1.2-1-1.6-1.8c-0.3-0.6-0.5-1.2-0.5-1.9c0-0.1,0-0.1,0-0.2c-0.1,0.7,0,1.4,0.1,2.1
				c0,0.1-0.1,0.1-0.1,0.1c-0.3-0.5-0.6-1.1-0.7-1.7c-0.1-0.5-0.1-0.9-0.1-1.4c0,0.2,0,0.3,0,0.5c0,0.6,0,1.2,0.1,1.8
				c0.2,0.9,0.7,1.8,1.6,2.6c0.8,0.7,1.9,1.2,3,1.6c1.2,0.4,2.5,0.7,3.9,0.7c0.6,0,1.1,0,1.7,0c0.2,0,0.4,0,0.6,0c0.6,0,1.2,0,1.8,0
				c0.7,0,1.5,0,2.2,0c1.4-0.1,2.7-0.3,3.9-0.7c1.2-0.4,2.2-0.9,3-1.6c0.9-0.7,1.4-1.6,1.6-2.6C50.9,46.9,50.9,46.2,50.9,45.7z"/>
			<g>
				<path class="st9" d="M46.8,42.1c-0.2-0.5-0.5-1-0.9-1.3c0,0,0,0,0,0c-0.2-0.3-0.5-0.4-0.8-0.6c-0.4-0.2-0.7-0.3-1.1-0.4
					c-0.9-0.3-1.8-0.4-2.8-0.5c-1.8-0.1-3.6-0.1-5.4,0.2c-0.4,0-0.7,0.1-1.1,0.2c-0.6,0.1-1.3,0.3-1.8,0.7c-0.7,0.4-1.3,1-1.6,1.8
					c-0.4,1.2-0.2,2.6,0.2,3.7c0.4,1.2,1.3,2.4,2.5,2.8c0.6,0.3,1.3,0.4,2,0.5c0.1,0,0.3,0,0.4,0.1c0.6,0.1,1.2,0.1,1.8,0.2
					c1.2,0.1,2.4,0,3.6-0.2c0.1,0,0.2,0,0.3-0.1c0.7-0.1,1.3-0.2,1.9-0.5c1.2-0.5,2.1-1.6,2.5-2.8C47,44.7,47.3,43.3,46.8,42.1z"/>
				<path class="st13" d="M46.7,44.5c-0.1,0.6-0.2,1.2-0.5,1.7c-0.3,0.6-0.7,1.1-1.1,1.5c-0.1,0.1-0.3,0.2-0.4,0.3
					c-0.4,0.3-0.9,0.5-1.3,0.7c-0.8,0.3-1.7,0.4-2.6,0.4c-0.9,0.1-1.8,0.1-2.6,0c-0.8,0-1.6-0.1-2.4-0.3c-0.2,0-0.5-0.1-0.7-0.2
					c-0.1,0-0.2,0-0.3-0.1c-0.6-0.2-1.2-0.4-1.6-0.9c-0.5-0.4-0.9-1-1.1-1.5c-0.2-0.5-0.4-1.1-0.5-1.7c-0.1-0.6-0.2-1.2-0.1-1.8
					c0.2-1.1,1-2,2-2.4c0.2-0.1,0.4-0.2,0.6-0.2c0.3-0.1,0.7-0.1,1-0.2c0.9-0.1,1.8-0.3,2.8-0.3c1.8-0.1,3.7,0,5.5,0.4
					c0.4,0.1,0.9,0.2,1.3,0.4c0.1,0,0.2,0.1,0.3,0.1c0.9,0.5,1.6,1.3,1.8,2.3C46.9,43.3,46.8,43.9,46.7,44.5z"/>
				<path class="st13" d="M31.6,44.5c0-1,0.4-1.9,1.1-2.6c0.4-0.4,0.9-0.6,1.3-0.8c0.6-0.2,1.2-0.4,1.8-0.5c1.3-0.2,2.6-0.3,3.9-0.3
					c1.1,0,2.2,0,3.3,0.2c1.1,0.2,2.2,0.5,3.1,1.3c0.2,0.2,0.5,0.4,0.6,0.7c-0.2-0.9-0.9-1.6-1.7-2c-0.1,0-0.2-0.1-0.3-0.1
					c-0.4-0.1-0.9-0.3-1.3-0.4c-1.8-0.4-3.7-0.5-5.5-0.4c-0.9,0-1.9,0.2-2.8,0.3c-0.3,0.1-0.7,0.1-1,0.2c-0.2,0.1-0.4,0.2-0.6,0.2
					c-1,0.5-1.9,1.3-2,2.4C31.4,43.3,31.5,43.9,31.6,44.5C31.6,44.5,31.6,44.5,31.6,44.5C31.6,44.6,31.6,44.5,31.6,44.5z"/>
				<path class="st13" d="M46.8,42.7c-0.1-0.8-0.5-1.4-1.1-1.8c0.1,0.2,0.2,0.4,0.3,0.6c0.3,1-0.4,2.1-1.2,2.7
					c-0.8,0.6-1.8,1-2.9,1.1c-0.9,0.2-1.9,0.2-2.9,0.2c-0.8,0-1.6,0-2.4-0.1c-0.9-0.1-1.8-0.2-2.6-0.5c-0.7-0.3-1.4-0.7-1.8-1.4
					c-0.2-0.3-0.3-0.7-0.3-1.1c0-0.4,0.2-0.8,0.4-1.1c0.2-0.3,0.4-0.5,0.7-0.8c-0.8,0.5-1.5,1.2-1.6,2.2c-0.1,0.6,0,1.2,0.1,1.8
					c0.1,0.6,0.2,1.2,0.5,1.7c0.3,0.6,0.7,1.1,1.1,1.5c0.5,0.4,1,0.7,1.6,0.9c0.1,0,0.2,0,0.3,0.1c0.2,0.1,0.5,0.1,0.7,0.2
					c0.8,0.2,1.6,0.3,2.4,0.3c0.9,0,1.8,0,2.6,0c0.9-0.1,1.7-0.2,2.6-0.4c0.5-0.1,0.9-0.3,1.3-0.7c0.1-0.1,0.3-0.2,0.4-0.3
					c0.5-0.4,0.9-1,1.1-1.5c0.2-0.5,0.4-1.1,0.5-1.7C46.8,43.9,46.9,43.3,46.8,42.7z"/>
			</g>
		</g>
		<g>
			<path class="st23" d="M21.3,25.5c1.8-1.5,4.4-0.6,6,0.8c0.6,0.5,1.2,1.2,1.6,1.8c3,4.3,1.9,10.9-0.9,13.2s-6.4-0.4-5.8-4.3
				c0.3-2.1-0.6-4.1-1.6-5.9c-0.9-1.7-1.1-3.8,0.3-5.3C21.1,25.7,21.2,25.6,21.3,25.5z"/>
			<g>
				<path class="st13" d="M26.6,28c-2.3,0.2-3.4,2.3-3.7,4.4c-0.2,1.4-0.1,3,0.4,4.3c0.3,0.8,1.2,2.3,2.1,2.7c0.8-0.2,1-0.1,1.8,0.1
					c0.5,0.1,0.9,0.2,1.3,0.4c1.6-1.3,2.2-3.2,2.2-5.3C30.8,31.1,29.3,27.8,26.6,28z"/>
				<g>
					<path class="st24" d="M29.5,31c-0.5-0.8-1.2-1.5-2.1-1.9c-0.6-0.2-1.2-0.2-1.8,0c-1.8,0.9-2.2,3.6-1.9,5.4
						c0.2,1.3,0.6,2.8,1.5,3.8c0.8,0.9,1.9,1.4,3.1,0.9c1-0.4,1.9-1.7,2.2-2.7c0.3-1.1,0.3-2.3,0-3.4C30.2,32.3,29.9,31.6,29.5,31z"
						/>
					<path class="st23" d="M29,38.9L29,38.9c-0.2,0.2-0.5,0.3-0.7,0.4c-1.2,0.5-2.4,0.2-3.4-0.9c-0.8-0.8-1.3-2.1-1.5-3.9
						c-0.2-1.4-0.1-4,1.5-5.3c0.2-0.1,0.4-0.2,0.5-0.3c0.6-0.3,1.4-0.3,2,0c0.8,0.4,1.6,1.1,2.2,2c0.4,0.6,0.7,1.4,0.9,2.1
						c0.3,1.1,0.3,2.4,0,3.5C30.4,37.4,29.8,38.4,29,38.9z M25.3,29.6c-1.3,1-1.6,3.2-1.4,4.9c0.2,1.7,0.7,2.9,1.4,3.6
						c0.6,0.7,1.6,1.3,2.8,0.8c0.9-0.4,1.7-1.5,2-2.5c0.3-1.1,0.3-2.2,0-3.3c-0.2-0.7-0.5-1.4-0.9-2c-0.6-0.9-1.3-1.5-2-1.8
						c-0.5-0.2-1.1-0.2-1.6,0C25.6,29.4,25.4,29.5,25.3,29.6z"/>
				</g>
				<path class="st25" d="M27.1,38.5c-3.8-1.1-3.9-7.6-1.2-9.5c-0.1,0-0.2,0.1-0.2,0.1c-1.8,0.9-2.2,3.6-1.9,5.4
					c0.2,1.3,0.6,2.8,1.5,3.8c0.8,0.9,1.9,1.4,3.1,0.9c0.5-0.2,1-0.6,1.3-1.1C29.1,38.6,28.2,38.8,27.1,38.5z"/>
				<path class="st23" d="M28.6,39.9c-0.4-0.6-1.3-0.7-2-0.8c-0.9-0.1-1.9,0.1-2.7,0.5c-0.1,0-0.1,0.2,0,0.2c1.5-0.5,3-0.2,4.3,0.4
					C28.6,40.3,28.7,40,28.6,39.9z"/>
				<g>
					<path class="st26" d="M25,34.2c0,2.4,1,4.3,2.6,4.5c1.6,0.2,3-1.4,2.9-3.8c-0.1-2.4-1.5-4.6-2.9-4.7C26.1,30.1,25,31.9,25,34.2
						z"/>
					<g>
						<path class="st27" d="M27.6,38.7c1.6,0.2,3-1.4,2.9-3.8c-0.1-2.4-1.5-4.6-2.9-4.7c-1.4-0.1-2.6,1.7-2.6,4.1
							C25,36.6,25.9,38.5,27.6,38.7z M25.2,34c0-2.2,1.1-3.8,2.4-3.7c1.3,0.1,2.6,2.1,2.7,4.3c0.1,2.2-1.2,3.7-2.7,3.5
							C26,38,25.2,36.2,25.2,34z"/>
					</g>
					<g class="st28">
						<path class="st26" d="M27.6,38.7c1.6,0.2,3-1.4,2.9-3.8c-0.1-2.4-1.5-4.6-2.9-4.7c-1.4-0.1-2.6,1.7-2.6,4.1
							C25,36.6,25.9,38.5,27.6,38.7z M25.9,32.3c0.5-0.6,0.6-0.2,0.4,0.4c-0.2,0.6-0.8,2.5,0,3.8c0.4,0.6,1,0.9,1,1.1
							c0,0.2-1.2,0.2-1.7-1.1C24.9,34.9,25.3,32.9,25.9,32.3z"/>
					</g>
					<g class="st28">
						<path class="st26" d="M25.9,34.6c0-1.6,0.9-2.8,1.9-2.6c0.1,0,0.1,0,0.2,0c0.1-0.3,0.3-0.5,0.5-0.5c0.5,0,1,0.6,1.1,1.4
							c0.1,0.3,0,0.6,0,0.9c0.1,0.4,0.2,0.8,0.2,1.3c0,1.6-1,2.7-2.1,2.6C26.6,37.6,25.8,36.3,25.9,34.6z"/>
					</g>
					<path d="M26.4,34.6c0,1.2,0.6,2.2,1.4,2.3c0.9,0.1,1.6-0.7,1.6-1.9c0-1.2-0.7-2.2-1.5-2.3C27,32.6,26.4,33.4,26.4,34.6z"/>
					<path class="st29" d="M27.3,33.1c0.4,1.1,1.5,1.9,2.2,1.6c0.7-0.3,0.8-1.4,0.3-2.5c-0.5-1.1-1.4-2-2-1.7
						C27.1,30.9,26.9,32,27.3,33.1z"/>
					<path class="st7" d="M27.8,33c0.3,0.9,1.1,1.4,1.6,1.2c0.5-0.2,0.6-1.1,0.2-1.9c-0.4-0.8-1.1-1.5-1.6-1.3
						C27.6,31.3,27.5,32.1,27.8,33z"/>
					<g>
						<path class="st30" d="M25.7,33.6c-0.1,0.9-0.1,2.8,1.2,3.6c0.7,0.4-1,0.4-1.4-1.6C25.1,34,25.8,32.4,25.7,33.6z"/>
					</g>
					<g>
						<path class="st30" d="M25.8,32.6c0.2,0,0.1,0.6-0.2,0.5C25.5,33,25.6,32.5,25.8,32.6z"/>
					</g>
				</g>
			</g>
			<path class="st13" d="M27.3,26.3c-1.6-1.4-4.2-2.3-6-0.8c-0.1,0.1-0.2,0.2-0.3,0.3c-1.4,1.5-1.2,3.6-0.3,5.3
				c0.9,1.8,1.9,3.8,1.6,5.9c-0.6,3.9,3,6.7,5.8,4.3s3.9-8.9,0.9-13.2C28.5,27.5,27.9,26.9,27.3,26.3z M27,28.7
				c0.9,1.6,1.5,3.7,1.3,5.6c-0.1,1.5-0.5,3.6-1.6,4.8c-0.1,0.1-0.2,0.1-0.3,0c-0.5,0.3-1.2,0.1-1.9,0.5c-1.3,0.6-2.4-0.1-1.8-2.9
				c0.6-2.3-0.2-4-0.8-5.7c-0.3-1-0.8-2.3-0.3-3.3C22.8,25.4,26,26.9,27,28.7z"/>
		</g>
		<g>
			<g>
				<path class="st14" d="M57.3,29.7c0,0.8-0.1,1.5-0.1,2.3c0,1.6,0.5,3.2,0.4,4.7c-0.1,0.8-0.3,1.6-0.8,2.2
					c-1.2,1.6-3.5,2.4-5.5,1.8c-0.5-0.2-1-0.4-1.5-0.7c-1.3-1-2.4-2.5-2.8-4.1c-0.4-1.4-0.5-2.9-0.2-4.3c0.4-2.2,1.4-4.4,2.9-6
					c0.4-0.4,0.9-0.8,1.5-1.1c0.8-0.4,1.8-0.5,2.7-0.4c1.1,0.2,2.3,0.7,3,1.6c0.6,0.8,0.6,1.9,0.6,2.8C57.4,29,57.3,29.3,57.3,29.7z
					"/>
				<path class="st23" d="M49.5,40c-1.2-1-2.2-2.5-2.7-4c-0.4-1.4-0.5-2.9-0.2-4.4c0.4-2.4,1.5-4.6,3-6.1c0.5-0.5,1-0.9,1.5-1.1
					c0.8-0.4,1.9-0.6,2.8-0.4c1.3,0.2,2.5,0.8,3.1,1.7c0.6,0.9,0.6,1.9,0.6,2.9c0,0.4,0,0.7-0.1,1.1l0,0.4c0,0.6-0.1,1.3-0.1,1.9
					c0,0.7,0.1,1.4,0.2,2.1c0.1,0.9,0.3,1.8,0.2,2.7c-0.1,0.9-0.4,1.6-0.9,2.3c-1.3,1.7-3.7,2.5-5.7,1.9c-0.5-0.2-1.1-0.4-1.5-0.8
					C49.7,40.1,49.6,40,49.5,40z M56.1,25.3c-0.6-0.5-1.4-0.8-2.3-0.9c-0.8-0.1-1.8,0-2.6,0.4c-0.5,0.2-1,0.6-1.4,1
					c-1.4,1.4-2.5,3.6-2.9,5.9c-0.2,1.4-0.2,2.9,0.2,4.2c0.4,1.5,1.5,3,2.8,4c0.4,0.3,0.9,0.6,1.4,0.7c1.9,0.6,4.1-0.2,5.3-1.8
					c0.4-0.6,0.7-1.3,0.8-2.1c0.1-0.9-0.1-1.7-0.2-2.6C57.1,33.4,57,32.7,57,32c0-0.6,0-1.3,0.1-1.9l0-0.4c0-0.4,0-0.7,0.1-1.1
					c0-1,0-1.9-0.5-2.7C56.5,25.7,56.3,25.5,56.1,25.3z"/>
			</g>
			<path class="st13" d="M57.6,36.7c0.1-1.6-0.4-3.2-0.4-4.7c0-0.8,0.1-1.5,0.1-2.3c0-0.4,0-0.7,0.1-1.1c0-1,0-2-0.6-2.8
				c-0.6-0.9-1.9-1.4-3-1.6c-0.8-0.1-1.9,0.1-2.7,0.4c-0.5,0.3-1.1,0.7-1.5,1.1c-1.6,1.6-2.6,3.8-2.9,6c-0.3,1.4-0.2,2.9,0.2,4.3
				c0.4,1.5,1.5,3.1,2.8,4.1c0.4,0.3,0.9,0.6,1.5,0.7c2,0.6,4.3-0.2,5.5-1.8C57.3,38.3,57.5,37.5,57.6,36.7z M51.2,40.2
				c-0.6-0.1-1.1-0.4-1.4-0.7c-0.7-0.9,0.8-1.5,1.8-1.8c-2.2-0.3-3.2-3.6-3.1-5.4c0.1-1.5,0.4-3.1,1.2-4.4c0.5-0.9,1.4-1.9,2.4-2.2
				c1.3-0.3,2.8,0,3.7,1c1.4,1.7,0.7,4.1,0.6,6.1c0,0.7,0,1.4,0.1,2.1c0.3,1.4,0.3,3-2.7,2.7c0,0,0,0,0,0c0.5,0.1,1.3,0.2,1.8,0.6
				c0.8,0.7-0.2,1.3-0.7,1.6C53.8,40.4,52.4,40.4,51.2,40.2z"/>
			<g>
				<path class="st13" d="M52.9,28.1c-1.7-0.2-3.2,1-3.7,2.6c-0.2,0.5-0.3,1.1-0.3,1.7c0,0.5,0,1.1,0,1.6c0.1,1.7,1.3,3.5,3.1,3.9
					c0,0,0.1,0,0.1,0c0.2,0,0.4-0.1,0.6-0.1c0.2,0,0.4-0.1,0.6-0.1c0.1,0,0.2,0,0.3,0c1.7-0.8,2.1-2.8,2.3-4.4
					c0.1-1.2,0-2.6-0.6-3.6C54.6,28.8,53.7,28.2,52.9,28.1z"/>
				<g>
					<path class="st24" d="M54.5,35.6c0.8-1.8,0.7-4.3-0.2-5.7c-1.1-1.9-3.5-1.5-4.8,0c-1.3,1.6-1.7,4-0.7,5.8c0.6,1.1,1.6,2.2,3,2
						C53.2,37.7,54,36.8,54.5,35.6z"/>
					<path class="st23" d="M49.9,37.3C49.9,37.3,49.9,37.3,49.9,37.3c-0.4-0.4-0.8-0.9-1.2-1.5c-1-1.8-0.7-4.3,0.7-6
						c1.2-1.4,3.2-1.8,4.4-0.8c0.3,0.2,0.5,0.5,0.7,0.8c0.9,1.4,1,4,0.2,5.8c-0.6,1.4-1.6,2.2-2.8,2.3C51.2,38,50.5,37.8,49.9,37.3z
						 M53.6,29.3c-1.1-0.9-2.9-0.6-3.9,0.7c-1.3,1.6-1.6,3.9-0.7,5.6c0.3,0.6,0.7,1,1.1,1.4l0,0c0.5,0.4,1.1,0.6,1.7,0.6
						c1.4-0.1,2.1-1.2,2.5-2.1c0.7-1.7,0.7-4.2-0.1-5.5C54,29.7,53.9,29.5,53.6,29.3z"/>
				</g>
				<path class="st25" d="M54.5,35.6c0.8-1.8,0.7-4.3-0.2-5.7c-0.6-1-1.6-1.4-2.6-1.2c0,0,0.1,0,0.1,0.1c0.9,0.2,1.8,0.8,2.2,1.6
					c0.8,1.7,0.8,3.8-0.3,5.4c-0.7,1-2,1.8-3.1,1.2c-0.9-0.3-1.6-1.2-2.1-2c0.1,0.3,0.2,0.6,0.4,0.8c0.6,1.1,1.6,2.2,3,2
					C53.2,37.7,54,36.8,54.5,35.6z"/>
				<g>
					<path class="st26" d="M49.5,32.8c-0.4,2,0.1,3.7,1.4,4c1.3,0.3,2.8-0.9,3.1-2.9c0.3-2-0.5-4.1-1.7-4.3
						C51.2,29.4,49.9,30.8,49.5,32.8z"/>
					<g>
						<path class="st27" d="M51,36.8c1.3,0.3,2.8-0.9,3.1-2.9c0.3-2-0.5-4.1-1.7-4.3c-1.2-0.2-2.5,1.1-2.9,3.1
							C49.2,34.8,49.6,36.5,51,36.8z M49.7,32.6c0.4-1.8,1.5-3.1,2.7-2.9c1.1,0.2,1.8,2.1,1.6,4c-0.3,1.9-1.6,3-2.9,2.7
							C49.8,36,49.4,34.4,49.7,32.6z"/>
					</g>
					<g class="st28">
						<path class="st26" d="M51,36.8c1.3,0.3,2.8-0.9,3.1-2.9c0.3-2-0.5-4.1-1.7-4.3c-1.2-0.2-2.5,1.1-2.9,3.1
							C49.2,34.8,49.6,36.5,51,36.8z M50.6,31.2c0.6-0.5,0.5-0.1,0.3,0.4c-0.3,0.5-1.1,2-0.6,3.2c0.2,0.6,0.7,0.8,0.7,1
							c0,0.2-1.1,0.1-1.3-1.1C49.4,33.3,50,31.7,50.6,31.2z"/>
					</g>
					<g class="st28">
						<path class="st26" d="M50.2,33.2c0.3-1.4,1.2-2.2,2.1-2c0.1,0,0.1,0,0.2,0.1c0.1-0.2,0.3-0.3,0.5-0.3c0.4,0,0.7,0.6,0.7,1.3
							c0,0.3-0.1,0.5-0.2,0.8c0,0.3,0,0.7,0,1.1c-0.2,1.4-1.3,2.2-2.2,1.9C50.3,35.7,49.9,34.5,50.2,33.2z"/>
					</g>
					<path d="M50.6,33.2c-0.2,1,0.1,1.9,0.8,2.1c0.7,0.2,1.5-0.4,1.7-1.4c0.2-1-0.2-2-0.9-2.1C51.5,31.6,50.8,32.2,50.6,33.2z"/>
					<path class="st29" d="M51.7,32.1c0.2,1,0.9,1.7,1.6,1.6c0.6-0.1,0.9-1.1,0.7-2.1c-0.2-1-0.8-1.8-1.4-1.6
						C51.9,30.2,51.5,31.1,51.7,32.1z"/>
					<path class="st7" d="M52.1,32c0.2,0.8,0.7,1.3,1.2,1.2c0.5-0.1,0.7-0.8,0.5-1.6c-0.2-0.7-0.6-1.4-1.1-1.2
						C52.3,30.6,52,31.2,52.1,32z"/>
					<g>
						<path class="st30" d="M50.2,32.3c-0.2,0.8-0.5,2.4,0.4,3.1c0.5,0.4-0.9,0.2-0.9-1.5C49.7,32.5,50.5,31.3,50.2,32.3z"/>
					</g>
					<g>
						<path class="st30" d="M50.5,31.4c0.2,0.1,0,0.5-0.2,0.4C50.2,31.8,50.3,31.4,50.5,31.4z"/>
					</g>
				</g>
				<path class="st23" d="M54.6,37.8c-1.6-0.6-4.4-0.3-5.3,1.4c-0.1,0.1,0.1,0.2,0.2,0.1c1.5-1.2,3.2-1.8,5.1-1.4
					C54.6,37.9,54.7,37.8,54.6,37.8z"/>
			</g>
		</g>
	</g>
	<g>
		<path class="st23" d="M48.5,23.3c0.4,0.2,1.3-0.3,1.7-0.5c0.4-0.3,0.9-0.8,1.4-1c0.8-0.3,1.5-0.3,2.4,0c0.4,0.2,1.6,1,1.4,0.6
			c-0.4-0.6-0.8-1.1-1.3-1.6c-1-0.7-2.1-1.1-3.4-0.5c-0.9,0.4-1.7,1.4-2.1,2.3C48.3,23,48.4,23.2,48.5,23.3z"/>
		<path class="st23" d="M48.7,23.6L48.7,23.6c-0.1,0-0.2,0-0.3-0.1c-0.2-0.1-0.4-0.4-0.1-1c0.4-1,1.3-2,2.2-2.4
			c1.2-0.5,2.4-0.3,3.6,0.5c0.5,0.5,1,1,1.4,1.6c0.1,0.1,0.1,0.2,0,0.3l-0.1,0.1l-0.2,0c-0.1,0-0.3-0.1-0.8-0.4
			c-0.2-0.1-0.5-0.3-0.7-0.4c-0.8-0.3-1.4-0.3-2.2,0c-0.2,0.1-0.5,0.3-0.8,0.5c-0.2,0.1-0.4,0.3-0.5,0.4
			C50.2,23.1,49.3,23.6,48.7,23.6z M51.8,20.3c-0.4,0-0.8,0.1-1.2,0.3c-0.8,0.3-1.6,1.2-1.9,2.1c-0.1,0.3-0.1,0.4-0.1,0.4
			c0,0,0,0,0.1,0c0.3,0,1-0.3,1.3-0.5c0.2-0.1,0.3-0.2,0.5-0.4c0.3-0.2,0.6-0.5,0.9-0.6c0.9-0.3,1.6-0.3,2.5,0
			c0.2,0.1,0.4,0.2,0.6,0.3c-0.3-0.3-0.5-0.6-0.8-0.9C53.1,20.5,52.5,20.3,51.8,20.3z"/>
	</g>
	<g>
		<path class="st23" d="M24.4,20.9c-0.9,0.4-2.4,2.6-2.3,3.2c0,0.1,0.3-0.1,0.4-0.2c0.6-0.4,1.2-1.1,1.9-1.4
			c1.1-0.5,1.8,0.3,2.6,0.8c0.1,0.1,0.3,0,0.3-0.2C27.3,22.2,25.5,20.5,24.4,20.9z"/>
		<path class="st23" d="M22.2,24.4h-0.1l-0.2-0.2l0-0.1c-0.1-0.7,1.4-3,2.4-3.4c0.2-0.1,0.3-0.1,0.5-0.1c1.2,0,2.7,1.6,2.8,2.6
			c0,0.1,0,0.2-0.1,0.3c-0.1,0.1-0.2,0.1-0.3,0.1l0,0c-0.1,0-0.2,0-0.2-0.1c-0.2-0.1-0.3-0.2-0.5-0.3c-0.4-0.3-0.9-0.6-1.3-0.6
			c-0.2,0-0.4,0-0.6,0.1c-0.4,0.2-0.8,0.5-1.2,0.8c-0.2,0.2-0.4,0.4-0.7,0.5l-0.1,0.1C22.4,24.3,22.3,24.4,22.2,24.4z M24.8,21.1
			c-0.1,0-0.2,0-0.3,0.1c-0.7,0.3-1.7,1.7-2,2.5c0.2-0.1,0.4-0.3,0.6-0.5c0.4-0.3,0.8-0.7,1.3-0.9c0.3-0.1,0.5-0.2,0.8-0.2
			c0.6,0,1.1,0.4,1.6,0.7c0.1,0.1,0.3,0.2,0.4,0.3C27,22.4,25.8,21.1,24.8,21.1z"/>
	</g>
</g>
</svg>
