<?xml version="1.0" encoding="utf-8"?>
<!-- Generator: Adobe Illustrator 25.3.1, SVG Export Plug-In . SVG Version: 6.00 Build 0)  -->
<svg version="1.1" id="Layer_1" xmlns="http://www.w3.org/2000/svg" xmlns:xlink="http://www.w3.org/1999/xlink" x="0px" y="0px"
	 viewBox="0 0 80 80" style="enable-background:new 0 0 80 80;" xml:space="preserve">
<style type="text/css">
	.st0{fill:#373839;}
	.st1{fill:#76736A;}
	.st2{opacity:0.53;fill:#76736A;}
	.st3{fill:#DFBCAC;}
	.st4{fill:#FFFFFF;}
	.st5{fill:#65686D;}
	.st6{clip-path:url(#SVGID_2_);}
	.st7{fill:#B67062;}
	.st8{fill:#A0001B;}
	.st9{fill:#50312B;}
	.st10{fill:#7E524B;}
</style>
<g>
	<path class="st0" d="M31.1,21.9c-0.1,0-0.1-0.1-0.2-0.1c0-0.1-0.1-0.2-0.2-0.1c-1-0.7-1.3-2.2-1.4-3.4c-0.2-1.6-0.4-3.2-0.9-4.8
		c-0.3-0.9-0.6-1.7-1.2-2.4c-0.4-0.6-1-1-1.6-1.4c-1.2-0.7-2.6-1-4-0.8c-1.5,0.2-3,0.9-3.9,2.2c-0.1,0.1,0,0.2,0.1,0.1
		c0.3-0.1,0.5-0.3,0.8-0.3c-0.4,0.3-0.8,0.7-1.1,1.1c-0.1,0.1,0,0.2,0.1,0.1c0.3-0.1,0.6-0.3,1-0.4c-0.3,0.3-0.7,0.6-0.9,1
		c-0.4,0.5-0.6,1.1-0.8,1.7c-0.4,1.3-0.5,2.6-0.6,3.9c-0.1,1.4-0.1,2.7,0.1,4.1c0.2,1.3,0.5,2.5,0.9,3.7c0.4,1.1,0.9,2.2,1.5,3.2
		c0.3,0.5,0.7,0.9,1.1,1.3c0.3,0.3,0.7,0.4,1,0.4c0.8-0.1,1.4-0.8,1.8-1.4c0.3-0.3,0.5-0.7,0.8-1.1c0.3-0.4,0.7-0.8,1.1-1.2
		c1.7-1.8,3.3-3.8,5.3-5.1c0.3-0.2,0.5-0.3,0.8-0.5c0.1,0,0.1,0.1,0.2,0.1C31.1,22,31.2,21.9,31.1,21.9z"/>
	<path class="st1" d="M25.4,26.4c-0.4,0.5-0.8,0.9-1.2,1.4c-0.3,0.3-0.6,0.7-0.9,1c-0.5,0.6-0.9,1.4-1.6,1.9
		c-0.3,0.2-0.6,0.3-0.9,0.2c-0.5-0.2-0.8-0.6-1.1-1c-0.7-0.9-1.3-2-1.7-3c-0.4-1.1-0.8-2.2-1-3.4c-0.3-1.3-0.3-2.6-0.3-4
		c0-1.3,0.1-2.6,0.4-3.9c0.1-0.6,0.3-1.3,0.6-1.9c0.2-0.6,0.6-1,1-1.5c0.2-0.2,0.4-0.4,0.6-0.6c0.1-0.1,0-0.2-0.1-0.2
		c-0.4,0.1-0.7,0.2-1,0.3c0.3-0.4,0.6-0.7,1.1-0.9c0.1,0,0.1-0.2,0-0.2c-0.3-0.1-0.6,0-0.8,0.1c1.7-2,5-2.1,7.2-0.9
		c2.9,1.6,3.2,5.4,3.6,8.4c0.2,1.2,0.5,2.7,1.5,3.4C28.6,23,27,24.7,25.4,26.4z"/>
	<path class="st0" d="M28.5,23.2c-0.2-0.5-0.4-0.9-0.6-1.4c-0.2-0.5-0.3-0.9-0.5-1.4c-0.3-0.9-0.6-1.9-0.9-2.8
		c-0.5-1.5-1-3.1-2.2-4.3c-0.5-0.5-1.1-0.9-1.8-1c-0.7-0.1-1.4,0.1-2.1,0.5c-1.2,0.8-1.9,2.2-2.3,3.5c-0.2,0.8-0.4,1.6-0.4,2.5
		c0,0.8,0,1.6,0.4,2.3c0,0,0.1,0,0.1-0.1C18,20.3,18,19.6,18,18.9c0-0.8,0.2-1.5,0.4-2.2c0-0.2,0.1-0.3,0.1-0.5
		c-0.2,0.8-0.2,1.7-0.1,2.5c0.2,2.1,1,4.2,1.9,6c0.5,1,1.1,1.9,1.7,2.8c0,0.1,0.2,0,0.1-0.1c-1-1.7-1.9-3.5-2.6-5.3
		c-0.7-1.9-1.1-4-0.7-6c0.1-0.5,0.3-1.1,0.5-1.6c0.1-0.3,0.3-0.6,0.5-0.8c0.2-0.2,0.4-0.4,0.6-0.5c0.5-0.4,1.2-0.7,1.9-0.6
		c0.7,0,1.3,0.4,1.8,0.9c1.1,1.1,1.7,2.6,2.1,4c0.3,1,0.7,2,1,3c0.2,0.5,0.4,1,0.5,1.5c0.2,0.5,0.4,1,0.6,1.4
		C28.4,23.3,28.5,23.2,28.5,23.2z"/>
	<path class="st1" d="M29.1,18.4c-0.3-1.9-0.5-4.1-1.3-5.8c0.3,1,0.3,2.1,0,3.2c0,0.1-0.1,0.1-0.1,0c-0.2-0.2-0.3-0.4-0.5-0.7
		c-0.4-0.9-0.6-2-1.4-2.6c0.1,0.3,0.2,0.6,0.3,0.9c0,0.1-0.1,0.1-0.1,0.1c-0.4-0.4-0.8-0.9-1.3-1.1c0.4,0.6,0.9,1.2,1.1,2
		c0,0.1-0.1,0.1-0.1,0.1c-0.1-0.1-0.2-0.2-0.3-0.3c-0.8-0.8-1.7-1.6-2.8-1.8c-0.5-0.1-1-0.1-1.5,0.1c-0.6,0.2-1,0.6-1.4,1
		c-0.7,0.7-1.2,1.6-1.5,2.5c-0.4,1-0.5,2-0.5,3.1c0,0.9,0.1,1.8,0.4,2.6c0-0.7,0-1.4,0.3-2.1c0-0.1,0.1,0,0.1,0c0,0.5,0,1.1,0,1.6
		c0.1,1.9,0.4,3.8,1.2,5.5c0,0,0,0.1-0.1,0.1c-0.5-0.1-1-0.3-1.4-0.7c-0.3-0.2-0.5-0.5-0.7-0.8c0.2,0.5,0.4,1.1,0.6,1.6
		c0.4,1.1,1,2.1,1.7,3c0.3,0.4,0.6,0.8,1.1,1c0.3,0.1,0.7,0,0.9-0.2c0.7-0.5,1.1-1.2,1.6-1.9c0.3-0.4,0.6-0.7,0.9-1
		c0.4-0.5,0.8-0.9,1.2-1.4c1.6-1.7,3.2-3.5,5.2-4.7C29.6,21.1,29.3,19.5,29.1,18.4z"/>
	<path class="st1" d="M29.1,18.4c-0.1-0.4-0.1-0.7-0.2-1.1c-0.2,0.2-0.4,0.5-0.7,0.5c-0.4,0-0.7-0.4-0.9-0.7
		c-0.1-0.2-0.2-0.5-0.3-0.7c0,0,0-0.1,0-0.1c0.1,0.5,0.2,1,0.2,1.5c0,0.1-0.1,0.1-0.1,0c-0.2-0.5-0.4-0.9-0.6-1.4
		c-0.4-0.9-0.9-1.8-1.5-2.6c-0.6-0.7-1.3-1.2-2.2-1.2c0,0.1,0.1,0.2,0.1,0.2c0.6,1,1.2,2,1.7,3.1c0.5,1.1,0.7,2.2,0.5,3.4
		c-0.2,0.9-0.7,1.7-1.4,2.2c-0.5,0.4-1.3,0.7-1.9,0.5c-0.6-0.2-1-0.7-1.2-1.3c0,0.6,0.1,1.2,0.2,1.8c0,0.1-0.1,0.1-0.1,0
		c-0.3-0.4-0.5-0.9-0.7-1.3c-0.6-1.5-0.8-3.2-0.9-4.9c0,0,0,0,0,0c-0.3,1.5-0.2,3,0.1,4.4c0.1,0.7,0.3,1.5,0.6,2.2
		c0.1,0.3,0.2,0.7,0.3,1c0.1,0.3,0.2,0.6,0.3,0.8c0.2,0.5,0.5,1,0.8,1.4c0.3,0.5,0.5,1,0.6,1.6c0,0.2,0.1,0.5,0,0.7
		c-0.1,0.2-0.2,0.5-0.4,0.6c-0.3,0.3-0.7,0.4-1.2,0.4c-0.3,0-0.6-0.1-0.9-0.3c0.2,0.3,0.4,0.5,0.5,0.8c0.3,0.4,0.6,0.8,1.1,1
		c0.3,0.1,0.7,0,0.9-0.2c0.7-0.5,1.1-1.2,1.6-1.9c0.3-0.4,0.6-0.7,0.9-1c0.4-0.5,0.8-0.9,1.2-1.4c1.6-1.7,3.2-3.5,5.2-4.7
		C29.6,21.1,29.3,19.5,29.1,18.4z"/>
	<path class="st1" d="M17.9,26.3c-0.5-1.5-0.8-3.1-1-4.7c-0.1-1.5-0.1-2.9,0.1-4.4c0.2-1.3,0.5-2.7,1.2-3.9c0.6-1.1,1.6-2,2.7-2.5
		c-0.5-0.1-1,0.2-1.4,0.3c-0.1,0-0.1-0.1-0.1-0.1c0.6-0.7,1.6-1.1,2.5-1.2c1.6-0.2,3.4,0.2,4.8,1.1c-0.4-0.4-0.8-0.8-1.3-1
		c-2.2-1.2-5.5-1.1-7.2,0.9c0.3-0.1,0.5-0.2,0.8-0.1c0.1,0,0.1,0.1,0,0.2c-0.4,0.3-0.8,0.6-1.1,0.9c0.3-0.1,0.7-0.3,1-0.3
		c0.1,0,0.1,0.1,0.1,0.2c-0.2,0.2-0.4,0.4-0.6,0.6c-0.4,0.4-0.8,0.9-1,1.5c-0.2,0.6-0.4,1.2-0.6,1.9c-0.3,1.3-0.3,2.6-0.4,3.9
		c0,1.3,0.1,2.7,0.3,4c0.2,1.2,0.6,2.3,1,3.4c0.4,1.1,1,2.1,1.7,3c0.1,0.2,0.3,0.3,0.4,0.5C19.2,29.2,18.5,27.8,17.9,26.3z"/>
	<path class="st0" d="M76.3,44.7c-0.1-0.8-0.3-1.5-0.6-2.2c-0.3-0.6-0.7-1.1-1.2-1.5c-0.1-0.1-0.3-0.2-0.4-0.4
		c0.6,0.2,1.1,0.9,1.6,1.3c0.1,0.1,0.3-0.1,0.2-0.2c-0.2-1.1-0.9-2.1-1.8-2.8c0.6,0.1,1.2,0.5,1.6,0.9c0.1,0.1,0.3,0,0.3-0.1
		c-0.1-0.8-0.7-1.6-1.2-2.2c-0.6-0.8-1.4-1.4-2.2-1.9c-1.8-1.1-3.9-1.6-5.8-2.5c-1-0.5-1.8-1.1-2.6-1.8c-0.9-0.8-1.6-1.6-2.4-2.5
		c-1.5-1.7-2.9-3.6-4.4-5.3c-0.9-1-1.8-2.1-2.7-3.1c-0.7-0.7-1.5-1.4-2.2-2c0,0,0-0.1,0-0.1c-1.3-1-2.6-1.9-4.1-2.5
		c-1.5-0.7-3.2-1.2-4.8-1.1c-0.4,0-0.8,0.1-1.3,0.2c0.3-0.2,0.6-0.3,0.8-0.6c0.1-0.1,0.1-0.1,0-0.2c-0.8-0.3-1.7-0.1-2.5,0
		c-0.4,0.1-0.9,0.2-1.3,0.4c-0.4,0.2-0.7,0.4-1.1,0.6c0.2-0.5,0.7-0.8,1-1.2c0.1-0.1,0-0.2-0.1-0.2c-0.7,0.2-1.5,0.5-2.1,1
		c-0.1,0.1-0.3,0.2-0.4,0.3c-0.4-0.3-0.9-0.4-1.3-0.5c-0.8-0.2-1.8-0.1-2.6,0.2c-0.1,0-0.1,0.1-0.1,0.2c0.4,0.2,0.9,0.4,1.2,0.6
		c-0.5,0.1-0.9,0.2-1.4,0.3c-1,0.2-1.9,0.5-2.8,1c-0.5,0.2-1,0.5-1.4,0.9c-0.1,0.1,0,0.2,0.1,0.2c0.8-0.2,1.7-0.3,2.5-0.2
		c-0.3,0.1-0.6,0.2-0.9,0.4c-0.6,0.3-1.1,0.5-1.7,0.8c-1.1,0.7-2.1,1.5-3.1,2.4c-1.9,1.7-3.5,3.7-4.8,5.9c-1.3,2.2-2.5,4.7-2.4,7.4
		c0,1.4,0.4,2.7,0.7,4.1c0.1,0.6,0.3,1.3,0.4,2c0.1,0.3,0.1,0.6,0.1,1c-0.1,0.4-0.4,0.7-0.6,1c-0.5,0.6-1,1-1.7,1.3
		c-1.3,0.6-2.8,0.9-4.1,1.7c-0.7,0.4-1.4,1-1.8,1.7c-0.1,0.2,0.1,0.2,0.2,0.1c0.3-0.2,0.7-0.5,1-0.7c0.3-0.2,0.6-0.3,1-0.2
		c-0.1,0.1-0.2,0.1-0.3,0.1c-0.2,0.1-0.3,0.2-0.5,0.3c-0.3,0.2-0.7,0.5-0.9,0.8c-0.6,0.6-1,1.3-1.2,2.1c0,0.1,0.1,0.2,0.2,0.1
		c0.3-0.3,0.6-0.6,1-0.8c-0.5,0.5-0.9,1.2-1.1,1.9c-0.4,1.2,0,2.6,0.5,3.7c0.3,0.6,0.6,1.2,0.9,1.7c0.3,0.6,0.7,1.1,1,1.7
		c0.8,1.1,1.6,2.2,2.5,3.2c1,1.1,2.1,2.2,3.2,3.2c0,0,0,0,0.1,0c1.1,1.4,2.4,2.7,3.9,3.7c1.6,1.1,3.4,1.8,5.3,2.1
		c1.9,0.3,3.9,0.3,5.8,0c1.7-0.2,3.4-0.6,5-1.2c1.6-0.6,3.1-1.5,4.4-2.5c0,0,0,0,0,0c0.2-0.1,0.3-0.2,0.5-0.3
		c0.4-0.3,0.7-0.5,1.1-0.8c0.6-0.4,1.3-0.7,1.9-1c0.6-0.2,1.2-0.5,1.7-0.7c0.4-0.1,0.8-0.3,1.2-0.4c1.6-0.5,3.2-0.9,4.8-1.3
		c3.1-0.8,6.3-1.3,9.3-2.3c2.8-0.9,5.4-2.4,7.7-4.2c1.1-0.9,2.1-1.9,3-3c0.9-1.1,1.5-2.4,1.8-3.8C76.4,47.6,76.4,46.1,76.3,44.7z"/>
	<path class="st1" d="M75.9,48.1c-0.2,1.4-0.8,2.7-1.5,3.9c-0.8,1.2-1.8,2.2-2.9,3.1c-2.2,1.8-4.7,3.2-7.3,4.2c-2.9,1.1-6,1.6-9,2.3
		c-1.5,0.4-3.1,0.8-4.6,1.2c-1.5,0.4-3,0.9-4.3,1.6c-0.2,0.1-0.3,0.2-0.5,0.2c-0.4,0.3-0.8,0.5-1.2,0.8c-0.1,0-0.1,0-0.1-0.1
		c0,0,0,0,0,0c0,0,0,0,0,0c0,0,0,0,0,0c0.2-0.2,0.4-0.5,0.6-0.7c0.3-0.5,0.7-1,0.9-1.5c0,0,0,0,0,0c-0.6,1-1.4,2-2.3,2.8
		c-1.2,1.1-2.5,2-3.9,2.6c-1.5,0.7-3.1,1.2-4.7,1.4c-1.8,0.3-3.7,0.4-5.6,0.3c-1.9-0.1-3.8-0.6-5.5-1.6c-1.5-0.9-2.9-2.1-4-3.4
		c-0.2-0.2-0.3-0.4-0.5-0.5c-0.5-0.5-1-0.9-1.4-1.4c-0.3-0.3-0.5-0.5-0.8-0.8c0.1,0.1,0.1,0.2,0.2,0.2c-1.3-1.4-2.6-2.7-3.7-4.3
		c-0.7-1-1.4-2.1-2-3.2c-0.6-1.1-1.1-2.4-1-3.6c0.1-1.4,1-2.5,2.1-3.3c0.2-0.1,0.1-0.3-0.1-0.2c-0.7,0.3-1.3,0.8-1.9,1.3
		c0.2-0.6,0.6-1.2,1-1.7c0.3-0.3,0.6-0.5,0.9-0.7c0.3-0.2,0.6-0.3,0.9-0.6c0.1-0.1,0.1-0.2,0-0.2c-0.4-0.2-0.9,0-1.3,0.2
		c-0.2,0.1-0.4,0.2-0.6,0.3c0.9-1,2.1-1.5,3.3-1.9c0.7-0.3,1.5-0.5,2.1-0.8c0.7-0.3,1.2-0.8,1.7-1.4c0-0.1,0.1-0.1,0.1-0.2
		c0,0,0,0,0,0.1c0.1-0.2,0.3-0.5,0.4-0.7c0-0.1,0.1-0.1,0.1-0.2c0.1-0.3,0.1-0.7,0-1c0-0.3-0.1-0.6-0.1-0.9
		c-0.2-1.3-0.6-2.5-0.9-3.8c-0.2-1.4-0.2-2.7,0.2-4.1c0.3-1.3,0.9-2.4,1.5-3.6c1.2-2.2,2.6-4.2,4.4-6c0.9-0.9,1.9-1.7,2.9-2.5
		c0.5-0.4,1.1-0.7,1.6-1c0.5-0.3,1.1-0.5,1.7-0.7c0.3-0.1,0.6-0.2,0.9-0.2c0.1,0,0.3-0.2,0.1-0.3c-0.9-0.3-1.9-0.2-2.9,0
		c0.6-0.5,1.4-0.8,2.1-1.1c0.9-0.3,1.8-0.5,2.6-0.7c0,0,0,0,0.1,0c0.2-0.1,0.4-0.1,0.6-0.2c-0.1-0.1-0.1-0.2-0.2-0.2
		c-0.3-0.2-0.7-0.4-1.1-0.6c1.1-0.3,2.5-0.2,3.5,0.4c0,0,0,0,0,0c0,0,0,0,0,0c0.2-0.1,0.3-0.2,0.5-0.2c0.1-0.1,0.2-0.1,0.3-0.2
		c0.5-0.3,1-0.5,1.5-0.7c-0.3,0.3-0.5,0.5-0.7,0.8c0,0.1-0.1,0.2-0.1,0.3c0,0.1,0,0.1,0,0.2c0,0,0.1,0,0.1,0
		c0.4-0.2,0.8-0.5,1.2-0.7c0.4-0.2,0.8-0.3,1.3-0.4c0.7-0.2,1.6-0.3,2.3-0.1c-0.2,0.2-0.5,0.4-0.8,0.5c-0.3,0.1-0.5,0.3-0.8,0.4
		c0.6-0.1,1.1-0.2,1.7-0.2c0.9-0.1,1.9,0,2.8,0.2c1.6,0.4,3.1,1.1,4.6,1.9c0.6,0.3,1.2,0.7,1.7,1.1c0.8,0.7,1.6,1.5,2.3,2.2
		c0.8,0.9,1.6,1.8,2.4,2.7c1.5,1.7,2.9,3.5,4.4,5.3c0.7,0.9,1.5,1.7,2.3,2.5c0.8,0.7,1.5,1.4,2.5,2c1.8,1.1,3.9,1.5,5.8,2.5
		c1,0.5,2,1.2,2.7,2.1c0.3,0.4,0.6,0.7,0.9,1.1c0.2,0.3,0.4,0.5,0.5,0.8c-0.5-0.4-1.2-0.7-1.8-0.7c-0.1,0-0.3,0.1-0.1,0.2
		c0.8,0.6,1.5,1.5,1.9,2.4c-0.5-0.5-1-1.1-1.8-1.1c-0.1,0-0.3,0.1-0.2,0.2c0.5,0.5,1,0.9,1.4,1.4c0.5,0.6,0.7,1.3,0.9,2
		C76.1,45.2,76.1,46.7,75.9,48.1z"/>
	<path class="st1" d="M12.6,46.9c-0.3,0.2-0.7,0.5-0.9,0.7c-0.5,0.5-0.8,1.1-1,1.7c0.1-0.1,0.1-0.1,0.2-0.2c0,0,0.1-0.1,0.1-0.1
		c0.6-0.8,1.4-1.4,2.2-1.9c0.8-0.5,1.7-0.8,2.6-1.2c-0.2-0.2-0.5-0.2-0.7-0.2c-0.3,0-0.7,0-1,0c-0.1,0-0.1-0.1,0-0.1
		c0.4-0.2,0.9-0.3,1.3-0.5c0.8-0.4,1.6-0.8,2.2-1.4c0,0,0,0,0,0c-0.1,0.1-0.3,0.2-0.5,0.3c-0.7,0.3-1.4,0.6-2.1,0.8
		c-1.2,0.4-2.5,0.9-3.3,1.9c0.2-0.1,0.4-0.2,0.6-0.3c0.4-0.2,0.9-0.3,1.3-0.2c0.1,0,0.1,0.1,0,0.2C13.3,46.7,12.9,46.8,12.6,46.9z"
		/>
	<path class="st1" d="M23.1,31.6c-0.4-0.1-0.7,0.1-1.1,0.3c-0.4,0.2-0.8,0.5-1.1,0.9c-0.3,0.3-0.5,0.7-0.7,1c0,0,0.1-0.1,0.1-0.1
		c1-1,2.3-1.3,3.7-1.3C23.8,32,23.5,31.7,23.1,31.6z"/>
	<path class="st1" d="M36.3,34.6c-0.3,0.9-0.3,1.8-0.1,2.6c0.2,0.7,0.4,1.4,0.7,2.1c-0.1-0.7-0.2-1.4-0.2-2.1c0-0.8,0.1-1.6,0.2-2.4
		c0.2-0.8,0.4-1.6,0.8-2.3c0.2-0.3,0.3-0.6,0.5-0.9C37.4,32.5,36.7,33.5,36.3,34.6z"/>
	<path class="st1" d="M50,40.9c-0.5,0.6-0.9,1.3-1.1,2c-0.4,1-0.6,2-0.7,3c-0.1,0.9,0,1.8,0.2,2.7c0,0,0-0.1,0-0.1
		c0.3-1.2,0.4-2.3,0.6-3.5c0.2-1.1,0.5-2.2,1.1-3.2c0.3-0.6,0.7-1.2,1.1-1.8c0.4-0.5,0.8-1.1,1.2-1.5c-0.2,0.1-0.4,0.3-0.6,0.5
		C51.1,39.5,50.5,40.2,50,40.9z"/>
	<path class="st1" d="M19,38.5c0.1-1.3-0.1-2.6-0.1-3.9c-0.1-2,0.7-4,1.7-5.8c0.9-1.7,2-3.4,3.2-5c0.6-0.8,1.3-1.5,2-2.1
		c0.7-0.7,1.6-1.3,2.4-1.8c0.9-0.5,1.8-1,2.8-1.4c0.8-0.3,1.8-0.3,2.5-0.7c-0.6-0.2-1.3-0.2-2-0.1c0,0,0,0-0.1,0c-0.1,0-0.1,0-0.2,0
		c0,0,0,0,0,0c-0.2,0-0.4,0.1-0.6,0.2c-0.6,0.2-1.1,0.5-1.7,0.7c-0.6,0.3-1.1,0.7-1.6,1c-1,0.8-2,1.6-2.9,2.5
		c-1.8,1.8-3.2,3.8-4.4,6c-0.6,1.1-1.1,2.3-1.5,3.6c-0.3,1.3-0.4,2.7-0.2,4.1C18.5,36.7,18.8,37.6,19,38.5z"/>
	<path class="st1" d="M52.5,37.8c-0.6,0.3-1.2,0.6-1.7,1.1c-0.1,0-0.1,0-0.1-0.1c-0.1-1-0.3-2-0.6-3c-0.3-0.9-0.6-1.7-1.1-2.5
		c-0.3-0.4-0.6-0.8-0.9-1.1c-0.4-0.4-0.8-0.7-1.2-1c-0.8-0.5-1.8-0.6-2.8-0.5c-1,0.2-1.9,0.6-2.8,1c-0.1,0-0.1,0-0.1-0.1
		c0.1-0.3,0.3-0.6,0.5-0.8c0.5-0.4,1-0.7,1.6-0.8c0.5-0.1,1-0.2,1.5-0.3c-0.1,0-0.1-0.1-0.2-0.1c-0.6-0.2-1.2-0.2-1.8-0.1
		c-0.6,0.1-1.2,0.3-1.7,0.5c-0.5,0.3-1,0.6-1.5,1c-0.4,0.4-0.8,0.9-1.1,1.4c-0.6,1-1,2.2-1.1,3.4c-0.1,1.2-0.1,2.4,0.1,3.6
		c0.2,1.1,0.5,2.2,1.1,3.1c0-0.5-0.1-1-0.1-1.5c0-0.1,0.1-0.1,0.1,0c0.2,0.7,0.6,1.4,1,2.1c0.8,1.1,1.8,2.2,3.1,2.8
		c0.5,0.3,1.2,0.5,1.8,0.4c0.5-0.1,1-0.5,1.4-0.8c0,0,0.1,0,0.1,0.1c0,0.3,0,0.6,0,0.9c0.1,0.9,0.4,2,1.1,2.6c0,0,0,0,0,0
		c-0.1-1,0-2.1,0.2-3.1c0.2-1,0.6-2,1.1-3c0.5-1,1.1-1.8,1.8-2.6c0.7-0.8,1.5-1.5,2.4-2.1c0.7-0.5,1.5-0.9,2.3-1.2
		c-0.2,0-0.4,0-0.6,0.1C53.8,37.2,53.1,37.4,52.5,37.8z"/>
	<path class="st1" d="M19.6,44.3c0.2,0.2,0.5,0.4,0.6,0.7c0.1,0.2,0.2,0.5,0.3,0.7c0.1,0.2,0.2,0.4,0.4,0.5c0.2,0.1,0.5,0,0.7,0
		c0.6-0.2,1.1-0.6,1.5-1c0.5-0.4,0.9-0.8,1.4-1.2c1-1,1.8-2.2,2.3-3.5c0.5-1.1,0.8-2.6-0.1-3.6c-0.1-0.1,0-0.2,0.1-0.1
		c0.3,0.3,0.7,0.6,1,1c0,0,0,0,0-0.1c-0.3-1.1-0.9-2.2-1.7-3.1c-0.8-0.8-1.9-1.4-3.1-1.4c-0.6,0-1.3,0.2-1.8,0.5
		c-0.6,0.3-1,0.7-1.4,1.2c-0.4,0.5-0.6,1.1-0.8,1.7c-0.1,0.4-0.2,0.7-0.3,1.1c0.2,0.7,0.3,1.4,0.5,2.1c0.1,0.3,0.1,0.6,0.1,0.9
		c0.1,0.3,0.1,0.7,0,1c0,0.1-0.1,0.1-0.1,0.2c-0.1,0.3-0.2,0.5-0.4,0.7c0,0,0,0,0-0.1c0,0.1-0.1,0.1-0.1,0.2
		c-0.3,0.3-0.6,0.6-0.9,0.9C18.5,43.6,19.1,43.9,19.6,44.3z"/>
	<path class="st2" d="M75.8,43.8c-0.2-0.7-0.4-1.4-0.9-2c-0.4-0.5-0.9-0.9-1.4-1.4c-0.1-0.1,0.1-0.2,0.2-0.2c0.8,0,1.3,0.6,1.8,1.1
		c-0.4-1-1.1-1.8-1.9-2.4c-0.1-0.1,0.1-0.2,0.1-0.2c0.6,0,1.3,0.3,1.8,0.7c-0.1-0.3-0.3-0.6-0.5-0.8c-0.3-0.4-0.6-0.8-0.9-1.1
		c-0.8-0.9-1.7-1.5-2.7-2.1c-1.9-1-3.9-1.4-5.8-2.5c-0.9-0.5-1.7-1.2-2.5-2c-0.8-0.8-1.6-1.6-2.3-2.5c-1.5-1.7-2.9-3.5-4.4-5.3
		c-0.8-0.9-1.6-1.8-2.4-2.7c-0.7-0.8-1.5-1.5-2.3-2.2c-0.6-0.4-1.1-0.8-1.7-1.1c-1.4-0.8-3-1.5-4.6-1.9c-0.9-0.2-1.9-0.3-2.8-0.2
		c-0.6,0-1.1,0.1-1.7,0.2c0.2-0.2,0.5-0.3,0.8-0.4c0.3-0.1,0.6-0.3,0.8-0.5c-0.7-0.3-1.6-0.1-2.3,0.1c-0.4,0.1-0.9,0.2-1.3,0.4
		c-0.4,0.2-0.8,0.4-1.2,0.7c0,0-0.1,0-0.1,0c0-0.1,0-0.1,0-0.2c0-0.1,0-0.2,0.1-0.3c0.2-0.3,0.4-0.6,0.7-0.8
		c-0.5,0.2-1.1,0.4-1.5,0.7c-0.1,0.1-0.2,0.1-0.3,0.2c-0.2,0.1-0.3,0.1-0.5,0.2c0,0,0,0,0,0c0,0,0,0,0,0c-1-0.6-2.3-0.7-3.5-0.4
		c0.4,0.2,0.7,0.4,1.1,0.6c0.1,0.1,0.1,0.1,0.2,0.2c-0.2,0-0.4,0.1-0.6,0.2c0,0,0,0-0.1,0c-0.9,0.2-1.8,0.4-2.6,0.7
		c-0.7,0.3-1.5,0.6-2.1,1.1c0.9-0.2,2-0.3,2.9,0c0.2,0.1,0,0.3-0.1,0.3c-0.3,0-0.6,0.1-0.9,0.2c-0.6,0.2-1.1,0.5-1.7,0.7
		c-0.6,0.3-1.1,0.7-1.6,1c-0.7,0.5-1.3,1-2,1.6c1-0.8,2.2-1.5,3.5-1.9c1.3-0.4,2.6-0.5,3.9-0.6c-0.2-0.3-0.5-0.6-0.8-0.7
		c-0.1,0,0-0.1,0-0.1c0.7,0,1.3,0.3,1.8,0.6c-0.3-0.6-0.7-1-1.2-1.5c0,0,0-0.1,0-0.1c1.1-0.2,2,0.6,2.7,1.4c0.5-1.6,2.4-2.3,3.8-2.8
		c0.1,0,0.1,0.1,0.1,0.1c-0.7,0.6-1.2,1.3-1.7,2.1c0.3-0.2,0.6-0.5,0.9-0.6c1.1-0.6,2.4-0.9,3.7-1.1c1.2-0.1,2.4-0.1,3.5,0.3
		c0.1,0,0.1,0.1,0,0.1c-1.3,0-2.7,0.3-3.9,0.9c0.9,0,1.8,0.2,2.7,0.4c3.4,1.1,5.9,3.9,7.7,6.8c0,0.1-0.1,0.2-0.1,0.1
		c-0.5-0.6-1.2-0.9-2-1.1c0.5,0.4,1,0.8,1.4,1.3c1.7,2.2,2.3,5.1,2.6,7.8c0.5-0.9,0.6-1.8,0.7-2.8c0-0.1,0.1-0.1,0.1,0
		c0.4,1.1,0.2,2.3,0.2,3.4c0.6-0.6,1.2-1.3,1.7-2.1c0,0,0.1-0.1,0.1,0c1.4,2.6,3.3,4.9,5.6,6.6c-0.3-0.6-0.6-1.2-0.9-1.9
		c0-0.1,0.1-0.2,0.1-0.1c0.7,0.6,1.5,1,2.4,1.4c0.7,0.3,1.5,0.6,2.2,1.1c0.7,0.4,1.3,1,1.9,1.5c1.2,1.1,2.2,2.5,2.8,4
		c0,0.1-0.1,0.2-0.1,0.1c-1-1.3-2.6-1.8-4.1-2.2c1,0.8,1.7,1.7,2.2,2.9c0,0.1-0.1,0.2-0.1,0.1c-0.7-0.6-1.5-1.1-2.3-1.5
		c-0.7-0.3-1.5-0.6-2.3-0.7c0.8,0.5,1.5,1.2,2,1.9c1.2,1.5,1.9,3.4,1.8,5.3c0,2-1,3.7-2.6,4.9c0,0-0.1,0-0.1,0
		c-0.3-1.2-0.3-2.4-0.7-3.6c-0.1,1.2-0.4,2.4-1.1,3.4c-1.4,2-3.7,3.1-5.8,4c-3,1.4-6.2,2.5-9.5,3.1c-0.1,0-0.1,0-0.1-0.1
		c0.4-1.5,0.7-3,0.5-4.6c-0.1,0.3-0.2,0.5-0.3,0.8c-0.6,1.4-1.5,2.5-2.6,3.5c-0.4,0.4-0.8,0.9-1.4,1.1c-0.3,0.2-0.7,0.3-0.9,0
		c-0.3-0.4-0.5-0.9-0.7-1.3c-0.2-0.5-0.4-1-0.7-1.4c-0.2-0.3-0.4-0.5-0.6-0.7c-0.3-0.3-0.6-0.6-0.9-0.9c-0.5-0.6-1.1-1.2-1.5-1.9
		c-0.5-0.7-0.8-1.5-1-2.3C38,52.9,38,52,37.9,51.1c-0.1-1.9-0.4-3.7-1.2-5.4c-0.7-1.5-1.6-3-3-4c-1.2-0.9-2.6-1.5-4.2-1.5
		c-0.9,0-1.8,0.1-2.7,0.3c0,0.1-0.1,0.1-0.1,0.2c-0.6,1.3-1.4,2.6-2.5,3.6c-0.2,0.2-0.4,0.4-0.7,0.6c-0.2,0.2-0.5,0.4-0.7,0.6
		c0,0-0.1,0.1-0.1,0.1c0.3,0.2,0.5,0.4,0.7,0.7c0.5,0.7,0.8,1.6,1.1,2.4c0.2,0.4,0.4,0.7,0.5,1.1c0.5,1,0.9,2.1,1.4,3.2
		c0.8,2.2,1.5,4.4,2,6.7c0.5,2.3,1,4.7,1.4,7.1c0.2,1,0.3,1.9,0.4,2.9c0,0.2,0,0.5,0.1,0.7c1.5,0,3-0.1,4.4-0.4
		c1.6-0.3,3.2-0.7,4.7-1.4c1.4-0.7,2.8-1.5,3.9-2.6c0.9-0.8,1.6-1.8,2.3-2.8c0,0,0,0,0,0c-0.2,0.6-0.5,1.1-0.9,1.5
		c-0.2,0.3-0.4,0.5-0.6,0.7c0,0,0,0,0,0c0,0,0,0,0,0c0,0,0,0,0,0c0,0.1,0.1,0.1,0.1,0.1c0.4-0.3,0.8-0.6,1.2-0.8
		c0.2-0.1,0.3-0.1,0.5-0.2c1.4-0.7,2.9-1.1,4.3-1.6c1.5-0.5,3-0.9,4.6-1.2c3-0.7,6.1-1.2,9-2.3c2.6-1,5.2-2.4,7.3-4.2
		c1.1-0.9,2.1-1.9,2.9-3.1c0.8-1.2,1.3-2.5,1.5-3.9C76.1,46.7,76.1,45.2,75.8,43.8z"/>
	<path class="st3" d="M41.1,60.6c-0.5-1-1.1-1.9-1.7-2.8c-0.6-0.9-1.1-1.9-1.5-2.9c-0.2-0.5-0.4-1.1-0.5-1.6c-0.1-0.5-0.2-1-0.2-1.6
		c-0.1-1.1-0.2-2.1-0.5-3.2c-0.2-0.9-0.6-1.8-1.1-2.6c0,0.9-0.3,1.8-0.7,2.7c-0.4,0.9-1,1.8-1.6,2.7c-1.2,1.8-2.5,3.5-3.8,5.3
		c-1.5,1.9-2.9,3.9-4,6c-0.9,1.8-1.7,3.8-2.1,5.8c0.2,0.1,0.3,0.2,0.5,0.3c1.7,1,3.6,1.4,5.5,1.6c1.9,0.1,3.7,0,5.6-0.3
		c1.6-0.3,3.2-0.7,4.7-1.4c0.9-0.4,1.7-0.9,2.5-1.5c0.1-1.2,0.1-2.4-0.1-3.6C41.8,62.5,41.5,61.5,41.1,60.6z"/>
	<path class="st3" d="M41.1,60.6c-0.5-1-1.1-1.9-1.7-2.8c-0.6-0.9-1.1-1.9-1.5-2.9c-0.2-0.5-0.4-1.1-0.5-1.6c-0.1-0.5-0.2-1-0.2-1.6
		c-0.1-1.1-0.2-2.1-0.5-3.2c-0.2-0.9-0.6-1.8-1.1-2.6c0,0.9-0.3,1.8-0.7,2.7c-0.4,0.9-1,1.8-1.6,2.7c-1.2,1.8-2.5,3.5-3.8,5.3
		c-1.5,1.9-2.9,3.9-4,6c-0.9,1.8-1.7,3.8-2.1,5.8c0.2,0.1,0.3,0.2,0.5,0.3c1.7,1,3.6,1.4,5.5,1.6c1.9,0.1,3.7,0,5.6-0.3
		c1.6-0.3,3.2-0.7,4.7-1.4c0.9-0.4,1.7-0.9,2.5-1.5c0.1-1.2,0.1-2.4-0.1-3.6C41.8,62.5,41.5,61.5,41.1,60.6z"/>
	<path class="st0" d="M70,17.4c-0.1-1.9-0.5-3.7-1.4-5.4c-0.8-1.7-2.1-3.1-3.8-3.9c0,0,0,0,0,0c0.1,0,0.3,0,0.4-0.1
		c0.1,0,0.1-0.1,0-0.2c-0.5-0.4-1-0.7-1.6-0.9c0,0,0,0,0,0c-0.1-0.5-0.6-0.7-1.1-0.8c-0.6-0.2-1.3-0.2-1.9-0.1
		c-0.5,0-1.1,0.1-1.6,0.2c-0.9,0.2-1.7,0.7-2.5,1.2c-0.7,0.5-1.4,1.2-1.9,1.9c-0.6,0.8-1,1.7-1.4,2.5c-0.7,1.8-1.1,3.9-0.9,5.8
		c0.1,1.2,0.5,2.3,0.9,3.4c0.2,0.4,0.3,0.8,0.5,1.1c0.2,0.5,0.3,1,0.4,1.6c0.1,0.3,0.1,0.6,0.2,0.9c0,0.1,0.1,0.3,0.1,0.4
		c0,0.1,0,0.2,0,0.3c0,0,0,0.1,0,0.1c0,0.1,0.1,0.1,0.2,0.1c0.2-0.2,0.5-0.4,0.7-0.6c-0.1,1-0.1,2.1,0.5,3c0.1,0.1,0.2,0,0.2-0.1
		c0.1-0.4,0.1-0.9,0.3-1.4c0.1,0.7,0.4,1.4,0.7,2c0.4,0.8,0.9,1.6,1.4,2.4c0.8,1,1.7,2,2.8,2.6c0.5,0.3,1.1,0.6,1.7,0.5
		c0.1,0,0.2-0.1,0.1-0.2c-0.2-0.3-0.4-0.6-0.5-1c0.4,0.3,0.8,0.5,1.3,0.5c0,0,0.1,0,0.1-0.1c-0.1-0.2-0.2-0.4-0.3-0.6
		c-0.4-0.5-0.7-1.2-0.8-1.8c0-0.3,0-0.6,0-0.8c0-0.1,0-0.2,0-0.2c0.1-0.5,0.3-1,0.7-1.3c0,0,0,0,0,0c0.3-0.4,0.7-0.7,1.1-1
		c0.6-0.5,1.3-1,1.8-1.6c0.7-0.8,1.3-1.6,1.8-2.5c0.5-0.9,1-1.9,1.2-2.9C70,19.5,70,18.4,70,17.4z"/>
	<path class="st1" d="M69.5,20.1c-0.2,1-0.6,2-1.1,2.9c-0.5,0.9-1.1,1.8-1.8,2.6c-0.5,0.6-1.2,1.1-1.8,1.6c-0.6,0.5-1.3,1.1-1.8,1.8
		c-0.1,0.1-0.1,0.3-0.2,0.4c-0.1,0.3-0.2,0.6-0.2,0.9c0.1-0.3,0.3-0.6,0.5-0.9c-0.2,0.5-0.3,1-0.2,1.5c0.1,0.8,0.4,1.5,0.9,2.1
		c-0.4-0.1-0.8-0.4-1.2-0.7c-0.1-0.1-0.3,0.1-0.3,0.2c0.1,0.5,0.3,0.9,0.5,1.3c-0.4,0-0.8-0.2-1.2-0.4c-0.5-0.3-1-0.7-1.5-1.1
		c-1.1-1-2-2.3-2.6-3.6c-0.4-0.8-1-1.7-0.9-2.7c0-0.1-0.2-0.1-0.2,0c-0.3,0.5-0.3,1.1-0.4,1.6c-0.5-0.9-0.4-2-0.4-3
		c0-0.1-0.1-0.1-0.2,0c-0.2,0.2-0.4,0.4-0.6,0.6c0-0.1,0.1-0.3,0.1-0.4c0-0.6-0.3-1.2-0.5-1.8c-0.2-0.6-0.4-1.1-0.7-1.7
		c-0.2-0.6-0.4-1.1-0.6-1.7c-0.1-0.2-0.1-0.4-0.2-0.6c0,0,0,0,0-0.1c0-0.2-0.1-0.4-0.1-0.6c-0.4-1.9-0.2-3.9,0.4-5.7
		c0.6-1.8,1.4-3.4,2.8-4.7c1.1-1,2.5-1.8,4.1-1.9c0.6-0.1,1.3-0.1,1.9,0c0.4,0.1,1,0.2,1.2,0.6c-0.1,0-0.1,0-0.2,0
		c-0.1,0-0.3,0.2-0.1,0.2c0.1,0,0.3,0.1,0.4,0.1c0.6,0.1,1.1,0.4,1.5,0.8c-0.2,0-0.5-0.1-0.7-0.1c-0.1,0-0.2,0.2-0.1,0.2
		c1.7,0.7,3.1,2.1,4,3.7c0.9,1.6,1.4,3.5,1.6,5.3C69.7,18.1,69.7,19.1,69.5,20.1z"/>
	<path class="st0" d="M26.2,37.5c-0.1-1-0.3-2.1-0.9-3c-0.3-0.4-0.7-0.7-1.1-1c-0.6-0.3-1.2-0.2-1.9,0c-0.4,0.1-0.9,0.4-1.2,0.7
		c-0.2,0.3-0.4,0.6-0.6,0.9c0.3-0.4,0.7-0.8,1.2-1c0.5-0.3,1.2-0.5,1.8-0.4c0.2,0,0.4,0.1,0.5,0.2c-0.7,0.1-1.4,0.7-1.9,1.1
		c-0.5,0.4-0.9,0.8-1.2,1.3c-0.4,0.6-0.7,1.2-0.9,1.8c-0.5,1.2-0.8,2.5-0.8,3.8c0,0.5,0,1,0.1,1.4c-0.2,0-0.4-0.1-0.6-0.1
		c0.2,0.1,0.3,0.2,0.5,0.3c0,0,0.1,0,0.1,0c0,0,0,0,0,0c0.1,0,0.2,0.1,0.3,0.1c0,0,0,0,0,0c0,0,0,0,0,0c0.4,0.2,0.8,0.4,1.2,0.7
		c0,0,0,0,0,0c0.3,0.2,0.5,0.4,0.7,0.6c0.3,0.3,0.6,0.6,0.9,0.8c0.1,0.1,0.2,0.1,0.2,0.2c-0.2-0.3-0.4-0.6-0.6-0.8
		c0.1,0,0.2,0,0.4-0.1c0.6-0.1,1.1-0.4,1.6-0.8c0.5-0.5,0.9-1.1,1.3-1.7c0.4-0.6,0.6-1.3,0.7-2C26.2,39.6,26.3,38.5,26.2,37.5z"/>
	<path class="st4" d="M25.9,39.9c-0.1,0.5-0.1,1.1-0.3,1.6c-0.2,0.6-0.5,1.3-0.9,1.8c-0.4,0.5-0.8,1.1-1.4,1.4
		C22.9,44.8,22.4,45,22,45c-0.3-0.4-0.6-0.7-1-1c-0.3-0.3-0.7-0.5-1.1-0.6c-0.1,0-0.2-0.1-0.4-0.1c-0.1-0.2-0.1-0.5-0.1-0.7
		c-0.1-1.2,0.2-2.4,0.5-3.5c0.4-1.2,0.8-2.4,1.7-3.3c0.3-0.4,0.7-0.7,1.1-1c0.4-0.3,0.8-0.6,1.3-0.7c0.2,0,0.4,0,0.6,0.1
		c0.1,0.1,0.2,0.1,0.2,0.2C26.1,35.8,26.1,38.1,25.9,39.9z"/>
	<path class="st0" d="M63.7,12.7c-0.6-0.9-1.4-1.6-2.3-2.1c-0.9-0.5-2-0.7-3.1-0.5c-1,0.2-1.8,1-2.3,1.8c-0.5,0.8-0.9,1.8-1,2.9
		c0,0.2,0,0.5,0,0.7c0,0,0.1,0,0.1,0c0-1,0.3-2,0.8-2.8c0.3-0.5,0.6-1.1,1.1-1.5c-1,1-1.4,2.6-1.6,4c-0.1,1.2-0.1,2.5,0.1,3.7
		c0.2,1.3,0.4,2.6,0.8,3.8c0.2,0.6,0.4,1.3,0.6,1.9c0.2,0.5,0.4,1.1,0.8,1.5c0,0.1,0.2,0,0.1-0.1c-0.3-0.4-0.5-0.9-0.6-1.4
		c-0.2-0.5-0.3-1-0.4-1.6c-0.3-1.2-0.6-2.4-0.8-3.7c-0.4-2.1-0.5-4.5,0.3-6.5c0.2-0.5,0.4-1,0.8-1.4c0.3-0.4,0.7-0.7,1.1-1
		c0.9-0.3,1.9-0.1,2.8,0.3c1,0.4,1.7,1.1,2.4,1.9c1.2,1.5,1.6,3.5,1.5,5.4c-0.1,2-0.8,3.9-1.7,5.7c-0.9,1.7-2,3.4-3.3,4.9
		c-0.1,0.2-0.3,0.3-0.4,0.5c-0.1,0.1,0,0.1,0.1,0.1c0.7-0.7,1.3-1.4,1.9-2.2c0.6-0.9,1.2-1.7,1.7-2.7c1-1.8,1.8-3.9,2-5.9
		C65.2,16.4,64.9,14.4,63.7,12.7z"/>
	<g>
		<path class="st0" d="M47.7,43.1c-0.3,0.5-0.5,1.1-0.6,1.7c0,0,0,0,0,0c0,0,0-0.1,0-0.1c0.1-0.1,0.1-0.2,0.2-0.3
			c0.1-0.2,0.2-0.5,0.3-0.7c0.1-0.3,0.3-0.6,0.5-0.8c0.2-0.3,0.4-0.6,0.6-0.9c0.4-0.6,0.8-1.1,1.3-1.6c0.7-0.7,1.4-1.3,2.2-1.8
			c0,0,0,0,0,0c-0.9,0.5-1.8,1.1-2.5,1.8c0.6-1.8,0.3-4-0.6-5.7c-0.6-1.1-1.5-2.1-2.7-2.7c-1.1-0.6-2.5-0.7-3.7-0.4
			c-1.2,0.3-2.3,1.1-3,2.1c-0.8,1.1-1.1,2.6-1.1,4c0,1.4,0.4,2.7,1.1,4c0.6,1.1,1.3,2.1,2.3,2.7c0,0,0.1,0.1,0.1,0.1
			c0.1,0.1,0.2,0.1,0.4,0.2c0.2,0.1,0.3,0.2,0.5,0.2c0,0,0,0,0.1,0c0.4,0.1,0.8,0.1,1.2,0c0.5-0.1,1.1-0.4,1.6-0.6
			c0.7-0.4,1.4-0.8,2-1.4C47.8,42.9,47.8,43,47.7,43.1z"/>
		<path class="st4" d="M47.8,42.5c-0.2,0.2-0.4,0.3-0.6,0.5c-0.4,0.3-0.8,0.5-1.2,0.7c-0.8,0.5-1.8,0.9-2.8,0.8
			c-0.4,0-0.9-0.2-1.2-0.4c-0.6-0.5-1.1-1.1-1.6-1.8c-0.7-1.1-1.2-2.3-1.4-3.5c-0.2-1.4-0.1-2.8,0.4-4.1c0.5-1.1,1.3-2,2.4-2.6
			c1.1-0.5,2.4-0.6,3.5-0.3c1.2,0.3,2.2,1.1,2.9,2.1c0.7,1,1.2,2.1,1.3,3.3c0.2,1.1,0.1,2.4-0.4,3.5c-0.3,0.3-0.5,0.6-0.7,1
			c-0.1,0.1-0.2,0.3-0.3,0.4C48.1,42.2,48,42.4,47.8,42.5z"/>
		<path class="st0" d="M42.4,30c-0.6,0-1.2,0.3-1.6,0.7c-0.5,0.4-1,0.8-1.4,1.3c-1,1.2-1.3,2.8-1.2,4.3c0,0.5,0.1,0.9,0.1,1.4
			c0,0.2,0.1,0.4,0.2,0.6c0.1,0.2,0.2,0.4,0.2,0.6c0,0.1,0.1,0,0.1,0c0-0.3-0.2-0.7-0.2-1c-0.1-0.4-0.1-0.8-0.1-1.2
			c0-0.8,0-1.6,0.1-2.3c0.3-1.3,1-2.4,2-3.3c0.5-0.4,1.1-0.9,1.7-0.9C42.5,30.2,42.6,30,42.4,30z"/>
		<g>
			<path class="st5" d="M49.3,38.3c0,2.2-1.8,3.9-3.9,3.9c-2.2,0-3.9-1.8-3.9-3.9c0-2.2,1.8-3.9,3.9-3.9
				C47.6,34.4,49.3,36.1,49.3,38.3z"/>
			<circle cx="45.5" cy="38.3" r="2.5"/>
			<path class="st4" d="M45,37.1c0,0.6-0.5,1.2-1.2,1.2c-0.6,0-1.2-0.5-1.2-1.2s0.5-1.2,1.2-1.2C44.4,35.9,45,36.5,45,37.1z"/>
		</g>
	</g>
	<g>
		<defs>
			<path id="SVGID_1_" d="M25.9,39.9c-0.1,0.5-0.1,1.1-0.3,1.6c-0.2,0.6-0.5,1.3-0.9,1.8c-0.4,0.5-0.8,1.1-1.4,1.4
				C22.9,44.8,22.4,45,22,45c-0.3-0.4-0.6-0.7-1-1c-0.3-0.3-0.7-0.5-1.1-0.6c-0.1,0-0.2-0.1-0.4-0.1c-0.1-0.2-0.1-0.5-0.1-0.7
				c-0.1-1.2,0.2-2.4,0.5-3.5c0.4-1.2,0.8-2.4,1.7-3.3c0.3-0.4,0.7-0.7,1.1-1c0.4-0.3,0.8-0.6,1.3-0.7c0.2,0,0.4,0,0.6,0.1
				c0.1,0.1,0.2,0.1,0.2,0.2C26.1,35.8,26.1,38.1,25.9,39.9z"/>
		</defs>
		<clipPath id="SVGID_2_">
			<use xlink:href="#SVGID_1_"  style="overflow:visible;"/>
		</clipPath>
		<g class="st6">
			<path class="st5" d="M27.2,40c0,2-1.6,3.6-3.6,3.6c-2,0-3.6-1.6-3.6-3.6c0-2,1.6-3.6,3.6-3.6C25.6,36.4,27.2,38,27.2,40z"/>
			<path d="M26,40c0,1.3-1,2.3-2.3,2.3c-1.3,0-2.3-1-2.3-2.3c0-1.3,1-2.3,2.3-2.3C25,37.7,26,38.7,26,40z"/>
			<circle class="st4" cx="22.2" cy="38.9" r="1.1"/>
		</g>
	</g>
	<g>
		<path class="st7" d="M41.1,61.6c-0.5-0.6-1-1.1-1.5-1.7c-0.5-0.6-0.9-1.2-1.2-1.9c-0.2-0.6-0.3-1.2-0.3-1.8c0,0,0,0,0,0
			c-0.2,0.5-0.2,1-0.1,1.6c-0.1,0.5-0.2,1.1-0.4,1.6c-0.3,1-0.8,1.9-1.3,2.8c-1,1.5-2.3,2.8-3.7,3.8c-2.3,1.7-4.9,2.8-7.5,3.7
			c-0.2,0.1-0.4,0.2-0.6,0.2c-0.4,0.1-0.8,0.3-1.2,0.3c-0.2,0-0.3,0.1-0.5,0.1c-1,0.3-2.1,0.5-3.2,0.5c-0.5,0-1-0.1-1.5-0.2
			c-0.2-0.1-0.5-0.2-0.7-0.4c-0.2-0.3,0-0.5,0.2-0.7c0,0,0,0,0,0c-0.2,0.1-0.3,0.2-0.4,0.4c-0.1,0.2-0.1,0.4,0.1,0.6
			c0.3,0.4,0.8,0.5,1.2,0.6c1,0.2,2,0.1,3-0.1c1-0.2,1.9-0.5,2.8-0.8c0,0,0.1,0,0.1,0c0.4,0,0.8,0.2,1.2,0.4c0.6,0.3,1.1,0.6,1.6,1
			c1,0.6,2.1,1.2,3.3,1.6c2.1,0.6,4.5,0.7,6.6,0c2.1-0.7,3.9-2.1,4.9-4c0.5-1,0.9-2.1,1-3.2c0.1-1.1-0.2-2.1-0.6-3.1
			C41.9,62.5,41.5,62.1,41.1,61.6z"/>
		<path class="st3" d="M41.8,68.5c-0.8,2-2.5,3.5-4.5,4.3c-2.1,0.8-4.4,0.8-6.5,0.3c-0.6-0.1-1.1-0.3-1.7-0.6
			c-0.6-0.3-1.1-0.6-1.6-0.9c-0.5-0.3-1.1-0.6-1.6-0.9c-0.4-0.2-0.8-0.4-1.2-0.5c0.1,0,0.2-0.1,0.3-0.1c0.3,0,0.6,0.1,0.9,0.1
			c0.8,0.1,1.7,0.3,2.5,0.5c1.1,0.2,2.2,0.4,3.3,0.4c1,0,2-0.1,3-0.3c1.8-0.5,3.4-1.4,4.3-3.1c0.9-1.8,0.9-3.8,0.4-5.7
			c-0.2-1-0.6-2.1-0.8-3.1c-0.1-0.4-0.2-0.9-0.3-1.3c0,0,0,0,0-0.1c0,0,0,0,0-0.1c0.6,1.7,2,3,2.9,4.5c0.6,1,1.2,2.1,1.3,3.2
			C42.6,66.3,42.2,67.5,41.8,68.5z"/>
		<path class="st3" d="M42.5,65.1c-0.1-1.2-0.6-2.3-1.3-3.2c-1-1.5-2.4-2.8-2.9-4.5c0,0,0,0,0,0.1c0,0,0,0,0,0.1
			c0.1,0.5,0.1,0.9,0.3,1.3c0.3,1,0.6,2.1,0.8,3.1c0.4,1.9,0.5,3.9-0.4,5.7c-0.9,1.7-2.5,2.6-4.3,3.1c-1,0.3-2,0.4-3,0.3
			c-1.1,0-2.2-0.2-3.3-0.4c-0.8-0.2-1.7-0.3-2.5-0.5c-0.3,0-0.6-0.1-0.9-0.1c-0.1,0-0.2,0.1-0.3,0.1c0.4,0.1,0.8,0.3,1.2,0.5
			c0.4,0.2,0.7,0.4,1.1,0.6c0.8,0.2,1.6,0.3,2.4,0.3c1,0.1,2,0.1,3.1,0c1.3-0.1,2.7-0.3,4-0.6c0.6-0.2,1.2-0.4,1.7-0.7
			c0.5-0.3,1.1-0.5,1.6-0.7c0,0,0.1,0,0.1,0.1c0.2,0.4,0.2,0.9,0.1,1.3c0,0.1,0,0.1,0,0.2c0.8-0.7,1.4-1.6,1.9-2.6
			C42.2,67.5,42.6,66.3,42.5,65.1z"/>
		<g>
			<path class="st8" d="M26.8,69.4c1.8-0.7,3.6-1.5,5.2-2.6c1.6-1.1,3-2.3,4.1-3.9c0.6-0.8,1.1-1.7,1.4-2.7c0.2-0.6,0.4-1.1,0.5-1.7
				c0,0,0,0,0,0.1c0.2,0.9,0.4,1.7,0.7,2.5c0.5,1.9,0.9,3.9,0.2,5.9c-0.3,0.8-0.9,1.6-1.6,2.2c-0.7,0.5-1.5,0.9-2.4,1.2
				c-1,0.3-2,0.4-3,0.4c-1.1,0-2.2-0.2-3.3-0.4c-0.9-0.2-1.9-0.4-2.8-0.5c-0.1,0-0.2,0-0.3,0C26,69.7,26.4,69.5,26.8,69.4z"/>
			<path class="st8" d="M38.7,62.8c-0.8,0.7-1.5,1.6-2.2,2.4c-0.6,0.9-1.2,1.8-1.6,2.8c-0.3,0.8-0.5,1.6-0.6,2.4
				c0.2-0.1,0.5-0.1,0.7-0.2c0.8-0.3,1.7-0.6,2.4-1.2c0.7-0.6,1.2-1.3,1.6-2.2c0.6-1.5,0.5-3,0.1-4.5C38.9,62.6,38.8,62.7,38.7,62.8
				z"/>
			<path class="st4" d="M30.5,69.1c0.6,0.3,1.2,0.5,1.9,0.4c0.8,0,1.5-0.4,2.1-0.7c0.7-0.4,1.3-0.9,1.8-1.5c0.9-1,1.6-2.1,2.3-3.3
				c0.2-0.4,0.4-0.8,0.6-1.2c-0.1-0.6-0.3-1.2-0.4-1.7c-0.2-0.8-0.5-1.7-0.7-2.5c0,0,0,0,0-0.1c-0.2,0.6-0.3,1.2-0.5,1.7
				c-0.4,0.9-0.8,1.8-1.4,2.7c-1.1,1.5-2.5,2.8-4.1,3.9c-0.8,0.6-1.7,1-2.6,1.5C29.7,68.6,30.1,68.9,30.5,69.1z"/>
			<path class="st7" d="M35.5,44.6c-0.4-0.7-0.9-1.3-1.4-2c-0.5-0.6-1-1.1-1.7-1.6c-0.7-0.4-1.4-0.7-2.2-0.9
				c0.4-0.3,0.9-0.3,1.4-0.5c0.1,0,0.1-0.1,0.1-0.2c-0.5-0.4-1.1-0.4-1.7-0.4c-0.5,0-1,0.2-1.5,0.3c0.3-0.6,0.8-1.1,1.1-1.7
				c0-0.1,0-0.1-0.1-0.1c-0.9,0-1.9,0.6-2.5,1.4c-0.2-0.4-0.4-0.7-0.9-0.9c-0.5-0.2-1-0.2-1.5-0.2c-0.1,0-0.2,0.1-0.1,0.2
				c0.4,0.4,1.1,0.6,1.3,1.1c-0.7,0.2-1.3,0.6-1.9,1c-0.9,0.6-1.8,1.3-2.6,2c-0.9,0.8-1.7,1.7-2.6,2.6c-0.9,0.9-1.8,1.7-2.8,2.5
				c-1,0.8-2,1.5-3,2.2c-1.1,0.7-2.2,1.3-3.4,1.7c-1.2,0.5-2.3,0.8-3.5,1.3C5.4,53,4.9,53.4,4.5,54c-0.7,1.2-0.5,2.8-0.2,4.1
				c0.3,1.5,0.9,2.9,1.6,4.3c0.7,1.5,1.5,2.9,2.7,4c0.1,0.1,0.2,0.2,0.3,0.3c0.2,0.3,0.4,0.6,0.7,0.8c0.5,0.5,1,0.9,1.5,1.2
				c1.1,0.7,2.3,1.2,3.6,1.6c3,1,6.2,1.3,9.3,0.8c1.6-0.2,3.2-0.7,4.8-1.3c1.3-0.5,2.6-1.1,3.7-1.9c0.5-0.4,1-0.9,1.3-1.4
				c0.3-0.6,0.5-1.3,0.6-1.9c0.3-1.5,0.3-3.1,0.4-4.7c0.1-1.7,0.3-3.4,0.9-5c0.4-1.3,1-2.8,0.6-4.3c0-0.1-0.1-0.2-0.1-0.3
				c0.1,0.2,0.3,0.3,0.5,0.4c0.1,0,0.2,0,0.2-0.1c0-0.6-0.2-1.2-0.5-1.8c0.2,0.2,0.3,0.3,0.5,0.5c0.1,0.1,0.2,0,0.2-0.1
				C37.1,47.5,36.3,45.9,35.5,44.6z"/>
			<path class="st3" d="M35.8,47.9c0.1,0.4,0.2,0.7,0.3,1.1c0.2,0.4,0.3,0.8,0.4,1.3c-0.3-0.3-0.5-0.7-0.9-0.9
				c0.1,0.4,0.2,0.8,0.3,1.2c0.1,0.5,0.1,1.1,0.1,1.6c-0.1,0.6-0.2,1.2-0.4,1.8c-0.1,0.4-0.3,0.8-0.4,1.2c-0.1,0.3-0.2,0.7-0.3,1
				c-0.2,0.8-0.3,1.6-0.4,2.4c-0.2,1.6-0.2,3.2-0.3,4.7c-0.1,1.3-0.3,2.7-1.2,3.7c-0.9,1-2.1,1.6-3.3,2.1c-1.5,0.6-3,1.1-4.6,1.4
				c-3.1,0.6-6.3,0.5-9.4-0.3c-2.2-0.6-4.3-1.5-6-3.1c0.1,0.1,0.3,0.2,0.4,0.3C9.5,67,8.9,66.5,8.5,66c-0.3-0.4-0.6-0.7-0.8-1.1
				c-0.4-0.5-0.8-1.1-1.1-1.7c-0.7-1.2-1.2-2.6-1.6-3.9c-0.4-1.4-0.8-2.9-0.5-4.3c0.1-0.6,0.4-1.2,0.9-1.5c0.3-0.2,0.6-0.4,1-0.5
				c0.6-0.2,1.2-0.4,1.7-0.7c1.2-0.4,2.3-0.9,3.4-1.4c1.1-0.6,2.1-1.3,3.1-2c1.9-1.4,3.7-3,5.4-4.7c0.9-0.8,1.7-1.7,2.7-2.4
				c0.8-0.6,1.6-1.2,2.5-1.7c0.2-0.1,0.5-0.2,0.7-0.3c0,0,0,0,0,0c0,0,0,0,0,0c0.2-0.1,0.3-0.2,0.4-0.3c-0.1,0-0.2,0-0.3,0
				c0-0.3-0.2-0.5-0.4-0.6c-0.2-0.2-0.4-0.3-0.6-0.4c0.4,0,0.7,0,1.1,0.1c0.5,0.2,0.8,0.5,0.9,1c0,0.1,0.2,0,0.2,0
				c0.4-0.8,1.3-1.4,2.2-1.5c-0.4,0.6-0.9,1.1-1.2,1.7c0,0.1,0.1,0.1,0.1,0.1c0.5-0.2,1.1-0.3,1.7-0.4c0.5,0,1,0,1.4,0.2
				c-0.5,0.2-1,0.3-1.4,0.6c0,0-0.1,0.2,0,0.2c0.7,0.1,1.5,0.4,2.1,0.7c0.7,0.4,1.2,0.9,1.7,1.5c1,1.2,1.9,2.5,2.5,4
				c0.3,0.7,0.5,1.5,0.6,2.2C36.5,48.5,36.2,48.2,35.8,47.9z"/>
			<path class="st3" d="M25.9,39.2c0.2-0.1,0.5-0.2,0.7-0.4c-0.2-0.2-0.4-0.3-0.6-0.4c-0.3-0.1-0.7-0.1-1.1-0.1
				c0.2,0.2,0.4,0.3,0.6,0.4C25.7,38.9,25.8,39,25.9,39.2z"/>
			<path class="st3" d="M9.8,67.2c-1-1.2-1.8-2.6-2.4-4c-0.6-1.5-1-3.2-1-4.8c0-1.5,0.4-3.1,1.5-4.2c1-1.1,2.5-1.6,3.8-2.3
				c1.6-0.9,3.1-1.9,4.5-3c0.7-0.6,1.4-1.2,2-1.9c0.5-0.5,0.9-1,1.4-1.6c0.9-1.1,1.8-2.2,2.8-3.3c0.3-0.4,0.7-0.7,1-1
				c-0.3,0.2-0.6,0.4-0.9,0.7c-1,0.7-1.8,1.6-2.7,2.4c-1.7,1.7-3.5,3.3-5.4,4.7c-1,0.7-2,1.4-3.1,2c-1.1,0.6-2.2,1-3.4,1.4
				c-0.6,0.2-1.2,0.4-1.7,0.7c-0.3,0.1-0.7,0.3-1,0.5c-0.5,0.4-0.8,1-0.9,1.5c-0.3,1.4,0,3,0.5,4.3c0.4,1.3,1,2.6,1.6,3.9
				c0.3,0.6,0.7,1.2,1.1,1.7c0.3,0.4,0.5,0.8,0.8,1.1c0.5,0.5,1,1,1.5,1.5C9.9,67.4,9.9,67.3,9.8,67.2z"/>
			<path class="st3" d="M29.1,38.2c0.1-0.1,0.1-0.2,0.2-0.3c-0.4,0-0.8,0.2-1.2,0.4C28.5,38.3,28.8,38.2,29.1,38.2z"/>
			<path class="st3" d="M10,67.4c-0.1-0.1-0.2-0.2-0.4-0.2c0.2,0.2,0.4,0.3,0.6,0.5C10.1,67.6,10.1,67.5,10,67.4z"/>
			<path class="st3" d="M36.8,48.8c0-0.8-0.3-1.5-0.6-2.2c-0.6-1.5-1.5-2.8-2.5-4c-0.5-0.6-1.1-1.1-1.7-1.5
				c-0.6-0.4-1.4-0.6-2.1-0.7c-0.1,0,0-0.1,0-0.2c0.4-0.4,0.9-0.5,1.4-0.6c-0.4-0.3-0.9-0.3-1.4-0.2c-0.6,0.1-1.1,0.2-1.7,0.4
				c-0.1,0-0.2,0-0.1-0.1c0.3-0.7,0.8-1.1,1.2-1.7c-0.9,0.1-1.8,0.7-2.2,1.5c0,0.1-0.2,0.1-0.2,0c-0.1-0.5-0.4-0.8-0.9-1
				c-0.3-0.1-0.7-0.1-1.1-0.1c0.2,0.2,0.4,0.3,0.6,0.4c0.2,0.2,0.3,0.4,0.4,0.6c0.1,0,0.2,0,0.3,0c-0.1,0.1-0.3,0.2-0.4,0.3
				c0,0,0,0,0,0c0,0,0,0,0,0c-0.3,0.1-0.5,0.2-0.7,0.3c-0.6,0.3-1.1,0.7-1.6,1c0.5-0.2,1-0.3,1.6-0.4c0.1,0,0.1,0.1,0.1,0.1
				c-0.5,0.3-0.9,0.7-1.2,1.2c1.1-1,2.7-1.5,4.2-1.3c0.1,0,0.1,0.1,0,0.1c-0.4,0.3-0.9,0.5-1.3,0.8c0.3-0.1,0.5-0.1,0.8-0.2
				c1.4-0.2,3,0.2,3.9,1.3c0.1,0.1,0,0.1-0.1,0.1c-0.5-0.1-1-0.2-1.5-0.2c0.4,0.3,0.8,0.6,1.2,0.9c0.4,0.3,0.7,0.6,1,1
				c0.3,0.4,0.5,0.9,0.7,1.4c0.4,1.1,0.6,2.2,0.9,3.3c0,0.1-0.1,0.1-0.1,0.1c-0.4-0.6-0.9-1-1.5-1.3c0.3,0.3,0.5,0.7,0.7,1.1
				c0.6,1.3,0.7,2.8,0.6,4.1c0,1.3-0.2,2.6-0.5,3.9c0,0.1-0.1,0.1-0.1,0c-0.2-0.5-0.4-1-0.6-1.5c0.3,1.5,0.1,3.1-0.4,4.5
				c-0.6,1.6-1.5,3-2.6,4.3c-1.1,1.3-2.5,2.2-4,3c-0.8,0.4-1.7,0.8-2.7,1c-0.9,0.2-1.8,0.1-2.7-0.2c-0.9-0.3-1.8-0.9-2.6-1.4
				c-0.4-0.3-0.8-0.5-1.1-0.8c-0.4-0.2-0.7-0.5-1-0.8c0,0,0-0.1,0-0.1c0.2,0,0.5-0.1,0.7-0.2c2-0.5,3.7-1.9,4.8-3.6
				c0.5-0.9,0.9-1.8,1-2.8c0.1-1,0-2.2-0.4-3.1c-0.8-1.8-2.8-2.4-4.6-2.7c-2-0.4-4.1-0.6-6.1-0.4c-1.8,0.1-3.7,0.5-5.3,1.4
				c-0.4,0.4-0.7,0.9-0.8,1.5c-0.3,1.4,0,3,0.5,4.3c0.4,1.1,0.8,2.2,1.3,3.3c0.9,0.7,2,1.2,3.1,1.5c1.1,0.3,2.2,0.4,3.1,1
				c0.4,0.3,0.8,0.7,1.2,1c0.4,0.4,0.7,0.8,1.1,1.3c0.3,0.4,0.5,0.8,0.6,1.2c0,0.2,0,0.5-0.1,0.7c-0.2,0.3-0.5,0.5-0.9,0.6
				c0.4,0.2,0.9,0.3,1.3,0.4c3.1,0.8,6.2,1,9.4,0.3c1.6-0.3,3.1-0.8,4.6-1.4c1.2-0.5,2.4-1.2,3.3-2.1c0.9-1,1.1-2.4,1.2-3.7
				c0.1-1.6,0.1-3.2,0.3-4.7c0.1-0.8,0.2-1.6,0.4-2.4c0.1-0.4,0.2-0.7,0.3-1c0.1-0.4,0.3-0.8,0.4-1.2c0.2-0.6,0.4-1.2,0.4-1.8
				c0.1-0.5,0-1.1-0.1-1.6c-0.1-0.4-0.2-0.8-0.3-1.2c0.4,0.2,0.6,0.6,0.9,0.9c-0.1-0.4-0.2-0.9-0.4-1.3c-0.1-0.4-0.2-0.7-0.3-1.1
				C36.2,48.2,36.5,48.5,36.8,48.8z"/>
			<path class="st3" d="M36.8,48.8c0-0.8-0.3-1.5-0.6-2.2c-0.5-1.2-1.1-2.3-1.9-3.3c0.4,0.9,0.8,1.9,1,2.9c0,0.1-0.1,0.1-0.1,0.1
				c-0.4-0.5-0.9-0.9-1.4-1.2c0.5,0.5,0.8,1.2,1.1,1.8c0,0.1-0.1,0.2-0.1,0.1c-0.4-0.5-0.9-0.9-1.4-1.2c0.1,0.2,0.2,0.5,0.4,0.7
				c0.6,1.2,0.9,2.4,1.1,3.7c0.2,1.3,0.1,2.6-0.1,4c-0.2,1.5-0.6,2.9-1,4.3c-0.2,0.7-0.4,1.5-0.5,2.2c-0.1,0.7,0,1.5-0.1,2.2
				c0,0.7-0.1,1.5-0.4,2.1c-0.2,0.5-0.5,0.9-0.8,1.3c-0.7,0.8-1.6,1.4-2.5,1.9c-1,0.5-2,0.8-3.1,1c-1.1,0.2-2.2,0.4-3.2,0.4
				c-2.7-0.1-5-1.4-7.3-2.6c0.2,0.3,0.4,0.6,0.7,0.8c0.6,0.7,1.3,1.3,2.1,1.8c0.7,0.5,1.5,0.9,2.3,1.1c0.1,0,0.1,0.1,0,0.1
				c-0.2,0.1-0.4,0.1-0.6,0.2c1.5,0.1,3.1-0.1,4.6-0.4c1.6-0.3,3.1-0.8,4.6-1.4c1.2-0.5,2.4-1.2,3.3-2.1c0.9-1,1.1-2.4,1.2-3.7
				c0.1-1.6,0.1-3.2,0.3-4.7c0.1-0.8,0.2-1.6,0.4-2.4c0.1-0.4,0.2-0.7,0.3-1c0.1-0.4,0.3-0.8,0.4-1.2c0.2-0.6,0.4-1.2,0.4-1.8
				c0.1-0.5,0-1.1-0.1-1.6c-0.1-0.4-0.2-0.8-0.3-1.2c0.4,0.2,0.6,0.6,0.9,0.9c-0.1-0.4-0.2-0.9-0.4-1.3c-0.1-0.4-0.2-0.7-0.3-1.1
				C36.2,48.2,36.5,48.5,36.8,48.8z"/>
			<path class="st7" d="M19.4,69.3c-0.6-0.4-1.2-0.7-1.8-1.1c-0.6-0.4-1.2-0.8-1.7-1.3c-1-1-1.9-2.1-2.5-3.4c-0.4-0.8-0.6-1.6-1-2.3
				c0-0.1-0.1,0-0.1,0c0.3,0.7,0.5,1.4,0.8,2.1c0.3,0.7,0.6,1.3,1,1.9c0.8,1.2,1.8,2.2,3,3C17.8,68.7,18.6,69,19.4,69.3
				C19.3,69.4,19.4,69.4,19.4,69.3z"/>
			<g>
				<path class="st9" d="M20.3,54.8c-0.5-0.7-1.3-1.1-2-1.4c-0.8-0.4-1.7-0.6-2.6-0.7c-1-0.2-1.9-0.3-2.9-0.4c-1,0-2,0-3,0.1
					c-1,0.1-1.9,0.1-2.9,0.3c-0.4,0.1-0.8,0.2-1.2,0.3C5.5,53,5.2,53.1,5,53.2c-0.2,0-0.3,0.1-0.4,0.2c-0.3,0.1-0.5,0.3-0.7,0.5
					c0,0,0,0.1,0,0.1c0,0,0,0-0.1,0.1c-0.2,0.3-0.3,0.7-0.3,1.1c-0.1,0.9,0,1.8,0.2,2.7c0.2,0.8,0.5,1.7,0.9,2.4
					c0.4,0.7,0.9,1.4,1.5,2c0.6,0.6,1.3,1,2.1,1.3c0.8,0.3,1.7,0.5,2.6,0.6c0.9,0.1,1.8,0.2,2.7,0.1c1.6,0,3.2-0.2,4.6-1.2
					c1.3-1,2.1-2.6,2.5-4.1C20.8,57.6,21.1,56,20.3,54.8z"/>
				<path class="st10" d="M20.4,57.8c-0.2,1.5-0.7,3-1.7,4.2c-0.5,0.6-1.1,1.1-1.8,1.4c-0.7,0.3-1.5,0.5-2.2,0.5
					c-0.8,0.1-1.5,0.1-2.3,0c-0.9,0-1.8-0.1-2.7-0.3c-0.8-0.2-1.6-0.4-2.3-0.8c-0.7-0.4-1.3-0.9-1.8-1.5c-1-1.2-1.7-2.8-1.9-4.4
					c-0.1-0.8-0.2-1.8,0.1-2.6c0.1-0.2,0.2-0.4,0.3-0.5c0.5-0.4,1.1-0.5,1.7-0.6c0.1,0,0.1,0,0.2-0.1c0,0,0.1,0,0.1,0c0,0,0,0,0,0
					c0.3-0.1,0.5-0.1,0.8-0.2c0.5-0.1,0.9-0.1,1.4-0.2c1.9-0.1,3.8-0.3,5.6,0c1.7,0.2,3.5,0.6,5,1.5c0.6,0.4,1.1,0.9,1.3,1.6
					C20.6,56.4,20.5,57.1,20.4,57.8z"/>
				<path class="st10" d="M20.4,55.7c-0.1-0.3-0.2-0.6-0.4-0.8c0,0.3-0.2,0.5-0.4,0.7c-0.4,0.4-0.9,0.8-1.3,1
					c-0.6,0.4-1.3,0.6-1.9,0.9c-0.7,0.3-1.4,0.5-2.1,0.7c-0.6,0.2-1.2,0.4-1.9,0.5c-0.4,0.1-0.8,0.2-1.2,0.3c-0.5,0.1-1,0.1-1.4,0.1
					c-0.5,0-1-0.1-1.5-0.2c-1-0.2-2-0.6-2.7-1.3c-0.4-0.3-0.8-0.8-1.1-1.2c-0.3-0.4-0.5-1-0.5-1.5c0-0.5,0.1-0.9,0.4-1.3
					c0,0-0.1,0-0.1,0.1c-0.1,0.1-0.2,0.3-0.3,0.5c-0.3,0.8-0.2,1.8-0.1,2.6C4,58.5,4.7,60,5.7,61.3c0.5,0.6,1.1,1.1,1.8,1.5
					c0.7,0.4,1.5,0.6,2.3,0.8c0.9,0.2,1.8,0.3,2.7,0.3c0.8,0,1.5,0,2.3,0c0.8-0.1,1.5-0.2,2.2-0.5c0.7-0.3,1.3-0.8,1.8-1.4
					c0.9-1.2,1.4-2.7,1.7-4.2C20.5,57.1,20.6,56.4,20.4,55.7z"/>
				<path class="st10" d="M4,55.3c0.5-0.6,1.2-1,2-1.1C6.8,54,7.7,54,8.5,54c0.4,0,0.8,0,1.2,0c0.5,0,1,0,1.5,0
					c1.1,0,2.2,0.1,3.3,0.2c0.6,0.1,1.1,0.2,1.6,0.3c0.5,0.1,1,0.2,1.5,0.4c0.7,0.3,1.4,0.7,1.9,1.3c0.4,0.5,0.7,1,0.9,1.5
					c0.1-0.7,0.1-1.4,0-2c-0.2-0.7-0.7-1.2-1.3-1.6c-1.5-0.9-3.3-1.3-5-1.5c-1.9-0.2-3.8-0.1-5.6,0c-0.5,0-0.9,0.1-1.4,0.2
					c-0.3,0-0.6,0.1-0.8,0.2c0,0,0,0,0,0c0,0-0.1,0-0.1,0c-0.1,0-0.1,0-0.2,0.1c-0.5,0.1-1.2,0.2-1.7,0.6c-0.1,0.1-0.2,0.3-0.3,0.5
					c-0.2,0.5-0.2,1-0.2,1.6C3.8,55.6,3.9,55.4,4,55.3z"/>
			</g>
		</g>
	</g>
	<g>
		<path class="st3" d="M30.8,45.2c-0.6-0.6-1.3-1.1-2.1-1.4c-0.1,0-0.2,0.1-0.1,0.1c0.7,0.4,1.3,0.9,1.9,1.5c0.3,0.3,0.5,0.6,0.7,1
			c0.2,0.4,0.2,0.7,0.2,1.1c0,0.2,0.2,0.1,0.3,0C31.9,46.7,31.3,45.8,30.8,45.2z"/>
		<path class="st3" d="M31.2,47.8c-0.1-0.4-0.3-0.8-0.5-1.1c-0.2-0.4-0.4-0.7-0.8-1c0,0-0.1,0-0.1,0.1c0.3,0.3,0.5,0.7,0.7,1
			c0.2,0.4,0.3,0.8,0.5,1.1C31.1,48,31.2,47.9,31.2,47.8z"/>
		<path class="st3" d="M30.2,47.5c-0.1-0.3-0.3-0.6-0.5-0.8c-0.1,0-0.2,0.1-0.1,0.1c0.2,0.2,0.3,0.5,0.4,0.8
			c0.1,0.1,0.1,0.3,0.1,0.4c0,0.1,0.1,0.3,0.1,0.4c0,0.1,0.2,0,0.2-0.1C30.5,48.1,30.4,47.8,30.2,47.5z"/>
		<path class="st3" d="M29.8,48.7c0-0.1,0-0.2-0.1-0.3c-0.1-0.2-0.2-0.4-0.2-0.6c0-0.1-0.2,0-0.2,0.1c0.1,0.2,0.1,0.4,0.2,0.6
			c0.1,0.2,0.1,0.4,0.1,0.6c0,0.1,0.1,0,0.2,0C29.8,48.9,29.8,48.8,29.8,48.7z"/>
		<path class="st3" d="M29.2,49.4c0-0.2,0-0.3-0.1-0.5c0-0.1-0.2,0-0.2,0.1c0.1,0.3,0.1,0.6,0,0.9c0,0,0,0.1,0.1,0.1
			c0,0,0.1,0,0.1-0.1C29.2,49.7,29.2,49.6,29.2,49.4z"/>
		<path class="st3" d="M28.4,49.9C28.3,49.9,28.3,49.9,28.4,49.9c-0.1,0.2-0.1,0.3-0.1,0.5c0,0.1-0.1,0.2-0.1,0.4c0,0,0,0.1,0,0.1
			c0,0,0.1,0,0.1-0.1c0.1-0.1,0.1-0.3,0.1-0.4C28.4,50.2,28.4,50,28.4,49.9C28.5,49.9,28.4,49.9,28.4,49.9z"/>
		<path class="st3" d="M27.8,51C27.8,51,27.7,51,27.8,51c-0.1,0.2-0.2,0.3-0.2,0.3c0,0,0,0.1-0.1,0.1c0,0,0,0.1-0.1,0.1
			c0,0,0,0.1,0,0.1c0,0,0.1,0,0.1,0c0,0,0.1-0.1,0.1-0.1c0,0,0.1-0.1,0.1-0.2C27.8,51.2,27.8,51.1,27.8,51C27.9,51,27.8,51,27.8,51z
			"/>
		<path class="st3" d="M27,52.2C27,52.2,26.9,52.2,27,52.2c-0.2,0.1-0.2,0.2-0.3,0.3c0,0-0.1,0.1-0.1,0.1c0,0-0.1,0.1-0.1,0.1
			c0,0,0,0.1,0,0.1c0,0,0.1,0,0.1,0c0.1-0.1,0.1-0.2,0.2-0.2C26.9,52.5,27,52.4,27,52.2C27,52.3,27.1,52.3,27,52.2z"/>
		<path class="st3" d="M25.9,53.1c-0.1,0-0.1,0-0.1,0.1c0,0.1-0.1,0.1-0.1,0.2c0,0,0,0,0,0.1c0,0,0,0.1,0,0.1c0,0,0,0.1,0,0.1
			c0,0,0.1,0,0.1,0c0.1,0,0.1-0.1,0.1-0.2c0-0.1,0.1-0.1,0.1-0.2C26,53.1,26,53.1,25.9,53.1z"/>
		<path class="st3" d="M24.5,54.3C24.5,54.3,24.5,54.3,24.5,54.3C24.4,54.3,24.4,54.3,24.5,54.3l-0.2,0c0,0,0,0-0.1,0c0,0,0,0,0,0
			c0,0,0,0,0,0c0,0,0,0,0,0c0,0,0,0,0,0c0,0,0,0,0.1,0c0,0,0.1,0,0.1,0C24.5,54.4,24.5,54.4,24.5,54.3
			C24.5,54.4,24.5,54.3,24.5,54.3C24.5,54.3,24.5,54.3,24.5,54.3L24.5,54.3z"/>
	</g>
	<path class="st1" d="M69.6,17c-0.1-1.9-0.6-3.7-1.6-5.3c-0.1-0.1-0.1-0.2-0.2-0.3c0.1,0.1,0.1,0.2,0.1,0.4c0.5,1.2,0.7,2.6,0.7,3.9
		c0,0.7,0,1.3-0.1,2c-0.1,0.7-0.2,1.4-0.5,2c-0.2,0.6-0.6,1.2-1,1.8c-0.2,0.2-0.4,0.5-0.5,0.7c-0.2,0.2-0.3,0.4-0.5,0.6
		c-0.4,0.4-0.8,0.9-1.3,1.2c-0.4,0.3-0.9,0.6-1.4,0.7c-0.1,0-0.1-0.1-0.1-0.1c0.3-0.7,0.7-1.3,1.1-2c-0.3,0.5-0.6,1-0.9,1.4
		c-0.3,0.4-0.7,0.9-1.2,1.1c-0.1,0-0.1,0-0.1-0.1c0.1-0.2,0.2-0.4,0.3-0.6c0.4-0.8,0.8-1.7,1.2-2.5c0.4-0.9,0.7-1.9,0.9-2.8
		c0.2-0.9,0.3-1.9,0.3-2.9c0-0.9-0.2-1.8-0.6-2.7c-0.4-0.9-1-1.6-1.8-2.2c-0.9-0.7-1.9-1.2-3.1-1.2c-1,0-2,0.4-2.7,1.1
		c-0.9,0.9-1.5,2.1-1.7,3.4c-0.2,1.3-0.1,2.7,0.2,4c0.2,1.3,0.6,2.7,0.8,4c0,0.1-0.1,0.1-0.1,0.1c-0.2-0.2-0.4-0.5-0.6-0.8
		c-0.4-0.7-0.7-1.6-0.9-2.4c0,0.3,0.1,0.6,0.1,0.9c0,0.1-0.1,0.1-0.1,0c-0.4-0.8-0.8-1.7-1-2.6c-0.3-1.1-0.5-2.1-0.5-3.2
		c-0.2,1.3-0.2,2.5,0,3.8c0,0.2,0.1,0.4,0.1,0.6c0,0,0,0,0,0.1c0,0.2,0.1,0.4,0.2,0.6c0.2,0.6,0.3,1.1,0.6,1.7
		c0.2,0.6,0.5,1.1,0.7,1.7c0.2,0.6,0.4,1.2,0.5,1.8c0,0.1-0.1,0.3-0.1,0.4c0.2-0.2,0.5-0.4,0.6-0.6c0-0.1,0.2-0.1,0.2,0
		c-0.1,1-0.1,2.1,0.4,3c0.1-0.5,0.1-1.1,0.4-1.6c0-0.1,0.2-0.1,0.2,0c-0.1,1,0.5,1.9,0.9,2.7c0.7,1.3,1.5,2.6,2.6,3.6
		c0.5,0.4,0.9,0.8,1.5,1.1c0.3,0.2,0.8,0.4,1.2,0.4c-0.2-0.4-0.5-0.8-0.5-1.3c0-0.1,0.2-0.3,0.3-0.2c0.4,0.3,0.7,0.6,1.2,0.7
		c-0.5-0.6-0.8-1.3-0.9-2.1c0-0.5,0-1.1,0.2-1.5c-0.2,0.3-0.4,0.6-0.5,0.9c0-0.3,0.1-0.6,0.2-0.9c0.1-0.1,0.1-0.3,0.2-0.4
		c0.5-0.7,1.2-1.3,1.8-1.8c0.6-0.5,1.3-1,1.8-1.6c0.7-0.8,1.3-1.7,1.8-2.6c0.5-0.9,0.9-1.9,1.1-2.9C69.7,19.1,69.7,18.1,69.6,17z"/>
	<path class="st1" d="M67.3,24.6c-0.5,0.5-1.1,0.9-1.7,1.2c-0.6,0.4-1.2,0.7-1.8,1c-0.6,0.3-1.3,0.6-2,0.8C61.2,27.9,60.6,28,60,28
		c-0.1,0-0.1-0.1-0.1-0.1c0.5-0.5,1-1.1,1.5-1.7c0.3-0.3,0.5-0.7,0.7-1c0,0,0-0.1,0-0.1c0.1-0.2,0.2-0.4,0.3-0.6
		c0.4-0.8,0.8-1.7,1.2-2.5c0.3-0.7,0.6-1.5,0.8-2.3c-0.2,0.2-0.4,0.5-0.5,0.7c-0.4,0.4-0.8,0.8-1.3,1.2c-0.8,0.6-1.8,1.2-2.8,0.9
		c-0.5-0.2-0.9-0.5-1.2-1c-0.3-0.5-0.6-1.2-0.7-1.8c-0.4-1.4-0.5-2.8-0.4-4.2c0.1-1.2,0.4-2.5,1.1-3.5c-0.6,0.3-1,0.9-1.4,1.5
		c0,0.1-0.2,0-0.1-0.1c0.2-1.1,0.8-2.2,1.6-3c-0.1,0-0.2,0-0.3,0.1c-0.7,0.2-1.3,0.6-1.8,1.2c-0.4,0.5-0.7,1.2-0.9,1.9
		c-0.2,0.7-0.3,1.5-0.3,2.2c0,0.7,0,1.5,0.1,2.2c0,0.3,0.1,0.6,0.1,1c0,0.2,0.1,0.4,0.1,0.6c0.2,0.6,0.3,1.2,0.5,1.8
		c0.2,0.7,0.4,1.4,0.6,2.2c0.2,0.7,0.3,1.5,0.3,2.2c0,0.6,0,1.2-0.1,1.8c0,0.1-0.1,0.2-0.1,0.3c0.2,0.3,0.3,0.7,0.5,1
		c0.7,1.3,1.5,2.6,2.6,3.6c0.5,0.4,0.9,0.8,1.5,1.1c0.3,0.2,0.8,0.4,1.2,0.4c-0.2-0.4-0.5-0.8-0.5-1.3c0-0.1,0.2-0.3,0.3-0.2
		c0.4,0.3,0.7,0.6,1.2,0.7c-0.5-0.6-0.8-1.3-0.9-2.1c0-0.5,0-1.1,0.2-1.5c-0.2,0.3-0.4,0.6-0.5,0.9c0-0.3,0.1-0.6,0.2-0.9
		c0.1-0.1,0.1-0.3,0.2-0.4c0.5-0.7,1.2-1.3,1.8-1.8c0.6-0.5,1.3-1,1.8-1.6c0.3-0.4,0.7-0.8,1-1.3C67.5,24.5,67.4,24.5,67.3,24.6z"/>
	<path class="st1" d="M54.4,22.4c-0.2-1-0.5-2-0.8-3.1c-0.3-1-0.6-1.9-0.7-2.9c-0.1-0.8,0-1.6,0.2-2.4c0.4-1.4,1.1-2.8,2-4
		c0.9-1.2,2-2.3,3.4-3c0.6-0.3,1.3-0.5,2-0.6c0.7-0.1,1.4,0,2.1,0.3c0.1,0,0.1,0.2,0,0.1c-0.3,0-0.7,0.1-1,0.2
		c-0.2,0.1-0.4,0.2-0.6,0.4c0.8-0.1,1.6,0,2.3,0.3c0.1,0,0.1,0.1,0,0.1c-0.4,0-0.8,0.1-1.2,0.3c0.1,0,0.1,0,0.2,0
		c1.2,0.1,2.4,0.6,3.4,1.4c1,0.7,1.8,1.7,2.5,2.8c0.7,1.1,1.1,2.4,1.3,3.7c0.2,0.9,0.2,1.8,0.2,2.7c0-0.6,0-1.1,0-1.7
		c-0.1-1.9-0.6-3.7-1.6-5.3c-0.9-1.6-2.3-3-4-3.7c-0.1-0.1,0-0.2,0.1-0.2c0.2,0,0.5,0.1,0.7,0.1c-0.5-0.3-1-0.6-1.5-0.8
		c-0.1,0-0.3,0-0.4-0.1c-0.1-0.1,0-0.2,0.1-0.2c0.1,0,0.1,0,0.2,0C63,6.4,62.4,6.3,62,6.3c-0.6-0.1-1.3-0.1-1.9,0
		c-1.5,0.1-2.9,0.9-4.1,1.9c-1.4,1.3-2.2,2.9-2.8,4.7c-0.6,1.8-0.8,3.8-0.4,5.7c0,0.2,0.1,0.4,0.1,0.6c0,0,0,0,0,0.1
		c0,0.2,0.1,0.4,0.2,0.6c0.2,0.6,0.3,1.1,0.6,1.7c0.2,0.6,0.5,1.1,0.7,1.7c0.1,0.1,0.1,0.3,0.2,0.4C54.5,23.2,54.4,22.8,54.4,22.4z"
		/>
</g>
</svg>
