<?xml version="1.0" encoding="utf-8"?>
<!-- Generator: Adobe Illustrator 25.3.1, SVG Export Plug-In . SVG Version: 6.00 Build 0)  -->
<svg version="1.1" id="Layer_1" xmlns="http://www.w3.org/2000/svg" xmlns:xlink="http://www.w3.org/1999/xlink" x="0px" y="0px"
	 viewBox="0 0 80 80" style="enable-background:new 0 0 80 80;" xml:space="preserve">
<style type="text/css">
	.st0{opacity:0.6;fill:#877D63;}
	.st1{fill:#914E44;}
	.st2{fill:#C18D5F;}
	.st3{fill:#9B5352;}
	.st4{opacity:0.53;fill:#C18D5F;}
	.st5{fill:#DFBCAC;}
	.st6{fill:#A0001B;}
	.st7{fill:#FFFFFF;}
	.st8{fill:#EC6851;}
	.st9{fill:#50312B;}
	.st10{fill:#7E524B;}
	.st11{fill:#69342C;}
	.st12{fill:#65686D;}
</style>
<g>
	<path class="st0" d="M219.4,490.7c1.2-1.2,2.1-2.7,2.8-4.3c0.8-1.7,1.3-3.6,1.3-5.5c0-1.1-0.1-2.4-0.6-3.4c0.1,0,0.1-0.1,0.1-0.2
		c0-0.6-0.2-1.1-0.4-1.5c0.1,0.1,0.2,0.1,0.3,0.2c0.1,0,0.2,0,0.2-0.1c0.3-0.5-0.4-1.2-0.7-1.5c-0.4-0.4-0.8-0.7-1.2-1
		c0.1,0,0.3,0.1,0.4,0.1c0.1,0,0.3-0.1,0.2-0.2c-3-2.8-7.7-2.8-11.4-1.5c-3.8,1.3-7,4.2-8.5,8c-0.2,0.5-0.4,1.1-0.6,1.7
		c-0.8-0.3-1.5-0.5-2.3-0.7c-1.2-0.3-2.5-0.8-3.8-0.6c0,0,0,0,0,0c0.3-0.1,0.6-0.2,1-0.3c0.1,0,0.3-0.2,0.1-0.3
		c-1-0.4-2.1-0.3-3.1-0.3c-0.5,0-1.1,0-1.6,0.1c-0.4,0.1-0.7,0.2-1.1,0.3c0.4-0.4,0.8-0.8,1.3-0.9c0.2,0,0.3-0.3,0.1-0.4
		c-0.7-0.1-1.5,0.2-2.1,0.5c-0.1,0-0.1,0.1-0.2,0.1c0,0,0-0.1,0-0.1c0-0.2,0.1-0.5,0.2-0.7c0.1-0.2,0.2-0.4,0.2-0.6
		c0-0.1-0.1-0.1-0.2-0.1c-0.6,0.3-1,0.7-1.4,1.2c-0.1,0.2-0.2,0.4-0.3,0.6c-0.2-0.2-0.5-0.3-0.7-0.4c-0.6-0.3-1.4-0.6-2.1-0.5
		c-0.3,0-0.1,0.3,0.1,0.4c0.5,0.2,0.9,0.6,1.3,0.9c-0.4-0.1-0.7-0.2-1.1-0.3c-0.5-0.1-1.1-0.1-1.6-0.1c-1,0-2.1-0.1-3.1,0.3
		c-0.2,0.1,0,0.3,0.1,0.3c0.3,0.1,0.6,0.2,1,0.3c0,0,0,0,0,0c-1.3-0.2-2.6,0.3-3.8,0.6c-0.8,0.2-1.6,0.5-2.3,0.7
		c-0.1-0.5-0.3-0.9-0.5-1.4c-1.5-3.7-4.7-6.6-8.5-8c-3.7-1.3-8.4-1.4-11.4,1.5c-0.1,0.1,0.1,0.3,0.2,0.2c0.1,0,0.3-0.1,0.4-0.1
		c-0.4,0.3-0.8,0.7-1.2,1c-0.3,0.3-1,1-0.7,1.5c0,0.1,0.1,0.1,0.2,0.1c0.1,0,0.2-0.1,0.3-0.2c-0.3,0.4-0.5,0.9-0.4,1.5
		c0,0.1,0.1,0.1,0.1,0.2c-0.5,1-0.6,2.3-0.6,3.4c0,1.9,0.5,3.7,1.3,5.5c0.7,1.6,1.6,3,2.8,4.3c1.2,1.2,2.6,2.3,4.2,2.9
		c0.1,0.1,0.3,0.1,0.4,0.2c-0.2,0.6-0.5,1.2-0.7,1.9c-0.3,1.2-0.6,2.4-0.8,3.6c-0.1,1.2-0.2,2.3-0.2,3.5c-1.2,0.1-2.3,0.4-3.2,1.2
		c-1,0.9-1.5,2.1-1.8,3.4c0,0.1,0.2,0.2,0.2,0.1c0.1-0.1,0.2-0.3,0.4-0.4c-0.1,0.2-0.3,0.4-0.4,0.5c-0.3,0.5-0.6,1.2-0.6,1.8
		c0,0.1,0.2,0.3,0.3,0.2c0,0,0.1-0.1,0.1-0.1c-0.7,1.5-0.6,3.3-0.2,4.9c0.5,2.3,1.5,4.4,2.9,6.2c1.5,2,3.4,3.7,5.5,5
		c1.1,0.7,2.2,1.3,3.3,1.8c1.3,0.6,2.6,1,4,1.4c0.8,0.2,1.6,0.4,2.4,0.7c0.8,0.2,1.6,0.4,2.3,0.6c1.4,0.3,2.8,0.4,4.2,0.7
		c0.1,0.1,0.3,0.1,0.4,0.2c0.7,0.3,1.4,0.5,2,0.6c0.1,0,0.2,0,0.3,0c1.3,1.3,3.3,2,5.1,2.2c2.7,0.3,5.7-0.4,7.8-2.2
		c0.2-0.2,0.4-0.3,0.5-0.5c0.3-0.1,0.7-0.2,1-0.4c1.3-0.3,2.6-0.4,3.9-0.6c0.8-0.1,1.6-0.4,2.3-0.6c0.8-0.2,1.6-0.4,2.4-0.7
		c1.3-0.4,2.7-0.8,4-1.4c1.2-0.5,2.3-1.1,3.3-1.8c2.1-1.3,4-3,5.5-5c1.4-1.8,2.4-4,2.9-6.2c0.3-1.6,0.4-3.4-0.2-4.9
		c0,0,0.1,0.1,0.1,0.1c0.1,0.1,0.3-0.1,0.3-0.2c-0.1-0.6-0.3-1.2-0.6-1.8c-0.1-0.2-0.2-0.4-0.4-0.5c0.1,0.1,0.3,0.2,0.4,0.4
		c0.1,0.1,0.3,0,0.2-0.1c-0.3-1.3-0.8-2.5-1.8-3.4c-0.9-0.8-2-1.1-3.2-1.2c0-1.2-0.1-2.4-0.2-3.5c-0.2-1.2-0.4-2.4-0.8-3.6
		c-0.2-0.7-0.5-1.5-0.8-2.2c0.2-0.1,0.3-0.1,0.5-0.2C216.8,492.9,218.2,491.9,219.4,490.7z"/>
	<g>
		<g>
			<g>
				<path class="st1" d="M220.8,475.6c0.1,0,0.1-0.1,0.1-0.2c0-0.6-0.2-1.1-0.4-1.5c0.1,0.1,0.2,0.1,0.3,0.2c0.1,0,0.2,0,0.2-0.1
					c0.3-0.5-0.4-1.2-0.7-1.5c-0.4-0.4-0.8-0.7-1.2-1c0.1,0,0.3,0.1,0.4,0.1c0.1,0,0.3-0.1,0.2-0.2c-3-2.8-7.7-2.8-11.4-1.5
					c-3.8,1.3-7,4.2-8.5,8c-0.8,1.9-1.2,4.1-1,6.2c0,0.8-0.1,1.6,0.5,2.1c0.1,0.1,0.3,0,0.3-0.1c0-0.4,0.1-0.7,0.2-1.1
					c0.1,0.6,0.2,1.2,0.4,1.7c0.3,0.7,0.6,1.4,1.2,1.9c0.1,0.1,0.2-0.1,0.3-0.1c0.1-0.5,0-1-0.1-1.4c1.1,2.8,2.7,5.6,5.5,7
					c0.8,0.4,1.6,0.7,2.5,0.8c0.1,0,0.2-0.1,0.2-0.2c-0.1-0.6-0.6-1.2-0.4-1.8c0.3,0,0.7,0,1-0.1c0.9-0.2,1.9-0.5,2.7-0.9
					c1.6-0.7,3-1.7,4.2-2.9c1.2-1.2,2.1-2.7,2.8-4.3c0.8-1.7,1.3-3.6,1.3-5.5C221.4,477.9,221.3,476.6,220.8,475.6z"/>
				<path class="st2" d="M220,483.9c-0.6,1.6-1.4,3-2.6,4.3c-1.1,1.2-2.4,2.3-3.9,3c-0.9,0.5-1.9,0.8-2.9,1.1
					c-0.9,0.2-1.8,0.2-2.7,0.3c-0.1,0.1-0.2,0.2-0.3,0.3c0.4-0.1,0.9-0.1,1.3-0.1c-0.2,0.6,0.1,1.1,0.3,1.7
					c-3.1-0.5-5.2-3.1-6.7-5.7c-0.4-0.8-0.8-1.5-1.1-2.3c0-0.1-0.2,0-0.3,0.1c-0.2,0.6,0,1.1,0,1.7c-0.5-0.5-0.7-1.1-1-1.7
					c-0.2-0.7-0.4-1.4-0.4-2.2c0-0.2-0.2-0.1-0.3,0c-0.2,0.4-0.3,0.9-0.4,1.3c-0.2-0.5-0.2-1-0.3-1.5c0-1.9,0.2-3.7,0.8-5.5
					c0.7-1.9,1.7-3.6,3.1-5.1c2.7-2.7,6.5-4.3,10.3-4.2c2,0,4.2,0.6,5.8,1.9c-0.1,0-0.2,0-0.3,0c-0.1,0-0.2,0.2-0.1,0.2
					c0.5,0.3,0.9,0.7,1.3,1.1c0.2,0.2,0.5,0.5,0.6,0.7c0.1,0.1,0.2,0.3,0.2,0.5c-0.4-0.2-0.7-0.5-1-0.8c-0.1-0.1-0.3,0.1-0.2,0.2
					c0.5,0.6,0.9,1.1,1.1,1.9c-0.2-0.2-0.3-0.3-0.5-0.5c0.1,0.4,0.3,0.8,0.4,1.2c0.4,0.9,0.5,2,0.5,3
					C221,480.5,220.6,482.2,220,483.9z"/>
				<path class="st2" d="M200.1,478.2c0.9-1.9,2.3-3.6,4.1-4.8c0.9-0.6,1.8-1.1,2.8-1.6c1.1-0.5,2.3-1,3.5-1.2
					c1.2-0.3,2.5-0.3,3.7-0.2c1,0.1,1.9,0.3,2.9,0.5c0.5,0.1,1,0.3,1.4,0.4c0,0,0.1-0.1,0.1-0.1c0.1,0,0.2,0,0.3,0
					c-1.6-1.3-3.7-1.8-5.8-1.9c-3.8-0.1-7.6,1.5-10.3,4.2c-1.4,1.4-2.5,3.2-3.1,5.1c-0.4,1.1-0.6,2.3-0.7,3.4
					C199.3,480.7,199.6,479.4,200.1,478.2z"/>
				<path class="st1" d="M217.1,472.9c-0.2-0.5-0.8-0.8-1.3-0.9c-0.6-0.2-1.2-0.3-1.9-0.3c-1.7,0-3.1,1-4.2,2.1
					c-2.5,2.5-3.8,5.9-4.3,9.4c-0.1,0.7-0.2,1.3-0.2,2c0,0.1,0,0.1,0,0.2c0,0.5,0.1,1,0.1,1.5c0-0.5,0-1,0.1-1.5c0,0.1,0,0.3,0,0.4
					c0.1,0.5,0.2,1.1,0.4,1.6c0.2,0.4,0.3,0.8,0.6,1.2c0.2,0.3,0.5,0.6,0.8,0.9c0,0,0,0,0,0c-0.1-0.2-0.2-0.4-0.2-0.7
					c-0.3-0.5-0.6-1-0.8-1.5c-0.2-0.5-0.3-1-0.4-1.4c-0.1-0.2-0.1-0.5-0.1-0.7c0-0.2-0.1-0.5-0.1-0.7c0.2-1.7,0.6-3.4,1.3-5.1
					c0.6-1.6,1.4-3,2.5-4.3c1-1.2,2.3-2.4,3.9-2.7c0.7-0.1,1.3-0.1,2,0.1c0.3,0.1,0.7,0.2,1,0.3c0.3,0.1,0.6,0.3,0.8,0.5
					C217,473.1,217.1,473,217.1,472.9z"/>
				<path class="st2" d="M218.4,485.7c-0.4,0.4-0.9,0.7-1.4,1c-0.5,0.3-1.1,0.6-1.7,0.9c-0.5,0.2-1.1,0.4-1.7,0.4
					c-0.2,0-0.5-0.1-0.6-0.2c-0.2-0.2-0.3-0.4-0.4-0.6c-0.1-0.4,0-0.7,0.3-1c0.1-0.1,0.3-0.2,0.5-0.3c0.2-0.1,0.4-0.2,0.6-0.4
					c0.4-0.3,0.8-0.6,1.1-0.9c0.4-0.4,0.6-0.8,0.9-1.2c1-1.6,1.8-3.8,0.7-5.6c-0.1-0.1,0.1-0.2,0.1-0.1c0.4,0.6,0.6,1.2,1,1.7
					c0-0.9-0.1-1.9-0.5-2.7c0-0.1,0.1-0.1,0.1-0.1c0.3,0.4,0.6,0.8,0.9,1.2c0-0.1,0-0.2,0-0.2c-0.1-1.3-0.4-2.6-1.1-3.7
					c-0.6-1-1.5-1.9-2.7-2.1c-0.7-0.2-1.4-0.1-2.1,0c-0.8,0.2-1.6,0.5-2.4,0.9c-1.6,0.9-2.7,2.3-3.6,3.9c-0.2,0.4-0.4,0.9-0.6,1.3
					c-0.2,0.4-0.4,0.9-0.5,1.3c-0.2,0.9-0.2,1.8-0.6,2.6c0,0.1-0.1,0-0.1,0c-0.2-0.2-0.4-0.5-0.6-0.7c-0.3-0.6-0.5-1.2-0.6-1.8
					c-0.1-0.2-0.1-0.5-0.1-0.7c-0.1,0.6-0.1,1.3-0.3,1.9c0,0.1-0.1,0.1-0.2,0c-0.2-0.3-0.3-0.5-0.4-0.8c-0.3-1-0.2-2-0.1-3
					c-0.5,1.1-0.6,2.2-0.8,3.4c0,0.1-0.1,0.1-0.2,0c-0.2-0.6-0.3-1.2-0.4-1.9c0-1.1,0.2-2.2,0.6-3.2c-0.8,1.1-1.5,2.4-2,3.7
					c-0.6,1.8-0.8,3.6-0.8,5.5c0,0.5,0,1.1,0.3,1.5c0.1-0.5,0.2-0.9,0.4-1.3c0.1-0.1,0.3-0.2,0.3,0c0,0.7,0.2,1.5,0.4,2.2
					c0.2,0.6,0.5,1.2,1,1.7c0-0.6-0.2-1.1,0-1.7c0-0.1,0.2-0.2,0.3-0.1c0.3,0.8,0.7,1.6,1.1,2.3c1.4,2.6,3.6,5.3,6.7,5.7
					c-0.2-0.6-0.5-1.1-0.3-1.7c-0.4,0-0.9,0-1.3,0.1c0.1-0.1,0.2-0.2,0.3-0.3c0.9-0.1,1.8-0.1,2.7-0.3c1-0.3,2-0.6,2.9-1.1
					c1.5-0.7,2.8-1.7,3.9-3c1.1-1.2,1.8-2.6,2.4-4C219.4,484.7,219,485.2,218.4,485.7z"/>
				<path class="st2" d="M214.3,488.6c-1.7-0.7-3-2-4.1-3.4c-0.6-0.8-1.1-1.6-1.5-2.6c-0.3-0.9-0.5-1.9-0.4-2.9
					c0.1-1,0.4-1.9,0.8-2.8c0.3-0.7,0.6-1.3,1-2c0.4-0.6,0.9-1.2,1.4-1.8c-0.2,0.1-0.4,0.2-0.6,0.4c-0.7,0.4-1.4,0.9-1.9,1.5
					c-0.6,0.7-1.2,1.4-1.6,2.3c-0.9,1.8-1.4,3.7-2.2,5.5c0,0.1-0.1,0-0.1,0c-0.5-0.8-1.2-1.4-2-1.8c-0.4-0.2-0.8-0.4-1.3-0.5
					c-0.5-0.1-1-0.3-1.6-0.3c-0.2,0-0.4-0.1-0.6-0.1c-0.3,1.3-0.4,2.7-0.4,4c0,0.5,0,1.1,0.3,1.5c0.1-0.5,0.2-0.9,0.4-1.3
					c0.1-0.1,0.3-0.2,0.3,0c0,0.7,0.2,1.5,0.4,2.2c0.2,0.6,0.5,1.2,1,1.7c0-0.6-0.2-1.1,0-1.7c0-0.1,0.2-0.2,0.3-0.1
					c0.3,0.8,0.7,1.6,1.1,2.3c1.4,2.6,3.6,5.3,6.7,5.7c-0.2-0.6-0.5-1.1-0.3-1.7c-0.4,0-0.9,0-1.3,0.1c0.1-0.1,0.2-0.2,0.3-0.3
					c0.9-0.1,1.8-0.1,2.7-0.3c1-0.3,2-0.6,2.9-1.1c1.1-0.5,2-1.2,2.9-2C215.7,489.1,214.9,488.9,214.3,488.6z"/>
			</g>
			<g>
				<path class="st1" d="M151.5,479.4c0,1.9,0.5,3.7,1.3,5.5c0.7,1.6,1.6,3,2.8,4.3c1.2,1.2,2.6,2.3,4.2,2.9
					c0.9,0.4,1.8,0.7,2.7,0.9c0.3,0.1,0.7,0.1,1,0.1c0.2,0.6-0.3,1.2-0.4,1.8c0,0.1,0.1,0.3,0.2,0.2c0.9-0.1,1.7-0.4,2.5-0.8
					c2.7-1.5,4.3-4.3,5.5-7c0,0.5-0.2,1-0.1,1.4c0,0.1,0.2,0.2,0.3,0.1c0.6-0.5,1-1.2,1.2-1.9c0.2-0.6,0.3-1.1,0.4-1.7
					c0.1,0.4,0.1,0.7,0.2,1.1c0,0.1,0.2,0.2,0.3,0.1c0.5-0.6,0.5-1.4,0.5-2.1c0.2-2.1-0.2-4.2-1-6.2c-1.5-3.7-4.7-6.6-8.5-8
					c-3.7-1.3-8.4-1.4-11.4,1.5c-0.1,0.1,0.1,0.3,0.2,0.2c0.1,0,0.3-0.1,0.4-0.1c-0.4,0.3-0.8,0.7-1.2,1c-0.3,0.3-1,1-0.7,1.5
					c0,0.1,0.1,0.1,0.2,0.1c0.1,0,0.2-0.1,0.3-0.2c-0.3,0.4-0.5,0.9-0.4,1.5c0,0.1,0.1,0.1,0.1,0.2
					C151.6,477,151.5,478.2,151.5,479.4z"/>
				<path class="st2" d="M151.9,479c0-1,0.1-2.1,0.5-3c0.1-0.4,0.2-0.8,0.4-1.2c-0.2,0.2-0.3,0.3-0.5,0.5c0.1-0.7,0.6-1.3,1.1-1.9
					c0.1-0.1-0.1-0.3-0.2-0.2c-0.3,0.3-0.7,0.6-1,0.8c0-0.2,0.1-0.3,0.2-0.5c0.2-0.3,0.4-0.5,0.6-0.7c0.4-0.4,0.9-0.8,1.3-1.1
					c0.1-0.1,0-0.2-0.1-0.2c-0.1,0-0.2,0-0.3,0c1.6-1.3,3.7-1.8,5.8-1.9c3.8-0.1,7.6,1.5,10.3,4.2c1.4,1.4,2.5,3.2,3.1,5.1
					c0.6,1.8,0.8,3.6,0.8,5.5c0,0.5,0,1.1-0.3,1.5c-0.1-0.5-0.2-0.9-0.4-1.3c-0.1-0.1-0.3-0.2-0.3,0c0,0.7-0.2,1.5-0.4,2.2
					c-0.2,0.6-0.5,1.2-1,1.7c0-0.6,0.2-1.1,0-1.7c0-0.1-0.2-0.2-0.3-0.1c-0.3,0.8-0.7,1.6-1.1,2.3c-1.4,2.6-3.6,5.3-6.7,5.7
					c0.2-0.6,0.5-1.1,0.3-1.7c0.4,0,0.9,0,1.3,0.1c-0.1-0.1-0.2-0.2-0.3-0.3c-0.9-0.1-1.8-0.1-2.7-0.3c-1-0.3-2-0.6-2.9-1.1
					c-1.5-0.7-2.8-1.7-3.9-3c-1.1-1.3-1.9-2.7-2.6-4.3C152.2,482.5,151.9,480.8,151.9,479z"/>
				<path class="st2" d="M172.7,478.5c-0.9-1.9-2.3-3.6-4.1-4.8c-0.9-0.6-1.8-1.1-2.8-1.6c-1.1-0.5-2.3-1-3.5-1.2
					c-1.2-0.3-2.5-0.3-3.7-0.2c-1,0.1-1.9,0.3-2.9,0.5c-0.5,0.1-1,0.3-1.4,0.4c0,0-0.1-0.1-0.1-0.1c-0.1,0-0.2,0-0.3,0
					c1.6-1.3,3.7-1.8,5.8-1.9c3.8-0.1,7.6,1.5,10.3,4.2c1.4,1.4,2.5,3.2,3.1,5.1c0.4,1.1,0.6,2.3,0.7,3.4
					C173.6,481,173.3,479.7,172.7,478.5z"/>
				<path class="st1" d="M155.7,473.3c0.2-0.5,0.8-0.8,1.3-0.9c0.6-0.2,1.2-0.3,1.9-0.3c1.7,0,3.1,1,4.2,2.1
					c2.5,2.5,3.8,5.9,4.3,9.4c0.1,0.7,0.2,1.3,0.2,2c0,0.1,0,0.1,0,0.2c0,0.5-0.1,1-0.1,1.5c0-0.5,0-1-0.1-1.5c0,0.1,0,0.3,0,0.4
					c-0.1,0.5-0.2,1.1-0.4,1.6c-0.2,0.4-0.3,0.8-0.6,1.2c-0.2,0.3-0.5,0.6-0.8,0.9c0,0,0,0,0,0c0.1-0.2,0.2-0.4,0.2-0.7
					c0.3-0.5,0.6-1,0.8-1.5c0.2-0.5,0.3-1,0.4-1.4c0.1-0.2,0.1-0.5,0.1-0.7c0-0.2,0.1-0.5,0.1-0.7c-0.2-1.7-0.6-3.4-1.3-5.1
					c-0.6-1.6-1.4-3-2.5-4.3c-1-1.2-2.3-2.4-3.9-2.7c-0.7-0.1-1.3-0.1-2,0.1c-0.3,0.1-0.7,0.2-1,0.3c-0.3,0.1-0.6,0.3-0.8,0.5
					C155.9,473.4,155.7,473.4,155.7,473.3z"/>
				<path class="st2" d="M154.4,486c0.4,0.4,0.9,0.7,1.4,1c0.5,0.3,1.1,0.6,1.7,0.9c0.5,0.2,1.1,0.4,1.7,0.4c0.2,0,0.5-0.1,0.6-0.2
					c0.2-0.2,0.3-0.4,0.4-0.6c0.1-0.4,0-0.7-0.3-1c-0.1-0.1-0.3-0.2-0.5-0.3c-0.2-0.1-0.4-0.2-0.6-0.4c-0.4-0.3-0.8-0.6-1.1-0.9
					c-0.4-0.4-0.6-0.8-0.9-1.2c-1-1.6-1.8-3.8-0.7-5.6c0.1-0.1-0.1-0.2-0.1-0.1c-0.4,0.6-0.6,1.2-1,1.7c0-0.9,0.1-1.9,0.5-2.7
					c0-0.1-0.1-0.1-0.1-0.1c-0.3,0.4-0.6,0.8-0.9,1.2c0-0.1,0-0.2,0-0.2c0.1-1.3,0.4-2.6,1.1-3.7c0.6-1,1.5-1.9,2.7-2.1
					c0.7-0.2,1.4-0.1,2.1,0c0.8,0.2,1.6,0.5,2.4,0.9c1.6,0.9,2.7,2.3,3.6,3.9c0.2,0.4,0.4,0.9,0.6,1.3c0.2,0.4,0.4,0.9,0.5,1.3
					c0.2,0.9,0.2,1.8,0.6,2.6c0,0.1,0.1,0,0.1,0c0.2-0.2,0.4-0.5,0.6-0.7c0.3-0.6,0.5-1.2,0.6-1.8c0.1-0.2,0.1-0.5,0.1-0.7
					c0.1,0.6,0.1,1.3,0.3,1.9c0,0.1,0.1,0.1,0.2,0c0.2-0.3,0.3-0.5,0.4-0.8c0.3-1,0.2-2,0.1-3c0.5,1.1,0.6,2.2,0.8,3.4
					c0,0.1,0.1,0.1,0.2,0c0.2-0.6,0.3-1.2,0.4-1.9c0-1.1-0.2-2.2-0.6-3.2c0.8,1.1,1.5,2.4,2,3.7c0.6,1.8,0.8,3.6,0.8,5.5
					c0,0.5,0,1.1-0.3,1.5c-0.1-0.5-0.2-0.9-0.4-1.3c-0.1-0.1-0.3-0.2-0.3,0c0,0.7-0.2,1.5-0.4,2.2c-0.2,0.6-0.5,1.2-1,1.7
					c0-0.6,0.2-1.1,0-1.7c0-0.1-0.2-0.2-0.3-0.1c-0.3,0.8-0.7,1.6-1.1,2.3c-1.4,2.6-3.6,5.3-6.7,5.7c0.2-0.6,0.5-1.1,0.3-1.7
					c0.4,0,0.9,0,1.3,0.1c-0.1-0.1-0.2-0.2-0.3-0.3c-0.9-0.1-1.8-0.1-2.7-0.3c-1-0.3-2-0.6-2.9-1.1c-1.5-0.7-2.8-1.7-3.9-3
					c-1.1-1.2-1.8-2.6-2.4-4C153.4,485.1,153.9,485.6,154.4,486z"/>
				<path class="st2" d="M158.6,488.9c1.7-0.7,3-2,4.1-3.4c0.6-0.8,1.1-1.6,1.5-2.6c0.3-0.9,0.5-1.9,0.4-2.9c-0.1-1-0.4-1.9-0.8-2.8
					c-0.3-0.7-0.6-1.3-1-2c-0.4-0.6-0.9-1.2-1.4-1.8c0.2,0.1,0.4,0.2,0.6,0.4c0.7,0.4,1.4,0.9,1.9,1.5c0.7,0.7,1.2,1.4,1.6,2.3
					c0.9,1.8,1.4,3.7,2.2,5.5c0,0.1,0.1,0,0.1,0c0.5-0.8,1.2-1.4,2-1.8c0.4-0.2,0.8-0.4,1.3-0.5c0.5-0.1,1-0.3,1.6-0.3
					c0.2,0,0.4-0.1,0.6-0.1c0.3,1.3,0.4,2.7,0.4,4c0,0.5,0,1.1-0.3,1.5c-0.1-0.5-0.2-0.9-0.4-1.3c-0.1-0.1-0.3-0.2-0.3,0
					c0,0.7-0.2,1.5-0.4,2.2c-0.2,0.6-0.5,1.2-1,1.7c0-0.6,0.2-1.1,0-1.7c0-0.1-0.2-0.2-0.3-0.1c-0.3,0.8-0.7,1.6-1.1,2.3
					c-1.4,2.6-3.6,5.3-6.7,5.7c0.2-0.6,0.5-1.1,0.3-1.7c0.4,0,0.9,0,1.3,0.1c-0.1-0.1-0.2-0.2-0.3-0.3c-0.9-0.1-1.8-0.1-2.7-0.3
					c-1-0.3-2-0.6-2.9-1.1c-1.1-0.5-2-1.2-2.9-2C157.2,489.4,157.9,489.2,158.6,488.9z"/>
			</g>
		</g>
		<path class="st3" d="M219.3,508c0,0,0.1,0.1,0.1,0.1c0.1,0.1,0.3-0.1,0.3-0.2c-0.1-0.6-0.3-1.2-0.6-1.8c-0.1-0.2-0.2-0.4-0.4-0.5
			c0.1,0.1,0.3,0.2,0.4,0.4c0.1,0.1,0.3,0,0.2-0.1c-0.3-1.3-0.8-2.5-1.8-3.4c-0.9-0.8-2-1.1-3.2-1.2c0-1.2-0.1-2.4-0.2-3.5
			c-0.2-1.2-0.4-2.4-0.8-3.6c-0.6-2.2-1.6-4.3-2.9-6.1c-1.2-1.8-2.6-3.3-4.2-4.7c-1.8-1.4-3.7-2.6-5.8-3.4c-1.2-0.4-2.3-0.8-3.5-1.1
			c-1.2-0.3-2.5-0.8-3.8-0.6c0,0,0,0,0,0c0.3-0.1,0.6-0.2,1-0.3c0.1,0,0.3-0.2,0.1-0.3c-1-0.4-2.1-0.3-3.1-0.3c-0.5,0-1.1,0-1.6,0.1
			c-0.4,0.1-0.7,0.2-1.1,0.3c0.4-0.4,0.8-0.8,1.3-0.9c0.2,0,0.3-0.3,0.1-0.4c-0.7-0.1-1.5,0.2-2.1,0.5c-0.1,0-0.1,0.1-0.2,0.1
			c0,0,0-0.1,0-0.1c0-0.2,0.1-0.5,0.2-0.7c0.1-0.2,0.2-0.4,0.2-0.6c0-0.1-0.1-0.1-0.2-0.1c-0.6,0.3-1,0.7-1.4,1.2
			c-0.1,0.2-0.2,0.4-0.3,0.6c-0.2-0.2-0.5-0.3-0.7-0.4c-0.6-0.3-1.4-0.6-2.1-0.5c-0.3,0-0.1,0.3,0.1,0.4c0.5,0.2,0.9,0.6,1.3,0.9
			c-0.4-0.1-0.7-0.2-1.1-0.3c-0.5-0.1-1.1-0.1-1.6-0.1c-1,0-2.1-0.1-3.1,0.3c-0.2,0.1,0,0.3,0.1,0.3c0.3,0.1,0.6,0.2,1,0.3
			c0,0,0,0,0,0c-1.3-0.2-2.6,0.3-3.8,0.6c-1.2,0.3-2.4,0.7-3.5,1.1c-2.1,0.8-4.1,2-5.8,3.4c-1.6,1.3-3.1,2.9-4.2,4.7
			c-1.3,1.9-2.2,4-2.9,6.1c-0.3,1.2-0.6,2.4-0.8,3.6c-0.1,1.2-0.2,2.3-0.2,3.5c-1.2,0.1-2.3,0.4-3.2,1.2c-1,0.9-1.5,2.1-1.8,3.4
			c0,0.1,0.2,0.2,0.2,0.1c0.1-0.1,0.2-0.3,0.4-0.4c-0.1,0.2-0.3,0.4-0.4,0.5c-0.3,0.5-0.6,1.2-0.6,1.8c0,0.1,0.2,0.3,0.3,0.2
			c0,0,0.1-0.1,0.1-0.1c-0.7,1.5-0.6,3.3-0.2,4.9c0.5,2.3,1.5,4.4,2.9,6.2c1.5,2,3.4,3.7,5.5,5c1.1,0.7,2.2,1.3,3.3,1.8
			c1.3,0.6,2.6,1,4,1.4c0.8,0.2,1.6,0.4,2.4,0.7c0.8,0.2,1.6,0.4,2.3,0.6c1.4,0.3,2.8,0.4,4.2,0.7c0.1,0.1,0.3,0.1,0.4,0.2
			c0.7,0.3,1.4,0.5,2,0.6c1.4,0.3,2.8,0.5,4.3,0.6c2.8,0.2,5.7,0,8.5-0.8c0.7-0.2,1.3-0.4,2-0.7c1.3-0.3,2.6-0.4,3.9-0.6
			c0.8-0.1,1.6-0.4,2.3-0.6c0.8-0.2,1.6-0.4,2.4-0.7c1.3-0.4,2.7-0.8,4-1.4c1.2-0.5,2.3-1.1,3.3-1.8c2.1-1.3,4-3,5.5-5
			c1.4-1.8,2.4-4,2.9-6.2C219.8,511.3,219.9,509.5,219.3,508z"/>
		<path class="st2" d="M219.3,512.3c-0.4,2.2-1.3,4.3-2.5,6.1c-1.4,2-3.2,3.7-5.2,5.1c-2.1,1.4-4.4,2.4-6.9,3.2
			c-1.5,0.5-3,0.9-4.5,1.3c-1.4,0.4-2.8,0.5-4.2,0.7c0.4-0.2,0.8-0.5,1.2-0.8c0.1-0.1,0-0.3-0.1-0.2c-0.7,0.5-1.5,0.9-2.3,1.3
			c-0.1,0-0.1,0-0.2,0c0,0-0.1,0-0.1,0.1c-1.5,0.6-3.2,0.9-4.8,1.1c-2.8,0.3-5.7,0.1-8.4-0.4c-0.8-0.1-1.6-0.3-2.3-0.6
			c-0.4-0.1-0.8-0.2-1.1-0.4c-0.3-0.2-0.5-0.4-0.8-0.5c0,0-0.1,0-0.1,0.1c0.2,0.2,0.4,0.4,0.6,0.6c-0.1,0-0.1,0-0.2,0
			c-1.5-0.3-3-0.4-4.5-0.8c-1.5-0.4-3-0.8-4.5-1.3c-2.4-0.8-4.8-1.8-6.9-3.2c-2-1.4-3.8-3.1-5.2-5.1c-1.2-1.8-2.2-3.9-2.5-6.1
			c-0.2-1.5-0.2-3.2,0.5-4.5c0.2-0.5,0.4-0.9,0.7-1.4c-0.4,0.4-0.8,0.8-1.2,1.2c0.1-0.5,0.3-0.9,0.5-1.3c0.1-0.1,0.2-0.3,0.2-0.4
			c0.2-0.3,0.4-0.7,0.6-1c-0.3,0.2-0.6,0.3-0.9,0.5c0.2-0.5,0.4-0.9,0.7-1.4c0.5-0.8,1.1-1.5,1.9-1.9c0,0,0,0,0,0
			c0.6-0.3,1.2-0.5,1.8-0.6c0.5-0.1,0.9-0.2,1.4-0.2c-0.3-0.1-0.7-0.1-1-0.1c0,0,0,0,0,0c0.1-1.3,0.1-2.6,0.3-3.9
			c0.2-1.3,0.5-2.7,1-4c1.4-4.1,3.9-7.7,7.3-10.3c1.8-1.4,3.8-2.4,6-3.2c1.2-0.4,2.3-0.7,3.5-1c0.6-0.2,1.3-0.3,2-0.4
			c0.6-0.1,1.2,0.1,1.8,0.1c0.2,0,0.1-0.2,0-0.2c-0.5-0.2-0.9-0.4-1.4-0.6c0.8-0.2,1.7-0.2,2.5-0.1c0.5,0,1.1,0,1.6,0.1
			c0.6,0.1,1.1,0.3,1.6,0.5c0.1,0,0.1,0,0.2,0c0,0,0,0,0,0c-0.1-0.1-0.2-0.3-0.2-0.4c0,0,0,0,0,0c-0.3-0.3-0.6-0.7-1-0.9
			c0.4,0.1,0.8,0.2,1.2,0.4c0.1,0.1,0.2,0.1,0.3,0.2c0.2,0.1,0.4,0.2,0.6,0.3c0,0,0-0.1,0-0.1c0,0,0,0,0,0c0,0,0,0,0,0c0,0,0,0,0,0
			c0,0,0-0.1,0.1-0.1c0.1-0.1,0.2-0.3,0.3-0.4c0.3-0.4,0.6-0.7,1-0.9c0,0.1-0.1,0.2-0.1,0.4c-0.1,0.2-0.1,0.5-0.1,0.7
			c0,0,0,0.1,0,0.1c0,0.1,0,0.2,0,0.2c0.1-0.1,0.2-0.1,0.4-0.1c0,0,0.1-0.1,0.1-0.1c0.4-0.2,0.8-0.4,1.2-0.4
			c-0.3,0.2-0.6,0.5-0.8,0.8c-0.1,0.2-0.3,0.4-0.4,0.7c0,0,0.1,0,0.1,0c0.5-0.2,1-0.4,1.6-0.5c0.5-0.1,1.1-0.1,1.6-0.1
			c0.8,0,1.7-0.1,2.5,0.1c-0.5,0.2-0.9,0.4-1.4,0.6c-0.1,0-0.2,0.2,0,0.2c0.6,0,1.2-0.2,1.8-0.1c0.7,0.1,1.3,0.2,2,0.4
			c1.2,0.3,2.4,0.6,3.5,1c2.2,0.8,4.2,1.8,6,3.2c3.4,2.6,5.9,6.2,7.3,10.3c0.4,1.3,0.8,2.6,1,4c0.2,1.3,0.3,2.6,0.3,3.9c0,0,0,0,0,0
			c-0.3,0-0.7,0-1,0.1c0.5,0,1,0.1,1.4,0.2c0.6,0.1,1.3,0.3,1.8,0.6c0,0,0,0,0,0c0.8,0.4,1.4,1.1,1.9,1.9c0.3,0.4,0.5,0.9,0.7,1.4
			c-0.3-0.2-0.6-0.4-0.9-0.5c0.2,0.3,0.4,0.7,0.6,1c0.1,0.1,0.2,0.3,0.2,0.4c0.2,0.4,0.4,0.9,0.5,1.3c-0.4-0.4-0.7-0.8-1.2-1.2
			c0.2,0.5,0.4,0.9,0.7,1.4C219.5,509.1,219.5,510.9,219.3,512.3z"/>
		<path class="st2" d="M168.4,504.5c-0.2,0-0.4,0-0.6,0c1.2,0.2,2.5,0.4,3.7,0.7c1,0.3,2,0.6,2.9,1.1c-0.4-0.4-0.9-0.7-1.4-0.9
			C171.5,504.7,169.9,504.4,168.4,504.5z"/>
		<path class="st2" d="M168.1,495.2c0.3-1.1,0.7-2.3,1.5-3.2c-0.7,0.4-1.3,1-1.7,1.7c-0.2,0.4-0.3,0.8-0.3,1.3
			c0,0.4,0.1,0.9,0.2,1.3C167.9,495.9,168,495.5,168.1,495.2z"/>
		<path class="st2" d="M204.4,493.3c0-0.3,0-0.7-0.1-1c-0.4-1.3-1.8-1.7-3.1-1.9c0.2,0.1,0.4,0.1,0.6,0.2
			C203,491.2,203.8,492.2,204.4,493.3z"/>
		<path class="st2" d="M199.2,505.6c-0.5,0.3-1,0.6-1.5,1c0.4-0.1,0.9-0.2,1.3-0.4c1.2-0.3,2.3-0.6,3.5-0.9c0.9-0.3,1.9-0.7,2.7-1.3
			c-0.6,0-1.2,0.1-1.7,0.2C202,504.5,200.5,504.9,199.2,505.6z"/>
		<path class="st4" d="M218.8,507.8c-0.2-0.5-0.4-0.9-0.7-1.4c0.4,0.4,0.8,0.8,1.2,1.2c-0.1-0.5-0.3-0.9-0.5-1.3
			c-0.1-0.1-0.2-0.3-0.2-0.4c-0.2-0.3-0.4-0.7-0.6-1c0.3,0.2,0.6,0.3,0.9,0.5c-0.2-0.5-0.4-0.9-0.7-1.4c-0.5-0.8-1.1-1.5-1.9-1.9
			c0,0,0,0,0,0c-0.6-0.3-1.2-0.5-1.8-0.6c-0.5-0.1-0.9-0.2-1.4-0.2c0.3-0.1,0.7-0.1,1-0.1c0,0,0,0,0,0c-0.1-1.3-0.1-2.6-0.3-3.9
			c-0.2-1.3-0.5-2.7-1-4c-1.4-4.1-3.9-7.7-7.3-10.3c-1.8-1.4-3.8-2.4-6-3.2c-1.2-0.4-2.3-0.7-3.5-1c-0.6-0.2-1.3-0.3-2-0.4
			c-0.6-0.1-1.2,0.1-1.8,0.1c-0.2,0-0.1-0.2,0-0.2c0.5-0.2,0.9-0.4,1.4-0.6c-0.8-0.2-1.7-0.2-2.5-0.1c-0.5,0-1.1,0-1.6,0.1
			c-0.6,0.1-1.1,0.3-1.6,0.5c0,0-0.1,0-0.1,0c0.1-0.2,0.2-0.4,0.4-0.7c0.3-0.3,0.5-0.5,0.8-0.8c-0.4,0.1-0.8,0.2-1.2,0.4
			c0,0-0.1,0.1-0.1,0.1c-0.1,0-0.3,0.1-0.4,0.1c0-0.1,0-0.2,0-0.2c0,0,0-0.1,0-0.1c0-0.2,0.1-0.5,0.1-0.7c0-0.1,0.1-0.2,0.1-0.4
			c-0.4,0.2-0.7,0.6-1,0.9c-0.1,0.1-0.2,0.3-0.3,0.4c0,0,0,0.1-0.1,0.1c0,0,0,0,0,0c0,0,0,0,0,0c0,0,0,0,0,0c0,0,0,0.1,0,0.1
			c-0.2-0.1-0.4-0.2-0.6-0.3c-0.1-0.1-0.2-0.1-0.3-0.2c-0.4-0.2-0.8-0.4-1.2-0.4c0.4,0.3,0.7,0.6,1,0.9c0,0,0,0,0,0
			c0.1,0.1,0.2,0.3,0.2,0.4c0,0,0,0,0,0c0,0-0.1,0.1-0.2,0c-0.5-0.2-1-0.4-1.6-0.5c-0.5-0.1-1.1-0.1-1.6-0.1c-0.8,0-1.7-0.1-2.5,0.1
			c0.5,0.2,0.9,0.4,1.4,0.6c0.1,0,0.2,0.2,0,0.2c-0.6,0-1.2-0.2-1.8-0.1c-0.7,0.1-1.3,0.2-2,0.4c-1.2,0.3-2.4,0.6-3.5,1
			c-2.2,0.8-4.2,1.8-6,3.2c-3.4,2.6-5.9,6.2-7.3,10.3c-0.4,1.3-0.8,2.6-1,4c-0.2,1.3-0.3,2.6-0.3,3.9c0,0,0,0,0,0c0.3,0,0.7,0,1,0.1
			c-0.5,0-1,0.1-1.4,0.2c-0.6,0.1-1.3,0.3-1.8,0.6c0,0,0,0,0,0c-0.8,0.4-1.4,1.1-1.9,1.9c-0.3,0.4-0.5,0.9-0.7,1.4
			c0.3-0.2,0.6-0.4,0.9-0.5c-0.2,0.3-0.4,0.7-0.6,1c-0.1,0.1-0.2,0.3-0.2,0.4c-0.2,0.4-0.4,0.9-0.5,1.3c0.4-0.4,0.7-0.8,1.2-1.2
			c-0.2,0.5-0.4,0.9-0.7,1.4c-0.7,1.4-0.7,3.1-0.5,4.5c0.4,2.2,1.3,4.3,2.5,6.1c1.4,2,3.2,3.7,5.2,5.1c2.1,1.4,4.4,2.4,6.9,3.2
			c1.5,0.5,3,0.9,4.5,1.3c1.5,0.4,3,0.5,4.5,0.8c0.1,0,0.1,0,0.2,0c-0.2-0.2-0.4-0.4-0.6-0.6c0,0,0-0.1,0.1-0.1
			c0.3,0.1,0.6,0.3,0.8,0.5c0.3,0.2,0.7,0.3,1.1,0.4c0.8,0.2,1.5,0.4,2.3,0.6c2.8,0.5,5.6,0.7,8.4,0.4c1.6-0.2,3.3-0.5,4.8-1.1
			c0,0,0.1,0,0.1-0.1c0.1,0,0.1,0,0.2,0c0.8-0.3,1.6-0.7,2.3-1.3c0.2-0.1,0.3,0.1,0.1,0.2c-0.4,0.3-0.8,0.6-1.2,0.8
			c1.4-0.2,2.8-0.4,4.2-0.7c1.5-0.4,3-0.8,4.5-1.3c2.4-0.8,4.8-1.8,6.9-3.2c2-1.4,3.8-3.1,5.2-5.1c1.2-1.8,2.2-3.9,2.5-6.1
			C219.5,510.9,219.5,509.1,218.8,507.8z M215.9,509c0,0.1-0.1,0.1-0.1,0c-0.5-0.6-0.8-1.3-1.5-1.8c0,0.4,0.1,0.8,0.2,1.2
			c0.2,0.8,0.5,1.6,0.7,2.4c0.2,0.8,0.1,1.6-0.3,2.4c0,0.1-0.1,0-0.2,0c-0.1-0.4-0.1-0.8-0.2-1.2c-0.2-0.9-0.6-1.7-1-2.5
			c0.4,1,0.5,2.1,0.4,3.2c-0.2,1.5-0.8,2.8-1.6,4c-0.9,1.3-2,2.3-3.3,3.1c-1.5,1-3.1,1.8-4.8,2.3c-0.7,0.2-1.4,0.5-2.1,0.7
			c-0.7,0.2-1.4,0.4-2.1,0.2c0,0-0.1-0.1-0.1-0.1c0.1-0.4,0.2-0.7,0.3-1.1c0.3-1.4,0.3-2.7-0.1-4.1c-0.3-1.3-0.8-2.5-1.4-3.7
			c-0.6-1.2-1.2-2.5-1.7-3.8c-0.3-0.8-0.7-1.6-0.5-2.5c0.3-1.4,1.6-2.2,2.8-2.7c1.6-0.7,3.3-1,5-1.2c1.3-0.1,2.6-0.2,3.8-0.2
			c-0.6-0.4-1.2-0.6-1.9-0.7c-0.7-0.1-1.5-0.2-2.3-0.3c0,0-0.1-0.1-0.1-0.1c0.3-1.3,0.6-2.6,0.6-4c0-1.2-0.1-2.4-0.5-3.5
			c-0.3-0.9-0.8-1.8-1.5-2.5c-0.7-0.7-1.5-1.3-2.4-1.6c-1-0.3-2-0.3-2.9,0.1c-0.1,0-0.2,0-0.1-0.1c0.4-0.5,0.9-1,1.4-1.4
			c-0.4,0.1-0.8,0.2-1.2,0.4c-1.6,0.7-3.1,1.9-3.9,3.4c-0.7,1.5-0.9,3.3-1.4,4.8c0,0.1-0.1,0.1-0.2,0c-0.1-0.4-0.1-0.7-0.2-1.1
			c-0.1,0.5-0.1,1.1-0.3,1.7c0,0.1-0.1,0.1-0.2,0c-0.3-0.6-0.5-1.2-0.5-1.8c-0.1,0.4-0.2,0.8-0.5,1.1c-0.2,0.3-0.6,0.5-1,0.6
			c-0.3,0.1-0.5,0.1-0.8,0.1c-0.4,0-0.8,0.1-1.2,0.1c-1.6,0-3.2-0.5-4.6-1.2c-0.1,0.5-0.2,1-0.5,1.5c0,0.1-0.1,0-0.2,0
			c-0.1-0.4-0.1-0.8-0.1-1.2c-0.2,0.5-0.4,1.1-0.6,1.6c0,0.1-0.2,0-0.2,0c0-0.7,0-1.3-0.1-2c-0.1-1.2-0.5-2.4-0.9-3.6
			c-0.6-1.3-1.5-2.4-2.7-3.2c0.8,0.8,1.2,1.8,1.6,2.8c0,0.1-0.1,0.1-0.2,0.1c-0.9-1.3-2.2-2.3-3.8-2.6c-2.7-0.6-5.5,0.9-6.8,3.4
			c-1.3,2.4-1.3,5.6-0.2,8.1c0,0.1,0,0.1-0.1,0.1c-2,0-3.8,1.1-5.4,2.3c1.8-1.1,4.1-1.3,6.2-1.2c1,0.1,2,0.3,3,0.5
			c0.9,0.2,1.9,0.4,2.8,0.8c0.8,0.3,1.6,0.8,2.1,1.6c0.6,1,0.3,2.1-0.2,3.1c-1.3,2.6-3.1,4.9-3.8,7.8c-0.3,1.4-0.3,2.8,0.1,4.2
			c0.4,1.3,1,2.6,1.6,3.8c0,0.1,0,0.1-0.1,0.1c-1.7-0.2-3.3-0.5-4.9-0.9c-2.6-0.7-5.2-1.7-7.3-3.4c-1.7-1.3-2.8-3.1-3.7-5
			c0,0.6,0.1,1.1,0.1,1.7c0,0.1-0.1,0.1-0.1,0.1c-1-0.8-1.8-1.9-2.4-3c-1-1.9-1.5-4.3-0.9-6.4c0.5-1.8,1.9-2.9,3.3-4.1
			c-1.1,0.1-2.1,0.7-3,1.3c-0.1,0-0.2,0-0.1-0.1c0.5-0.7,1.2-1.3,2-1.7c-0.8,0-1.6,0.1-2.3,0.5c-0.1,0-0.2-0.1-0.1-0.1
			c0.5-0.5,1.1-0.9,1.6-1.3c1-0.8,2.1-1.5,3.3-1.8c1.1-0.3,2.1-0.2,3.1,0.2c-0.9-0.8-2-1.6-3.2-1.6c0,0-0.1,0-0.1-0.1
			c0-2.4,0.4-4.7,1.2-6.9c1.4-3.7,4.1-6.9,7.3-9.2c1.7-1.2,3.6-2.2,5.6-2.9c0.1-0.1,0.2-0.1,0.3-0.2c1.4-0.7,3-1,4.5-1.2
			c1.4-0.2,2.9-0.2,4.3-0.2c-0.3-0.6-1.1-0.9-1.7-1.1c-0.1,0-0.1-0.1,0-0.2c0.3-0.1,0.7-0.1,1,0c1.1,0.2,1.9,1.1,2.7,1.8
			c0-0.6,0-1.2,0-1.7c0-0.1,0.1-0.1,0.1-0.1c0.3,0.1,0.5,0.4,0.6,0.6c0.1,0.2,0.2,0.5,0.3,0.7c0.3-0.6,0.7-1.1,1.4-1.3
			c0.1,0,0.1,0,0.1,0.1c-0.1,0.4-0.3,0.8-0.4,1.3c1.1-0.7,2.2-1.3,3.5-1.5c0.1,0,0.1,0.1,0.1,0.2c-0.5,0.3-0.8,0.8-1.1,1.3
			c0,0,0,0,0,0c0.6-0.2,1.2-0.3,1.9-0.4c1.3-0.2,2.6-0.1,3.8,0.1c1.3,0.3,2.5,0.8,3.7,1.4c1.1,0.6,2.2,1.3,3.2,2.1
			c1,0.8,2,1.6,2.9,2.5c0.8,0.8,1.7,1.7,2.4,2.6c1.4,1.8,2.5,3.9,3.2,6.1c0.7,2.2,1,4.5,0.6,6.8c0,0,0,0.1-0.1,0.1
			c-0.6,0.1-1.2,0.1-1.8,0.2c-0.1,0-0.2,0.1-0.4,0.1c0.7,0,1.4,0,2.1,0.1c0.4,0.1,0.8,0.2,1.2,0.4c0.4,0.2,0.7,0.5,0.9,0.9
			c0,0.1,0,0.1-0.1,0.1c-1.1-0.3-2.2-0.4-3.3-0.2c0.6,0.1,1.2,0.2,1.7,0.3c1.2,0.3,2.4,1,3.1,2c0.4,0.5,0.7,1,0.8,1.6
			C216,507.6,216,508.3,215.9,509z"/>
		<path class="st4" d="M208.9,524.4c-1.7,0.8-3.4,1.5-5.2,2c-0.8,0.2-1.5,0.4-2.2,0.6c-0.7,0.1-1.5,0.2-2.1-0.1c0,0-0.1-0.1,0-0.1
			c0.4-0.6,0.9-1.1,1.3-1.7c-0.8,0.8-1.9,1.5-3,1.8c-0.1,0-0.1-0.1-0.1-0.1c0.3-0.3,0.5-0.6,0.8-1c1.9-3,1.1-6.9-0.1-10
			c-0.6-1.7-1.4-3.3-2.2-4.8c-0.8-1.5-1.7-3-3.1-4.1c-0.7-0.6-1.6-1-2.6-1c-1-0.1-2,0.2-2.9,0.5c-2,0.6-3.8,1.8-5.4,3.1
			c-1.6,1.3-2.9,2.9-4.1,4.5c-1.3,1.8-2.3,3.9-2.7,6.1c-0.4,2.3,0,4.6,1.2,6.5c0.5,0.8,1,1.6,1.6,2.3c0.3,0.1,0.6,0.2,0.8,0.3
			c0.8,0.2,1.5,0.4,2.3,0.6c2.8,0.5,5.6,0.7,8.4,0.4c1.6-0.2,3.3-0.5,4.8-1.1c0,0,0.1,0,0.1-0.1c0.1,0,0.1,0,0.2,0
			c0.8-0.3,1.6-0.7,2.3-1.3c0.2-0.1,0.3,0.1,0.1,0.2c-0.4,0.3-0.8,0.6-1.2,0.8c1.4-0.2,2.8-0.4,4.2-0.7c1.5-0.4,3-0.8,4.5-1.3
			c2.4-0.8,4.8-1.8,6.9-3.2c1.2-0.8,2.2-1.7,3.2-2.7C213,522.3,210.9,523.4,208.9,524.4z"/>
		<path class="st3" d="M198.8,519c-0.1-0.4-0.1-0.7-0.2-1.1c0-0.1,0-0.2-0.1-0.3c-0.2-1.1-0.7-2.1-1.1-3.1c-0.6-1.2-1.2-2.4-1.6-3.6
			c-0.5-1.4-0.8-2.8-1.2-4.2c-0.6-1.9-1.3-4.3-3.4-4.8c0.5,0,1,0.1,1.5,0c0.1,0,0.1-0.1,0-0.1c-0.9-0.9-2.2-1.1-3.4-0.7
			c0.3-0.3,0.6-0.6,0.9-0.9c0.1-0.1-0.1-0.2-0.2-0.2c-0.8,0.2-1.6,0.4-2,1.1c-0.1-0.3,0.1-0.7,0.2-1c0-0.1-0.1-0.1-0.2-0.1
			c-0.2,0.2-0.5,0.3-0.7,0.5c-0.1,0.1-0.3,0.3-0.4,0.4c0-0.4,0.1-0.8,0.2-1.1c0-0.1,0-0.1-0.1-0.1c-0.7,0.1-1,0.8-1.3,1.3
			c-0.1-0.1-0.1-0.3-0.2-0.4c-0.1-0.1-0.2-0.2-0.3-0.3c-0.2-0.2-0.5-0.4-0.8-0.3c0,0-0.1,0.1-0.1,0.1c0,0.2,0.1,0.4,0.2,0.6
			c0,0.1,0.1,0.2,0.1,0.3c-0.4-0.6-1.2-0.8-1.9-1c-0.1,0-0.3,0.1-0.2,0.2c0.3,0.3,0.7,0.5,0.9,0.9c-1.2-0.4-2.5-0.2-3.4,0.7
			c0,0,0,0.1,0,0.1c0.5,0.1,1,0,1.5,0c-2.1,0.5-2.9,2.9-3.4,4.8c-0.4,1.4-0.8,2.8-1.2,4.2c-0.4,1.3-1,2.4-1.6,3.6
			c-0.5,1-0.9,2-1.1,3.1c0,0.1,0,0.2-0.1,0.3c-0.1,0.4-0.1,0.7-0.2,1.1c-0.1,0.8-0.1,1.7,0,2.5c0.1,1.6,0.5,3,1.4,4.3
			c1.6,2.2,4.2,3.7,6.9,4.1c0.9,0.1,1.9,0.2,2.8,0.1c0.4,0,2.2,0,2.6,0c0.9,0.1,1.9,0,2.8-0.1c2.7-0.4,5.3-1.9,6.9-4.1
			c0.9-1.3,1.3-2.8,1.4-4.3C198.9,520.7,198.9,519.8,198.8,519z"/>
		<path class="st5" d="M198.4,522.2c-0.2,1.5-0.7,2.8-1.6,4c-0.8,1-1.9,1.9-3.1,2.5c-1.2,0.6-2.6,1-4,1.1c-0.7,0.1-1.5,0.1-2.2,0
			c-0.6,0.1-1.3,0.1-1.9,0c-0.2,0-0.4,0-0.6,0c-0.6,0-1.2,0-1.8,0c-1.4-0.1-2.8-0.5-4-1.1c-1.2-0.6-2.3-1.4-3.1-2.5
			c-0.9-1.2-1.4-2.5-1.6-4c-0.1-0.9-0.1-1.8-0.1-2.8c0-0.3,0-0.6,0.1-0.8c0,0,0,0,0-0.1c0.3-2.5,1.7-4.6,2.6-6.9
			c0.5-1.3,0.9-2.6,1.3-3.9c0.4-1.2,0.7-2.5,1.3-3.6c0.5-1,1.4-1.9,2.6-2.1c0.1,0,0.1-0.1,0.1-0.1c-0.6-0.1-1.2,0-1.8-0.1
			c1-0.8,2.3-0.8,3.4-0.3c0.1,0,0.3,0,0.2-0.2c-0.2-0.4-0.5-0.7-0.8-0.9c0.6,0.2,1.2,0.4,1.5,1c0,0.1,0.2,0,0.1-0.1c0,0,0,0,0-0.1
			c0.1-0.4-0.1-0.8-0.2-1.1c0.2,0,0.5,0.3,0.6,0.4c0.2,0.2,0.3,0.5,0.4,0.8c0,0.1,0.2,0,0.2,0c0.1-0.3,0.3-0.5,0.4-0.8
			c0.1-0.2,0.3-0.5,0.6-0.6c-0.2,0.4-0.3,0.8-0.2,1.3c0,0.1,0.1,0.1,0.2,0c0.2-0.2,0.4-0.4,0.6-0.5c0.1-0.1,0.3-0.2,0.4-0.3
			c-0.1,0.3-0.2,0.7-0.1,1c0,0.1,0.1,0.1,0.2,0c0,0,0.1,0,0.1,0c0.3-0.6,0.9-0.8,1.5-1c-0.3,0.3-0.6,0.5-0.8,0.9
			c-0.1,0.1,0.2,0.2,0.2,0.2c1.1-0.5,2.4-0.4,3.4,0.3c-0.6,0.1-1.2-0.1-1.8,0.1c-0.1,0,0,0.1,0.1,0.1c1.2,0.1,2.1,1,2.6,2.1
			c0.6,1.1,0.9,2.4,1.3,3.6c0.4,1.3,0.8,2.6,1.3,3.9c0.9,2.3,2.3,4.4,2.6,6.9c0,0,0,0,0,0.1c0,0.3,0.1,0.6,0.1,0.8
			C198.5,520.3,198.5,521.3,198.4,522.2z"/>
		<path class="st5" d="M179.9,524.1c0.2,0.1,0.3,0.2,0.5,0.2c1.5,0.6,3.2,0.3,4.7-0.1c-0.4,0-0.8,0-1.2,0
			C182.5,524.1,181.2,524.2,179.9,524.1z"/>
		<path class="st5" d="M174.9,519.3c0.3-1.5,1-2.9,1.7-4.2c0.7-1.4,1.5-2.7,1.9-4.2c0.6-1.9,0.7-3.8,1.4-5.7
			c0.3-0.9,0.7-1.7,1.4-2.4c0.4-0.4,0.9-0.7,1.4-0.9c-0.1,0-0.2,0-0.3,0.1c0,0,0,0.1-0.1,0.1c-1.2,0.1-2.1,1-2.6,2.1
			c-0.6,1.1-0.9,2.4-1.3,3.6c-0.4,1.3-0.8,2.6-1.3,3.9c-0.9,2.3-2.3,4.4-2.6,6.9c0,0,0,0,0,0.1c0,0.3-0.1,0.6-0.1,0.8
			c0,0.9,0,1.9,0.1,2.8c0.1,0.9,0.3,1.7,0.7,2.5C174.6,522.9,174.5,521.1,174.9,519.3z"/>
		<path class="st5" d="M198.5,519.4c0-0.3,0-0.6-0.1-0.8c0,0,0,0,0-0.1c-0.3-2.5-1.7-4.6-2.6-6.9c-0.5-1.3-0.9-2.6-1.3-3.9
			c-0.4-1.2-0.7-2.5-1.3-3.6c-0.5-1-1.4-1.9-2.6-2.1c-0.1,0-0.1-0.1-0.1-0.1c0.6-0.1,1.2,0,1.8-0.1c-1-0.8-2.3-0.8-3.4-0.3
			c-0.1,0-0.2,0-0.2-0.1c-0.2,0.1-0.4,0.3-0.5,0.4c0.6,0,1.2,0.1,1.8,0.2c0.6,0.2,1.2,0.5,1.7,1c0.1,0.1,0,0.2-0.1,0.1
			c-0.6-0.2-1.2-0.3-1.9-0.3c0.5,0.2,1,0.5,1.4,0.9c1,0.9,1.7,2.2,2.1,3.4c0.4,1.3,0.7,2.7,0.7,4c0,0.1-0.1,0.1-0.1,0.1
			c-0.3-0.1-0.6-0.3-0.9-0.4c-1.2-0.4-2.4-0.6-3.7-0.6c-1.3,0-2.5,0.1-3.8,0.4c-1.4,0.3-2.7,0.6-4,1.1c-1,0.4-2.2,0.7-3,1.5
			c-0.4,0.4-0.6,0.8-0.7,1.3c-0.1,0.5-0.1,1.1-0.1,1.6c0.1,1.1,0.6,2.2,1.2,3.1c0.6,0.9,1.4,1.7,2.4,2.2c1.1,0.6,2.4,0.9,3.6,1
			c0.6,0.1,1.3,0.1,1.9,0.1c0.6,0,1.3,0,2-0.1c1.3-0.2,2.5-0.7,3.8-0.8c0.1,0,0.1,0.1,0.1,0.1c-0.2,0.8-0.9,1.4-1.6,1.7
			c-0.8,0.4-1.7,0.7-2.5,0.9c-0.8,0.2-1.6,0.3-2.4,0.5c-2.7,0.4-5.5,0.5-8.2,0c-0.1,0-0.1-0.1,0-0.2c0.3-0.2,0.7-0.3,1-0.4
			c-0.3,0-0.5,0-0.7,0.1c-0.4,0.1-0.9,0.2-1.1,0.6c-0.2,0.4,0.3,0.8,0.6,1c0.4,0.2,0.8,0.5,1.1,0.8c0.6,0.8,1,1.7,1.6,2.5
			c0.8,0.3,1.7,0.5,2.6,0.6c0.6,0,1.2,0.1,1.8,0c0.2,0,0.4,0,0.6,0c0.6,0,1.3,0,1.9,0c0.7,0.1,1.5,0,2.2,0c1.4-0.1,2.8-0.5,4-1.1
			c1.2-0.6,2.3-1.4,3.1-2.5c0.9-1.2,1.4-2.5,1.6-4C198.5,521.3,198.5,520.3,198.5,519.4z"/>
		<path class="st3" d="M186.6,519C186.6,518.9,186.5,518.9,186.6,519c-0.1,1.6,0,3.3,0,4.9c0,0.1,0.2,0.1,0.2,0
			C186.9,522.2,186.5,520.6,186.6,519z"/>
		<path class="st3" d="M195.8,525c0-0.5,0-0.9,0-1.4c-0.3,1.1-0.8,2.1-1.4,3c-0.4,0.6-0.9,1.2-1.5,1.6c-0.6,0.5-1.2,0.8-1.9,1.1
			c-0.7,0.3-1.5,0.5-2.3,0.7c-0.8,0.2-1.6,0.3-2.4,0.4c-1.6,0.1-3.3,0-4.7-0.8c-0.8-0.4-1.5-1.1-2-1.8c0.1,0.2,0.2,0.4,0.3,0.6
			c0.9,2.4,3.7,3.5,6.1,3.8c2.7,0.3,5.7-0.4,7.8-2.2c0.9-0.8,1.7-1.9,2-3.1c0,0.1-0.1,0.2-0.2,0.3c0,0,0-0.1,0-0.1
			C195.7,526.4,195.8,525.7,195.8,525z"/>
		<path class="st5" d="M195.3,526.8c-0.1,0.4-0.2,0.8-0.3,1.1c-0.2,0.3-0.5,0.6-0.7,1c0,0,0,0-0.1,0c-0.2,0.2-0.4,0.4-0.6,0.6
			c-1,0.9-2.2,1.6-3.5,2c-2.5,0.8-5.3,0.6-7.6-0.6c-0.9-0.4-1.7-1.1-2.3-1.9c-0.1-0.2-0.2-0.4-0.3-0.6c-0.2-0.4-0.4-0.7-0.5-1.1
			c-0.1-0.3-0.3-0.7-0.4-1c0-0.1-0.1-0.3-0.2-0.4c0.3,0.2,0.7,0.3,1,0.4c0.6,0.1,1.1,0.1,1.7,0.2c1.4,0.1,2.7,0.1,4.1-0.1
			c0.6-0.1,1.3-0.1,1.9-0.3c0.7-0.1,1.3-0.4,1.9-0.6c1.2-0.4,2.3-0.8,3.4-1.4c1-0.6,2-1.3,2.7-2.2c0.2,1,0,2,0,3
			C195.5,525.5,195.5,526.2,195.3,526.8z"/>
		<path class="st3" d="M196,521.9c0-0.2-0.1-0.3-0.2-0.5c0,0,0,0,0,0c0,0-0.1,0-0.1-0.1c-0.1-0.1-0.2-0.1-0.4-0.1
			c-0.1,0-0.2,0.1-0.2,0.2c-0.1,0.1-0.2,0.2-0.3,0.2c0,0,0,0,0,0c0,0,0,0,0,0c0.1,0,0.1,0,0.1,0c0,0,0,0,0.1,0c0,0,0,0,0,0
			c0,0,0,0.1,0.1,0.1c-0.1,0.1-0.1,0.2-0.2,0.3c0,0.1,0,0.1-0.1,0.2c-0.1,0.2-0.3,0.4-0.5,0.5c-0.1,0.1-0.1,0.1-0.2,0.2
			c-0.4,0.4-0.9,0.7-1.3,0.9c-1.1,0.6-2.4,1.1-3.7,1.4c-1.3,0.3-2.6,0.6-4,0.7c-1.4,0.2-2.9,0.2-4.3,0c-0.7-0.1-1.4-0.2-2.1-0.4
			c-0.6-0.2-1.2-0.4-1.7-0.7c0.3-0.2,0.7-0.2,1-0.3c0.1,0,0.1-0.1,0-0.1c-0.4,0-0.9,0-1.3,0.4c0,0,0,0.1,0,0.1c0.6,0.5,1.3,0.8,2,1
			c0.5,0.5,0.9,1.1,1.4,1.6c0.5,0.5,1,1,1.6,1.4c1.2,0.8,2.6,1.3,4,1.5c2.8,0.3,5.8-1,7.3-3.4c0.4-0.6,0.7-1.3,0.9-2.1
			c0.3-0.8,0.4-1.6,0.6-2.5c0.2-0.2,0.3-0.4,0.4-0.7c0,0,0,0,0,0c0,0,0,0,0,0c0,0,0,0,0,0c0,0,0,0,0.1,0c0,0,0.1,0.1,0.1,0.1
			C195.8,522,195.9,522,196,521.9C196,521.9,196,521.9,196,521.9C196,521.9,196,521.9,196,521.9z"/>
		<path class="st6" d="M194.2,524.5c-0.2,0.7-0.4,1.3-0.7,1.9c-0.6,1.1-1.4,2.1-2.5,2.7c-1.3,0.7-2.7,1.1-4.2,1
			c-1.4-0.1-2.8-0.5-4.1-1.3c-0.7-0.4-1.3-0.9-1.8-1.4c-0.5-0.5-0.9-0.9-1.4-1.4c0.3,0.1,0.6,0.1,0.9,0.2c1.5,0.3,3,0.3,4.5,0.1
			c1.4-0.1,2.8-0.4,4.2-0.7c1.3-0.3,2.7-0.8,3.9-1.5c0.6-0.3,1.2-0.7,1.7-1.2C194.5,523.5,194.4,524,194.2,524.5z"/>
		<path class="st7" d="M182.8,527.6c1,0.4,2,0.4,3.1,0.3c0.6-0.1,1.2-0.2,1.7-0.3c0.6-0.2,1.2-0.3,1.8-0.6c1.1-0.5,2.1-1.1,2.9-2.1
			c0.1-0.2,0.3-0.4,0.4-0.7c-1.2,0.6-2.4,1.1-3.7,1.4c-1.4,0.3-2.8,0.6-4.2,0.7c-1.3,0.1-2.5,0.1-3.8,0
			C181.5,526.9,182.1,527.4,182.8,527.6z"/>
		<path class="st8" d="M191.9,528.1c-1.6-0.3-3.2-0.2-4.8,0.2c-1,0.3-2,0.7-2.9,1.3c0.8,0.3,1.6,0.5,2.5,0.5c1.5,0.1,2.9-0.3,4.2-1
			c0.5-0.3,0.9-0.6,1.3-1C192.1,528.1,192,528.1,191.9,528.1z"/>
		<g>
			<path class="st9" d="M194.9,514.5c-0.2-0.6-0.6-1-1-1.4c0,0,0,0,0,0c-0.2-0.3-0.5-0.5-0.9-0.6c-0.4-0.2-0.8-0.3-1.2-0.4
				c-1-0.3-2-0.4-3-0.5c-1.9-0.2-3.9-0.1-5.8,0.2c-0.4,0.1-0.8,0.1-1.2,0.2c-0.7,0.1-1.4,0.3-2,0.7c-0.8,0.4-1.4,1-1.7,1.9
				c-0.5,1.3-0.2,2.8,0.2,4c0.4,1.3,1.4,2.6,2.7,3.1c0.7,0.3,1.4,0.5,2.2,0.5c0.1,0,0.3,0,0.4,0.1c0.6,0.1,1.3,0.1,1.9,0.2
				c1.3,0.1,2.6,0,3.9-0.2c0.1,0,0.2,0,0.4-0.1c0.7-0.1,1.4-0.3,2.1-0.5c1.3-0.5,2.3-1.7,2.7-3.1
				C195.1,517.3,195.4,515.8,194.9,514.5z"/>
			<path class="st10" d="M194.7,517.1c-0.1,0.6-0.2,1.3-0.5,1.9c-0.3,0.6-0.7,1.2-1.2,1.7c-0.1,0.1-0.3,0.2-0.5,0.4
				c-0.4,0.4-0.9,0.6-1.4,0.7c-0.9,0.3-1.8,0.4-2.8,0.4c-0.9,0.1-1.9,0.1-2.9,0c-0.9,0-1.7-0.2-2.6-0.3c-0.2,0-0.5-0.1-0.8-0.2
				c-0.1,0-0.2,0-0.3-0.1c-0.7-0.2-1.3-0.5-1.8-1c-0.5-0.5-0.9-1-1.2-1.7c-0.3-0.6-0.4-1.2-0.5-1.9c-0.1-0.7-0.2-1.3-0.1-2
				c0.2-1.2,1.1-2.1,2.2-2.6c0.2-0.1,0.4-0.2,0.7-0.3c0.4-0.1,0.7-0.2,1.1-0.2c1-0.2,2-0.3,3-0.3c2-0.1,4.1,0,6,0.4
				c0.5,0.1,0.9,0.3,1.4,0.4c0.1,0,0.2,0.1,0.3,0.1c1,0.5,1.8,1.4,1.9,2.5C194.9,515.7,194.9,516.4,194.7,517.1z"/>
			<path class="st10" d="M178.4,517.1c0-1,0.4-2.1,1.2-2.9c0.4-0.4,0.9-0.7,1.5-0.9c0.6-0.3,1.3-0.4,1.9-0.6
				c1.4-0.3,2.8-0.3,4.2-0.3c1.2,0,2.4,0,3.6,0.2c1.2,0.2,2.4,0.6,3.3,1.4c0.3,0.2,0.5,0.5,0.7,0.8c-0.3-1-1-1.7-1.9-2.2
				c-0.1,0-0.2-0.1-0.3-0.1c-0.5-0.1-0.9-0.3-1.4-0.4c-1.9-0.5-4-0.5-6-0.4c-1,0-2,0.2-3,0.3c-0.4,0.1-0.7,0.1-1.1,0.2
				c-0.2,0.1-0.4,0.2-0.7,0.3c-1.1,0.5-2,1.4-2.2,2.6C178.1,515.7,178.2,516.4,178.4,517.1C178.4,517.1,178.4,517.1,178.4,517.1
				C178.4,517.1,178.4,517.1,178.4,517.1z"/>
			<path class="st10" d="M194.8,515.1c-0.1-0.8-0.6-1.5-1.2-2c0.1,0.2,0.2,0.4,0.3,0.6c0.3,1.1-0.4,2.2-1.3,2.9
				c-0.9,0.7-2,1-3.1,1.2c-1,0.2-2.1,0.2-3.1,0.3c-0.9,0-1.7,0-2.6-0.1c-0.9-0.1-1.9-0.2-2.8-0.6c-0.8-0.3-1.5-0.7-1.9-1.5
				c-0.2-0.4-0.3-0.8-0.3-1.2c0-0.4,0.2-0.9,0.4-1.2c0.2-0.3,0.4-0.6,0.7-0.8c-0.9,0.5-1.6,1.3-1.8,2.4c-0.1,0.7,0,1.3,0.1,2
				c0.1,0.6,0.2,1.3,0.5,1.9c0.3,0.6,0.7,1.2,1.2,1.7c0.5,0.5,1.1,0.8,1.8,1c0.1,0,0.2,0,0.3,0.1c0.2,0.1,0.5,0.1,0.8,0.2
				c0.9,0.2,1.7,0.3,2.6,0.3c1,0,1.9,0,2.9,0c0.9-0.1,1.9-0.2,2.8-0.4c0.5-0.2,1-0.4,1.4-0.7c0.2-0.1,0.3-0.2,0.5-0.4
				c0.5-0.5,0.9-1,1.2-1.7c0.3-0.6,0.4-1.2,0.5-1.9C194.9,516.4,194.9,515.7,194.8,515.1z"/>
		</g>
		<g>
			<path class="st11" d="M195.5,505.6c-0.4,0.2-0.7,0.5-0.9,0.9c0.3-0.2,0.6-0.4,1-0.6c0.3-0.2,0.7-0.4,1.1-0.6c0,0,0.1,0,0.1-0.1
				c0.5-0.3,1.1-0.6,1.6-0.8c0.7-0.3,1.4-0.5,2.2-0.7c1.1-0.3,2.2-0.4,3.3-0.5c0,0,0-0.1-0.1-0.1c-0.3,0-0.7,0-1,0
				c0.3-0.4,0.5-0.7,0.7-1.2c0.2-0.5,0.3-0.9,0.4-1.4c0.2-1,0.2-2,0-3.1c-0.2-1.9-1-3.9-2.8-4.9c-0.9-0.5-2-0.7-3.1-0.5
				c-1.1,0.2-2.1,0.8-2.9,1.4c-0.4,0.3-0.7,0.7-1,1.1c-0.3,0.5-0.5,1-0.7,1.5c-0.4,1.1-0.6,2.3-0.5,3.5c0,1.3,0.3,2.5,0.8,3.7
				c0.2,0.5,0.5,1,0.8,1.4C194.8,505.1,195.1,505.5,195.5,505.6z"/>
			<path class="st7" d="M193.3,500.5c-0.1-1.1,0-2.3,0.3-3.4c0.3-1,0.6-2.1,1.4-2.9c1.4-1.5,3.7-2.4,5.6-1.6c1.8,0.7,2.7,2.6,3,4.4
				c0.2,1.1,0.2,2.1,0.1,3.2c-0.1,1-0.5,2.1-1,3c-0.9,0.1-1.9,0.3-2.8,0.5c-1.3,0.3-2.5,0.8-3.7,1.5c-0.2,0.1-0.4,0.2-0.5,0.3
				c-0.3-0.2-0.6-0.5-0.8-0.9c-0.2-0.4-0.4-0.7-0.6-1.1C193.7,502.6,193.4,501.5,193.3,500.5z"/>
			<g>
				<path class="st12" d="M203,499.7c0,2.4-1.9,4.3-4.3,4.3c-2.4,0-4.3-1.9-4.3-4.3c0-2.4,1.9-4.3,4.3-4.3
					C201.1,495.4,203,497.3,203,499.7z"/>
				<path d="M201.6,499.7c0,1.5-1.2,2.8-2.8,2.8c-1.5,0-2.8-1.2-2.8-2.8c0-1.5,1.2-2.8,2.8-2.8C200.3,496.9,201.6,498.2,201.6,499.7
					z"/>
				<circle class="st7" cx="196.9" cy="498.4" r="1.3"/>
			</g>
			<path class="st2" d="M194.2,496c0.8-0.7,1.8-1.2,2.8-1.6c1.1-0.4,2.3-0.5,3.4-0.4c0.8,0.1,1.5,0.2,2.3,0.5
				c-0.5-0.8-1.2-1.5-2.1-1.9c-2-0.8-4.2,0.1-5.6,1.6c-0.6,0.6-0.9,1.4-1.2,2.3C193.9,496.3,194,496.2,194.2,496z"/>
		</g>
		<g>
			<path class="st11" d="M178.3,504.8c0.3-0.4,0.6-0.9,0.8-1.4c0.5-1.1,0.8-2.4,0.8-3.7c0-1.2-0.2-2.4-0.5-3.5
				c-0.2-0.5-0.4-1.1-0.7-1.5c-0.3-0.4-0.6-0.8-1-1.1c-0.8-0.7-1.8-1.2-2.9-1.4c-1.1-0.2-2.1,0-3.1,0.5c-1.8,1-2.5,3-2.8,4.9
				c-0.1,1-0.1,2,0,3.1c0.1,0.5,0.2,1,0.4,1.4c0.2,0.4,0.4,0.8,0.7,1.2c-0.3,0-0.7,0-1,0c-0.1,0-0.1,0-0.1,0.1
				c1.1,0.1,2.2,0.2,3.3,0.5c0.7,0.2,1.5,0.4,2.2,0.7c0.6,0.2,1.1,0.5,1.6,0.8c0,0,0.1,0,0.1,0.1c0.4,0.2,0.7,0.4,1.1,0.6
				c0.3,0.2,0.6,0.4,1,0.6c-0.2-0.3-0.6-0.6-0.9-0.9C177.7,505.5,178,505.1,178.3,504.8z"/>
			<path class="st7" d="M178.7,503.6c-0.2,0.4-0.4,0.8-0.6,1.1c-0.2,0.3-0.5,0.7-0.8,0.9c-0.2-0.1-0.4-0.2-0.5-0.3
				c-1.1-0.7-2.4-1.1-3.7-1.5c-0.9-0.2-1.8-0.5-2.8-0.5c-0.6-0.9-0.9-1.9-1-3c-0.1-1.1-0.1-2.1,0.1-3.2c0.3-1.8,1.3-3.7,3-4.4
				c2-0.8,4.2,0.1,5.6,1.6c0.7,0.8,1.1,1.8,1.4,2.9c0.3,1.1,0.4,2.3,0.3,3.4C179.5,501.5,179.2,502.6,178.7,503.6z"/>
			<g>
				<path class="st12" d="M178.7,499.7c0,2.4-1.9,4.3-4.3,4.3c-2.4,0-4.3-1.9-4.3-4.3c0-2.4,1.9-4.3,4.3-4.3
					C176.8,495.4,178.7,497.3,178.7,499.7z"/>
				<path d="M177.3,499.7c0,1.5-1.2,2.8-2.8,2.8c-1.5,0-2.8-1.2-2.8-2.8c0-1.5,1.2-2.8,2.8-2.8C176,496.9,177.3,498.2,177.3,499.7z"
					/>
				<circle class="st7" cx="172.6" cy="498.4" r="1.3"/>
			</g>
			<path class="st2" d="M178.6,496c-0.8-0.7-1.8-1.2-2.8-1.6c-1.1-0.4-2.3-0.5-3.4-0.4c-0.8,0.1-1.5,0.2-2.3,0.5
				c0.5-0.8,1.2-1.5,2.1-1.9c2-0.8,4.2,0.1,5.6,1.6c0.6,0.6,0.9,1.4,1.2,2.3C179,496.3,178.8,496.2,178.6,496z"/>
		</g>
	</g>
</g>
<g>
	<path class="st0" d="M71.9,29.1c1.2-1.2,2.1-2.7,2.8-4.3c0.8-1.7,1.3-3.6,1.3-5.5c0-1.1-0.1-2.4-0.6-3.4c0.1,0,0.1-0.1,0.1-0.2
		c0-0.6-0.2-1.1-0.4-1.5c0.1,0.1,0.2,0.1,0.3,0.2c0.1,0,0.2,0,0.2-0.1c0.3-0.5-0.4-1.2-0.7-1.5c-0.4-0.4-0.8-0.7-1.2-1
		c0.1,0,0.3,0.1,0.4,0.1c0.1,0,0.3-0.1,0.2-0.2c-3-2.8-7.7-2.8-11.4-1.5c-3.8,1.3-7,4.2-8.5,8c-0.2,0.5-0.4,1.1-0.6,1.7
		c-0.8-0.3-1.5-0.5-2.3-0.7c-1.2-0.3-2.5-0.8-3.8-0.6c0,0,0,0,0,0c0.3-0.1,0.6-0.2,1-0.3c0.1,0,0.3-0.2,0.1-0.3
		c-1-0.4-2.1-0.3-3.1-0.3c-0.5,0-1.1,0-1.6,0.1c-0.4,0.1-0.7,0.2-1.1,0.3c0.4-0.4,0.8-0.8,1.3-0.9c0.2,0,0.3-0.3,0.1-0.4
		c-0.7-0.1-1.5,0.2-2.1,0.5c-0.1,0-0.1,0.1-0.2,0.1c0,0,0-0.1,0-0.1c0-0.2,0.1-0.5,0.2-0.7c0.1-0.2,0.2-0.4,0.2-0.6
		c0-0.1-0.1-0.1-0.2-0.1c-0.6,0.3-1,0.7-1.4,1.2c-0.1,0.2-0.2,0.4-0.3,0.6c-0.2-0.2-0.5-0.3-0.7-0.4c-0.6-0.3-1.4-0.6-2.1-0.5
		c-0.3,0-0.1,0.3,0.1,0.4c0.5,0.2,0.9,0.6,1.3,0.9c-0.4-0.1-0.7-0.2-1.1-0.3c-0.5-0.1-1.1-0.1-1.6-0.1c-1,0-2.1-0.1-3.1,0.3
		c-0.2,0.1,0,0.3,0.1,0.3c0.3,0.1,0.6,0.2,1,0.3c0,0,0,0,0,0c-1.3-0.2-2.6,0.3-3.8,0.6c-0.8,0.2-1.6,0.5-2.3,0.7
		c-0.1-0.5-0.3-0.9-0.5-1.4c-1.5-3.7-4.7-6.6-8.5-8C15.5,9.2,10.8,9.1,7.8,12c-0.1,0.1,0.1,0.3,0.2,0.2c0.1,0,0.3-0.1,0.4-0.1
		c-0.4,0.3-0.8,0.7-1.2,1c-0.3,0.3-1,1-0.7,1.5c0,0.1,0.1,0.1,0.2,0.1c0.1,0,0.2-0.1,0.3-0.2c-0.3,0.4-0.5,0.9-0.4,1.5
		c0,0.1,0.1,0.1,0.1,0.2c-0.5,1-0.6,2.3-0.6,3.4c0,1.9,0.5,3.7,1.3,5.5c0.7,1.6,1.6,3,2.8,4.3c1.2,1.2,2.6,2.3,4.2,2.9
		c0.1,0.1,0.3,0.1,0.4,0.2c-0.2,0.6-0.5,1.2-0.7,1.9c-0.3,1.2-0.6,2.4-0.8,3.6c-0.1,1.2-0.2,2.3-0.2,3.5c-1.2,0.1-2.3,0.4-3.2,1.2
		c-1,0.9-1.5,2.1-1.8,3.4c0,0.1,0.2,0.2,0.2,0.1c0.1-0.1,0.2-0.3,0.4-0.4c-0.1,0.2-0.3,0.4-0.4,0.5c-0.3,0.5-0.6,1.2-0.6,1.8
		c0,0.1,0.2,0.3,0.3,0.2c0,0,0.1-0.1,0.1-0.1c-0.7,1.5-0.6,3.3-0.2,4.9c0.5,2.3,1.5,4.4,2.9,6.2c1.5,2,3.4,3.7,5.5,5
		c1.1,0.7,2.2,1.3,3.3,1.8c1.3,0.6,2.6,1,4,1.4c0.8,0.2,1.6,0.4,2.4,0.7c0.8,0.2,1.6,0.4,2.3,0.6c1.4,0.3,2.8,0.4,4.2,0.7
		c0.1,0.1,0.3,0.1,0.4,0.2c0.7,0.3,1.4,0.5,2,0.6c0.1,0,0.2,0,0.3,0c1.3,1.3,3.3,2,5.1,2.2c2.7,0.3,5.7-0.4,7.8-2.2
		c0.2-0.2,0.4-0.3,0.5-0.5c0.3-0.1,0.7-0.2,1-0.4c1.3-0.3,2.6-0.4,3.9-0.6c0.8-0.1,1.6-0.4,2.3-0.6c0.8-0.2,1.6-0.4,2.4-0.7
		c1.3-0.4,2.7-0.8,4-1.4c1.2-0.5,2.3-1.1,3.3-1.8c2.1-1.3,4-3,5.5-5c1.4-1.8,2.4-4,2.9-6.2c0.3-1.6,0.4-3.4-0.2-4.9
		c0,0,0.1,0.1,0.1,0.1c0.1,0.1,0.3-0.1,0.3-0.2c-0.1-0.6-0.3-1.2-0.6-1.8c-0.1-0.2-0.2-0.4-0.4-0.5c0.1,0.1,0.3,0.2,0.4,0.4
		c0.1,0.1,0.3,0,0.2-0.1c-0.3-1.3-0.8-2.5-1.8-3.4c-0.9-0.8-2-1.1-3.2-1.2c0-1.2-0.1-2.4-0.2-3.5c-0.2-1.2-0.4-2.4-0.8-3.6
		c-0.2-0.7-0.5-1.5-0.8-2.2c0.2-0.1,0.3-0.1,0.5-0.2C69.3,31.4,70.7,30.3,71.9,29.1z"/>
	<g>
		<g>
			<g>
				<path class="st1" d="M73.3,14c0.1,0,0.1-0.1,0.1-0.2c0-0.6-0.2-1.1-0.4-1.5c0.1,0.1,0.2,0.1,0.3,0.2c0.1,0,0.2,0,0.2-0.1
					c0.3-0.5-0.4-1.2-0.7-1.5c-0.4-0.4-0.8-0.7-1.2-1c0.1,0,0.3,0.1,0.4,0.1c0.1,0,0.3-0.1,0.2-0.2c-3-2.8-7.7-2.8-11.4-1.5
					c-3.8,1.3-7,4.2-8.5,8c-0.8,1.9-1.2,4.1-1,6.2c0,0.8-0.1,1.6,0.5,2.1c0.1,0.1,0.3,0,0.3-0.1c0-0.4,0.1-0.7,0.2-1.1
					c0.1,0.6,0.2,1.2,0.4,1.7c0.3,0.7,0.6,1.4,1.2,1.9c0.1,0.1,0.2-0.1,0.3-0.1c0.1-0.5,0-1-0.1-1.4c1.1,2.8,2.7,5.6,5.5,7
					c0.8,0.4,1.6,0.7,2.5,0.8c0.1,0,0.2-0.1,0.2-0.2c-0.1-0.6-0.6-1.2-0.4-1.8c0.3,0,0.7,0,1-0.1c0.9-0.2,1.9-0.5,2.7-0.9
					c1.6-0.7,3-1.7,4.2-2.9c1.2-1.2,2.1-2.7,2.8-4.3c0.8-1.7,1.3-3.6,1.3-5.5C73.9,16.3,73.8,15,73.3,14z"/>
				<path class="st2" d="M72.5,22.3c-0.6,1.6-1.4,3-2.6,4.3c-1.1,1.2-2.4,2.3-3.9,3c-0.9,0.5-1.9,0.8-2.9,1.1
					c-0.9,0.2-1.8,0.2-2.7,0.3c-0.1,0.1-0.2,0.2-0.3,0.3c0.4-0.1,0.9-0.1,1.3-0.1c-0.2,0.6,0.1,1.1,0.3,1.7
					c-3.1-0.5-5.2-3.1-6.7-5.7c-0.4-0.7-0.8-1.5-1.1-2.3c0-0.1-0.2,0-0.3,0.1c-0.2,0.6,0,1.1,0,1.7c-0.5-0.5-0.7-1.1-1-1.7
					c-0.2-0.7-0.4-1.4-0.4-2.2c0-0.2-0.2-0.1-0.3,0c-0.2,0.4-0.3,0.9-0.4,1.3c-0.2-0.5-0.2-1-0.3-1.5c0-1.9,0.2-3.7,0.8-5.5
					c0.7-1.9,1.7-3.6,3.1-5.1c2.7-2.7,6.5-4.3,10.3-4.2c2,0,4.2,0.6,5.8,1.9c-0.1,0-0.2,0-0.3,0c-0.1,0-0.2,0.2-0.1,0.2
					c0.5,0.3,0.9,0.7,1.3,1.1c0.2,0.2,0.5,0.5,0.6,0.7c0.1,0.1,0.2,0.3,0.2,0.5c-0.4-0.2-0.7-0.5-1-0.8c-0.1-0.1-0.3,0.1-0.2,0.2
					c0.5,0.6,0.9,1.1,1.1,1.9c-0.2-0.2-0.3-0.3-0.5-0.5c0.1,0.4,0.3,0.8,0.4,1.2c0.4,0.9,0.5,2,0.5,3C73.5,18.9,73.1,20.6,72.5,22.3
					z"/>
				<path class="st2" d="M52.6,16.6c0.9-1.9,2.3-3.6,4.1-4.8c0.9-0.6,1.8-1.1,2.8-1.6c1.1-0.5,2.3-1,3.5-1.2
					c1.2-0.3,2.5-0.3,3.7-0.2c1,0.1,1.9,0.3,2.9,0.5c0.5,0.1,1,0.3,1.4,0.4c0,0,0.1-0.1,0.1-0.1c0.1,0,0.2,0,0.3,0
					c-1.6-1.3-3.7-1.8-5.8-1.9c-3.8-0.1-7.6,1.5-10.3,4.2c-1.4,1.4-2.5,3.2-3.1,5.1c-0.4,1.1-0.6,2.3-0.7,3.4
					C51.8,19.1,52.1,17.8,52.6,16.6z"/>
				<path class="st1" d="M69.6,11.4c-0.2-0.5-0.8-0.8-1.3-0.9c-0.6-0.2-1.2-0.3-1.9-0.3c-1.7,0-3.1,1-4.2,2.1
					c-2.5,2.5-3.8,5.9-4.3,9.4c-0.1,0.7-0.2,1.3-0.2,2c0,0.1,0,0.1,0,0.2c0,0.5,0.1,1,0.1,1.5c0-0.5,0-1,0.1-1.5c0,0.1,0,0.3,0,0.4
					c0.1,0.5,0.2,1.1,0.4,1.6c0.2,0.4,0.3,0.8,0.6,1.2c0.2,0.3,0.5,0.6,0.8,0.9c0,0,0,0,0,0c-0.1-0.2-0.2-0.4-0.2-0.7
					c-0.3-0.5-0.6-1-0.8-1.5c-0.2-0.5-0.3-1-0.4-1.4c-0.1-0.2-0.1-0.5-0.1-0.7c0-0.2-0.1-0.5-0.1-0.7c0.2-1.7,0.6-3.4,1.3-5.1
					c0.6-1.6,1.4-3,2.5-4.3c1-1.2,2.3-2.4,3.9-2.7c0.7-0.1,1.3-0.1,2,0.1c0.3,0.1,0.7,0.2,1,0.3c0.3,0.1,0.6,0.3,0.8,0.5
					C69.5,11.5,69.6,11.4,69.6,11.4z"/>
				<path class="st2" d="M70.9,24.1c-0.4,0.4-0.9,0.7-1.4,1c-0.5,0.3-1.1,0.6-1.7,0.9c-0.5,0.2-1.1,0.4-1.7,0.4
					c-0.2,0-0.5-0.1-0.6-0.2c-0.2-0.2-0.3-0.4-0.4-0.6c-0.1-0.4,0-0.7,0.3-1c0.1-0.1,0.3-0.2,0.5-0.3c0.2-0.1,0.4-0.2,0.6-0.4
					c0.4-0.3,0.8-0.6,1.1-0.9c0.4-0.4,0.6-0.8,0.9-1.2c1-1.6,1.8-3.8,0.7-5.6c-0.1-0.1,0.1-0.2,0.1-0.1c0.4,0.6,0.6,1.2,1,1.7
					c0-0.9-0.1-1.9-0.5-2.7c0-0.1,0.1-0.1,0.1-0.1c0.3,0.4,0.6,0.8,0.9,1.2c0-0.1,0-0.2,0-0.2c-0.1-1.3-0.4-2.6-1.1-3.7
					c-0.6-1-1.5-1.9-2.7-2.1c-0.7-0.2-1.4-0.1-2.1,0c-0.8,0.2-1.6,0.5-2.4,0.9C61,12,59.8,13.4,59,15c-0.2,0.4-0.4,0.9-0.6,1.3
					c-0.2,0.4-0.4,0.9-0.5,1.3c-0.2,0.9-0.2,1.8-0.6,2.6c0,0.1-0.1,0-0.1,0c-0.2-0.2-0.4-0.5-0.6-0.7c-0.3-0.6-0.5-1.2-0.6-1.8
					c-0.1-0.2-0.1-0.5-0.1-0.7c-0.1,0.6-0.1,1.3-0.3,1.9c0,0.1-0.1,0.1-0.2,0c-0.2-0.3-0.3-0.5-0.4-0.8c-0.3-1-0.2-2-0.1-3
					c-0.5,1.1-0.6,2.2-0.8,3.4c0,0.1-0.1,0.1-0.2,0c-0.2-0.6-0.3-1.2-0.4-1.9c0-1.1,0.2-2.2,0.6-3.2c-0.8,1.1-1.5,2.4-2,3.7
					c-0.6,1.8-0.8,3.6-0.8,5.5c0,0.5,0,1.1,0.3,1.5c0.1-0.5,0.2-0.9,0.4-1.3c0.1-0.1,0.3-0.2,0.3,0c0,0.7,0.2,1.5,0.4,2.2
					c0.2,0.6,0.5,1.2,1,1.7c0-0.6-0.2-1.1,0-1.7c0-0.1,0.2-0.2,0.3-0.1c0.3,0.8,0.7,1.6,1.1,2.3c1.4,2.6,3.6,5.3,6.7,5.7
					c-0.2-0.6-0.5-1.1-0.3-1.7c-0.4,0-0.9,0-1.3,0.1c0.1-0.1,0.2-0.2,0.3-0.3c0.9-0.1,1.8-0.1,2.7-0.3c1-0.3,2-0.6,2.9-1.1
					c1.5-0.7,2.8-1.7,3.9-3c1.1-1.2,1.8-2.6,2.4-4C71.9,23.1,71.5,23.6,70.9,24.1z"/>
				<path class="st2" d="M66.8,27c-1.7-0.7-3-2-4.1-3.4c-0.6-0.8-1.1-1.6-1.5-2.6C60.8,20,60.7,19,60.7,18c0.1-1,0.4-1.9,0.8-2.8
					c0.3-0.7,0.6-1.3,1-2c0.4-0.6,0.9-1.2,1.4-1.8c-0.2,0.1-0.4,0.2-0.6,0.4c-0.7,0.4-1.4,0.9-1.9,1.5c-0.6,0.7-1.2,1.4-1.6,2.3
					c-0.9,1.8-1.4,3.7-2.2,5.5c0,0.1-0.1,0-0.1,0c-0.5-0.8-1.2-1.4-2-1.8c-0.4-0.2-0.8-0.4-1.3-0.5c-0.5-0.1-1-0.3-1.6-0.3
					c-0.2,0-0.4-0.1-0.6-0.1c-0.3,1.3-0.4,2.7-0.4,4c0,0.5,0,1.1,0.3,1.5c0.1-0.5,0.2-0.9,0.4-1.3c0.1-0.1,0.3-0.2,0.3,0
					c0,0.7,0.2,1.5,0.4,2.2c0.2,0.6,0.5,1.2,1,1.7c0-0.6-0.2-1.1,0-1.7c0-0.1,0.2-0.2,0.3-0.1c0.3,0.8,0.7,1.6,1.1,2.3
					c1.4,2.6,3.6,5.3,6.7,5.7c-0.2-0.6-0.5-1.1-0.3-1.7c-0.4,0-0.9,0-1.3,0.1c0.1-0.1,0.2-0.2,0.3-0.3c0.9-0.1,1.8-0.1,2.7-0.3
					c1-0.3,2-0.6,2.9-1.1c1.1-0.5,2-1.2,2.9-2C68.2,27.5,67.4,27.3,66.8,27z"/>
			</g>
			<g>
				<path class="st1" d="M4,17.8c0,1.9,0.5,3.7,1.3,5.5c0.7,1.6,1.6,3,2.8,4.3c1.2,1.2,2.6,2.3,4.2,2.9c0.9,0.4,1.8,0.7,2.7,0.9
					c0.3,0.1,0.7,0.1,1,0.1c0.2,0.6-0.3,1.2-0.4,1.8c0,0.1,0.1,0.3,0.2,0.2c0.9-0.1,1.7-0.4,2.5-0.8c2.7-1.5,4.3-4.3,5.5-7
					c0,0.5-0.2,1-0.1,1.4c0,0.1,0.2,0.2,0.3,0.1c0.6-0.5,1-1.2,1.2-1.9c0.2-0.6,0.3-1.1,0.4-1.7c0.1,0.4,0.1,0.7,0.2,1.1
					c0,0.1,0.2,0.2,0.3,0.1c0.5-0.6,0.5-1.4,0.5-2.1c0.2-2.1-0.2-4.2-1-6.2c-1.5-3.7-4.7-6.6-8.5-8C13.4,7.3,8.7,7.2,5.7,10
					c-0.1,0.1,0.1,0.3,0.2,0.2c0.1,0,0.3-0.1,0.4-0.1c-0.4,0.3-0.8,0.7-1.2,1c-0.3,0.3-1,1-0.7,1.5c0,0.1,0.1,0.1,0.2,0.1
					c0.1,0,0.2-0.1,0.3-0.2c-0.3,0.4-0.5,0.9-0.4,1.5c0,0.1,0.1,0.1,0.1,0.2C4.1,15.4,4,16.6,4,17.8z"/>
				<path class="st2" d="M4.4,17.5c0-1,0.1-2.1,0.5-3c0.1-0.4,0.2-0.8,0.4-1.2c-0.2,0.2-0.3,0.3-0.5,0.5c0.1-0.7,0.6-1.3,1.1-1.9
					c0.1-0.1-0.1-0.3-0.2-0.2c-0.3,0.3-0.7,0.6-1,0.8c0-0.2,0.1-0.3,0.2-0.5c0.2-0.3,0.4-0.5,0.6-0.7c0.4-0.4,0.9-0.8,1.3-1.1
					c0.1-0.1,0-0.2-0.1-0.2c-0.1,0-0.2,0-0.3,0C8,8.6,10.1,8.1,12.1,8c3.8-0.1,7.6,1.5,10.3,4.2c1.4,1.4,2.5,3.2,3.1,5.1
					c0.6,1.8,0.8,3.6,0.8,5.5c0,0.5,0,1.1-0.3,1.5c-0.1-0.5-0.2-0.9-0.4-1.3c-0.1-0.1-0.3-0.2-0.3,0c0,0.7-0.2,1.5-0.4,2.2
					c-0.2,0.6-0.5,1.2-1,1.7c0-0.6,0.2-1.1,0-1.7c0-0.1-0.2-0.2-0.3-0.1c-0.3,0.8-0.7,1.6-1.1,2.3c-1.4,2.6-3.6,5.3-6.7,5.7
					c0.2-0.6,0.5-1.1,0.3-1.7c0.4,0,0.9,0,1.3,0.1c-0.1-0.1-0.2-0.2-0.3-0.3c-0.9-0.1-1.8-0.1-2.7-0.3c-1-0.3-2-0.6-2.9-1.1
					c-1.5-0.7-2.8-1.7-3.9-3c-1.1-1.3-1.9-2.7-2.6-4.3C4.7,21,4.4,19.2,4.4,17.5z"/>
				<path class="st2" d="M25.2,16.9c-0.9-1.9-2.3-3.6-4.1-4.8c-0.9-0.6-1.8-1.1-2.8-1.6c-1.1-0.5-2.3-1-3.5-1.2
					c-1.2-0.3-2.5-0.3-3.7-0.2c-1,0.1-1.9,0.3-2.9,0.5c-0.5,0.1-1,0.3-1.4,0.4c0,0-0.1-0.1-0.1-0.1c-0.1,0-0.2,0-0.3,0
					C8,8.6,10.1,8.1,12.1,8c3.8-0.1,7.6,1.5,10.3,4.2c1.4,1.4,2.5,3.2,3.1,5.1c0.4,1.1,0.6,2.3,0.7,3.4
					C26.1,19.4,25.8,18.1,25.2,16.9z"/>
				<path class="st1" d="M8.2,11.7c0.2-0.5,0.8-0.8,1.3-0.9c0.6-0.2,1.2-0.3,1.9-0.3c1.7,0,3.1,1,4.2,2.1c2.5,2.5,3.8,5.9,4.3,9.4
					c0.1,0.7,0.2,1.3,0.2,2c0,0.1,0,0.1,0,0.2c0,0.5-0.1,1-0.1,1.5c0-0.5,0-1-0.1-1.5c0,0.1,0,0.3,0,0.4c-0.1,0.5-0.2,1.1-0.4,1.6
					c-0.2,0.4-0.3,0.8-0.6,1.2c-0.2,0.3-0.5,0.6-0.8,0.9c0,0,0,0,0,0c0.1-0.2,0.2-0.4,0.2-0.7c0.3-0.5,0.6-1,0.8-1.5
					c0.2-0.5,0.3-1,0.4-1.4c0.1-0.2,0.1-0.5,0.1-0.7c0-0.2,0.1-0.5,0.1-0.7c-0.2-1.7-0.6-3.4-1.3-5.1c-0.6-1.6-1.4-3-2.5-4.3
					c-1-1.2-2.3-2.4-3.9-2.7c-0.7-0.1-1.3-0.1-2,0.1c-0.3,0.1-0.7,0.2-1,0.3c-0.3,0.1-0.6,0.3-0.8,0.5C8.4,11.8,8.2,11.8,8.2,11.7z"
					/>
				<path class="st2" d="M6.9,24.4c0.4,0.4,0.9,0.7,1.4,1c0.5,0.3,1.1,0.6,1.7,0.9c0.5,0.2,1.1,0.4,1.7,0.4c0.2,0,0.5-0.1,0.6-0.2
					c0.2-0.2,0.3-0.4,0.4-0.6c0.1-0.4,0-0.7-0.3-1c-0.1-0.1-0.3-0.2-0.5-0.3c-0.2-0.1-0.4-0.2-0.6-0.4c-0.4-0.3-0.8-0.6-1.1-0.9
					c-0.4-0.4-0.6-0.8-0.9-1.2c-1-1.6-1.8-3.8-0.7-5.6c0.1-0.1-0.1-0.2-0.1-0.1c-0.4,0.6-0.6,1.2-1,1.7c0-0.9,0.1-1.9,0.5-2.7
					c0-0.1-0.1-0.1-0.1-0.1c-0.3,0.4-0.6,0.8-0.9,1.2c0-0.1,0-0.2,0-0.2c0.1-1.3,0.4-2.6,1.1-3.7c0.6-1,1.5-1.9,2.7-2.1
					c0.7-0.2,1.4-0.1,2.1,0c0.8,0.2,1.6,0.5,2.4,0.9c1.6,0.9,2.7,2.3,3.6,3.9c0.2,0.4,0.4,0.9,0.6,1.3c0.2,0.4,0.4,0.9,0.5,1.3
					c0.2,0.9,0.2,1.8,0.6,2.6c0,0.1,0.1,0,0.1,0c0.2-0.2,0.4-0.5,0.6-0.7c0.3-0.6,0.5-1.2,0.6-1.8c0.1-0.2,0.1-0.5,0.1-0.7
					c0.1,0.6,0.1,1.3,0.3,1.9c0,0.1,0.1,0.1,0.2,0c0.2-0.3,0.3-0.5,0.4-0.8c0.3-1,0.2-2,0.1-3c0.5,1.1,0.6,2.2,0.8,3.4
					c0,0.1,0.1,0.1,0.2,0c0.2-0.6,0.3-1.2,0.4-1.9c0-1.1-0.2-2.2-0.6-3.2c0.8,1.1,1.5,2.4,2,3.7c0.6,1.8,0.8,3.6,0.8,5.5
					c0,0.5,0,1.1-0.3,1.5c-0.1-0.5-0.2-0.9-0.4-1.3c-0.1-0.1-0.3-0.2-0.3,0c0,0.7-0.2,1.5-0.4,2.2c-0.2,0.6-0.5,1.2-1,1.7
					c0-0.6,0.2-1.1,0-1.7c0-0.1-0.2-0.2-0.3-0.1c-0.3,0.8-0.7,1.6-1.1,2.3c-1.4,2.6-3.6,5.3-6.7,5.7c0.2-0.6,0.5-1.1,0.3-1.7
					c0.4,0,0.9,0,1.3,0.1c-0.1-0.1-0.2-0.2-0.3-0.3c-0.9-0.1-1.8-0.1-2.7-0.3c-1-0.3-2-0.6-2.9-1.1c-1.5-0.7-2.8-1.7-3.9-3
					c-1.1-1.2-1.8-2.6-2.4-4C5.9,23.5,6.4,24,6.9,24.4z"/>
				<path class="st2" d="M11.1,27.3c1.7-0.7,3-2,4.1-3.4c0.6-0.8,1.1-1.6,1.5-2.6c0.3-0.9,0.5-1.9,0.4-2.9c-0.1-1-0.4-1.9-0.8-2.8
					c-0.3-0.7-0.6-1.3-1-2c-0.4-0.6-0.9-1.2-1.4-1.8c0.2,0.1,0.4,0.2,0.6,0.4c0.7,0.4,1.4,0.9,1.9,1.5c0.7,0.7,1.2,1.4,1.6,2.3
					c0.9,1.8,1.4,3.7,2.2,5.5c0,0.1,0.1,0,0.1,0c0.5-0.8,1.2-1.4,2-1.8c0.4-0.2,0.8-0.4,1.3-0.5c0.5-0.1,1-0.3,1.6-0.3
					c0.2,0,0.4-0.1,0.6-0.1c0.3,1.3,0.4,2.7,0.4,4c0,0.5,0,1.1-0.3,1.5c-0.1-0.5-0.2-0.9-0.4-1.3c-0.1-0.1-0.3-0.2-0.3,0
					c0,0.7-0.2,1.5-0.4,2.2c-0.2,0.6-0.5,1.2-1,1.7c0-0.6,0.2-1.1,0-1.7c0-0.1-0.2-0.2-0.3-0.1c-0.3,0.8-0.7,1.6-1.1,2.3
					c-1.4,2.6-3.6,5.3-6.7,5.7c0.2-0.6,0.5-1.1,0.3-1.7c0.4,0,0.9,0,1.3,0.1c-0.1-0.1-0.2-0.2-0.3-0.3c-0.9-0.1-1.8-0.1-2.7-0.3
					c-1-0.3-2-0.6-2.9-1.1c-1.1-0.5-2-1.2-2.9-2C9.7,27.8,10.4,27.6,11.1,27.3z"/>
			</g>
		</g>
		<path class="st3" d="M71.8,46.4c0,0,0.1,0.1,0.1,0.1c0.1,0.1,0.3-0.1,0.3-0.2c-0.1-0.6-0.3-1.2-0.6-1.8c-0.1-0.2-0.2-0.4-0.4-0.5
			c0.1,0.1,0.3,0.2,0.4,0.4c0.1,0.1,0.3,0,0.2-0.1c-0.3-1.3-0.8-2.5-1.8-3.4c-0.9-0.8-2-1.1-3.2-1.2c0-1.2-0.1-2.4-0.2-3.5
			c-0.2-1.2-0.4-2.4-0.8-3.6c-0.6-2.2-1.6-4.3-2.9-6.1c-1.2-1.8-2.6-3.3-4.2-4.7c-1.8-1.4-3.7-2.6-5.8-3.4c-1.2-0.4-2.3-0.8-3.5-1.1
			c-1.2-0.3-2.5-0.8-3.8-0.6c0,0,0,0,0,0c0.3-0.1,0.6-0.2,1-0.3c0.1,0,0.3-0.2,0.1-0.3c-1-0.4-2.1-0.3-3.1-0.3c-0.5,0-1.1,0-1.6,0.1
			c-0.4,0.1-0.7,0.2-1.1,0.3c0.4-0.4,0.8-0.8,1.3-0.9c0.2,0,0.3-0.3,0.1-0.4c-0.7-0.1-1.5,0.2-2.1,0.5c-0.1,0-0.1,0.1-0.2,0.1
			c0,0,0-0.1,0-0.1c0-0.2,0.1-0.5,0.2-0.7c0.1-0.2,0.2-0.4,0.2-0.6c0-0.1-0.1-0.1-0.2-0.1c-0.6,0.3-1,0.7-1.4,1.2
			c-0.1,0.2-0.2,0.4-0.3,0.6c-0.2-0.2-0.5-0.3-0.7-0.4c-0.6-0.3-1.4-0.6-2.1-0.5c-0.3,0-0.1,0.3,0.1,0.4c0.5,0.2,0.9,0.6,1.3,0.9
			c-0.4-0.1-0.7-0.2-1.1-0.3c-0.5-0.1-1.1-0.1-1.6-0.1c-1,0-2.1-0.1-3.1,0.3c-0.2,0.1,0,0.3,0.1,0.3c0.3,0.1,0.6,0.2,1,0.3
			c0,0,0,0,0,0c-1.3-0.2-2.6,0.3-3.8,0.6c-1.2,0.3-2.4,0.7-3.5,1.1c-2.1,0.8-4.1,2-5.8,3.4c-1.6,1.3-3.1,2.9-4.2,4.7
			c-1.3,1.9-2.2,4-2.9,6.1c-0.3,1.2-0.6,2.4-0.8,3.6c-0.1,1.2-0.2,2.3-0.2,3.5c-1.2,0.1-2.3,0.4-3.2,1.2c-1,0.9-1.5,2.1-1.8,3.4
			c0,0.1,0.2,0.2,0.2,0.1c0.1-0.1,0.2-0.3,0.4-0.4c-0.1,0.2-0.3,0.4-0.4,0.5c-0.3,0.5-0.6,1.2-0.6,1.8c0,0.1,0.2,0.3,0.3,0.2
			c0,0,0.1-0.1,0.1-0.1c-0.7,1.5-0.6,3.3-0.2,4.9c0.5,2.3,1.5,4.4,2.9,6.2c1.5,2,3.4,3.7,5.5,5c1.1,0.7,2.2,1.3,3.3,1.8
			c1.3,0.6,2.6,1,4,1.4c0.8,0.2,1.6,0.4,2.4,0.7c0.8,0.2,1.6,0.4,2.3,0.6c1.4,0.3,2.8,0.4,4.2,0.7c0.1,0.1,0.3,0.1,0.4,0.2
			c0.7,0.3,1.4,0.5,2,0.6c1.4,0.3,2.8,0.5,4.3,0.6c2.8,0.2,5.7,0,8.5-0.8c0.7-0.2,1.3-0.4,2-0.7c1.3-0.3,2.6-0.4,3.9-0.6
			c0.8-0.1,1.6-0.4,2.3-0.6c0.8-0.2,1.6-0.4,2.4-0.7c1.3-0.4,2.7-0.8,4-1.4c1.2-0.5,2.3-1.1,3.3-1.8c2.1-1.3,4-3,5.5-5
			c1.4-1.8,2.4-4,2.9-6.2C72.3,49.7,72.4,47.9,71.8,46.4z"/>
		<path class="st2" d="M71.8,50.7c-0.4,2.2-1.3,4.3-2.5,6.1c-1.4,2-3.2,3.7-5.2,5.1c-2.1,1.4-4.4,2.4-6.9,3.2
			c-1.5,0.5-3,0.9-4.5,1.3c-1.4,0.4-2.8,0.5-4.2,0.7c0.4-0.2,0.8-0.5,1.2-0.8c0.1-0.1,0-0.3-0.1-0.2c-0.7,0.5-1.5,0.9-2.3,1.3
			c-0.1,0-0.1,0-0.2,0c0,0-0.1,0-0.1,0.1c-1.5,0.6-3.2,0.9-4.8,1.1c-2.8,0.3-5.7,0.1-8.4-0.4c-0.8-0.1-1.6-0.3-2.3-0.6
			c-0.4-0.1-0.8-0.2-1.1-0.4c-0.3-0.2-0.5-0.4-0.8-0.5c0,0-0.1,0-0.1,0.1c0.2,0.2,0.4,0.4,0.6,0.6c-0.1,0-0.1,0-0.2,0
			c-1.5-0.3-3-0.4-4.5-0.8c-1.5-0.4-3-0.8-4.5-1.3c-2.4-0.8-4.8-1.8-6.9-3.2c-2-1.4-3.8-3.1-5.2-5.1c-1.2-1.8-2.2-3.9-2.5-6.1
			c-0.2-1.5-0.2-3.2,0.5-4.5c0.2-0.5,0.4-0.9,0.7-1.4C6.8,45.2,6.5,45.6,6,46c0.1-0.5,0.3-0.9,0.5-1.3c0.1-0.1,0.2-0.3,0.2-0.4
			c0.2-0.3,0.4-0.7,0.6-1c-0.3,0.2-0.6,0.3-0.9,0.5c0.2-0.5,0.4-0.9,0.7-1.4c0.5-0.8,1.1-1.5,1.9-1.9c0,0,0,0,0,0
			c0.6-0.3,1.2-0.5,1.8-0.6c0.5-0.1,0.9-0.2,1.4-0.2c-0.3-0.1-0.7-0.1-1-0.1c0,0,0,0,0,0c0.1-1.3,0.1-2.6,0.3-3.9
			c0.2-1.3,0.5-2.7,1-4c1.4-4.1,3.9-7.7,7.3-10.3c1.8-1.4,3.8-2.4,6-3.2c1.2-0.4,2.3-0.7,3.5-1c0.6-0.2,1.3-0.3,2-0.4
			c0.6-0.1,1.2,0.1,1.8,0.1c0.2,0,0.1-0.2,0-0.2c-0.5-0.2-0.9-0.4-1.4-0.6c0.8-0.2,1.7-0.2,2.5-0.1c0.5,0,1.1,0,1.6,0.1
			c0.6,0.1,1.1,0.3,1.6,0.5c0.1,0,0.1,0,0.2,0c0,0,0,0,0,0c-0.1-0.1-0.2-0.3-0.2-0.4c0,0,0,0,0,0c-0.3-0.3-0.6-0.7-1-0.9
			c0.4,0.1,0.8,0.2,1.2,0.4c0.1,0.1,0.2,0.1,0.3,0.2c0.2,0.1,0.4,0.2,0.6,0.3c0,0,0-0.1,0-0.1c0,0,0,0,0,0c0,0,0,0,0,0c0,0,0,0,0,0
			c0,0,0-0.1,0.1-0.1c0.1-0.1,0.2-0.3,0.3-0.4c0.3-0.4,0.6-0.7,1-0.9c0,0.1-0.1,0.2-0.1,0.4c-0.1,0.2-0.1,0.5-0.1,0.7
			c0,0,0,0.1,0,0.1c0,0.1,0,0.2,0,0.2c0.1-0.1,0.2-0.1,0.4-0.1c0,0,0.1-0.1,0.1-0.1c0.4-0.2,0.8-0.4,1.2-0.4
			c-0.3,0.2-0.6,0.5-0.8,0.8c-0.1,0.2-0.3,0.4-0.4,0.7c0,0,0.1,0,0.1,0c0.5-0.2,1-0.4,1.6-0.5C42.5,16,43,16,43.5,16
			c0.8,0,1.7-0.1,2.5,0.1c-0.5,0.2-0.9,0.4-1.4,0.6c-0.1,0-0.2,0.2,0,0.2c0.6,0,1.2-0.2,1.8-0.1c0.7,0.1,1.3,0.2,2,0.4
			c1.2,0.3,2.4,0.6,3.5,1c2.2,0.8,4.2,1.8,6,3.2c3.4,2.6,5.9,6.2,7.3,10.3c0.4,1.3,0.8,2.6,1,4c0.2,1.3,0.3,2.6,0.3,3.9c0,0,0,0,0,0
			c-0.3,0-0.7,0-1,0.1c0.5,0,1,0.1,1.4,0.2c0.6,0.1,1.3,0.3,1.8,0.6c0,0,0,0,0,0c0.8,0.4,1.4,1.1,1.9,1.9c0.3,0.4,0.5,0.9,0.7,1.4
			c-0.3-0.2-0.6-0.4-0.9-0.5c0.2,0.3,0.4,0.7,0.6,1c0.1,0.1,0.2,0.3,0.2,0.4c0.2,0.4,0.4,0.9,0.5,1.3c-0.4-0.4-0.7-0.8-1.2-1.2
			c0.2,0.5,0.4,0.9,0.7,1.4C72,47.6,72,49.3,71.8,50.7z"/>
		<path class="st2" d="M20.9,42.9c-0.2,0-0.4,0-0.6,0c1.2,0.2,2.5,0.4,3.7,0.7c1,0.3,2,0.6,2.9,1.1c-0.4-0.4-0.9-0.7-1.4-0.9
			C24,43.1,22.4,42.9,20.9,42.9z"/>
		<path class="st2" d="M20.6,33.6c0.3-1.1,0.7-2.3,1.5-3.2c-0.7,0.4-1.3,1-1.7,1.7c-0.2,0.4-0.3,0.8-0.3,1.3c0,0.4,0.1,0.9,0.2,1.3
			C20.4,34.3,20.5,34,20.6,33.6z"/>
		<path class="st2" d="M56.9,31.7c0-0.3,0-0.7-0.1-1c-0.4-1.3-1.8-1.7-3.1-1.9c0.2,0.1,0.4,0.1,0.6,0.2
			C55.5,29.6,56.3,30.6,56.9,31.7z"/>
		<path class="st2" d="M51.7,44.1c-0.5,0.3-1,0.6-1.5,1c0.4-0.1,0.9-0.2,1.3-0.4c1.2-0.3,2.3-0.6,3.5-0.9c0.9-0.3,1.9-0.7,2.7-1.3
			c-0.6,0-1.2,0.1-1.7,0.2C54.5,42.9,53,43.4,51.7,44.1z"/>
		<path class="st4" d="M71.3,46.2c-0.2-0.5-0.4-0.9-0.7-1.4c0.4,0.4,0.8,0.8,1.2,1.2c-0.1-0.5-0.3-0.9-0.5-1.3
			c-0.1-0.1-0.2-0.3-0.2-0.4c-0.2-0.3-0.4-0.7-0.6-1c0.3,0.2,0.6,0.3,0.9,0.5c-0.2-0.5-0.4-0.9-0.7-1.4c-0.5-0.8-1.1-1.5-1.9-1.9
			c0,0,0,0,0,0c-0.6-0.3-1.2-0.5-1.8-0.6c-0.5-0.1-0.9-0.2-1.4-0.2c0.3-0.1,0.7-0.1,1-0.1c0,0,0,0,0,0c-0.1-1.3-0.1-2.6-0.3-3.9
			c-0.2-1.3-0.5-2.7-1-4c-1.4-4.1-3.9-7.7-7.3-10.3c-1.8-1.4-3.8-2.4-6-3.2c-1.2-0.4-2.3-0.7-3.5-1c-0.6-0.2-1.3-0.3-2-0.4
			c-0.6-0.1-1.2,0.1-1.8,0.1c-0.2,0-0.1-0.2,0-0.2c0.5-0.2,0.9-0.4,1.4-0.6c-0.8-0.2-1.7-0.2-2.5-0.1c-0.5,0-1.1,0-1.6,0.1
			c-0.6,0.1-1.1,0.3-1.6,0.5c0,0-0.1,0-0.1,0c0.1-0.2,0.2-0.4,0.4-0.7c0.3-0.3,0.5-0.5,0.8-0.8c-0.4,0.1-0.8,0.2-1.2,0.4
			c0,0-0.1,0.1-0.1,0.1c-0.1,0-0.3,0.1-0.4,0.1c0-0.1,0-0.2,0-0.2c0,0,0-0.1,0-0.1c0-0.2,0.1-0.5,0.1-0.7c0-0.1,0.1-0.2,0.1-0.4
			c-0.4,0.2-0.7,0.6-1,0.9c-0.1,0.1-0.2,0.3-0.3,0.4c0,0,0,0.1-0.1,0.1c0,0,0,0,0,0c0,0,0,0,0,0c0,0,0,0,0,0c0,0,0,0.1,0,0.1
			c-0.2-0.1-0.4-0.2-0.6-0.3c-0.1-0.1-0.2-0.1-0.3-0.2c-0.4-0.2-0.8-0.4-1.2-0.4c0.4,0.3,0.7,0.6,1,0.9c0,0,0,0,0,0
			c0.1,0.1,0.2,0.3,0.2,0.4c0,0,0,0,0,0c0,0-0.1,0.1-0.2,0c-0.5-0.2-1-0.4-1.6-0.5C35.4,16,34.9,16,34.3,16c-0.8,0-1.7-0.1-2.5,0.1
			c0.5,0.2,0.9,0.4,1.4,0.6c0.1,0,0.2,0.2,0,0.2c-0.6,0-1.2-0.2-1.8-0.1c-0.7,0.1-1.3,0.2-2,0.4c-1.2,0.3-2.4,0.6-3.5,1
			c-2.2,0.8-4.2,1.8-6,3.2c-3.4,2.6-5.9,6.2-7.3,10.3c-0.4,1.3-0.8,2.6-1,4c-0.2,1.3-0.3,2.6-0.3,3.9c0,0,0,0,0,0c0.3,0,0.7,0,1,0.1
			c-0.5,0-1,0.1-1.4,0.2c-0.6,0.1-1.3,0.3-1.8,0.6c0,0,0,0,0,0c-0.8,0.4-1.4,1.1-1.9,1.9c-0.3,0.4-0.5,0.9-0.7,1.4
			c0.3-0.2,0.6-0.4,0.9-0.5c-0.2,0.3-0.4,0.7-0.6,1c-0.1,0.1-0.2,0.3-0.2,0.4C6.3,45.1,6.1,45.5,6,46c0.4-0.4,0.7-0.8,1.2-1.2
			c-0.2,0.5-0.4,0.9-0.7,1.4c-0.7,1.4-0.7,3.1-0.5,4.5c0.4,2.2,1.3,4.3,2.5,6.1c1.4,2,3.2,3.7,5.2,5.1c2.1,1.4,4.4,2.4,6.9,3.2
			c1.5,0.5,3,0.9,4.5,1.3c1.5,0.4,3,0.5,4.5,0.8c0.1,0,0.1,0,0.2,0c-0.2-0.2-0.4-0.4-0.6-0.6c0,0,0-0.1,0.1-0.1
			c0.3,0.1,0.6,0.3,0.8,0.5c0.3,0.2,0.7,0.3,1.1,0.4c0.8,0.2,1.5,0.4,2.3,0.6c2.8,0.5,5.6,0.7,8.4,0.4c1.6-0.2,3.3-0.5,4.8-1.1
			c0,0,0.1,0,0.1-0.1c0,0,0.1,0,0.2,0c0.8-0.3,1.6-0.7,2.3-1.3c0.2-0.1,0.3,0.1,0.1,0.2c-0.4,0.3-0.8,0.6-1.2,0.8
			c1.4-0.2,2.8-0.4,4.2-0.7c1.5-0.4,3-0.8,4.5-1.3c2.4-0.8,4.8-1.8,6.9-3.2c2-1.4,3.8-3.1,5.2-5.1c1.2-1.8,2.2-3.9,2.5-6.1
			C72,49.3,72,47.6,71.3,46.2z M68.4,47.4c0,0.1-0.1,0.1-0.1,0c-0.5-0.6-0.8-1.3-1.5-1.8c0,0.4,0.1,0.8,0.2,1.2
			c0.2,0.8,0.5,1.6,0.7,2.4c0.2,0.8,0.1,1.6-0.3,2.4c0,0.1-0.1,0-0.2,0c-0.1-0.4-0.1-0.8-0.2-1.2c-0.2-0.9-0.6-1.7-1-2.5
			c0.4,1,0.5,2.1,0.4,3.2c-0.2,1.5-0.8,2.8-1.6,4c-0.9,1.3-2,2.3-3.3,3.1c-1.5,1-3.1,1.8-4.8,2.3c-0.7,0.2-1.4,0.5-2.1,0.7
			c-0.7,0.2-1.4,0.4-2.1,0.2c0,0-0.1-0.1-0.1-0.1c0.1-0.4,0.2-0.7,0.3-1.1c0.3-1.4,0.3-2.7-0.1-4.1c-0.3-1.3-0.8-2.5-1.4-3.7
			c-0.6-1.2-1.2-2.5-1.7-3.8c-0.3-0.8-0.7-1.6-0.5-2.5c0.3-1.4,1.6-2.2,2.8-2.7c1.6-0.7,3.3-1,5-1.2c1.3-0.1,2.6-0.2,3.8-0.2
			c-0.6-0.4-1.2-0.6-1.9-0.7c-0.7-0.1-1.5-0.2-2.3-0.3c0,0-0.1-0.1-0.1-0.1c0.3-1.3,0.6-2.6,0.6-4c0-1.2-0.1-2.4-0.5-3.5
			c-0.3-0.9-0.8-1.8-1.5-2.5c-0.7-0.7-1.5-1.3-2.4-1.6c-1-0.3-2-0.3-2.9,0.1c-0.1,0-0.2,0-0.1-0.1c0.4-0.5,0.9-1,1.4-1.4
			c-0.4,0.1-0.8,0.2-1.2,0.4c-1.6,0.7-3.1,1.9-3.9,3.4c-0.7,1.5-0.9,3.3-1.4,4.8c0,0.1-0.1,0.1-0.2,0c-0.1-0.4-0.1-0.7-0.2-1.1
			c-0.1,0.5-0.1,1.1-0.3,1.7c0,0.1-0.1,0.1-0.2,0c-0.3-0.6-0.5-1.2-0.5-1.8c-0.1,0.4-0.2,0.8-0.5,1.1c-0.2,0.3-0.6,0.5-1,0.6
			c-0.3,0.1-0.5,0.1-0.8,0.1c-0.4,0-0.8,0.1-1.2,0.1c-1.6,0-3.2-0.5-4.6-1.2c-0.1,0.5-0.2,1-0.5,1.5c0,0.1-0.1,0-0.2,0
			c-0.1-0.4-0.1-0.8-0.1-1.2c-0.2,0.5-0.4,1.1-0.6,1.6c0,0.1-0.2,0-0.2,0c0-0.7,0-1.3-0.1-2c-0.1-1.2-0.5-2.4-0.9-3.6
			c-0.6-1.3-1.5-2.4-2.7-3.2c0.8,0.8,1.2,1.8,1.6,2.8c0,0.1-0.1,0.1-0.2,0.1c-0.9-1.3-2.2-2.3-3.8-2.6c-2.7-0.6-5.5,0.9-6.8,3.4
			c-1.3,2.4-1.3,5.6-0.2,8.1c0,0.1,0,0.1-0.1,0.1c-2,0-3.8,1.1-5.4,2.3c1.8-1.1,4.1-1.3,6.2-1.2c1,0.1,2,0.3,3,0.5
			c0.9,0.2,1.9,0.4,2.8,0.8c0.8,0.3,1.6,0.8,2.1,1.6c0.6,1,0.3,2.1-0.2,3.1c-1.3,2.6-3.1,4.9-3.8,7.8c-0.3,1.4-0.3,2.8,0.1,4.2
			c0.4,1.3,1,2.6,1.6,3.8c0,0.1,0,0.1-0.1,0.1c-1.7-0.2-3.3-0.5-4.9-0.9c-2.6-0.7-5.2-1.7-7.3-3.4c-1.7-1.3-2.8-3.1-3.7-5
			c0,0.6,0.1,1.1,0.1,1.7c0,0.1-0.1,0.1-0.1,0.1c-1-0.8-1.8-1.9-2.4-3c-1-1.9-1.5-4.3-0.9-6.4c0.5-1.8,1.9-2.9,3.3-4.1
			c-1.1,0.1-2.1,0.7-3,1.3c-0.1,0-0.2,0-0.1-0.1c0.5-0.7,1.2-1.3,2-1.7c-0.8,0-1.6,0.1-2.3,0.5c-0.1,0-0.2-0.1-0.1-0.1
			c0.5-0.5,1.1-0.9,1.6-1.3c1-0.8,2.1-1.5,3.3-1.8c1.1-0.3,2.1-0.2,3.1,0.2c-0.9-0.8-2-1.6-3.2-1.6c0,0-0.1,0-0.1-0.1
			c0-2.4,0.4-4.7,1.2-6.9c1.4-3.7,4.1-6.9,7.3-9.2c1.7-1.2,3.6-2.2,5.6-2.9c0.1-0.1,0.2-0.1,0.3-0.2c1.4-0.7,3-1,4.5-1.2
			c1.4-0.2,2.9-0.2,4.3-0.2c-0.3-0.6-1.1-0.9-1.7-1.1c-0.1,0-0.1-0.1,0-0.2c0.3-0.1,0.7-0.1,1,0c1.1,0.2,1.9,1.1,2.7,1.8
			c0-0.6,0-1.2,0-1.7c0-0.1,0.1-0.1,0.1-0.1c0.3,0.1,0.5,0.4,0.6,0.6c0.1,0.2,0.2,0.5,0.3,0.7c0.3-0.6,0.7-1.1,1.4-1.3
			c0.1,0,0.1,0,0.1,0.1c-0.1,0.4-0.3,0.8-0.4,1.3c1.1-0.7,2.2-1.3,3.5-1.5c0.1,0,0.1,0.1,0.1,0.2c-0.5,0.3-0.8,0.8-1.1,1.3
			c0,0,0,0,0,0c0.6-0.2,1.2-0.3,1.9-0.4c1.3-0.2,2.6-0.1,3.8,0.1c1.3,0.3,2.5,0.8,3.7,1.4C53,20,54,20.7,55,21.5
			c1,0.8,2,1.6,2.9,2.5c0.8,0.8,1.7,1.7,2.4,2.6c1.4,1.8,2.5,3.9,3.2,6.1c0.7,2.2,1,4.5,0.6,6.8c0,0,0,0.1-0.1,0.1
			c-0.6,0.1-1.2,0.1-1.8,0.2c-0.1,0-0.2,0.1-0.4,0.1c0.7,0,1.4,0,2.1,0.1c0.4,0.1,0.8,0.2,1.2,0.4c0.4,0.2,0.7,0.5,0.9,0.9
			c0,0.1,0,0.1-0.1,0.1c-1.1-0.3-2.2-0.4-3.3-0.2c0.6,0.1,1.2,0.2,1.7,0.3c1.2,0.3,2.4,1,3.1,2c0.4,0.5,0.7,1,0.8,1.6
			C68.5,46,68.5,46.7,68.4,47.4z"/>
		<path class="st4" d="M61.4,62.8c-1.7,0.8-3.4,1.5-5.2,2c-0.7,0.2-1.5,0.4-2.2,0.6c-0.7,0.1-1.5,0.2-2.1-0.1c0,0-0.1-0.1,0-0.1
			c0.4-0.6,0.9-1.1,1.3-1.7c-0.8,0.8-1.9,1.5-3,1.8c-0.1,0-0.1-0.1-0.1-0.1c0.3-0.3,0.5-0.6,0.8-1c1.9-3,1.1-6.9-0.1-10
			c-0.6-1.7-1.4-3.3-2.2-4.8c-0.8-1.5-1.7-3-3.1-4.1c-0.7-0.6-1.6-1-2.6-1c-1-0.1-2,0.2-2.9,0.5c-2,0.6-3.8,1.8-5.4,3.1
			c-1.6,1.3-2.9,2.9-4.1,4.5c-1.3,1.8-2.3,3.9-2.7,6.1c-0.4,2.3,0,4.6,1.2,6.5c0.5,0.8,1,1.6,1.6,2.3c0.3,0.1,0.6,0.2,0.8,0.3
			c0.8,0.2,1.5,0.4,2.3,0.6c2.8,0.5,5.6,0.7,8.4,0.4c1.6-0.2,3.3-0.5,4.8-1.1c0,0,0.1,0,0.1-0.1c0,0,0.1,0,0.2,0
			c0.8-0.3,1.6-0.7,2.3-1.3c0.2-0.1,0.3,0.1,0.1,0.2c-0.4,0.3-0.8,0.6-1.2,0.8c1.4-0.2,2.8-0.4,4.2-0.7c1.5-0.4,3-0.8,4.5-1.3
			c2.4-0.8,4.8-1.8,6.9-3.2c1.2-0.8,2.2-1.7,3.2-2.7C65.5,60.7,63.4,61.8,61.4,62.8z"/>
		<path class="st3" d="M51.3,57.4c-0.1-0.4-0.1-0.7-0.2-1.1c0-0.1,0-0.2-0.1-0.3c-0.2-1.1-0.7-2.1-1.1-3.1c-0.6-1.2-1.2-2.4-1.6-3.6
			c-0.5-1.4-0.8-2.8-1.2-4.2c-0.6-1.9-1.3-4.3-3.4-4.8c0.5,0,1,0.1,1.5,0c0.1,0,0.1-0.1,0-0.1c-0.9-0.9-2.2-1.1-3.4-0.7
			c0.3-0.3,0.6-0.6,0.9-0.9c0.1-0.1-0.1-0.2-0.2-0.2c-0.8,0.2-1.6,0.4-2,1.1c-0.1-0.3,0.1-0.7,0.2-1c0-0.1-0.1-0.1-0.2-0.1
			c-0.2,0.2-0.5,0.3-0.7,0.5c-0.1,0.1-0.3,0.3-0.4,0.4c0-0.4,0.1-0.8,0.2-1.1c0-0.1,0-0.1-0.1-0.1c-0.7,0.1-1,0.8-1.3,1.3
			c-0.1-0.1-0.1-0.3-0.2-0.4c-0.1-0.1-0.2-0.2-0.3-0.3c-0.2-0.2-0.5-0.4-0.8-0.3c0,0-0.1,0.1-0.1,0.1c0,0.2,0.1,0.4,0.2,0.6
			c0,0.1,0.1,0.2,0.1,0.3c-0.4-0.6-1.2-0.8-1.9-1c-0.1,0-0.3,0.1-0.2,0.2c0.3,0.3,0.7,0.5,0.9,0.9c-1.2-0.4-2.5-0.2-3.4,0.7
			c0,0,0,0.1,0,0.1c0.5,0.1,1,0,1.5,0c-2.1,0.5-2.9,2.9-3.4,4.8c-0.4,1.4-0.8,2.8-1.2,4.2c-0.4,1.3-1,2.4-1.6,3.6
			c-0.5,1-0.9,2-1.1,3.1c0,0.1,0,0.2-0.1,0.3c-0.1,0.4-0.1,0.7-0.2,1.1c-0.1,0.8-0.1,1.7,0,2.5c0.1,1.6,0.5,3,1.4,4.3
			c1.6,2.2,4.2,3.7,6.9,4.1c0.9,0.1,1.9,0.2,2.8,0.1c0.4,0,2.2,0,2.6,0c0.9,0.1,1.9,0,2.8-0.1c2.7-0.4,5.3-1.9,6.9-4.1
			c0.9-1.3,1.3-2.8,1.4-4.3C51.4,59.1,51.4,58.2,51.3,57.4z"/>
		<path class="st5" d="M50.9,60.6c-0.2,1.5-0.7,2.8-1.6,4c-0.8,1-1.9,1.9-3.1,2.5c-1.2,0.6-2.6,1-4,1.1c-0.7,0.1-1.5,0.1-2.2,0
			c-0.6,0.1-1.3,0.1-1.9,0c-0.2,0-0.4,0-0.6,0c-0.6,0-1.2,0-1.8,0c-1.4-0.1-2.8-0.5-4-1.1c-1.2-0.6-2.3-1.4-3.1-2.5
			c-0.9-1.2-1.4-2.5-1.6-4c-0.1-0.9-0.1-1.8-0.1-2.8c0-0.3,0-0.6,0.1-0.8c0,0,0,0,0-0.1c0.3-2.5,1.7-4.6,2.6-6.9
			c0.5-1.3,0.9-2.6,1.3-3.9c0.4-1.2,0.7-2.5,1.3-3.6c0.5-1,1.4-1.9,2.6-2.1c0.1,0,0.1-0.1,0.1-0.1c-0.6-0.1-1.2,0-1.8-0.1
			c1-0.7,2.3-0.8,3.4-0.3c0.1,0,0.3,0,0.2-0.2c-0.2-0.4-0.5-0.7-0.8-0.9c0.6,0.2,1.2,0.4,1.5,1c0,0.1,0.2,0,0.1-0.1c0,0,0,0,0-0.1
			c0.1-0.4-0.1-0.8-0.2-1.1c0.2,0,0.5,0.3,0.6,0.4c0.2,0.2,0.3,0.5,0.4,0.8c0,0.1,0.2,0,0.2,0c0.1-0.3,0.3-0.5,0.4-0.8
			c0.1-0.2,0.3-0.5,0.6-0.6c-0.2,0.4-0.3,0.8-0.2,1.3c0,0.1,0.1,0.1,0.2,0c0.2-0.2,0.4-0.4,0.6-0.5c0.1-0.1,0.3-0.2,0.4-0.3
			c-0.1,0.3-0.2,0.7-0.1,1c0,0.1,0.1,0.1,0.2,0c0,0,0.1,0,0.1,0c0.3-0.6,0.9-0.8,1.5-1c-0.3,0.3-0.6,0.5-0.8,0.9
			c-0.1,0.1,0.2,0.2,0.2,0.2c1.1-0.5,2.4-0.4,3.4,0.3c-0.6,0.1-1.2-0.1-1.8,0.1c-0.1,0,0,0.1,0.1,0.1c1.2,0.1,2.1,1,2.6,2.1
			c0.6,1.1,0.9,2.4,1.3,3.6c0.4,1.3,0.8,2.6,1.3,3.9c0.9,2.3,2.3,4.4,2.6,6.9c0,0,0,0,0,0.1c0,0.3,0.1,0.6,0.1,0.8
			C51,58.7,51,59.7,50.9,60.6z"/>
		<path class="st5" d="M32.4,62.5c0.2,0.1,0.3,0.2,0.5,0.2c1.5,0.6,3.2,0.3,4.7-0.1c-0.4,0-0.8,0-1.2,0C35,62.5,33.7,62.6,32.4,62.5
			z"/>
		<path class="st5" d="M27.4,57.7c0.3-1.5,1-2.9,1.7-4.2c0.7-1.4,1.5-2.7,1.9-4.2c0.6-1.9,0.7-3.8,1.4-5.7c0.3-0.9,0.7-1.7,1.4-2.4
			c0.4-0.4,0.9-0.7,1.4-0.9c-0.1,0-0.2,0-0.3,0.1c0,0,0,0.1-0.1,0.1c-1.2,0.1-2.1,1-2.6,2.1c-0.6,1.1-0.9,2.4-1.3,3.6
			c-0.4,1.3-0.8,2.6-1.3,3.9c-0.9,2.3-2.3,4.4-2.6,6.9c0,0,0,0,0,0.1c0,0.3-0.1,0.6-0.1,0.8c0,0.9,0,1.9,0.1,2.8
			c0.1,0.9,0.3,1.7,0.7,2.5C27.1,61.4,27,59.5,27.4,57.7z"/>
		<path class="st5" d="M51,57.8c0-0.3,0-0.6-0.1-0.8c0,0,0,0,0-0.1c-0.3-2.5-1.7-4.6-2.6-6.9c-0.5-1.3-0.9-2.6-1.3-3.9
			c-0.4-1.2-0.7-2.5-1.3-3.6c-0.5-1-1.4-1.9-2.6-2.1c-0.1,0-0.1-0.1-0.1-0.1c0.6-0.1,1.2,0,1.8-0.1c-1-0.7-2.3-0.8-3.4-0.3
			c-0.1,0-0.2,0-0.2-0.1c-0.2,0.1-0.4,0.3-0.5,0.4c0.6,0,1.2,0.1,1.8,0.2c0.6,0.2,1.2,0.5,1.7,1c0.1,0.1,0,0.2-0.1,0.1
			c-0.6-0.2-1.2-0.3-1.9-0.3c0.5,0.2,1,0.5,1.4,0.9c1,0.9,1.7,2.2,2.1,3.4c0.4,1.3,0.7,2.7,0.7,4c0,0.1-0.1,0.1-0.1,0.1
			c-0.3-0.1-0.6-0.3-0.9-0.4c-1.2-0.4-2.4-0.6-3.7-0.6c-1.3,0-2.5,0.1-3.8,0.4c-1.4,0.3-2.7,0.6-4,1.1c-1,0.4-2.2,0.7-3,1.5
			c-0.4,0.4-0.6,0.8-0.7,1.3c-0.1,0.5-0.1,1.1-0.1,1.6c0.1,1.1,0.6,2.2,1.2,3.1c0.6,0.9,1.4,1.7,2.4,2.2c1.1,0.6,2.4,0.9,3.6,1
			c0.6,0.1,1.3,0.1,1.9,0.1c0.6,0,1.3,0,2-0.1c1.3-0.2,2.5-0.7,3.8-0.8c0.1,0,0.1,0.1,0.1,0.1c-0.2,0.8-0.9,1.4-1.6,1.7
			c-0.8,0.4-1.7,0.7-2.5,0.9c-0.8,0.2-1.6,0.3-2.4,0.5c-2.7,0.4-5.5,0.5-8.2,0c-0.1,0-0.1-0.1,0-0.2c0.3-0.2,0.7-0.3,1-0.4
			c-0.3,0-0.5,0-0.7,0.1c-0.4,0.1-0.9,0.2-1.1,0.6c-0.2,0.4,0.3,0.8,0.6,1c0.4,0.2,0.8,0.5,1.1,0.8c0.6,0.8,1,1.7,1.6,2.5
			c0.8,0.3,1.7,0.5,2.6,0.6c0.6,0,1.2,0.1,1.8,0c0.2,0,0.4,0,0.6,0c0.6,0,1.3,0,1.9,0c0.7,0.1,1.5,0,2.2,0c1.4-0.1,2.8-0.5,4-1.1
			c1.2-0.6,2.3-1.4,3.1-2.5c0.9-1.2,1.4-2.5,1.6-4C51,59.7,51,58.7,51,57.8z"/>
		<path class="st3" d="M39.1,57.4C39.1,57.3,39,57.3,39.1,57.4c-0.1,1.6,0,3.3,0,4.9c0,0.1,0.2,0.1,0.2,0C39.4,60.6,39,59,39.1,57.4
			z"/>
		<path class="st3" d="M48.3,63.4c0-0.5,0-0.9,0-1.4c-0.3,1.1-0.8,2.1-1.4,3c-0.4,0.6-0.9,1.2-1.5,1.6c-0.6,0.5-1.2,0.8-1.9,1.1
			c-0.7,0.3-1.5,0.5-2.3,0.7c-0.8,0.2-1.6,0.3-2.4,0.4c-1.6,0.1-3.3,0-4.7-0.8c-0.8-0.4-1.5-1.1-2-1.8c0.1,0.2,0.2,0.4,0.3,0.6
			c0.9,2.4,3.7,3.5,6.1,3.8c2.7,0.3,5.7-0.4,7.8-2.2c0.9-0.8,1.7-1.9,2-3.1c0,0.1-0.1,0.2-0.2,0.3c0-0.1,0-0.1,0-0.1
			C48.2,64.8,48.3,64.1,48.3,63.4z"/>
		<path class="st5" d="M47.8,65.2c-0.1,0.4-0.2,0.8-0.3,1.1c-0.2,0.3-0.5,0.6-0.7,1c0,0,0,0-0.1,0c-0.2,0.2-0.4,0.4-0.6,0.6
			c-1,0.9-2.2,1.6-3.5,2c-2.5,0.8-5.3,0.6-7.6-0.6c-0.9-0.4-1.7-1.1-2.3-1.9c-0.1-0.2-0.2-0.4-0.3-0.6c-0.2-0.4-0.4-0.7-0.5-1.1
			c-0.1-0.3-0.3-0.7-0.4-1c0-0.1-0.1-0.3-0.2-0.4c0.3,0.2,0.7,0.3,1,0.4c0.6,0.1,1.1,0.1,1.7,0.2c1.4,0.1,2.7,0.1,4.1-0.1
			c0.6-0.1,1.3-0.1,1.9-0.3c0.7-0.1,1.3-0.4,1.9-0.6c1.2-0.4,2.3-0.8,3.4-1.4c1-0.6,2-1.3,2.7-2.2c0.2,1,0,2,0,3
			C48,63.9,48,64.6,47.8,65.2z"/>
		<path class="st3" d="M48.5,60.3c0-0.2-0.1-0.3-0.2-0.5c0,0,0,0,0,0c0,0-0.1,0-0.1-0.1c-0.1-0.1-0.2-0.1-0.4-0.1
			c-0.1,0-0.2,0.1-0.2,0.2c-0.1,0.1-0.2,0.2-0.3,0.2c0,0,0,0,0,0c0,0,0,0,0,0c0.1,0,0.1,0,0.1,0c0,0,0,0,0.1,0c0,0,0,0,0,0
			c0,0,0,0.1,0.1,0.1c-0.1,0.1-0.1,0.2-0.2,0.3c0,0.1,0,0.1-0.1,0.2c-0.1,0.2-0.3,0.4-0.5,0.5c-0.1,0.1-0.1,0.1-0.2,0.2
			c-0.4,0.4-0.9,0.7-1.3,0.9c-1.1,0.6-2.4,1.1-3.7,1.4c-1.3,0.3-2.6,0.6-4,0.7c-1.4,0.2-2.9,0.2-4.3,0c-0.7-0.1-1.4-0.2-2.1-0.4
			c-0.6-0.2-1.2-0.4-1.7-0.7c0.3-0.2,0.7-0.2,1-0.3c0.1,0,0.1-0.1,0-0.1c-0.4,0-0.9,0-1.3,0.4c0,0,0,0.1,0,0.1c0.6,0.5,1.3,0.8,2,1
			c0.5,0.5,0.9,1.1,1.4,1.6c0.5,0.5,1,1,1.6,1.4c1.2,0.8,2.6,1.3,4,1.5c2.8,0.3,5.8-1,7.3-3.4c0.4-0.6,0.7-1.3,0.9-2.1
			c0.3-0.8,0.4-1.6,0.6-2.5c0.2-0.2,0.3-0.4,0.4-0.7c0,0,0,0,0,0c0,0,0,0,0,0c0,0,0,0,0,0c0,0,0,0,0.1,0c0,0,0.1,0.1,0.1,0.1
			C48.3,60.4,48.4,60.4,48.5,60.3C48.5,60.3,48.5,60.3,48.5,60.3C48.5,60.3,48.5,60.3,48.5,60.3z"/>
		<path class="st6" d="M46.7,62.9c-0.2,0.7-0.4,1.3-0.7,1.9c-0.6,1.1-1.4,2.1-2.5,2.7c-1.3,0.7-2.7,1.1-4.2,1
			c-1.4-0.1-2.8-0.5-4.1-1.3c-0.7-0.4-1.3-0.9-1.8-1.4c-0.5-0.5-0.9-0.9-1.4-1.4c0.3,0.1,0.6,0.1,0.9,0.2c1.5,0.3,3,0.3,4.5,0.1
			c1.4-0.1,2.8-0.4,4.2-0.7c1.3-0.3,2.7-0.8,3.9-1.5c0.6-0.3,1.2-0.7,1.7-1.2C47,61.9,46.9,62.4,46.7,62.9z"/>
		<path class="st7" d="M35.3,66c1,0.4,2,0.4,3.1,0.3c0.6-0.1,1.2-0.2,1.7-0.3c0.6-0.2,1.2-0.3,1.8-0.6c1.1-0.5,2.1-1.1,2.9-2.1
			c0.1-0.2,0.3-0.4,0.4-0.7c-1.2,0.6-2.4,1.1-3.7,1.4c-1.4,0.3-2.8,0.6-4.2,0.7c-1.3,0.1-2.5,0.1-3.8,0C34,65.3,34.6,65.8,35.3,66z"
			/>
		<path class="st8" d="M44.4,66.5c-1.6-0.3-3.2-0.2-4.8,0.2c-1,0.3-2,0.7-2.9,1.3c0.8,0.3,1.6,0.5,2.5,0.5c1.5,0.1,2.9-0.3,4.2-1
			c0.5-0.3,0.9-0.6,1.3-1C44.6,66.6,44.5,66.5,44.4,66.5z"/>
		<g>
			<path class="st9" d="M47.4,52.9c-0.2-0.6-0.6-1-1-1.4c0,0,0,0,0,0c-0.2-0.3-0.5-0.5-0.9-0.6c-0.4-0.2-0.8-0.3-1.2-0.4
				c-1-0.3-2-0.4-3-0.5c-1.9-0.2-3.9-0.1-5.8,0.2c-0.4,0.1-0.8,0.1-1.2,0.2c-0.7,0.1-1.4,0.3-2,0.7c-0.8,0.4-1.4,1-1.7,1.9
				c-0.5,1.3-0.2,2.8,0.2,4c0.4,1.3,1.4,2.6,2.7,3.1c0.7,0.3,1.4,0.5,2.2,0.5c0.1,0,0.3,0,0.4,0.1c0.6,0.1,1.3,0.1,1.9,0.2
				c1.3,0.1,2.6,0,3.9-0.2c0.1,0,0.2,0,0.4-0.1c0.7-0.1,1.4-0.3,2.1-0.5c1.3-0.5,2.3-1.7,2.7-3.1C47.6,55.7,47.9,54.2,47.4,52.9z"/>
			<path class="st10" d="M47.2,55.5c-0.1,0.6-0.2,1.3-0.5,1.9C46.4,58,46,58.6,45.5,59c-0.1,0.1-0.3,0.2-0.5,0.4
				c-0.4,0.4-0.9,0.6-1.4,0.7c-0.9,0.3-1.8,0.4-2.8,0.4c-0.9,0.1-1.9,0.1-2.9,0c-0.9,0-1.7-0.2-2.6-0.3c-0.2,0-0.5-0.1-0.8-0.2
				c-0.1,0-0.2,0-0.3-0.1c-0.7-0.2-1.3-0.5-1.8-1c-0.5-0.5-0.9-1-1.2-1.7c-0.3-0.6-0.4-1.2-0.5-1.9c-0.1-0.7-0.2-1.3-0.1-2
				c0.2-1.2,1.1-2.1,2.2-2.6c0.2-0.1,0.4-0.2,0.7-0.3c0.4-0.1,0.7-0.2,1.1-0.2c1-0.2,2-0.3,3-0.3c2-0.1,4.1,0,6,0.4
				c0.5,0.1,0.9,0.3,1.4,0.4c0.1,0,0.2,0.1,0.3,0.1c1,0.5,1.8,1.4,1.9,2.5C47.4,54.2,47.4,54.8,47.2,55.5z"/>
			<path class="st10" d="M30.9,55.5c0-1,0.4-2.1,1.2-2.9c0.4-0.4,0.9-0.7,1.5-0.9c0.6-0.3,1.3-0.4,1.9-0.6c1.4-0.3,2.8-0.3,4.2-0.3
				c1.2,0,2.4,0,3.6,0.2c1.2,0.2,2.4,0.6,3.3,1.4c0.3,0.2,0.5,0.5,0.7,0.8c-0.3-1-1-1.7-1.9-2.2c-0.1,0-0.2-0.1-0.3-0.1
				c-0.5-0.1-0.9-0.3-1.4-0.4c-1.9-0.5-4-0.5-6-0.4c-1,0-2,0.2-3,0.3c-0.4,0.1-0.7,0.1-1.1,0.2c-0.2,0.1-0.4,0.2-0.7,0.3
				c-1.1,0.5-2,1.4-2.2,2.6C30.6,54.2,30.7,54.8,30.9,55.5C30.9,55.5,30.9,55.6,30.9,55.5C30.9,55.6,30.9,55.5,30.9,55.5z"/>
			<path class="st10" d="M47.3,53.5c-0.1-0.8-0.6-1.5-1.2-2c0.1,0.2,0.2,0.4,0.3,0.6c0.3,1.1-0.4,2.2-1.3,2.9c-0.9,0.7-2,1-3.1,1.2
				c-1,0.2-2.1,0.2-3.1,0.3c-0.9,0-1.7,0-2.6-0.1c-0.9-0.1-1.9-0.2-2.8-0.6c-0.8-0.3-1.5-0.7-1.9-1.5c-0.2-0.4-0.3-0.8-0.3-1.2
				c0-0.4,0.2-0.9,0.4-1.2c0.2-0.3,0.4-0.6,0.7-0.8c-0.9,0.5-1.6,1.3-1.8,2.4c-0.1,0.7,0,1.3,0.1,2c0.1,0.6,0.2,1.3,0.5,1.9
				c0.3,0.6,0.7,1.2,1.2,1.7c0.5,0.5,1.1,0.8,1.8,1c0.1,0,0.2,0,0.3,0.1c0.2,0.1,0.5,0.1,0.8,0.2c0.9,0.2,1.7,0.3,2.6,0.3
				c1,0,1.9,0,2.9,0c0.9-0.1,1.9-0.2,2.8-0.4c0.5-0.2,1-0.4,1.4-0.7c0.2-0.1,0.3-0.2,0.5-0.4c0.5-0.5,0.9-1,1.2-1.7
				c0.3-0.6,0.4-1.2,0.5-1.9C47.4,54.8,47.4,54.2,47.3,53.5z"/>
		</g>
		<g>
			<path class="st11" d="M48,44c-0.4,0.2-0.7,0.5-0.9,0.9c0.3-0.2,0.6-0.4,1-0.6c0.3-0.2,0.7-0.4,1.1-0.6c0,0,0.1,0,0.1-0.1
				c0.5-0.3,1.1-0.6,1.6-0.8c0.7-0.3,1.4-0.5,2.2-0.7c1.1-0.3,2.2-0.4,3.3-0.5c0,0,0-0.1-0.1-0.1c-0.3,0-0.7,0-1,0
				c0.3-0.4,0.5-0.7,0.7-1.2c0.2-0.5,0.3-0.9,0.4-1.4c0.2-1,0.2-2,0-3.1c-0.2-1.9-1-3.9-2.8-4.9c-0.9-0.5-2-0.7-3.1-0.5
				c-1.1,0.2-2.1,0.8-2.9,1.4c-0.4,0.3-0.7,0.7-1,1.1c-0.3,0.5-0.5,1-0.7,1.5c-0.4,1.1-0.6,2.3-0.5,3.5c0,1.3,0.3,2.5,0.8,3.7
				c0.2,0.5,0.5,1,0.8,1.4C47.3,43.5,47.6,43.9,48,44z"/>
			<path class="st7" d="M45.8,38.9c-0.1-1.1,0-2.3,0.3-3.4c0.3-1,0.6-2.1,1.4-2.9c1.4-1.5,3.7-2.4,5.6-1.6c1.8,0.7,2.7,2.6,3,4.4
				c0.2,1.1,0.2,2.1,0.1,3.2c-0.1,1-0.5,2.1-1,3c-0.9,0.1-1.9,0.3-2.8,0.5c-1.3,0.3-2.5,0.8-3.7,1.5c-0.2,0.1-0.4,0.2-0.5,0.3
				c-0.3-0.2-0.6-0.5-0.8-0.9c-0.2-0.4-0.4-0.7-0.6-1.1C46.2,41,45.9,40,45.8,38.9z"/>
			<g>
				<path class="st12" d="M55.5,38.1c0,2.4-1.9,4.3-4.3,4.3c-2.4,0-4.3-1.9-4.3-4.3c0-2.4,1.9-4.3,4.3-4.3
					C53.6,33.8,55.5,35.7,55.5,38.1z"/>
				<path d="M54.1,38.1c0,1.5-1.2,2.8-2.8,2.8c-1.5,0-2.8-1.2-2.8-2.8c0-1.5,1.2-2.8,2.8-2.8C52.8,35.3,54.1,36.6,54.1,38.1z"/>
				<circle class="st7" cx="49.4" cy="36.8" r="1.3"/>
			</g>
			<path class="st2" d="M46.7,34.4c0.8-0.7,1.8-1.2,2.8-1.6c1.1-0.4,2.3-0.5,3.4-0.4c0.8,0.1,1.5,0.2,2.3,0.5
				c-0.5-0.8-1.2-1.5-2.1-1.9c-2-0.8-4.2,0.1-5.6,1.6c-0.6,0.6-0.9,1.4-1.2,2.3C46.4,34.7,46.5,34.6,46.7,34.4z"/>
		</g>
		<g>
			<path class="st11" d="M30.8,43.2c0.3-0.4,0.6-0.9,0.8-1.4c0.5-1.1,0.8-2.4,0.8-3.7c0-1.2-0.2-2.4-0.5-3.5
				c-0.2-0.5-0.4-1.1-0.7-1.5c-0.3-0.4-0.6-0.8-1-1.1c-0.8-0.7-1.8-1.2-2.9-1.4c-1.1-0.2-2.1,0-3.1,0.5c-1.8,1-2.5,3-2.8,4.9
				c-0.1,1-0.1,2,0,3.1c0.1,0.5,0.2,1,0.4,1.4c0.2,0.4,0.4,0.8,0.7,1.2c-0.3,0-0.7,0-1,0c-0.1,0-0.1,0-0.1,0.1
				c1.1,0.1,2.2,0.2,3.3,0.5c0.7,0.2,1.5,0.4,2.2,0.7c0.6,0.2,1.1,0.5,1.6,0.8c0,0,0.1,0,0.1,0.1c0.4,0.2,0.7,0.4,1.1,0.6
				c0.3,0.2,0.6,0.4,1,0.6c-0.2-0.3-0.6-0.6-0.9-0.9C30.2,43.9,30.5,43.5,30.8,43.2z"/>
			<path class="st7" d="M31.2,42c-0.2,0.4-0.4,0.8-0.6,1.1c-0.2,0.3-0.5,0.7-0.8,0.9c-0.2-0.1-0.4-0.2-0.5-0.3
				c-1.1-0.7-2.4-1.1-3.7-1.5c-0.9-0.2-1.8-0.5-2.8-0.5c-0.6-0.9-0.9-1.9-1-3c-0.1-1.1-0.1-2.1,0.1-3.2c0.3-1.8,1.3-3.7,3-4.4
				c2-0.8,4.2,0.1,5.6,1.6c0.7,0.8,1.1,1.8,1.4,2.9c0.3,1.1,0.4,2.3,0.3,3.4C32,40,31.7,41,31.2,42z"/>
			<g>
				<path class="st12" d="M31.2,38.1c0,2.4-1.9,4.3-4.3,4.3c-2.4,0-4.3-1.9-4.3-4.3c0-2.4,1.9-4.3,4.3-4.3
					C29.3,33.8,31.2,35.7,31.2,38.1z"/>
				<path d="M29.8,38.1c0,1.5-1.2,2.8-2.8,2.8c-1.5,0-2.8-1.2-2.8-2.8c0-1.5,1.2-2.8,2.8-2.8C28.5,35.3,29.8,36.6,29.8,38.1z"/>
				<circle class="st7" cx="25.1" cy="36.8" r="1.3"/>
			</g>
			<path class="st2" d="M31.1,34.4c-0.8-0.7-1.8-1.2-2.8-1.6c-1.1-0.4-2.3-0.5-3.4-0.4c-0.8,0.1-1.5,0.2-2.3,0.5
				c0.5-0.8,1.2-1.5,2.1-1.9c2-0.8,4.2,0.1,5.6,1.6c0.6,0.6,0.9,1.4,1.2,2.3C31.5,34.7,31.3,34.6,31.1,34.4z"/>
		</g>
	</g>
</g>
</svg>
